M48
; DRILL file {KiCad (5.1.0)-1} date 14.06.2021 23:00:30
; FORMAT={-:-/ absolute / metric / decimal}
; #@! TF.CreationDate,2021-06-14T23:00:30+02:00
; #@! TF.GenerationSoftware,Kicad,Pcbnew,(5.1.0)-1
; #@! TF.FileFunction,Plated,1,2,PTH
FMAT,2
METRIC
T1C0.400
T2C1.000
T3C1.100
T4C1.400
%
G90
G05
T1
X115.4Y-48.18
X115.4Y-58.34
X115.4Y-68.5
X115.4Y-78.66
X115.4Y-88.82
X115.4Y-98.98
X115.4Y-109.14
X115.4Y-119.3
X116.8Y-48.18
X116.8Y-58.34
X116.8Y-68.5
X116.8Y-78.66
X116.8Y-88.82
X116.8Y-98.98
X116.8Y-109.14
X116.8Y-119.3
X137.5Y-81.5
X139.0Y-81.5
X140.5Y-81.5
X142.0Y-77.0
X142.0Y-78.5
X142.0Y-80.0
X142.0Y-81.5
X143.5Y-77.0
X143.5Y-78.5
X143.5Y-80.0
X143.5Y-81.5
X153.06Y-42.71
X153.06Y-52.87
X153.06Y-63.03
X153.06Y-73.19
X153.06Y-83.35
X153.06Y-93.51
X153.06Y-103.67
X153.06Y-113.83
X154.52Y-42.71
X154.52Y-52.87
X154.52Y-63.03
X154.52Y-73.19
X154.52Y-83.35
X154.52Y-93.51
X154.52Y-103.67
X154.52Y-113.83
T2
X133.725Y-94.145
X133.725Y-96.685
X133.725Y-99.225
X133.725Y-101.765
X133.725Y-104.305
X133.725Y-106.845
X133.725Y-109.385
X133.725Y-111.925
X133.725Y-114.465
X133.725Y-117.005
X136.265Y-94.145
X136.265Y-96.685
X136.265Y-99.225
X136.265Y-101.765
X136.265Y-104.305
X136.265Y-106.845
X136.265Y-109.385
X136.265Y-111.925
X136.265Y-114.465
X136.265Y-117.005
T3
X111.0Y-34.0
X111.0Y-37.5
X116.0Y-34.0
X116.0Y-37.5
X154.0Y-34.0
X154.0Y-37.5
X159.0Y-34.0
X159.0Y-37.5
X154.0Y-124.5
X154.0Y-128.0
X159.0Y-124.5
X159.0Y-128.0
X111.0Y-124.5
X111.0Y-128.0
X116.0Y-124.5
X116.0Y-128.0
T4
X91.5Y-42.9
X91.5Y-47.98
X91.5Y-53.06
X91.5Y-58.14
X91.5Y-63.22
X91.5Y-68.3
X91.5Y-73.38
X91.5Y-78.46
X91.5Y-83.54
X91.5Y-88.62
X91.5Y-93.7
X91.5Y-98.78
X91.5Y-103.86
X91.5Y-108.94
X91.5Y-114.02
X91.5Y-119.1
X178.5Y-42.9
X178.5Y-47.98
X178.5Y-53.06
X178.5Y-58.14
X178.5Y-63.22
X178.5Y-68.3
X178.5Y-73.38
X178.5Y-78.46
X178.5Y-83.54
X178.5Y-88.62
X178.5Y-93.7
X178.5Y-98.78
X178.5Y-103.86
X178.5Y-108.94
X178.5Y-114.02
X178.5Y-119.1
T0
M30
