G04 #@! TF.GenerationSoftware,KiCad,Pcbnew,7.0.1*
G04 #@! TF.CreationDate,2023-06-29T16:02:41+02:00*
G04 #@! TF.ProjectId,Magnetsteuerung_v2.1,4d61676e-6574-4737-9465-756572756e67,rev?*
G04 #@! TF.SameCoordinates,Original*
G04 #@! TF.FileFunction,Soldermask,Top*
G04 #@! TF.FilePolarity,Negative*
%FSLAX46Y46*%
G04 Gerber Fmt 4.6, Leading zero omitted, Abs format (unit mm)*
G04 Created by KiCad (PCBNEW 7.0.1) date 2023-06-29 16:02:41*
%MOMM*%
%LPD*%
G01*
G04 APERTURE LIST*
G04 Aperture macros list*
%AMRoundRect*
0 Rectangle with rounded corners*
0 $1 Rounding radius*
0 $2 $3 $4 $5 $6 $7 $8 $9 X,Y pos of 4 corners*
0 Add a 4 corners polygon primitive as box body*
4,1,4,$2,$3,$4,$5,$6,$7,$8,$9,$2,$3,0*
0 Add four circle primitives for the rounded corners*
1,1,$1+$1,$2,$3*
1,1,$1+$1,$4,$5*
1,1,$1+$1,$6,$7*
1,1,$1+$1,$8,$9*
0 Add four rect primitives between the rounded corners*
20,1,$1+$1,$2,$3,$4,$5,0*
20,1,$1+$1,$4,$5,$6,$7,0*
20,1,$1+$1,$6,$7,$8,$9,0*
20,1,$1+$1,$8,$9,$2,$3,0*%
G04 Aperture macros list end*
%ADD10RoundRect,0.301000X1.500000X1.000000X-1.500000X1.000000X-1.500000X-1.000000X1.500000X-1.000000X0*%
%ADD11RoundRect,0.269750X-0.218750X-0.256250X0.218750X-0.256250X0.218750X0.256250X-0.218750X0.256250X0*%
%ADD12RoundRect,0.051000X1.100000X0.600000X-1.100000X0.600000X-1.100000X-0.600000X1.100000X-0.600000X0*%
%ADD13RoundRect,0.051000X3.200000X2.900000X-3.200000X2.900000X-3.200000X-2.900000X3.200000X-2.900000X0*%
%ADD14RoundRect,0.269750X0.218750X0.256250X-0.218750X0.256250X-0.218750X-0.256250X0.218750X-0.256250X0*%
%ADD15RoundRect,0.051000X-1.050000X0.700000X-1.050000X-0.700000X1.050000X-0.700000X1.050000X0.700000X0*%
%ADD16RoundRect,0.301000X-1.000000X1.950000X-1.000000X-1.950000X1.000000X-1.950000X1.000000X1.950000X0*%
%ADD17RoundRect,0.051000X-0.600000X0.450000X-0.600000X-0.450000X0.600000X-0.450000X0.600000X0.450000X0*%
%ADD18RoundRect,0.301000X0.625000X-0.375000X0.625000X0.375000X-0.625000X0.375000X-0.625000X-0.375000X0*%
%ADD19RoundRect,0.051000X-1.450000X-2.700000X1.450000X-2.700000X1.450000X2.700000X-1.450000X2.700000X0*%
%ADD20RoundRect,0.051000X-1.100000X-0.600000X1.100000X-0.600000X1.100000X0.600000X-1.100000X0.600000X0*%
%ADD21RoundRect,0.051000X-3.200000X-2.900000X3.200000X-2.900000X3.200000X2.900000X-3.200000X2.900000X0*%
%ADD22C,1.002000*%
%ADD23C,8.702000*%
%ADD24RoundRect,0.051000X-0.850000X-0.850000X0.850000X-0.850000X0.850000X0.850000X-0.850000X0.850000X0*%
%ADD25O,1.802000X1.802000*%
%ADD26RoundRect,0.051000X0.550000X-2.300000X0.550000X2.300000X-0.550000X2.300000X-0.550000X-2.300000X0*%
%ADD27RoundRect,0.051000X5.400000X-4.700000X5.400000X4.700000X-5.400000X4.700000X-5.400000X-4.700000X0*%
%ADD28RoundRect,0.051000X-0.325000X0.530000X-0.325000X-0.530000X0.325000X-0.530000X0.325000X0.530000X0*%
%ADD29RoundRect,0.051000X0.325000X-0.530000X0.325000X0.530000X-0.325000X0.530000X-0.325000X-0.530000X0*%
%ADD30RoundRect,0.269750X0.256250X-0.218750X0.256250X0.218750X-0.256250X0.218750X-0.256250X-0.218750X0*%
%ADD31RoundRect,0.269750X-0.256250X0.218750X-0.256250X-0.218750X0.256250X-0.218750X0.256250X0.218750X0*%
%ADD32RoundRect,0.251000X-0.200000X-0.275000X0.200000X-0.275000X0.200000X0.275000X-0.200000X0.275000X0*%
%ADD33RoundRect,0.301000X-0.375000X-1.075000X0.375000X-1.075000X0.375000X1.075000X-0.375000X1.075000X0*%
%ADD34RoundRect,0.301000X0.375000X1.075000X-0.375000X1.075000X-0.375000X-1.075000X0.375000X-1.075000X0*%
%ADD35RoundRect,0.300999X1.550001X-0.790001X1.550001X0.790001X-1.550001X0.790001X-1.550001X-0.790001X0*%
%ADD36O,3.702000X2.182000*%
%ADD37RoundRect,0.300999X-1.550001X0.790001X-1.550001X-0.790001X1.550001X-0.790001X1.550001X0.790001X0*%
G04 APERTURE END LIST*
D10*
X138450000Y-78500000D03*
X131950000Y-78500000D03*
D11*
X111742500Y-81850000D03*
X113317500Y-81850000D03*
X111742500Y-51370000D03*
X113317500Y-51370000D03*
X111742500Y-71690000D03*
X113317500Y-71690000D03*
X111742500Y-41210000D03*
X113317500Y-41210000D03*
X111742500Y-92010000D03*
X113317500Y-92010000D03*
X111742500Y-61530000D03*
X113317500Y-61530000D03*
D12*
X109700000Y-88360000D03*
D13*
X103400000Y-86080000D03*
D12*
X109700000Y-83800000D03*
X109700000Y-57880000D03*
D13*
X103400000Y-55600000D03*
D12*
X109700000Y-53320000D03*
X109700000Y-108680000D03*
D13*
X103400000Y-106400000D03*
D12*
X109700000Y-104120000D03*
X109700000Y-78200000D03*
D13*
X103400000Y-75920000D03*
D12*
X109700000Y-73640000D03*
X109700000Y-47720000D03*
D13*
X103400000Y-45440000D03*
D12*
X109700000Y-43160000D03*
X109700000Y-98520000D03*
D13*
X103400000Y-96240000D03*
D12*
X109700000Y-93960000D03*
X109700000Y-68040000D03*
D13*
X103400000Y-65760000D03*
D12*
X109700000Y-63480000D03*
D11*
X114702500Y-83310000D03*
X116277500Y-83310000D03*
X111742500Y-83310000D03*
X113317500Y-83310000D03*
X114702500Y-52830000D03*
X116277500Y-52830000D03*
X111742500Y-52830000D03*
X113317500Y-52830000D03*
D14*
X113317500Y-88850000D03*
X111742500Y-88850000D03*
X113317500Y-58370000D03*
X111742500Y-58370000D03*
D11*
X114702500Y-103630000D03*
X116277500Y-103630000D03*
X111742500Y-103630000D03*
X113317500Y-103630000D03*
X114702500Y-73150000D03*
X116277500Y-73150000D03*
X111742500Y-73150000D03*
X113317500Y-73150000D03*
X114702500Y-42670000D03*
X116277500Y-42670000D03*
X111742500Y-42670000D03*
X113317500Y-42670000D03*
D14*
X113317500Y-109170000D03*
X111742500Y-109170000D03*
X113317500Y-78690000D03*
X111742500Y-78690000D03*
D11*
X114702500Y-93470000D03*
X116277500Y-93470000D03*
X111742500Y-93470000D03*
X113317500Y-93470000D03*
X114702500Y-62990000D03*
X116277500Y-62990000D03*
X111742500Y-62990000D03*
X113317500Y-62990000D03*
D14*
X113317500Y-99010000D03*
X111742500Y-99010000D03*
X113317500Y-68530000D03*
X111742500Y-68530000D03*
D15*
X97500000Y-104200000D03*
X97500000Y-108600000D03*
D16*
X134900000Y-33400000D03*
X134900000Y-41800000D03*
D17*
X126200000Y-66350000D03*
X126200000Y-69650000D03*
D18*
X127830000Y-58160000D03*
X127830000Y-55360000D03*
D19*
X130350000Y-67500000D03*
X140050000Y-67500000D03*
D15*
X97500000Y-83880000D03*
X97500000Y-88280000D03*
X97500000Y-53400000D03*
X97500000Y-57800000D03*
X97500000Y-73720000D03*
X97500000Y-78120000D03*
X97500000Y-94040000D03*
X97500000Y-98440000D03*
X97500000Y-63560000D03*
X97500000Y-67960000D03*
X172500000Y-43240000D03*
X172500000Y-47640000D03*
D14*
X158157500Y-120790000D03*
X156582500Y-120790000D03*
D20*
X160200000Y-114280000D03*
D21*
X166500000Y-116560000D03*
D20*
X160200000Y-118840000D03*
D14*
X155197500Y-119330000D03*
X153622500Y-119330000D03*
X158157500Y-119330000D03*
X156582500Y-119330000D03*
D11*
X156582500Y-113790000D03*
X158157500Y-113790000D03*
D15*
X172500000Y-73720000D03*
X172500000Y-78120000D03*
X172500000Y-104200000D03*
X172500000Y-108600000D03*
X172500000Y-83880000D03*
X172500000Y-88280000D03*
X172500000Y-114360000D03*
X172500000Y-118760000D03*
X172500000Y-94040000D03*
X172500000Y-98440000D03*
X172500000Y-53400000D03*
X172500000Y-57800000D03*
X172500000Y-63560000D03*
X172500000Y-67960000D03*
D22*
X90275000Y-35500000D03*
X91219581Y-33219581D03*
X91219581Y-37780419D03*
X93500000Y-32275000D03*
D23*
X93500000Y-35500000D03*
D22*
X93500000Y-38725000D03*
X95780419Y-33219581D03*
X95780419Y-37780419D03*
X96725000Y-35500000D03*
X173275000Y-35500000D03*
X174219581Y-33219581D03*
X174219581Y-37780419D03*
X176500000Y-32275000D03*
D23*
X176500000Y-35500000D03*
D22*
X176500000Y-38725000D03*
X178780419Y-33219581D03*
X178780419Y-37780419D03*
X179725000Y-35500000D03*
X173275000Y-126500000D03*
X174219581Y-124219581D03*
X174219581Y-128780419D03*
X176500000Y-123275000D03*
D23*
X176500000Y-126500000D03*
D22*
X176500000Y-129725000D03*
X178780419Y-124219581D03*
X178780419Y-128780419D03*
X179725000Y-126500000D03*
D24*
X133725000Y-94145000D03*
D25*
X136265000Y-94145000D03*
X133725000Y-96685000D03*
X136265000Y-96685000D03*
X133725000Y-99225000D03*
X136265000Y-99225000D03*
X133725000Y-101765000D03*
X136265000Y-101765000D03*
X133725000Y-104305000D03*
X136265000Y-104305000D03*
X133725000Y-106845000D03*
X136265000Y-106845000D03*
X133725000Y-109385000D03*
X136265000Y-109385000D03*
X133725000Y-111925000D03*
X136265000Y-111925000D03*
X133725000Y-114465000D03*
X136265000Y-114465000D03*
X133725000Y-117005000D03*
X136265000Y-117005000D03*
D26*
X131500000Y-58318400D03*
X133200000Y-58318400D03*
X134900000Y-58318400D03*
D27*
X134900000Y-49168400D03*
D26*
X136600000Y-58318400D03*
X138300000Y-58318400D03*
D28*
X113800000Y-115600000D03*
X112850000Y-115600000D03*
X111900000Y-115600000D03*
X111900000Y-117800000D03*
X113800000Y-117800000D03*
X113800000Y-85120000D03*
X112850000Y-85120000D03*
X111900000Y-85120000D03*
X111900000Y-87320000D03*
X113800000Y-87320000D03*
X113800000Y-54640000D03*
X112850000Y-54640000D03*
X111900000Y-54640000D03*
X111900000Y-56840000D03*
X113800000Y-56840000D03*
X113800000Y-74960000D03*
X112850000Y-74960000D03*
X111900000Y-74960000D03*
X111900000Y-77160000D03*
X113800000Y-77160000D03*
X113800000Y-105440000D03*
X112850000Y-105440000D03*
X111900000Y-105440000D03*
X111900000Y-107640000D03*
X113800000Y-107640000D03*
X113800000Y-44480000D03*
X112850000Y-44480000D03*
X111900000Y-44480000D03*
X111900000Y-46680000D03*
X113800000Y-46680000D03*
X113800000Y-95280000D03*
X112850000Y-95280000D03*
X111900000Y-95280000D03*
X111900000Y-97480000D03*
X113800000Y-97480000D03*
D29*
X156100000Y-117520000D03*
X157050000Y-117520000D03*
X158000000Y-117520000D03*
X158000000Y-115320000D03*
X156100000Y-115320000D03*
D28*
X113800000Y-64800000D03*
X112850000Y-64800000D03*
X111900000Y-64800000D03*
X111900000Y-67000000D03*
X113800000Y-67000000D03*
D30*
X116840000Y-117907500D03*
X116840000Y-116332500D03*
X115380000Y-117907500D03*
X115380000Y-116332500D03*
X116840000Y-87427500D03*
X116840000Y-85852500D03*
X115380000Y-87427500D03*
X115380000Y-85852500D03*
X116840000Y-56947500D03*
X116840000Y-55372500D03*
X115380000Y-56947500D03*
X115380000Y-55372500D03*
X116840000Y-107747500D03*
X116840000Y-106172500D03*
X115380000Y-107747500D03*
X115380000Y-106172500D03*
X116840000Y-77267500D03*
X116840000Y-75692500D03*
X115380000Y-77267500D03*
X115380000Y-75692500D03*
X116840000Y-46787500D03*
X116840000Y-45212500D03*
X115380000Y-46787500D03*
X115380000Y-45212500D03*
X116840000Y-97587500D03*
X116840000Y-96012500D03*
X115380000Y-97587500D03*
X115380000Y-96012500D03*
X116840000Y-67107500D03*
X116840000Y-65532500D03*
X115380000Y-67107500D03*
X115380000Y-65532500D03*
D31*
X153060000Y-115212500D03*
X153060000Y-116787500D03*
X154520000Y-115212500D03*
X154520000Y-116787500D03*
D32*
X114665000Y-81850000D03*
X116315000Y-81850000D03*
X114665000Y-51370000D03*
X116315000Y-51370000D03*
X114665000Y-71690000D03*
X116315000Y-71690000D03*
X114665000Y-41210000D03*
X116315000Y-41210000D03*
X114665000Y-92010000D03*
X116315000Y-92010000D03*
X114665000Y-61530000D03*
X116315000Y-61530000D03*
D14*
X155197500Y-120790000D03*
X153622500Y-120790000D03*
D15*
X97500000Y-43240000D03*
X97500000Y-47640000D03*
D12*
X109700000Y-118840000D03*
D13*
X103400000Y-116560000D03*
D12*
X109700000Y-114280000D03*
D11*
X114702500Y-113790000D03*
X116277500Y-113790000D03*
X111742500Y-113790000D03*
X113317500Y-113790000D03*
D15*
X97500000Y-114360000D03*
X97500000Y-118760000D03*
D14*
X113317500Y-119330000D03*
X111742500Y-119330000D03*
D11*
X111742500Y-102170000D03*
X113317500Y-102170000D03*
D22*
X90275000Y-126500000D03*
X91219581Y-124219581D03*
X91219581Y-128780419D03*
X93500000Y-123275000D03*
D23*
X93500000Y-126500000D03*
D22*
X93500000Y-129725000D03*
X95780419Y-124219581D03*
X95780419Y-128780419D03*
X96725000Y-126500000D03*
D32*
X114665000Y-102170000D03*
X116315000Y-102170000D03*
D14*
X113317500Y-48210000D03*
X111742500Y-48210000D03*
D33*
X168200000Y-40360000D03*
X171000000Y-40360000D03*
X169700000Y-70840000D03*
X172500000Y-70840000D03*
X169700000Y-101320000D03*
X172500000Y-101320000D03*
X169700000Y-50520000D03*
X172500000Y-50520000D03*
X169700000Y-81000000D03*
X172500000Y-81000000D03*
X169700000Y-111480000D03*
X172500000Y-111480000D03*
X169700000Y-60680000D03*
X172500000Y-60680000D03*
X169700000Y-91160000D03*
X172500000Y-91160000D03*
D34*
X100300000Y-111480000D03*
X97500000Y-111480000D03*
X100300000Y-81000000D03*
X97500000Y-81000000D03*
X100300000Y-50520000D03*
X97500000Y-50520000D03*
X100300000Y-101320000D03*
X97500000Y-101320000D03*
X100300000Y-70840000D03*
X97500000Y-70840000D03*
X101800000Y-40360000D03*
X99000000Y-40360000D03*
X100300000Y-91160000D03*
X97500000Y-91160000D03*
X100300000Y-60680000D03*
X97500000Y-60680000D03*
D11*
X111742500Y-112330000D03*
X113317500Y-112330000D03*
D20*
X160200000Y-73640000D03*
D21*
X166500000Y-75920000D03*
D20*
X160200000Y-78200000D03*
X160200000Y-53320000D03*
D21*
X166500000Y-55600000D03*
D20*
X160200000Y-57880000D03*
D14*
X155197500Y-48210000D03*
X153622500Y-48210000D03*
D20*
X160200000Y-104120000D03*
D21*
X166500000Y-106400000D03*
D20*
X160200000Y-108680000D03*
D14*
X158157500Y-48210000D03*
X156582500Y-48210000D03*
X158157500Y-78690000D03*
X156582500Y-78690000D03*
X158157500Y-100470000D03*
X156582500Y-100470000D03*
D20*
X160200000Y-93960000D03*
D21*
X166500000Y-96240000D03*
D20*
X160200000Y-98520000D03*
D14*
X155197500Y-78690000D03*
X153622500Y-78690000D03*
D20*
X160200000Y-83800000D03*
D21*
X166500000Y-86080000D03*
D20*
X160200000Y-88360000D03*
D14*
X158157500Y-90310000D03*
X156582500Y-90310000D03*
X158157500Y-69990000D03*
X156582500Y-69990000D03*
D20*
X160200000Y-63480000D03*
D21*
X166500000Y-65760000D03*
D20*
X160200000Y-68040000D03*
D11*
X156582500Y-42670000D03*
X158157500Y-42670000D03*
D14*
X158157500Y-109170000D03*
X156582500Y-109170000D03*
X155197500Y-109170000D03*
X153622500Y-109170000D03*
D11*
X156582500Y-73150000D03*
X158157500Y-73150000D03*
X156582500Y-103630000D03*
X158157500Y-103630000D03*
D14*
X158157500Y-88850000D03*
X156582500Y-88850000D03*
X155197500Y-58370000D03*
X153622500Y-58370000D03*
X158157500Y-58370000D03*
X156582500Y-58370000D03*
X155197500Y-99010000D03*
X153622500Y-99010000D03*
X155197500Y-88850000D03*
X153622500Y-88850000D03*
D11*
X156582500Y-83310000D03*
X158157500Y-83310000D03*
X156582500Y-62990000D03*
X158157500Y-62990000D03*
X156582500Y-52830000D03*
X158157500Y-52830000D03*
X156582500Y-93470000D03*
X158157500Y-93470000D03*
D14*
X155197500Y-68530000D03*
X153622500Y-68530000D03*
X158157500Y-68530000D03*
X156582500Y-68530000D03*
X158157500Y-99010000D03*
X156582500Y-99010000D03*
D29*
X156100000Y-46400000D03*
X157050000Y-46400000D03*
X158000000Y-46400000D03*
X158000000Y-44200000D03*
X156100000Y-44200000D03*
X156100000Y-56560000D03*
X157050000Y-56560000D03*
X158000000Y-56560000D03*
X158000000Y-54360000D03*
X156100000Y-54360000D03*
X156100000Y-87040000D03*
X157050000Y-87040000D03*
X158000000Y-87040000D03*
X158000000Y-84840000D03*
X156100000Y-84840000D03*
X156100000Y-66720000D03*
X157050000Y-66720000D03*
X158000000Y-66720000D03*
X158000000Y-64520000D03*
X156100000Y-64520000D03*
X156100000Y-97200000D03*
X157050000Y-97200000D03*
X158000000Y-97200000D03*
X158000000Y-95000000D03*
X156100000Y-95000000D03*
X156100000Y-76880000D03*
X157050000Y-76880000D03*
X158000000Y-76880000D03*
X158000000Y-74680000D03*
X156100000Y-74680000D03*
D20*
X160200000Y-43160000D03*
D21*
X166500000Y-45440000D03*
D20*
X160200000Y-47720000D03*
D29*
X156100000Y-107360000D03*
X157050000Y-107360000D03*
X158000000Y-107360000D03*
X158000000Y-105160000D03*
X156100000Y-105160000D03*
D31*
X154520000Y-74572500D03*
X154520000Y-76147500D03*
X154520000Y-44092500D03*
X154520000Y-45667500D03*
X153060000Y-44092500D03*
X153060000Y-45667500D03*
X153060000Y-74572500D03*
X153060000Y-76147500D03*
X153060000Y-94892500D03*
X153060000Y-96467500D03*
X153060000Y-105052500D03*
X153060000Y-106627500D03*
X154520000Y-105052500D03*
X154520000Y-106627500D03*
X154520000Y-54252500D03*
X154520000Y-55827500D03*
X153060000Y-54252500D03*
X153060000Y-55827500D03*
X154520000Y-94892500D03*
X154520000Y-96467500D03*
X153060000Y-84732500D03*
X153060000Y-86307500D03*
X154520000Y-64412500D03*
X154520000Y-65987500D03*
X154520000Y-84732500D03*
X154520000Y-86307500D03*
X153060000Y-64412500D03*
X153060000Y-65987500D03*
D14*
X155197500Y-49670000D03*
X153622500Y-49670000D03*
X155197500Y-80150000D03*
X153622500Y-80150000D03*
X155197500Y-110630000D03*
X153622500Y-110630000D03*
X155197500Y-59830000D03*
X153622500Y-59830000D03*
X155197500Y-90310000D03*
X153622500Y-90310000D03*
X155197500Y-100470000D03*
X153622500Y-100470000D03*
X155197500Y-69990000D03*
X153622500Y-69990000D03*
X158157500Y-80150000D03*
X156582500Y-80150000D03*
X158157500Y-59830000D03*
X156582500Y-59830000D03*
X158157500Y-110630000D03*
X156582500Y-110630000D03*
X158157500Y-49670000D03*
X156582500Y-49670000D03*
D32*
X114665000Y-112330000D03*
X116315000Y-112330000D03*
D16*
X145900000Y-33400000D03*
X145900000Y-41800000D03*
X123900000Y-33400000D03*
X123900000Y-41800000D03*
D18*
X125510000Y-58160000D03*
X125510000Y-55360000D03*
D35*
X178100000Y-119100000D03*
D36*
X178100000Y-114020000D03*
X178100000Y-108940000D03*
X178100000Y-103860000D03*
X178100000Y-98780000D03*
X178100000Y-93700000D03*
X178100000Y-88620000D03*
X178100000Y-83540000D03*
X178100000Y-78460000D03*
X178100000Y-73380000D03*
X178100000Y-68300000D03*
X178100000Y-63220000D03*
X178100000Y-58140000D03*
X178100000Y-53060000D03*
X178100000Y-47980000D03*
X178100000Y-42900000D03*
D37*
X91900000Y-42900000D03*
D36*
X91900000Y-47980000D03*
X91900000Y-53060000D03*
X91900000Y-58140000D03*
X91900000Y-63220000D03*
X91900000Y-68300000D03*
X91900000Y-73380000D03*
X91900000Y-78460000D03*
X91900000Y-83540000D03*
X91900000Y-88620000D03*
X91900000Y-93700000D03*
X91900000Y-98780000D03*
X91900000Y-103860000D03*
X91900000Y-108940000D03*
X91900000Y-114020000D03*
X91900000Y-119100000D03*
G36*
X179641844Y-120189905D02*
G01*
X179642001Y-120191803D01*
X179640499Y-120192972D01*
X179640493Y-120192973D01*
X179640164Y-120193000D01*
X176559836Y-120193000D01*
X176558422Y-120192414D01*
X176558421Y-120192413D01*
X176557835Y-120190999D01*
X176558421Y-120189585D01*
X176559835Y-120188999D01*
X179640170Y-120188999D01*
X179641844Y-120189905D01*
G37*
G36*
X157628161Y-116975317D02*
G01*
X157628619Y-116977026D01*
X157626000Y-116990199D01*
X157626000Y-118049801D01*
X157628619Y-118062970D01*
X157628161Y-118064679D01*
X157626526Y-118065356D01*
X157624994Y-118064471D01*
X157590744Y-118013213D01*
X157459256Y-118013213D01*
X157425005Y-118064470D01*
X157423473Y-118065355D01*
X157421838Y-118064678D01*
X157421380Y-118062969D01*
X157424000Y-118049801D01*
X157424000Y-116990199D01*
X157421380Y-116977028D01*
X157421838Y-116975319D01*
X157423473Y-116974642D01*
X157425005Y-116975527D01*
X157459257Y-117026786D01*
X157590743Y-117026786D01*
X157624994Y-116975525D01*
X157626526Y-116974640D01*
X157628161Y-116975317D01*
G37*
G36*
X156678161Y-116975317D02*
G01*
X156678619Y-116977026D01*
X156676000Y-116990199D01*
X156676000Y-118049801D01*
X156678619Y-118062970D01*
X156678161Y-118064679D01*
X156676526Y-118065356D01*
X156674994Y-118064471D01*
X156640744Y-118013213D01*
X156509256Y-118013213D01*
X156475005Y-118064470D01*
X156473473Y-118065355D01*
X156471838Y-118064678D01*
X156471380Y-118062969D01*
X156474000Y-118049801D01*
X156474000Y-116990199D01*
X156471380Y-116977028D01*
X156471838Y-116975319D01*
X156473473Y-116974642D01*
X156475005Y-116975527D01*
X156509257Y-117026786D01*
X156640743Y-117026786D01*
X156674994Y-116975525D01*
X156676526Y-116974640D01*
X156678161Y-116975317D01*
G37*
G36*
X113428161Y-115055317D02*
G01*
X113428619Y-115057026D01*
X113426000Y-115070199D01*
X113426000Y-116129801D01*
X113428619Y-116142970D01*
X113428161Y-116144679D01*
X113426526Y-116145356D01*
X113424994Y-116144471D01*
X113390744Y-116093213D01*
X113259256Y-116093213D01*
X113225005Y-116144470D01*
X113223473Y-116145355D01*
X113221838Y-116144678D01*
X113221380Y-116142969D01*
X113224000Y-116129801D01*
X113224000Y-115070199D01*
X113221380Y-115057028D01*
X113221838Y-115055319D01*
X113223473Y-115054642D01*
X113225005Y-115055527D01*
X113259257Y-115106786D01*
X113390743Y-115106786D01*
X113424994Y-115055525D01*
X113426526Y-115054640D01*
X113428161Y-115055317D01*
G37*
G36*
X112478161Y-115055317D02*
G01*
X112478619Y-115057026D01*
X112476000Y-115070199D01*
X112476000Y-116129801D01*
X112478619Y-116142970D01*
X112478161Y-116144679D01*
X112476526Y-116145356D01*
X112474994Y-116144471D01*
X112440744Y-116093213D01*
X112309256Y-116093213D01*
X112275005Y-116144470D01*
X112273473Y-116145355D01*
X112271838Y-116144678D01*
X112271380Y-116142969D01*
X112274000Y-116129801D01*
X112274000Y-115070199D01*
X112271380Y-115057028D01*
X112271838Y-115055319D01*
X112273473Y-115054642D01*
X112275005Y-115055527D01*
X112309257Y-115106786D01*
X112440743Y-115106786D01*
X112474994Y-115055525D01*
X112476526Y-115054640D01*
X112478161Y-115055317D01*
G37*
G36*
X157628161Y-106815317D02*
G01*
X157628619Y-106817026D01*
X157626000Y-106830199D01*
X157626000Y-107889801D01*
X157628619Y-107902970D01*
X157628161Y-107904679D01*
X157626526Y-107905356D01*
X157624994Y-107904471D01*
X157590744Y-107853213D01*
X157459256Y-107853213D01*
X157425005Y-107904470D01*
X157423473Y-107905355D01*
X157421838Y-107904678D01*
X157421380Y-107902969D01*
X157424000Y-107889801D01*
X157424000Y-106830199D01*
X157421380Y-106817028D01*
X157421838Y-106815319D01*
X157423473Y-106814642D01*
X157425005Y-106815527D01*
X157459257Y-106866786D01*
X157590743Y-106866786D01*
X157624994Y-106815525D01*
X157626526Y-106814640D01*
X157628161Y-106815317D01*
G37*
G36*
X156678161Y-106815317D02*
G01*
X156678619Y-106817026D01*
X156676000Y-106830199D01*
X156676000Y-107889801D01*
X156678619Y-107902970D01*
X156678161Y-107904679D01*
X156676526Y-107905356D01*
X156674994Y-107904471D01*
X156640744Y-107853213D01*
X156509256Y-107853213D01*
X156475005Y-107904470D01*
X156473473Y-107905355D01*
X156471838Y-107904678D01*
X156471380Y-107902969D01*
X156474000Y-107889801D01*
X156474000Y-106830199D01*
X156471380Y-106817028D01*
X156471838Y-106815319D01*
X156473473Y-106814642D01*
X156475005Y-106815527D01*
X156509257Y-106866786D01*
X156640743Y-106866786D01*
X156674994Y-106815525D01*
X156676526Y-106814640D01*
X156678161Y-106815317D01*
G37*
G36*
X113428161Y-104895317D02*
G01*
X113428619Y-104897026D01*
X113426000Y-104910199D01*
X113426000Y-105969801D01*
X113428619Y-105982970D01*
X113428161Y-105984679D01*
X113426526Y-105985356D01*
X113424994Y-105984471D01*
X113390744Y-105933213D01*
X113259256Y-105933213D01*
X113225005Y-105984470D01*
X113223473Y-105985355D01*
X113221838Y-105984678D01*
X113221380Y-105982969D01*
X113224000Y-105969801D01*
X113224000Y-104910199D01*
X113221380Y-104897028D01*
X113221838Y-104895319D01*
X113223473Y-104894642D01*
X113225005Y-104895527D01*
X113259257Y-104946786D01*
X113390743Y-104946786D01*
X113424994Y-104895525D01*
X113426526Y-104894640D01*
X113428161Y-104895317D01*
G37*
G36*
X112478161Y-104895317D02*
G01*
X112478619Y-104897026D01*
X112476000Y-104910199D01*
X112476000Y-105969801D01*
X112478619Y-105982970D01*
X112478161Y-105984679D01*
X112476526Y-105985356D01*
X112474994Y-105984471D01*
X112440744Y-105933213D01*
X112309256Y-105933213D01*
X112275005Y-105984470D01*
X112273473Y-105985355D01*
X112271838Y-105984678D01*
X112271380Y-105982969D01*
X112274000Y-105969801D01*
X112274000Y-104910199D01*
X112271380Y-104897028D01*
X112271838Y-104895319D01*
X112273473Y-104894642D01*
X112275005Y-104895527D01*
X112309257Y-104946786D01*
X112440743Y-104946786D01*
X112474994Y-104895525D01*
X112476526Y-104894640D01*
X112478161Y-104895317D01*
G37*
G36*
X157628161Y-96655317D02*
G01*
X157628619Y-96657026D01*
X157626000Y-96670199D01*
X157626000Y-97729801D01*
X157628619Y-97742970D01*
X157628161Y-97744679D01*
X157626526Y-97745356D01*
X157624994Y-97744471D01*
X157590744Y-97693213D01*
X157459256Y-97693213D01*
X157425005Y-97744470D01*
X157423473Y-97745355D01*
X157421838Y-97744678D01*
X157421380Y-97742969D01*
X157424000Y-97729801D01*
X157424000Y-96670199D01*
X157421380Y-96657028D01*
X157421838Y-96655319D01*
X157423473Y-96654642D01*
X157425005Y-96655527D01*
X157459257Y-96706786D01*
X157590743Y-96706786D01*
X157624994Y-96655525D01*
X157626526Y-96654640D01*
X157628161Y-96655317D01*
G37*
G36*
X156678161Y-96655317D02*
G01*
X156678619Y-96657026D01*
X156676000Y-96670199D01*
X156676000Y-97729801D01*
X156678619Y-97742970D01*
X156678161Y-97744679D01*
X156676526Y-97745356D01*
X156674994Y-97744471D01*
X156640744Y-97693213D01*
X156509256Y-97693213D01*
X156475005Y-97744470D01*
X156473473Y-97745355D01*
X156471838Y-97744678D01*
X156471380Y-97742969D01*
X156474000Y-97729801D01*
X156474000Y-96670199D01*
X156471380Y-96657028D01*
X156471838Y-96655319D01*
X156473473Y-96654642D01*
X156475005Y-96655527D01*
X156509257Y-96706786D01*
X156640743Y-96706786D01*
X156674994Y-96655525D01*
X156676526Y-96654640D01*
X156678161Y-96655317D01*
G37*
G36*
X113428161Y-94735317D02*
G01*
X113428619Y-94737026D01*
X113426000Y-94750199D01*
X113426000Y-95809801D01*
X113428619Y-95822970D01*
X113428161Y-95824679D01*
X113426526Y-95825356D01*
X113424994Y-95824471D01*
X113390744Y-95773213D01*
X113259256Y-95773213D01*
X113225005Y-95824470D01*
X113223473Y-95825355D01*
X113221838Y-95824678D01*
X113221380Y-95822969D01*
X113224000Y-95809801D01*
X113224000Y-94750199D01*
X113221380Y-94737028D01*
X113221838Y-94735319D01*
X113223473Y-94734642D01*
X113225005Y-94735527D01*
X113259257Y-94786786D01*
X113390743Y-94786786D01*
X113424994Y-94735525D01*
X113426526Y-94734640D01*
X113428161Y-94735317D01*
G37*
G36*
X112478161Y-94735317D02*
G01*
X112478619Y-94737026D01*
X112476000Y-94750199D01*
X112476000Y-95809801D01*
X112478619Y-95822970D01*
X112478161Y-95824679D01*
X112476526Y-95825356D01*
X112474994Y-95824471D01*
X112440744Y-95773213D01*
X112309256Y-95773213D01*
X112275005Y-95824470D01*
X112273473Y-95825355D01*
X112271838Y-95824678D01*
X112271380Y-95822969D01*
X112274000Y-95809801D01*
X112274000Y-94750199D01*
X112271380Y-94737028D01*
X112271838Y-94735319D01*
X112273473Y-94734642D01*
X112275005Y-94735527D01*
X112309257Y-94786786D01*
X112440743Y-94786786D01*
X112474994Y-94735525D01*
X112476526Y-94734640D01*
X112478161Y-94735317D01*
G37*
G36*
X157628161Y-86495317D02*
G01*
X157628619Y-86497026D01*
X157626000Y-86510199D01*
X157626000Y-87569801D01*
X157628619Y-87582970D01*
X157628161Y-87584679D01*
X157626526Y-87585356D01*
X157624994Y-87584471D01*
X157590744Y-87533213D01*
X157459256Y-87533213D01*
X157425005Y-87584470D01*
X157423473Y-87585355D01*
X157421838Y-87584678D01*
X157421380Y-87582969D01*
X157424000Y-87569801D01*
X157424000Y-86510199D01*
X157421380Y-86497028D01*
X157421838Y-86495319D01*
X157423473Y-86494642D01*
X157425005Y-86495527D01*
X157459257Y-86546786D01*
X157590743Y-86546786D01*
X157624994Y-86495525D01*
X157626526Y-86494640D01*
X157628161Y-86495317D01*
G37*
G36*
X156678161Y-86495317D02*
G01*
X156678619Y-86497026D01*
X156676000Y-86510199D01*
X156676000Y-87569801D01*
X156678619Y-87582970D01*
X156678161Y-87584679D01*
X156676526Y-87585356D01*
X156674994Y-87584471D01*
X156640744Y-87533213D01*
X156509256Y-87533213D01*
X156475005Y-87584470D01*
X156473473Y-87585355D01*
X156471838Y-87584678D01*
X156471380Y-87582969D01*
X156474000Y-87569801D01*
X156474000Y-86510199D01*
X156471380Y-86497028D01*
X156471838Y-86495319D01*
X156473473Y-86494642D01*
X156475005Y-86495527D01*
X156509257Y-86546786D01*
X156640743Y-86546786D01*
X156674994Y-86495525D01*
X156676526Y-86494640D01*
X156678161Y-86495317D01*
G37*
G36*
X113428161Y-84575317D02*
G01*
X113428619Y-84577026D01*
X113426000Y-84590199D01*
X113426000Y-85649801D01*
X113428619Y-85662970D01*
X113428161Y-85664679D01*
X113426526Y-85665356D01*
X113424994Y-85664471D01*
X113390744Y-85613213D01*
X113259256Y-85613213D01*
X113225005Y-85664470D01*
X113223473Y-85665355D01*
X113221838Y-85664678D01*
X113221380Y-85662969D01*
X113224000Y-85649801D01*
X113224000Y-84590199D01*
X113221380Y-84577028D01*
X113221838Y-84575319D01*
X113223473Y-84574642D01*
X113225005Y-84575527D01*
X113259257Y-84626786D01*
X113390743Y-84626786D01*
X113424994Y-84575525D01*
X113426526Y-84574640D01*
X113428161Y-84575317D01*
G37*
G36*
X112478161Y-84575317D02*
G01*
X112478619Y-84577026D01*
X112476000Y-84590199D01*
X112476000Y-85649801D01*
X112478619Y-85662970D01*
X112478161Y-85664679D01*
X112476526Y-85665356D01*
X112474994Y-85664471D01*
X112440744Y-85613213D01*
X112309256Y-85613213D01*
X112275005Y-85664470D01*
X112273473Y-85665355D01*
X112271838Y-85664678D01*
X112271380Y-85662969D01*
X112274000Y-85649801D01*
X112274000Y-84590199D01*
X112271380Y-84577028D01*
X112271838Y-84575319D01*
X112273473Y-84574642D01*
X112275005Y-84575527D01*
X112309257Y-84626786D01*
X112440743Y-84626786D01*
X112474994Y-84575525D01*
X112476526Y-84574640D01*
X112478161Y-84575317D01*
G37*
G36*
X157628161Y-76335317D02*
G01*
X157628619Y-76337026D01*
X157626000Y-76350199D01*
X157626000Y-77409801D01*
X157628619Y-77422970D01*
X157628161Y-77424679D01*
X157626526Y-77425356D01*
X157624994Y-77424471D01*
X157590744Y-77373213D01*
X157459256Y-77373213D01*
X157425005Y-77424470D01*
X157423473Y-77425355D01*
X157421838Y-77424678D01*
X157421380Y-77422969D01*
X157424000Y-77409801D01*
X157424000Y-76350199D01*
X157421380Y-76337028D01*
X157421838Y-76335319D01*
X157423473Y-76334642D01*
X157425005Y-76335527D01*
X157459257Y-76386786D01*
X157590743Y-76386786D01*
X157624994Y-76335525D01*
X157626526Y-76334640D01*
X157628161Y-76335317D01*
G37*
G36*
X156678161Y-76335317D02*
G01*
X156678619Y-76337026D01*
X156676000Y-76350199D01*
X156676000Y-77409801D01*
X156678619Y-77422970D01*
X156678161Y-77424679D01*
X156676526Y-77425356D01*
X156674994Y-77424471D01*
X156640744Y-77373213D01*
X156509256Y-77373213D01*
X156475005Y-77424470D01*
X156473473Y-77425355D01*
X156471838Y-77424678D01*
X156471380Y-77422969D01*
X156474000Y-77409801D01*
X156474000Y-76350199D01*
X156471380Y-76337028D01*
X156471838Y-76335319D01*
X156473473Y-76334642D01*
X156475005Y-76335527D01*
X156509257Y-76386786D01*
X156640743Y-76386786D01*
X156674994Y-76335525D01*
X156676526Y-76334640D01*
X156678161Y-76335317D01*
G37*
G36*
X113428161Y-74415317D02*
G01*
X113428619Y-74417026D01*
X113426000Y-74430199D01*
X113426000Y-75489801D01*
X113428619Y-75502970D01*
X113428161Y-75504679D01*
X113426526Y-75505356D01*
X113424994Y-75504471D01*
X113390744Y-75453213D01*
X113259256Y-75453213D01*
X113225005Y-75504470D01*
X113223473Y-75505355D01*
X113221838Y-75504678D01*
X113221380Y-75502969D01*
X113224000Y-75489801D01*
X113224000Y-74430199D01*
X113221380Y-74417028D01*
X113221838Y-74415319D01*
X113223473Y-74414642D01*
X113225005Y-74415527D01*
X113259257Y-74466786D01*
X113390743Y-74466786D01*
X113424994Y-74415525D01*
X113426526Y-74414640D01*
X113428161Y-74415317D01*
G37*
G36*
X112478161Y-74415317D02*
G01*
X112478619Y-74417026D01*
X112476000Y-74430199D01*
X112476000Y-75489801D01*
X112478619Y-75502970D01*
X112478161Y-75504679D01*
X112476526Y-75505356D01*
X112474994Y-75504471D01*
X112440744Y-75453213D01*
X112309256Y-75453213D01*
X112275005Y-75504470D01*
X112273473Y-75505355D01*
X112271838Y-75504678D01*
X112271380Y-75502969D01*
X112274000Y-75489801D01*
X112274000Y-74430199D01*
X112271380Y-74417028D01*
X112271838Y-74415319D01*
X112273473Y-74414642D01*
X112275005Y-74415527D01*
X112309257Y-74466786D01*
X112440743Y-74466786D01*
X112474994Y-74415525D01*
X112476526Y-74414640D01*
X112478161Y-74415317D01*
G37*
G36*
X157628161Y-66175317D02*
G01*
X157628619Y-66177026D01*
X157626000Y-66190199D01*
X157626000Y-67249801D01*
X157628619Y-67262970D01*
X157628161Y-67264679D01*
X157626526Y-67265356D01*
X157624994Y-67264471D01*
X157590744Y-67213213D01*
X157459256Y-67213213D01*
X157425005Y-67264470D01*
X157423473Y-67265355D01*
X157421838Y-67264678D01*
X157421380Y-67262969D01*
X157424000Y-67249801D01*
X157424000Y-66190199D01*
X157421380Y-66177028D01*
X157421838Y-66175319D01*
X157423473Y-66174642D01*
X157425005Y-66175527D01*
X157459257Y-66226786D01*
X157590743Y-66226786D01*
X157624994Y-66175525D01*
X157626526Y-66174640D01*
X157628161Y-66175317D01*
G37*
G36*
X156678161Y-66175317D02*
G01*
X156678619Y-66177026D01*
X156676000Y-66190199D01*
X156676000Y-67249801D01*
X156678619Y-67262970D01*
X156678161Y-67264679D01*
X156676526Y-67265356D01*
X156674994Y-67264471D01*
X156640744Y-67213213D01*
X156509256Y-67213213D01*
X156475005Y-67264470D01*
X156473473Y-67265355D01*
X156471838Y-67264678D01*
X156471380Y-67262969D01*
X156474000Y-67249801D01*
X156474000Y-66190199D01*
X156471380Y-66177028D01*
X156471838Y-66175319D01*
X156473473Y-66174642D01*
X156475005Y-66175527D01*
X156509257Y-66226786D01*
X156640743Y-66226786D01*
X156674994Y-66175525D01*
X156676526Y-66174640D01*
X156678161Y-66175317D01*
G37*
G36*
X113428161Y-64255317D02*
G01*
X113428619Y-64257026D01*
X113426000Y-64270199D01*
X113426000Y-65329801D01*
X113428619Y-65342970D01*
X113428161Y-65344679D01*
X113426526Y-65345356D01*
X113424994Y-65344471D01*
X113390744Y-65293213D01*
X113259256Y-65293213D01*
X113225005Y-65344470D01*
X113223473Y-65345355D01*
X113221838Y-65344678D01*
X113221380Y-65342969D01*
X113224000Y-65329801D01*
X113224000Y-64270199D01*
X113221380Y-64257028D01*
X113221838Y-64255319D01*
X113223473Y-64254642D01*
X113225005Y-64255527D01*
X113259257Y-64306786D01*
X113390743Y-64306786D01*
X113424994Y-64255525D01*
X113426526Y-64254640D01*
X113428161Y-64255317D01*
G37*
G36*
X112478161Y-64255317D02*
G01*
X112478619Y-64257026D01*
X112476000Y-64270199D01*
X112476000Y-65329801D01*
X112478619Y-65342970D01*
X112478161Y-65344679D01*
X112476526Y-65345356D01*
X112474994Y-65344471D01*
X112440744Y-65293213D01*
X112309256Y-65293213D01*
X112275005Y-65344470D01*
X112273473Y-65345355D01*
X112271838Y-65344678D01*
X112271380Y-65342969D01*
X112274000Y-65329801D01*
X112274000Y-64270199D01*
X112271380Y-64257028D01*
X112271838Y-64255319D01*
X112273473Y-64254642D01*
X112275005Y-64255527D01*
X112309257Y-64306786D01*
X112440743Y-64306786D01*
X112474994Y-64255525D01*
X112476526Y-64254640D01*
X112478161Y-64255317D01*
G37*
G36*
X157628161Y-56015317D02*
G01*
X157628619Y-56017026D01*
X157626000Y-56030199D01*
X157626000Y-57089801D01*
X157628619Y-57102970D01*
X157628161Y-57104679D01*
X157626526Y-57105356D01*
X157624994Y-57104471D01*
X157590744Y-57053213D01*
X157459256Y-57053213D01*
X157425005Y-57104470D01*
X157423473Y-57105355D01*
X157421838Y-57104678D01*
X157421380Y-57102969D01*
X157424000Y-57089801D01*
X157424000Y-56030199D01*
X157421380Y-56017028D01*
X157421838Y-56015319D01*
X157423473Y-56014642D01*
X157425005Y-56015527D01*
X157459257Y-56066786D01*
X157590743Y-56066786D01*
X157624994Y-56015525D01*
X157626526Y-56014640D01*
X157628161Y-56015317D01*
G37*
G36*
X156678161Y-56015317D02*
G01*
X156678619Y-56017026D01*
X156676000Y-56030199D01*
X156676000Y-57089801D01*
X156678619Y-57102970D01*
X156678161Y-57104679D01*
X156676526Y-57105356D01*
X156674994Y-57104471D01*
X156640744Y-57053213D01*
X156509256Y-57053213D01*
X156475005Y-57104470D01*
X156473473Y-57105355D01*
X156471838Y-57104678D01*
X156471380Y-57102969D01*
X156474000Y-57089801D01*
X156474000Y-56030199D01*
X156471380Y-56017028D01*
X156471838Y-56015319D01*
X156473473Y-56014642D01*
X156475005Y-56015527D01*
X156509257Y-56066786D01*
X156640743Y-56066786D01*
X156674994Y-56015525D01*
X156676526Y-56014640D01*
X156678161Y-56015317D01*
G37*
G36*
X113428161Y-54095317D02*
G01*
X113428619Y-54097026D01*
X113426000Y-54110199D01*
X113426000Y-55169801D01*
X113428619Y-55182970D01*
X113428161Y-55184679D01*
X113426526Y-55185356D01*
X113424994Y-55184471D01*
X113390744Y-55133213D01*
X113259256Y-55133213D01*
X113225005Y-55184470D01*
X113223473Y-55185355D01*
X113221838Y-55184678D01*
X113221380Y-55182969D01*
X113224000Y-55169801D01*
X113224000Y-54110199D01*
X113221380Y-54097028D01*
X113221838Y-54095319D01*
X113223473Y-54094642D01*
X113225005Y-54095527D01*
X113259257Y-54146786D01*
X113390743Y-54146786D01*
X113424994Y-54095525D01*
X113426526Y-54094640D01*
X113428161Y-54095317D01*
G37*
G36*
X112478161Y-54095317D02*
G01*
X112478619Y-54097026D01*
X112476000Y-54110199D01*
X112476000Y-55169801D01*
X112478619Y-55182970D01*
X112478161Y-55184679D01*
X112476526Y-55185356D01*
X112474994Y-55184471D01*
X112440744Y-55133213D01*
X112309256Y-55133213D01*
X112275005Y-55184470D01*
X112273473Y-55185355D01*
X112271838Y-55184678D01*
X112271380Y-55182969D01*
X112274000Y-55169801D01*
X112274000Y-54110199D01*
X112271380Y-54097028D01*
X112271838Y-54095319D01*
X112273473Y-54094642D01*
X112275005Y-54095527D01*
X112309257Y-54146786D01*
X112440743Y-54146786D01*
X112474994Y-54095525D01*
X112476526Y-54094640D01*
X112478161Y-54095317D01*
G37*
G36*
X157628161Y-45855317D02*
G01*
X157628619Y-45857026D01*
X157626000Y-45870199D01*
X157626000Y-46929801D01*
X157628619Y-46942970D01*
X157628161Y-46944679D01*
X157626526Y-46945356D01*
X157624994Y-46944471D01*
X157590744Y-46893213D01*
X157459256Y-46893213D01*
X157425005Y-46944470D01*
X157423473Y-46945355D01*
X157421838Y-46944678D01*
X157421380Y-46942969D01*
X157424000Y-46929801D01*
X157424000Y-45870199D01*
X157421380Y-45857028D01*
X157421838Y-45855319D01*
X157423473Y-45854642D01*
X157425005Y-45855527D01*
X157459257Y-45906786D01*
X157590743Y-45906786D01*
X157624994Y-45855525D01*
X157626526Y-45854640D01*
X157628161Y-45855317D01*
G37*
G36*
X156678161Y-45855317D02*
G01*
X156678619Y-45857026D01*
X156676000Y-45870199D01*
X156676000Y-46929801D01*
X156678619Y-46942970D01*
X156678161Y-46944679D01*
X156676526Y-46945356D01*
X156674994Y-46944471D01*
X156640744Y-46893213D01*
X156509256Y-46893213D01*
X156475005Y-46944470D01*
X156473473Y-46945355D01*
X156471838Y-46944678D01*
X156471380Y-46942969D01*
X156474000Y-46929801D01*
X156474000Y-45870199D01*
X156471380Y-45857028D01*
X156471838Y-45855319D01*
X156473473Y-45854642D01*
X156475005Y-45855527D01*
X156509257Y-45906786D01*
X156640743Y-45906786D01*
X156674994Y-45855525D01*
X156676526Y-45854640D01*
X156678161Y-45855317D01*
G37*
G36*
X113428161Y-43935317D02*
G01*
X113428619Y-43937026D01*
X113426000Y-43950199D01*
X113426000Y-45009801D01*
X113428619Y-45022970D01*
X113428161Y-45024679D01*
X113426526Y-45025356D01*
X113424994Y-45024471D01*
X113390744Y-44973213D01*
X113259256Y-44973213D01*
X113225005Y-45024470D01*
X113223473Y-45025355D01*
X113221838Y-45024678D01*
X113221380Y-45022969D01*
X113224000Y-45009801D01*
X113224000Y-43950199D01*
X113221380Y-43937028D01*
X113221838Y-43935319D01*
X113223473Y-43934642D01*
X113225005Y-43935527D01*
X113259257Y-43986786D01*
X113390743Y-43986786D01*
X113424994Y-43935525D01*
X113426526Y-43934640D01*
X113428161Y-43935317D01*
G37*
G36*
X112478161Y-43935317D02*
G01*
X112478619Y-43937026D01*
X112476000Y-43950199D01*
X112476000Y-45009801D01*
X112478619Y-45022970D01*
X112478161Y-45024679D01*
X112476526Y-45025356D01*
X112474994Y-45024471D01*
X112440744Y-44973213D01*
X112309256Y-44973213D01*
X112275005Y-45024470D01*
X112273473Y-45025355D01*
X112271838Y-45024678D01*
X112271380Y-45022969D01*
X112274000Y-45009801D01*
X112274000Y-43950199D01*
X112271380Y-43937028D01*
X112271838Y-43935319D01*
X112273473Y-43934642D01*
X112275005Y-43935527D01*
X112309257Y-43986786D01*
X112440743Y-43986786D01*
X112474994Y-43935525D01*
X112476526Y-43934640D01*
X112478161Y-43935317D01*
G37*
G36*
X93441844Y-43989905D02*
G01*
X93442001Y-43991803D01*
X93440499Y-43992972D01*
X93440493Y-43992973D01*
X93440164Y-43993000D01*
X90359836Y-43993000D01*
X90358422Y-43992414D01*
X90358421Y-43992413D01*
X90357835Y-43990999D01*
X90358421Y-43989585D01*
X90359835Y-43988999D01*
X93440170Y-43988999D01*
X93441844Y-43989905D01*
G37*
M02*
