G04 #@! TF.GenerationSoftware,KiCad,Pcbnew,7.0.1*
G04 #@! TF.CreationDate,2023-06-29T16:02:41+02:00*
G04 #@! TF.ProjectId,Magnetsteuerung_v2.1,4d61676e-6574-4737-9465-756572756e67,rev?*
G04 #@! TF.SameCoordinates,Original*
G04 #@! TF.FileFunction,Other,ECO2*
%FSLAX46Y46*%
G04 Gerber Fmt 4.6, Leading zero omitted, Abs format (unit mm)*
G04 Created by KiCad (PCBNEW 7.0.1) date 2023-06-29 16:02:41*
%MOMM*%
%LPD*%
G01*
G04 APERTURE LIST*
%ADD10C,0.150000*%
%ADD11C,0.300000*%
G04 APERTURE END LIST*
D10*
X99000000Y-126500000D02*
G75*
G03*
X99000000Y-126500000I-5500000J0D01*
G01*
X182000000Y-35510000D02*
G75*
G03*
X182000000Y-35510000I-5500000J0D01*
G01*
X99000000Y-35500000D02*
G75*
G03*
X99000000Y-35500000I-5500000J0D01*
G01*
D11*
X143586071Y-95687143D02*
X145086071Y-95687143D01*
X145086071Y-95687143D02*
X145086071Y-96258572D01*
X145086071Y-96258572D02*
X145014642Y-96401429D01*
X145014642Y-96401429D02*
X144943214Y-96472858D01*
X144943214Y-96472858D02*
X144800357Y-96544286D01*
X144800357Y-96544286D02*
X144586071Y-96544286D01*
X144586071Y-96544286D02*
X144443214Y-96472858D01*
X144443214Y-96472858D02*
X144371785Y-96401429D01*
X144371785Y-96401429D02*
X144300357Y-96258572D01*
X144300357Y-96258572D02*
X144300357Y-95687143D01*
X143586071Y-97830001D02*
X144371785Y-97830001D01*
X144371785Y-97830001D02*
X144514642Y-97758572D01*
X144514642Y-97758572D02*
X144586071Y-97615715D01*
X144586071Y-97615715D02*
X144586071Y-97330001D01*
X144586071Y-97330001D02*
X144514642Y-97187143D01*
X143657500Y-97830001D02*
X143586071Y-97687143D01*
X143586071Y-97687143D02*
X143586071Y-97330001D01*
X143586071Y-97330001D02*
X143657500Y-97187143D01*
X143657500Y-97187143D02*
X143800357Y-97115715D01*
X143800357Y-97115715D02*
X143943214Y-97115715D01*
X143943214Y-97115715D02*
X144086071Y-97187143D01*
X144086071Y-97187143D02*
X144157500Y-97330001D01*
X144157500Y-97330001D02*
X144157500Y-97687143D01*
X144157500Y-97687143D02*
X144228928Y-97830001D01*
X143586071Y-98544286D02*
X144586071Y-98544286D01*
X144443214Y-98544286D02*
X144514642Y-98615715D01*
X144514642Y-98615715D02*
X144586071Y-98758572D01*
X144586071Y-98758572D02*
X144586071Y-98972858D01*
X144586071Y-98972858D02*
X144514642Y-99115715D01*
X144514642Y-99115715D02*
X144371785Y-99187144D01*
X144371785Y-99187144D02*
X143586071Y-99187144D01*
X144371785Y-99187144D02*
X144514642Y-99258572D01*
X144514642Y-99258572D02*
X144586071Y-99401429D01*
X144586071Y-99401429D02*
X144586071Y-99615715D01*
X144586071Y-99615715D02*
X144514642Y-99758572D01*
X144514642Y-99758572D02*
X144371785Y-99830001D01*
X144371785Y-99830001D02*
X143586071Y-99830001D01*
X143586071Y-101187144D02*
X144371785Y-101187144D01*
X144371785Y-101187144D02*
X144514642Y-101115715D01*
X144514642Y-101115715D02*
X144586071Y-100972858D01*
X144586071Y-100972858D02*
X144586071Y-100687144D01*
X144586071Y-100687144D02*
X144514642Y-100544286D01*
X143657500Y-101187144D02*
X143586071Y-101044286D01*
X143586071Y-101044286D02*
X143586071Y-100687144D01*
X143586071Y-100687144D02*
X143657500Y-100544286D01*
X143657500Y-100544286D02*
X143800357Y-100472858D01*
X143800357Y-100472858D02*
X143943214Y-100472858D01*
X143943214Y-100472858D02*
X144086071Y-100544286D01*
X144086071Y-100544286D02*
X144157500Y-100687144D01*
X144157500Y-100687144D02*
X144157500Y-101044286D01*
X144157500Y-101044286D02*
X144228928Y-101187144D01*
X144586071Y-101687144D02*
X144586071Y-102258572D01*
X145086071Y-101901429D02*
X143800357Y-101901429D01*
X143800357Y-101901429D02*
X143657500Y-101972858D01*
X143657500Y-101972858D02*
X143586071Y-102115715D01*
X143586071Y-102115715D02*
X143586071Y-102258572D01*
X143657500Y-103330001D02*
X143586071Y-103187144D01*
X143586071Y-103187144D02*
X143586071Y-102901430D01*
X143586071Y-102901430D02*
X143657500Y-102758572D01*
X143657500Y-102758572D02*
X143800357Y-102687144D01*
X143800357Y-102687144D02*
X144371785Y-102687144D01*
X144371785Y-102687144D02*
X144514642Y-102758572D01*
X144514642Y-102758572D02*
X144586071Y-102901430D01*
X144586071Y-102901430D02*
X144586071Y-103187144D01*
X144586071Y-103187144D02*
X144514642Y-103330001D01*
X144514642Y-103330001D02*
X144371785Y-103401430D01*
X144371785Y-103401430D02*
X144228928Y-103401430D01*
X144228928Y-103401430D02*
X144086071Y-102687144D01*
X143657500Y-104687144D02*
X143586071Y-104544286D01*
X143586071Y-104544286D02*
X143586071Y-104258572D01*
X143586071Y-104258572D02*
X143657500Y-104115715D01*
X143657500Y-104115715D02*
X143728928Y-104044286D01*
X143728928Y-104044286D02*
X143871785Y-103972858D01*
X143871785Y-103972858D02*
X144300357Y-103972858D01*
X144300357Y-103972858D02*
X144443214Y-104044286D01*
X144443214Y-104044286D02*
X144514642Y-104115715D01*
X144514642Y-104115715D02*
X144586071Y-104258572D01*
X144586071Y-104258572D02*
X144586071Y-104544286D01*
X144586071Y-104544286D02*
X144514642Y-104687144D01*
X143586071Y-105330000D02*
X145086071Y-105330000D01*
X143586071Y-105972858D02*
X144371785Y-105972858D01*
X144371785Y-105972858D02*
X144514642Y-105901429D01*
X144514642Y-105901429D02*
X144586071Y-105758572D01*
X144586071Y-105758572D02*
X144586071Y-105544286D01*
X144586071Y-105544286D02*
X144514642Y-105401429D01*
X144514642Y-105401429D02*
X144443214Y-105330000D01*
X143657500Y-107758572D02*
X143586071Y-107972858D01*
X143586071Y-107972858D02*
X143586071Y-108330000D01*
X143586071Y-108330000D02*
X143657500Y-108472858D01*
X143657500Y-108472858D02*
X143728928Y-108544286D01*
X143728928Y-108544286D02*
X143871785Y-108615715D01*
X143871785Y-108615715D02*
X144014642Y-108615715D01*
X144014642Y-108615715D02*
X144157500Y-108544286D01*
X144157500Y-108544286D02*
X144228928Y-108472858D01*
X144228928Y-108472858D02*
X144300357Y-108330000D01*
X144300357Y-108330000D02*
X144371785Y-108044286D01*
X144371785Y-108044286D02*
X144443214Y-107901429D01*
X144443214Y-107901429D02*
X144514642Y-107830000D01*
X144514642Y-107830000D02*
X144657500Y-107758572D01*
X144657500Y-107758572D02*
X144800357Y-107758572D01*
X144800357Y-107758572D02*
X144943214Y-107830000D01*
X144943214Y-107830000D02*
X145014642Y-107901429D01*
X145014642Y-107901429D02*
X145086071Y-108044286D01*
X145086071Y-108044286D02*
X145086071Y-108401429D01*
X145086071Y-108401429D02*
X145014642Y-108615715D01*
X144586071Y-109115714D02*
X143586071Y-109472857D01*
X144586071Y-109830000D02*
X143586071Y-109472857D01*
X143586071Y-109472857D02*
X143228928Y-109330000D01*
X143228928Y-109330000D02*
X143157500Y-109258571D01*
X143157500Y-109258571D02*
X143086071Y-109115714D01*
X143657500Y-110330000D02*
X143586071Y-110472857D01*
X143586071Y-110472857D02*
X143586071Y-110758571D01*
X143586071Y-110758571D02*
X143657500Y-110901428D01*
X143657500Y-110901428D02*
X143800357Y-110972857D01*
X143800357Y-110972857D02*
X143871785Y-110972857D01*
X143871785Y-110972857D02*
X144014642Y-110901428D01*
X144014642Y-110901428D02*
X144086071Y-110758571D01*
X144086071Y-110758571D02*
X144086071Y-110544286D01*
X144086071Y-110544286D02*
X144157500Y-110401428D01*
X144157500Y-110401428D02*
X144300357Y-110330000D01*
X144300357Y-110330000D02*
X144371785Y-110330000D01*
X144371785Y-110330000D02*
X144514642Y-110401428D01*
X144514642Y-110401428D02*
X144586071Y-110544286D01*
X144586071Y-110544286D02*
X144586071Y-110758571D01*
X144586071Y-110758571D02*
X144514642Y-110901428D01*
X144586071Y-111401429D02*
X144586071Y-111972857D01*
X145086071Y-111615714D02*
X143800357Y-111615714D01*
X143800357Y-111615714D02*
X143657500Y-111687143D01*
X143657500Y-111687143D02*
X143586071Y-111830000D01*
X143586071Y-111830000D02*
X143586071Y-111972857D01*
X143657500Y-113044286D02*
X143586071Y-112901429D01*
X143586071Y-112901429D02*
X143586071Y-112615715D01*
X143586071Y-112615715D02*
X143657500Y-112472857D01*
X143657500Y-112472857D02*
X143800357Y-112401429D01*
X143800357Y-112401429D02*
X144371785Y-112401429D01*
X144371785Y-112401429D02*
X144514642Y-112472857D01*
X144514642Y-112472857D02*
X144586071Y-112615715D01*
X144586071Y-112615715D02*
X144586071Y-112901429D01*
X144586071Y-112901429D02*
X144514642Y-113044286D01*
X144514642Y-113044286D02*
X144371785Y-113115715D01*
X144371785Y-113115715D02*
X144228928Y-113115715D01*
X144228928Y-113115715D02*
X144086071Y-112401429D01*
X143586071Y-113758571D02*
X144586071Y-113758571D01*
X144443214Y-113758571D02*
X144514642Y-113830000D01*
X144514642Y-113830000D02*
X144586071Y-113972857D01*
X144586071Y-113972857D02*
X144586071Y-114187143D01*
X144586071Y-114187143D02*
X144514642Y-114330000D01*
X144514642Y-114330000D02*
X144371785Y-114401429D01*
X144371785Y-114401429D02*
X143586071Y-114401429D01*
X144371785Y-114401429D02*
X144514642Y-114472857D01*
X144514642Y-114472857D02*
X144586071Y-114615714D01*
X144586071Y-114615714D02*
X144586071Y-114830000D01*
X144586071Y-114830000D02*
X144514642Y-114972857D01*
X144514642Y-114972857D02*
X144371785Y-115044286D01*
X144371785Y-115044286D02*
X143586071Y-115044286D01*
X144014642Y-116830000D02*
X144014642Y-117544286D01*
X143586071Y-116687143D02*
X145086071Y-117187143D01*
X145086071Y-117187143D02*
X143586071Y-117687143D01*
X145014642Y-118972857D02*
X145086071Y-118830000D01*
X145086071Y-118830000D02*
X145086071Y-118615714D01*
X145086071Y-118615714D02*
X145014642Y-118401428D01*
X145014642Y-118401428D02*
X144871785Y-118258571D01*
X144871785Y-118258571D02*
X144728928Y-118187142D01*
X144728928Y-118187142D02*
X144443214Y-118115714D01*
X144443214Y-118115714D02*
X144228928Y-118115714D01*
X144228928Y-118115714D02*
X143943214Y-118187142D01*
X143943214Y-118187142D02*
X143800357Y-118258571D01*
X143800357Y-118258571D02*
X143657500Y-118401428D01*
X143657500Y-118401428D02*
X143586071Y-118615714D01*
X143586071Y-118615714D02*
X143586071Y-118758571D01*
X143586071Y-118758571D02*
X143657500Y-118972857D01*
X143657500Y-118972857D02*
X143728928Y-119044285D01*
X143728928Y-119044285D02*
X144228928Y-119044285D01*
X144228928Y-119044285D02*
X144228928Y-118758571D01*
X164527143Y-126055357D02*
X164384286Y-125983928D01*
X164384286Y-125983928D02*
X164170000Y-125983928D01*
X164170000Y-125983928D02*
X163955714Y-126055357D01*
X163955714Y-126055357D02*
X163812857Y-126198214D01*
X163812857Y-126198214D02*
X163741428Y-126341071D01*
X163741428Y-126341071D02*
X163670000Y-126626785D01*
X163670000Y-126626785D02*
X163670000Y-126841071D01*
X163670000Y-126841071D02*
X163741428Y-127126785D01*
X163741428Y-127126785D02*
X163812857Y-127269642D01*
X163812857Y-127269642D02*
X163955714Y-127412500D01*
X163955714Y-127412500D02*
X164170000Y-127483928D01*
X164170000Y-127483928D02*
X164312857Y-127483928D01*
X164312857Y-127483928D02*
X164527143Y-127412500D01*
X164527143Y-127412500D02*
X164598571Y-127341071D01*
X164598571Y-127341071D02*
X164598571Y-126841071D01*
X164598571Y-126841071D02*
X164312857Y-126841071D01*
X165241428Y-127483928D02*
X165241428Y-125983928D01*
X165241428Y-125983928D02*
X166098571Y-127483928D01*
X166098571Y-127483928D02*
X166098571Y-125983928D01*
X166812857Y-127483928D02*
X166812857Y-125983928D01*
X166812857Y-125983928D02*
X167170000Y-125983928D01*
X167170000Y-125983928D02*
X167384286Y-126055357D01*
X167384286Y-126055357D02*
X167527143Y-126198214D01*
X167527143Y-126198214D02*
X167598572Y-126341071D01*
X167598572Y-126341071D02*
X167670000Y-126626785D01*
X167670000Y-126626785D02*
X167670000Y-126841071D01*
X167670000Y-126841071D02*
X167598572Y-127126785D01*
X167598572Y-127126785D02*
X167527143Y-127269642D01*
X167527143Y-127269642D02*
X167384286Y-127412500D01*
X167384286Y-127412500D02*
X167170000Y-127483928D01*
X167170000Y-127483928D02*
X166812857Y-127483928D01*
X126287500Y-99968573D02*
X126216071Y-100182859D01*
X126216071Y-100182859D02*
X126216071Y-100540001D01*
X126216071Y-100540001D02*
X126287500Y-100682859D01*
X126287500Y-100682859D02*
X126358928Y-100754287D01*
X126358928Y-100754287D02*
X126501785Y-100825716D01*
X126501785Y-100825716D02*
X126644642Y-100825716D01*
X126644642Y-100825716D02*
X126787500Y-100754287D01*
X126787500Y-100754287D02*
X126858928Y-100682859D01*
X126858928Y-100682859D02*
X126930357Y-100540001D01*
X126930357Y-100540001D02*
X127001785Y-100254287D01*
X127001785Y-100254287D02*
X127073214Y-100111430D01*
X127073214Y-100111430D02*
X127144642Y-100040001D01*
X127144642Y-100040001D02*
X127287500Y-99968573D01*
X127287500Y-99968573D02*
X127430357Y-99968573D01*
X127430357Y-99968573D02*
X127573214Y-100040001D01*
X127573214Y-100040001D02*
X127644642Y-100111430D01*
X127644642Y-100111430D02*
X127716071Y-100254287D01*
X127716071Y-100254287D02*
X127716071Y-100611430D01*
X127716071Y-100611430D02*
X127644642Y-100825716D01*
X126216071Y-101468572D02*
X127716071Y-101468572D01*
X127716071Y-101468572D02*
X126216071Y-102325715D01*
X126216071Y-102325715D02*
X127716071Y-102325715D01*
X127216071Y-103682859D02*
X126216071Y-103682859D01*
X127787500Y-103325716D02*
X126716071Y-102968573D01*
X126716071Y-102968573D02*
X126716071Y-103897144D01*
X127073214Y-104682858D02*
X127144642Y-104540001D01*
X127144642Y-104540001D02*
X127216071Y-104468572D01*
X127216071Y-104468572D02*
X127358928Y-104397144D01*
X127358928Y-104397144D02*
X127430357Y-104397144D01*
X127430357Y-104397144D02*
X127573214Y-104468572D01*
X127573214Y-104468572D02*
X127644642Y-104540001D01*
X127644642Y-104540001D02*
X127716071Y-104682858D01*
X127716071Y-104682858D02*
X127716071Y-104968572D01*
X127716071Y-104968572D02*
X127644642Y-105111430D01*
X127644642Y-105111430D02*
X127573214Y-105182858D01*
X127573214Y-105182858D02*
X127430357Y-105254287D01*
X127430357Y-105254287D02*
X127358928Y-105254287D01*
X127358928Y-105254287D02*
X127216071Y-105182858D01*
X127216071Y-105182858D02*
X127144642Y-105111430D01*
X127144642Y-105111430D02*
X127073214Y-104968572D01*
X127073214Y-104968572D02*
X127073214Y-104682858D01*
X127073214Y-104682858D02*
X127001785Y-104540001D01*
X127001785Y-104540001D02*
X126930357Y-104468572D01*
X126930357Y-104468572D02*
X126787500Y-104397144D01*
X126787500Y-104397144D02*
X126501785Y-104397144D01*
X126501785Y-104397144D02*
X126358928Y-104468572D01*
X126358928Y-104468572D02*
X126287500Y-104540001D01*
X126287500Y-104540001D02*
X126216071Y-104682858D01*
X126216071Y-104682858D02*
X126216071Y-104968572D01*
X126216071Y-104968572D02*
X126287500Y-105111430D01*
X126287500Y-105111430D02*
X126358928Y-105182858D01*
X126358928Y-105182858D02*
X126501785Y-105254287D01*
X126501785Y-105254287D02*
X126787500Y-105254287D01*
X126787500Y-105254287D02*
X126930357Y-105182858D01*
X126930357Y-105182858D02*
X127001785Y-105111430D01*
X127001785Y-105111430D02*
X127073214Y-104968572D01*
X127716071Y-106611429D02*
X127716071Y-105897143D01*
X127716071Y-105897143D02*
X127001785Y-105825715D01*
X127001785Y-105825715D02*
X127073214Y-105897143D01*
X127073214Y-105897143D02*
X127144642Y-106040001D01*
X127144642Y-106040001D02*
X127144642Y-106397143D01*
X127144642Y-106397143D02*
X127073214Y-106540001D01*
X127073214Y-106540001D02*
X127001785Y-106611429D01*
X127001785Y-106611429D02*
X126858928Y-106682858D01*
X126858928Y-106682858D02*
X126501785Y-106682858D01*
X126501785Y-106682858D02*
X126358928Y-106611429D01*
X126358928Y-106611429D02*
X126287500Y-106540001D01*
X126287500Y-106540001D02*
X126216071Y-106397143D01*
X126216071Y-106397143D02*
X126216071Y-106040001D01*
X126216071Y-106040001D02*
X126287500Y-105897143D01*
X126287500Y-105897143D02*
X126358928Y-105825715D01*
X127716071Y-108040000D02*
X127716071Y-107325714D01*
X127716071Y-107325714D02*
X127001785Y-107254286D01*
X127001785Y-107254286D02*
X127073214Y-107325714D01*
X127073214Y-107325714D02*
X127144642Y-107468572D01*
X127144642Y-107468572D02*
X127144642Y-107825714D01*
X127144642Y-107825714D02*
X127073214Y-107968572D01*
X127073214Y-107968572D02*
X127001785Y-108040000D01*
X127001785Y-108040000D02*
X126858928Y-108111429D01*
X126858928Y-108111429D02*
X126501785Y-108111429D01*
X126501785Y-108111429D02*
X126358928Y-108040000D01*
X126358928Y-108040000D02*
X126287500Y-107968572D01*
X126287500Y-107968572D02*
X126216071Y-107825714D01*
X126216071Y-107825714D02*
X126216071Y-107468572D01*
X126216071Y-107468572D02*
X126287500Y-107325714D01*
X126287500Y-107325714D02*
X126358928Y-107254286D01*
X126287500Y-108682857D02*
X126216071Y-108897143D01*
X126216071Y-108897143D02*
X126216071Y-109254285D01*
X126216071Y-109254285D02*
X126287500Y-109397143D01*
X126287500Y-109397143D02*
X126358928Y-109468571D01*
X126358928Y-109468571D02*
X126501785Y-109540000D01*
X126501785Y-109540000D02*
X126644642Y-109540000D01*
X126644642Y-109540000D02*
X126787500Y-109468571D01*
X126787500Y-109468571D02*
X126858928Y-109397143D01*
X126858928Y-109397143D02*
X126930357Y-109254285D01*
X126930357Y-109254285D02*
X127001785Y-108968571D01*
X127001785Y-108968571D02*
X127073214Y-108825714D01*
X127073214Y-108825714D02*
X127144642Y-108754285D01*
X127144642Y-108754285D02*
X127287500Y-108682857D01*
X127287500Y-108682857D02*
X127430357Y-108682857D01*
X127430357Y-108682857D02*
X127573214Y-108754285D01*
X127573214Y-108754285D02*
X127644642Y-108825714D01*
X127644642Y-108825714D02*
X127716071Y-108968571D01*
X127716071Y-108968571D02*
X127716071Y-109325714D01*
X127716071Y-109325714D02*
X127644642Y-109540000D01*
X127573214Y-110111428D02*
X127644642Y-110182856D01*
X127644642Y-110182856D02*
X127716071Y-110325714D01*
X127716071Y-110325714D02*
X127716071Y-110682856D01*
X127716071Y-110682856D02*
X127644642Y-110825714D01*
X127644642Y-110825714D02*
X127573214Y-110897142D01*
X127573214Y-110897142D02*
X127430357Y-110968571D01*
X127430357Y-110968571D02*
X127287500Y-110968571D01*
X127287500Y-110968571D02*
X127073214Y-110897142D01*
X127073214Y-110897142D02*
X126216071Y-110039999D01*
X126216071Y-110039999D02*
X126216071Y-110968571D01*
X127216071Y-112254285D02*
X126216071Y-112254285D01*
X127787500Y-111897142D02*
X126716071Y-111539999D01*
X126716071Y-111539999D02*
X126716071Y-112468570D01*
X126644642Y-112968570D02*
X126644642Y-113682856D01*
X126216071Y-112825713D02*
X127716071Y-113325713D01*
X127716071Y-113325713D02*
X126216071Y-113825713D01*
X127073214Y-114539998D02*
X127144642Y-114397141D01*
X127144642Y-114397141D02*
X127216071Y-114325712D01*
X127216071Y-114325712D02*
X127358928Y-114254284D01*
X127358928Y-114254284D02*
X127430357Y-114254284D01*
X127430357Y-114254284D02*
X127573214Y-114325712D01*
X127573214Y-114325712D02*
X127644642Y-114397141D01*
X127644642Y-114397141D02*
X127716071Y-114539998D01*
X127716071Y-114539998D02*
X127716071Y-114825712D01*
X127716071Y-114825712D02*
X127644642Y-114968570D01*
X127644642Y-114968570D02*
X127573214Y-115039998D01*
X127573214Y-115039998D02*
X127430357Y-115111427D01*
X127430357Y-115111427D02*
X127358928Y-115111427D01*
X127358928Y-115111427D02*
X127216071Y-115039998D01*
X127216071Y-115039998D02*
X127144642Y-114968570D01*
X127144642Y-114968570D02*
X127073214Y-114825712D01*
X127073214Y-114825712D02*
X127073214Y-114539998D01*
X127073214Y-114539998D02*
X127001785Y-114397141D01*
X127001785Y-114397141D02*
X126930357Y-114325712D01*
X126930357Y-114325712D02*
X126787500Y-114254284D01*
X126787500Y-114254284D02*
X126501785Y-114254284D01*
X126501785Y-114254284D02*
X126358928Y-114325712D01*
X126358928Y-114325712D02*
X126287500Y-114397141D01*
X126287500Y-114397141D02*
X126216071Y-114539998D01*
X126216071Y-114539998D02*
X126216071Y-114825712D01*
X126216071Y-114825712D02*
X126287500Y-114968570D01*
X126287500Y-114968570D02*
X126358928Y-115039998D01*
X126358928Y-115039998D02*
X126501785Y-115111427D01*
X126501785Y-115111427D02*
X126787500Y-115111427D01*
X126787500Y-115111427D02*
X126930357Y-115039998D01*
X126930357Y-115039998D02*
X127001785Y-114968570D01*
X127001785Y-114968570D02*
X127073214Y-114825712D01*
X101907144Y-33743928D02*
X102407144Y-35243928D01*
X102407144Y-35243928D02*
X102907144Y-33743928D01*
X103407143Y-35243928D02*
X103407143Y-34243928D01*
X103407143Y-33743928D02*
X103335715Y-33815357D01*
X103335715Y-33815357D02*
X103407143Y-33886785D01*
X103407143Y-33886785D02*
X103478572Y-33815357D01*
X103478572Y-33815357D02*
X103407143Y-33743928D01*
X103407143Y-33743928D02*
X103407143Y-33886785D01*
X104121429Y-34243928D02*
X104121429Y-35243928D01*
X104121429Y-34386785D02*
X104192858Y-34315357D01*
X104192858Y-34315357D02*
X104335715Y-34243928D01*
X104335715Y-34243928D02*
X104550001Y-34243928D01*
X104550001Y-34243928D02*
X104692858Y-34315357D01*
X104692858Y-34315357D02*
X104764287Y-34458214D01*
X104764287Y-34458214D02*
X104764287Y-35243928D01*
X105478572Y-35101071D02*
X105550001Y-35172500D01*
X105550001Y-35172500D02*
X105478572Y-35243928D01*
X105478572Y-35243928D02*
X105407144Y-35172500D01*
X105407144Y-35172500D02*
X105478572Y-35101071D01*
X105478572Y-35101071D02*
X105478572Y-35243928D01*
X105478572Y-34315357D02*
X105550001Y-34386785D01*
X105550001Y-34386785D02*
X105478572Y-34458214D01*
X105478572Y-34458214D02*
X105407144Y-34386785D01*
X105407144Y-34386785D02*
X105478572Y-34315357D01*
X105478572Y-34315357D02*
X105478572Y-34458214D01*
X107978573Y-34243928D02*
X107978573Y-35243928D01*
X107621430Y-33672500D02*
X107264287Y-34743928D01*
X107264287Y-34743928D02*
X108192858Y-34743928D01*
X108978572Y-34386785D02*
X108835715Y-34315357D01*
X108835715Y-34315357D02*
X108764286Y-34243928D01*
X108764286Y-34243928D02*
X108692858Y-34101071D01*
X108692858Y-34101071D02*
X108692858Y-34029642D01*
X108692858Y-34029642D02*
X108764286Y-33886785D01*
X108764286Y-33886785D02*
X108835715Y-33815357D01*
X108835715Y-33815357D02*
X108978572Y-33743928D01*
X108978572Y-33743928D02*
X109264286Y-33743928D01*
X109264286Y-33743928D02*
X109407144Y-33815357D01*
X109407144Y-33815357D02*
X109478572Y-33886785D01*
X109478572Y-33886785D02*
X109550001Y-34029642D01*
X109550001Y-34029642D02*
X109550001Y-34101071D01*
X109550001Y-34101071D02*
X109478572Y-34243928D01*
X109478572Y-34243928D02*
X109407144Y-34315357D01*
X109407144Y-34315357D02*
X109264286Y-34386785D01*
X109264286Y-34386785D02*
X108978572Y-34386785D01*
X108978572Y-34386785D02*
X108835715Y-34458214D01*
X108835715Y-34458214D02*
X108764286Y-34529642D01*
X108764286Y-34529642D02*
X108692858Y-34672500D01*
X108692858Y-34672500D02*
X108692858Y-34958214D01*
X108692858Y-34958214D02*
X108764286Y-35101071D01*
X108764286Y-35101071D02*
X108835715Y-35172500D01*
X108835715Y-35172500D02*
X108978572Y-35243928D01*
X108978572Y-35243928D02*
X109264286Y-35243928D01*
X109264286Y-35243928D02*
X109407144Y-35172500D01*
X109407144Y-35172500D02*
X109478572Y-35101071D01*
X109478572Y-35101071D02*
X109550001Y-34958214D01*
X109550001Y-34958214D02*
X109550001Y-34672500D01*
X109550001Y-34672500D02*
X109478572Y-34529642D01*
X109478572Y-34529642D02*
X109407144Y-34458214D01*
X109407144Y-34458214D02*
X109264286Y-34386785D01*
X110192857Y-34672500D02*
X111335715Y-34672500D01*
X112764286Y-33743928D02*
X112050000Y-33743928D01*
X112050000Y-33743928D02*
X111978572Y-34458214D01*
X111978572Y-34458214D02*
X112050000Y-34386785D01*
X112050000Y-34386785D02*
X112192858Y-34315357D01*
X112192858Y-34315357D02*
X112550000Y-34315357D01*
X112550000Y-34315357D02*
X112692858Y-34386785D01*
X112692858Y-34386785D02*
X112764286Y-34458214D01*
X112764286Y-34458214D02*
X112835715Y-34601071D01*
X112835715Y-34601071D02*
X112835715Y-34958214D01*
X112835715Y-34958214D02*
X112764286Y-35101071D01*
X112764286Y-35101071D02*
X112692858Y-35172500D01*
X112692858Y-35172500D02*
X112550000Y-35243928D01*
X112550000Y-35243928D02*
X112192858Y-35243928D01*
X112192858Y-35243928D02*
X112050000Y-35172500D01*
X112050000Y-35172500D02*
X111978572Y-35101071D01*
X114192857Y-33743928D02*
X113478571Y-33743928D01*
X113478571Y-33743928D02*
X113407143Y-34458214D01*
X113407143Y-34458214D02*
X113478571Y-34386785D01*
X113478571Y-34386785D02*
X113621429Y-34315357D01*
X113621429Y-34315357D02*
X113978571Y-34315357D01*
X113978571Y-34315357D02*
X114121429Y-34386785D01*
X114121429Y-34386785D02*
X114192857Y-34458214D01*
X114192857Y-34458214D02*
X114264286Y-34601071D01*
X114264286Y-34601071D02*
X114264286Y-34958214D01*
X114264286Y-34958214D02*
X114192857Y-35101071D01*
X114192857Y-35101071D02*
X114121429Y-35172500D01*
X114121429Y-35172500D02*
X113978571Y-35243928D01*
X113978571Y-35243928D02*
X113621429Y-35243928D01*
X113621429Y-35243928D02*
X113478571Y-35172500D01*
X113478571Y-35172500D02*
X113407143Y-35101071D01*
X114692857Y-33743928D02*
X115192857Y-35243928D01*
X115192857Y-35243928D02*
X115692857Y-33743928D01*
X102357143Y-125935357D02*
X102214286Y-125863928D01*
X102214286Y-125863928D02*
X102000000Y-125863928D01*
X102000000Y-125863928D02*
X101785714Y-125935357D01*
X101785714Y-125935357D02*
X101642857Y-126078214D01*
X101642857Y-126078214D02*
X101571428Y-126221071D01*
X101571428Y-126221071D02*
X101500000Y-126506785D01*
X101500000Y-126506785D02*
X101500000Y-126721071D01*
X101500000Y-126721071D02*
X101571428Y-127006785D01*
X101571428Y-127006785D02*
X101642857Y-127149642D01*
X101642857Y-127149642D02*
X101785714Y-127292500D01*
X101785714Y-127292500D02*
X102000000Y-127363928D01*
X102000000Y-127363928D02*
X102142857Y-127363928D01*
X102142857Y-127363928D02*
X102357143Y-127292500D01*
X102357143Y-127292500D02*
X102428571Y-127221071D01*
X102428571Y-127221071D02*
X102428571Y-126721071D01*
X102428571Y-126721071D02*
X102142857Y-126721071D01*
X103071428Y-127363928D02*
X103071428Y-125863928D01*
X103071428Y-125863928D02*
X103928571Y-127363928D01*
X103928571Y-127363928D02*
X103928571Y-125863928D01*
X104642857Y-127363928D02*
X104642857Y-125863928D01*
X104642857Y-125863928D02*
X105000000Y-125863928D01*
X105000000Y-125863928D02*
X105214286Y-125935357D01*
X105214286Y-125935357D02*
X105357143Y-126078214D01*
X105357143Y-126078214D02*
X105428572Y-126221071D01*
X105428572Y-126221071D02*
X105500000Y-126506785D01*
X105500000Y-126506785D02*
X105500000Y-126721071D01*
X105500000Y-126721071D02*
X105428572Y-127006785D01*
X105428572Y-127006785D02*
X105357143Y-127149642D01*
X105357143Y-127149642D02*
X105214286Y-127292500D01*
X105214286Y-127292500D02*
X105000000Y-127363928D01*
X105000000Y-127363928D02*
X104642857Y-127363928D01*
M02*
