G04 #@! TF.GenerationSoftware,KiCad,Pcbnew,7.0.1*
G04 #@! TF.CreationDate,2023-06-29T16:02:41+02:00*
G04 #@! TF.ProjectId,Magnetsteuerung_v2.1,4d61676e-6574-4737-9465-756572756e67,rev?*
G04 #@! TF.SameCoordinates,Original*
G04 #@! TF.FileFunction,Soldermask,Bot*
G04 #@! TF.FilePolarity,Negative*
%FSLAX46Y46*%
G04 Gerber Fmt 4.6, Leading zero omitted, Abs format (unit mm)*
G04 Created by KiCad (PCBNEW 7.0.1) date 2023-06-29 16:02:41*
%MOMM*%
%LPD*%
G01*
G04 APERTURE LIST*
G04 Aperture macros list*
%AMRoundRect*
0 Rectangle with rounded corners*
0 $1 Rounding radius*
0 $2 $3 $4 $5 $6 $7 $8 $9 X,Y pos of 4 corners*
0 Add a 4 corners polygon primitive as box body*
4,1,4,$2,$3,$4,$5,$6,$7,$8,$9,$2,$3,0*
0 Add four circle primitives for the rounded corners*
1,1,$1+$1,$2,$3*
1,1,$1+$1,$4,$5*
1,1,$1+$1,$6,$7*
1,1,$1+$1,$8,$9*
0 Add four rect primitives between the rounded corners*
20,1,$1+$1,$2,$3,$4,$5,0*
20,1,$1+$1,$4,$5,$6,$7,0*
20,1,$1+$1,$6,$7,$8,$9,0*
20,1,$1+$1,$8,$9,$2,$3,0*%
G04 Aperture macros list end*
%ADD10C,1.002000*%
%ADD11C,8.702000*%
%ADD12RoundRect,0.051000X-0.850000X-0.850000X0.850000X-0.850000X0.850000X0.850000X-0.850000X0.850000X0*%
%ADD13O,1.802000X1.802000*%
%ADD14RoundRect,0.300999X1.550001X-0.790001X1.550001X0.790001X-1.550001X0.790001X-1.550001X-0.790001X0*%
%ADD15O,3.702000X2.182000*%
%ADD16RoundRect,0.300999X-1.550001X0.790001X-1.550001X-0.790001X1.550001X-0.790001X1.550001X0.790001X0*%
G04 APERTURE END LIST*
D10*
X90275000Y-35500000D03*
X91219581Y-33219581D03*
X91219581Y-37780419D03*
X93500000Y-32275000D03*
D11*
X93500000Y-35500000D03*
D10*
X93500000Y-38725000D03*
X95780419Y-33219581D03*
X95780419Y-37780419D03*
X96725000Y-35500000D03*
X173275000Y-35500000D03*
X174219581Y-33219581D03*
X174219581Y-37780419D03*
X176500000Y-32275000D03*
D11*
X176500000Y-35500000D03*
D10*
X176500000Y-38725000D03*
X178780419Y-33219581D03*
X178780419Y-37780419D03*
X179725000Y-35500000D03*
X173275000Y-126500000D03*
X174219581Y-124219581D03*
X174219581Y-128780419D03*
X176500000Y-123275000D03*
D11*
X176500000Y-126500000D03*
D10*
X176500000Y-129725000D03*
X178780419Y-124219581D03*
X178780419Y-128780419D03*
X179725000Y-126500000D03*
D12*
X133725000Y-94145000D03*
D13*
X136265000Y-94145000D03*
X133725000Y-96685000D03*
X136265000Y-96685000D03*
X133725000Y-99225000D03*
X136265000Y-99225000D03*
X133725000Y-101765000D03*
X136265000Y-101765000D03*
X133725000Y-104305000D03*
X136265000Y-104305000D03*
X133725000Y-106845000D03*
X136265000Y-106845000D03*
X133725000Y-109385000D03*
X136265000Y-109385000D03*
X133725000Y-111925000D03*
X136265000Y-111925000D03*
X133725000Y-114465000D03*
X136265000Y-114465000D03*
X133725000Y-117005000D03*
X136265000Y-117005000D03*
D10*
X90275000Y-126500000D03*
X91219581Y-124219581D03*
X91219581Y-128780419D03*
X93500000Y-123275000D03*
D11*
X93500000Y-126500000D03*
D10*
X93500000Y-129725000D03*
X95780419Y-124219581D03*
X95780419Y-128780419D03*
X96725000Y-126500000D03*
D14*
X178100000Y-119100000D03*
D15*
X178100000Y-114020000D03*
X178100000Y-108940000D03*
X178100000Y-103860000D03*
X178100000Y-98780000D03*
X178100000Y-93700000D03*
X178100000Y-88620000D03*
X178100000Y-83540000D03*
X178100000Y-78460000D03*
X178100000Y-73380000D03*
X178100000Y-68300000D03*
X178100000Y-63220000D03*
X178100000Y-58140000D03*
X178100000Y-53060000D03*
X178100000Y-47980000D03*
X178100000Y-42900000D03*
D16*
X91900000Y-42900000D03*
D15*
X91900000Y-47980000D03*
X91900000Y-53060000D03*
X91900000Y-58140000D03*
X91900000Y-63220000D03*
X91900000Y-68300000D03*
X91900000Y-73380000D03*
X91900000Y-78460000D03*
X91900000Y-83540000D03*
X91900000Y-88620000D03*
X91900000Y-93700000D03*
X91900000Y-98780000D03*
X91900000Y-103860000D03*
X91900000Y-108940000D03*
X91900000Y-114020000D03*
X91900000Y-119100000D03*
G36*
X179641844Y-120189905D02*
G01*
X179642001Y-120191803D01*
X179640499Y-120192972D01*
X179640493Y-120192973D01*
X179640164Y-120193000D01*
X176559836Y-120193000D01*
X176558422Y-120192414D01*
X176558421Y-120192413D01*
X176557835Y-120190999D01*
X176558421Y-120189585D01*
X176559835Y-120188999D01*
X179640170Y-120188999D01*
X179641844Y-120189905D01*
G37*
G36*
X93441844Y-43989905D02*
G01*
X93442001Y-43991803D01*
X93440499Y-43992972D01*
X93440493Y-43992973D01*
X93440164Y-43993000D01*
X90359836Y-43993000D01*
X90358422Y-43992414D01*
X90358421Y-43992413D01*
X90357835Y-43990999D01*
X90358421Y-43989585D01*
X90359835Y-43988999D01*
X93440170Y-43988999D01*
X93441844Y-43989905D01*
G37*
M02*
