M48
; DRILL file {KiCad 7.0.1} date Thu Jun 29 16:02:43 2023
; FORMAT={-:-/ absolute / inch / decimal}
; #@! TF.CreationDate,2023-06-29T16:02:43+02:00
; #@! TF.GenerationSoftware,Kicad,Pcbnew,7.0.1
; #@! TF.FileFunction,Plated,1,2,PTH
FMAT,2
INCH
; #@! TA.AperFunction,Plated,PTH,ViaDrill
T1C0.0157
; #@! TA.AperFunction,Plated,PTH,ComponentDrill
T2C0.0236
; #@! TA.AperFunction,Plated,PTH,ComponentDrill
T3C0.0394
; #@! TA.AperFunction,Plated,PTH,ComponentDrill
T4C0.0551
; #@! TA.AperFunction,Plated,PTH,ComponentDrill
T5C0.1693
%
G90
G05
T1
X4.5433Y-1.8969
X4.5433Y-2.2969
X4.5433Y-2.6969
X4.5433Y-3.0969
X4.5433Y-3.4969
X4.5433Y-3.8969
X4.5433Y-4.2969
X4.5433Y-4.6969
X4.5984Y-1.8969
X4.5984Y-2.2969
X4.5984Y-2.6969
X4.5984Y-3.0969
X4.5984Y-3.4969
X4.5984Y-3.8969
X4.5984Y-4.2969
X4.5984Y-4.6969
X5.0157Y-3.4567
X5.0157Y-3.5197
X5.0157Y-3.5827
X5.0157Y-3.6378
X5.126Y-3.4567
X5.126Y-3.5197
X5.126Y-3.5827
X5.126Y-3.6378
X5.2362Y-3.4567
X5.2362Y-3.5197
X5.2362Y-3.5827
X5.3543Y-3.4567
X5.3543Y-3.5197
X5.3543Y-3.5827
X5.4134Y-3.2087
X5.4134Y-3.2677
X5.4646Y-3.4567
X5.4646Y-3.5197
X5.4646Y-3.5827
X5.4724Y-3.2087
X5.4724Y-3.2677
X5.5315Y-3.2087
X5.5315Y-3.2677
X5.5748Y-3.4567
X5.5748Y-3.5197
X5.5748Y-3.5827
X5.5748Y-3.6378
X5.5906Y-3.0315
X5.5906Y-3.0906
X5.5906Y-3.1496
X5.5906Y-3.2087
X5.5906Y-3.2677
X5.6496Y-3.0315
X5.6496Y-3.0906
X5.6496Y-3.1496
X5.6496Y-3.2087
X5.6496Y-3.2677
X5.685Y-3.4567
X5.685Y-3.5197
X5.685Y-3.5827
X5.685Y-3.6378
X5.7087Y-3.0315
X5.7087Y-3.0906
X5.7087Y-3.1496
X5.7087Y-3.2087
X5.7087Y-3.2677
X6.026Y-1.6815
X6.026Y-2.0815
X6.026Y-2.4815
X6.026Y-2.8815
X6.026Y-3.2815
X6.026Y-3.6815
X6.026Y-4.0815
X6.026Y-4.4815
X6.0835Y-1.6815
X6.0835Y-2.0815
X6.0835Y-2.4815
X6.0835Y-2.8815
X6.0835Y-3.2815
X6.0835Y-3.6815
X6.0835Y-4.0815
X6.0835Y-4.4815
T2
X3.5541Y-1.3976
X3.5541Y-4.9803
X3.5913Y-1.3079
X3.5913Y-1.4874
X3.5913Y-4.8905
X3.5913Y-5.0701
X3.6811Y-1.2707
X3.6811Y-1.5246
X3.6811Y-4.8533
X3.6811Y-5.1073
X3.7709Y-1.3079
X3.7709Y-1.4874
X3.7709Y-4.8905
X3.7709Y-5.0701
X3.8081Y-1.3976
X3.8081Y-4.9803
X6.8219Y-1.3976
X6.8219Y-4.9803
X6.859Y-1.3079
X6.859Y-1.4874
X6.859Y-4.8905
X6.859Y-5.0701
X6.9488Y-1.2707
X6.9488Y-1.5246
X6.9488Y-4.8533
X6.9488Y-5.1073
X7.0386Y-1.3079
X7.0386Y-1.4874
X7.0386Y-4.8905
X7.0386Y-5.0701
X7.0758Y-1.3976
X7.0758Y-4.9803
T3
X5.2648Y-3.7065
X5.2648Y-3.8065
X5.2648Y-3.9065
X5.2648Y-4.0065
X5.2648Y-4.1065
X5.2648Y-4.2065
X5.2648Y-4.3065
X5.2648Y-4.4065
X5.2648Y-4.5065
X5.2648Y-4.6065
X5.3648Y-3.7065
X5.3648Y-3.8065
X5.3648Y-3.9065
X5.3648Y-4.0065
X5.3648Y-4.1065
X5.3648Y-4.2065
X5.3648Y-4.3065
X5.3648Y-4.4065
X5.3648Y-4.5065
X5.3648Y-4.6065
T4
X3.6181Y-1.689
X3.6181Y-1.889
X3.6181Y-2.089
X3.6181Y-2.289
X3.6181Y-2.489
X3.6181Y-2.689
X3.6181Y-2.889
X3.6181Y-3.089
X3.6181Y-3.289
X3.6181Y-3.489
X3.6181Y-3.689
X3.6181Y-3.889
X3.6181Y-4.089
X3.6181Y-4.289
X3.6181Y-4.489
X3.6181Y-4.689
X7.0118Y-1.689
X7.0118Y-1.889
X7.0118Y-2.089
X7.0118Y-2.289
X7.0118Y-2.489
X7.0118Y-2.689
X7.0118Y-2.889
X7.0118Y-3.089
X7.0118Y-3.289
X7.0118Y-3.489
X7.0118Y-3.689
X7.0118Y-3.889
X7.0118Y-4.089
X7.0118Y-4.289
X7.0118Y-4.489
X7.0118Y-4.689
T5
X3.6811Y-1.3976
X3.6811Y-4.9803
X6.9488Y-1.3976
X6.9488Y-4.9803
T0
M30
