G04 #@! TF.GenerationSoftware,KiCad,Pcbnew,7.0.1*
G04 #@! TF.CreationDate,2023-06-29T16:02:41+02:00*
G04 #@! TF.ProjectId,Magnetsteuerung_v2.1,4d61676e-6574-4737-9465-756572756e67,rev?*
G04 #@! TF.SameCoordinates,Original*
G04 #@! TF.FileFunction,Paste,Top*
G04 #@! TF.FilePolarity,Positive*
%FSLAX46Y46*%
G04 Gerber Fmt 4.6, Leading zero omitted, Abs format (unit mm)*
G04 Created by KiCad (PCBNEW 7.0.1) date 2023-06-29 16:02:41*
%MOMM*%
%LPD*%
G01*
G04 APERTURE LIST*
G04 Aperture macros list*
%AMRoundRect*
0 Rectangle with rounded corners*
0 $1 Rounding radius*
0 $2 $3 $4 $5 $6 $7 $8 $9 X,Y pos of 4 corners*
0 Add a 4 corners polygon primitive as box body*
4,1,4,$2,$3,$4,$5,$6,$7,$8,$9,$2,$3,0*
0 Add four circle primitives for the rounded corners*
1,1,$1+$1,$2,$3*
1,1,$1+$1,$4,$5*
1,1,$1+$1,$6,$7*
1,1,$1+$1,$8,$9*
0 Add four rect primitives between the rounded corners*
20,1,$1+$1,$2,$3,$4,$5,0*
20,1,$1+$1,$4,$5,$6,$7,0*
20,1,$1+$1,$6,$7,$8,$9,0*
20,1,$1+$1,$8,$9,$2,$3,0*%
G04 Aperture macros list end*
%ADD10RoundRect,0.250000X1.500000X1.000000X-1.500000X1.000000X-1.500000X-1.000000X1.500000X-1.000000X0*%
%ADD11RoundRect,0.218750X-0.218750X-0.256250X0.218750X-0.256250X0.218750X0.256250X-0.218750X0.256250X0*%
%ADD12R,3.050000X2.750000*%
%ADD13R,2.200000X1.200000*%
%ADD14RoundRect,0.218750X0.218750X0.256250X-0.218750X0.256250X-0.218750X-0.256250X0.218750X-0.256250X0*%
%ADD15R,2.100000X1.400000*%
%ADD16RoundRect,0.250000X-1.000000X1.950000X-1.000000X-1.950000X1.000000X-1.950000X1.000000X1.950000X0*%
%ADD17R,1.200000X0.900000*%
%ADD18RoundRect,0.250000X0.625000X-0.375000X0.625000X0.375000X-0.625000X0.375000X-0.625000X-0.375000X0*%
%ADD19R,2.900000X5.400000*%
%ADD20R,5.250000X4.550000*%
%ADD21R,1.100000X4.600000*%
%ADD22R,0.650000X1.060000*%
%ADD23RoundRect,0.218750X0.256250X-0.218750X0.256250X0.218750X-0.256250X0.218750X-0.256250X-0.218750X0*%
%ADD24RoundRect,0.218750X-0.256250X0.218750X-0.256250X-0.218750X0.256250X-0.218750X0.256250X0.218750X0*%
%ADD25RoundRect,0.200000X-0.200000X-0.275000X0.200000X-0.275000X0.200000X0.275000X-0.200000X0.275000X0*%
%ADD26RoundRect,0.250000X-0.375000X-1.075000X0.375000X-1.075000X0.375000X1.075000X-0.375000X1.075000X0*%
%ADD27RoundRect,0.250000X0.375000X1.075000X-0.375000X1.075000X-0.375000X-1.075000X0.375000X-1.075000X0*%
G04 APERTURE END LIST*
D10*
X138450000Y-78500000D03*
X131950000Y-78500000D03*
D11*
X111742500Y-81850000D03*
X113317500Y-81850000D03*
X111742500Y-51370000D03*
X113317500Y-51370000D03*
X111742500Y-71690000D03*
X113317500Y-71690000D03*
X111742500Y-41210000D03*
X113317500Y-41210000D03*
X111742500Y-92010000D03*
X113317500Y-92010000D03*
X111742500Y-61530000D03*
X113317500Y-61530000D03*
D12*
X105075000Y-87605000D03*
X105075000Y-84555000D03*
X101725000Y-87605000D03*
X101725000Y-84555000D03*
D13*
X109700000Y-88360000D03*
X109700000Y-83800000D03*
D12*
X105075000Y-57125000D03*
X105075000Y-54075000D03*
X101725000Y-57125000D03*
X101725000Y-54075000D03*
D13*
X109700000Y-57880000D03*
X109700000Y-53320000D03*
D12*
X105075000Y-107925000D03*
X105075000Y-104875000D03*
X101725000Y-107925000D03*
X101725000Y-104875000D03*
D13*
X109700000Y-108680000D03*
X109700000Y-104120000D03*
D12*
X105075000Y-77445000D03*
X105075000Y-74395000D03*
X101725000Y-77445000D03*
X101725000Y-74395000D03*
D13*
X109700000Y-78200000D03*
X109700000Y-73640000D03*
D12*
X105075000Y-46965000D03*
X105075000Y-43915000D03*
X101725000Y-46965000D03*
X101725000Y-43915000D03*
D13*
X109700000Y-47720000D03*
X109700000Y-43160000D03*
D12*
X105075000Y-97765000D03*
X105075000Y-94715000D03*
X101725000Y-97765000D03*
X101725000Y-94715000D03*
D13*
X109700000Y-98520000D03*
X109700000Y-93960000D03*
D12*
X105075000Y-67285000D03*
X105075000Y-64235000D03*
X101725000Y-67285000D03*
X101725000Y-64235000D03*
D13*
X109700000Y-68040000D03*
X109700000Y-63480000D03*
D11*
X114702500Y-83310000D03*
X116277500Y-83310000D03*
X111742500Y-83310000D03*
X113317500Y-83310000D03*
X114702500Y-52830000D03*
X116277500Y-52830000D03*
X111742500Y-52830000D03*
X113317500Y-52830000D03*
D14*
X113317500Y-88850000D03*
X111742500Y-88850000D03*
X113317500Y-58370000D03*
X111742500Y-58370000D03*
D11*
X114702500Y-103630000D03*
X116277500Y-103630000D03*
X111742500Y-103630000D03*
X113317500Y-103630000D03*
X114702500Y-73150000D03*
X116277500Y-73150000D03*
X111742500Y-73150000D03*
X113317500Y-73150000D03*
X114702500Y-42670000D03*
X116277500Y-42670000D03*
X111742500Y-42670000D03*
X113317500Y-42670000D03*
D14*
X113317500Y-109170000D03*
X111742500Y-109170000D03*
X113317500Y-78690000D03*
X111742500Y-78690000D03*
D11*
X114702500Y-93470000D03*
X116277500Y-93470000D03*
X111742500Y-93470000D03*
X113317500Y-93470000D03*
X114702500Y-62990000D03*
X116277500Y-62990000D03*
X111742500Y-62990000D03*
X113317500Y-62990000D03*
D14*
X113317500Y-99010000D03*
X111742500Y-99010000D03*
X113317500Y-68530000D03*
X111742500Y-68530000D03*
D15*
X97500000Y-104200000D03*
X97500000Y-108600000D03*
D16*
X134900000Y-33400000D03*
X134900000Y-41800000D03*
D17*
X126200000Y-66350000D03*
X126200000Y-69650000D03*
D18*
X127830000Y-58160000D03*
X127830000Y-55360000D03*
D19*
X130350000Y-67500000D03*
X140050000Y-67500000D03*
D15*
X97500000Y-83880000D03*
X97500000Y-88280000D03*
X97500000Y-53400000D03*
X97500000Y-57800000D03*
X97500000Y-73720000D03*
X97500000Y-78120000D03*
X97500000Y-94040000D03*
X97500000Y-98440000D03*
X97500000Y-63560000D03*
X97500000Y-67960000D03*
X172500000Y-43240000D03*
X172500000Y-47640000D03*
D14*
X158157500Y-120790000D03*
X156582500Y-120790000D03*
D12*
X164825000Y-115035000D03*
X164825000Y-118085000D03*
X168175000Y-115035000D03*
X168175000Y-118085000D03*
D13*
X160200000Y-114280000D03*
X160200000Y-118840000D03*
D14*
X155197500Y-119330000D03*
X153622500Y-119330000D03*
X158157500Y-119330000D03*
X156582500Y-119330000D03*
D11*
X156582500Y-113790000D03*
X158157500Y-113790000D03*
D15*
X172500000Y-73720000D03*
X172500000Y-78120000D03*
X172500000Y-104200000D03*
X172500000Y-108600000D03*
X172500000Y-83880000D03*
X172500000Y-88280000D03*
X172500000Y-114360000D03*
X172500000Y-118760000D03*
X172500000Y-94040000D03*
X172500000Y-98440000D03*
X172500000Y-53400000D03*
X172500000Y-57800000D03*
X172500000Y-63560000D03*
X172500000Y-67960000D03*
D20*
X132125000Y-51593400D03*
X137675000Y-51593400D03*
X132125000Y-46743400D03*
X137675000Y-46743400D03*
D21*
X131500000Y-58318400D03*
X133200000Y-58318400D03*
X134900000Y-58318400D03*
X136600000Y-58318400D03*
X138300000Y-58318400D03*
D22*
X113800000Y-115600000D03*
X112850000Y-115600000D03*
X111900000Y-115600000D03*
X111900000Y-117800000D03*
X113800000Y-117800000D03*
X113800000Y-85120000D03*
X112850000Y-85120000D03*
X111900000Y-85120000D03*
X111900000Y-87320000D03*
X113800000Y-87320000D03*
X113800000Y-54640000D03*
X112850000Y-54640000D03*
X111900000Y-54640000D03*
X111900000Y-56840000D03*
X113800000Y-56840000D03*
X113800000Y-74960000D03*
X112850000Y-74960000D03*
X111900000Y-74960000D03*
X111900000Y-77160000D03*
X113800000Y-77160000D03*
X113800000Y-105440000D03*
X112850000Y-105440000D03*
X111900000Y-105440000D03*
X111900000Y-107640000D03*
X113800000Y-107640000D03*
X113800000Y-44480000D03*
X112850000Y-44480000D03*
X111900000Y-44480000D03*
X111900000Y-46680000D03*
X113800000Y-46680000D03*
X113800000Y-95280000D03*
X112850000Y-95280000D03*
X111900000Y-95280000D03*
X111900000Y-97480000D03*
X113800000Y-97480000D03*
X156100000Y-117520000D03*
X157050000Y-117520000D03*
X158000000Y-117520000D03*
X158000000Y-115320000D03*
X156100000Y-115320000D03*
X113800000Y-64800000D03*
X112850000Y-64800000D03*
X111900000Y-64800000D03*
X111900000Y-67000000D03*
X113800000Y-67000000D03*
D23*
X116840000Y-117907500D03*
X116840000Y-116332500D03*
X115380000Y-117907500D03*
X115380000Y-116332500D03*
X116840000Y-87427500D03*
X116840000Y-85852500D03*
X115380000Y-87427500D03*
X115380000Y-85852500D03*
X116840000Y-56947500D03*
X116840000Y-55372500D03*
X115380000Y-56947500D03*
X115380000Y-55372500D03*
X116840000Y-107747500D03*
X116840000Y-106172500D03*
X115380000Y-107747500D03*
X115380000Y-106172500D03*
X116840000Y-77267500D03*
X116840000Y-75692500D03*
X115380000Y-77267500D03*
X115380000Y-75692500D03*
X116840000Y-46787500D03*
X116840000Y-45212500D03*
X115380000Y-46787500D03*
X115380000Y-45212500D03*
X116840000Y-97587500D03*
X116840000Y-96012500D03*
X115380000Y-97587500D03*
X115380000Y-96012500D03*
X116840000Y-67107500D03*
X116840000Y-65532500D03*
X115380000Y-67107500D03*
X115380000Y-65532500D03*
D24*
X153060000Y-115212500D03*
X153060000Y-116787500D03*
X154520000Y-115212500D03*
X154520000Y-116787500D03*
D25*
X114665000Y-81850000D03*
X116315000Y-81850000D03*
X114665000Y-51370000D03*
X116315000Y-51370000D03*
X114665000Y-71690000D03*
X116315000Y-71690000D03*
X114665000Y-41210000D03*
X116315000Y-41210000D03*
X114665000Y-92010000D03*
X116315000Y-92010000D03*
X114665000Y-61530000D03*
X116315000Y-61530000D03*
D14*
X155197500Y-120790000D03*
X153622500Y-120790000D03*
D15*
X97500000Y-43240000D03*
X97500000Y-47640000D03*
D12*
X105075000Y-118085000D03*
X105075000Y-115035000D03*
X101725000Y-118085000D03*
X101725000Y-115035000D03*
D13*
X109700000Y-118840000D03*
X109700000Y-114280000D03*
D11*
X114702500Y-113790000D03*
X116277500Y-113790000D03*
X111742500Y-113790000D03*
X113317500Y-113790000D03*
D15*
X97500000Y-114360000D03*
X97500000Y-118760000D03*
D14*
X113317500Y-119330000D03*
X111742500Y-119330000D03*
D11*
X111742500Y-102170000D03*
X113317500Y-102170000D03*
D25*
X114665000Y-102170000D03*
X116315000Y-102170000D03*
D14*
X113317500Y-48210000D03*
X111742500Y-48210000D03*
D26*
X168200000Y-40360000D03*
X171000000Y-40360000D03*
X169700000Y-70840000D03*
X172500000Y-70840000D03*
X169700000Y-101320000D03*
X172500000Y-101320000D03*
X169700000Y-50520000D03*
X172500000Y-50520000D03*
X169700000Y-81000000D03*
X172500000Y-81000000D03*
X169700000Y-111480000D03*
X172500000Y-111480000D03*
X169700000Y-60680000D03*
X172500000Y-60680000D03*
X169700000Y-91160000D03*
X172500000Y-91160000D03*
D27*
X100300000Y-111480000D03*
X97500000Y-111480000D03*
X100300000Y-81000000D03*
X97500000Y-81000000D03*
X100300000Y-50520000D03*
X97500000Y-50520000D03*
X100300000Y-101320000D03*
X97500000Y-101320000D03*
X100300000Y-70840000D03*
X97500000Y-70840000D03*
X101800000Y-40360000D03*
X99000000Y-40360000D03*
X100300000Y-91160000D03*
X97500000Y-91160000D03*
X100300000Y-60680000D03*
X97500000Y-60680000D03*
D11*
X111742500Y-112330000D03*
X113317500Y-112330000D03*
D12*
X164825000Y-74395000D03*
X164825000Y-77445000D03*
X168175000Y-74395000D03*
X168175000Y-77445000D03*
D13*
X160200000Y-73640000D03*
X160200000Y-78200000D03*
D12*
X164825000Y-54075000D03*
X164825000Y-57125000D03*
X168175000Y-54075000D03*
X168175000Y-57125000D03*
D13*
X160200000Y-53320000D03*
X160200000Y-57880000D03*
D14*
X155197500Y-48210000D03*
X153622500Y-48210000D03*
D12*
X164825000Y-104875000D03*
X164825000Y-107925000D03*
X168175000Y-104875000D03*
X168175000Y-107925000D03*
D13*
X160200000Y-104120000D03*
X160200000Y-108680000D03*
D14*
X158157500Y-48210000D03*
X156582500Y-48210000D03*
X158157500Y-78690000D03*
X156582500Y-78690000D03*
X158157500Y-100470000D03*
X156582500Y-100470000D03*
D12*
X164825000Y-94715000D03*
X164825000Y-97765000D03*
X168175000Y-94715000D03*
X168175000Y-97765000D03*
D13*
X160200000Y-93960000D03*
X160200000Y-98520000D03*
D14*
X155197500Y-78690000D03*
X153622500Y-78690000D03*
D12*
X164825000Y-84555000D03*
X164825000Y-87605000D03*
X168175000Y-84555000D03*
X168175000Y-87605000D03*
D13*
X160200000Y-83800000D03*
X160200000Y-88360000D03*
D14*
X158157500Y-90310000D03*
X156582500Y-90310000D03*
X158157500Y-69990000D03*
X156582500Y-69990000D03*
D12*
X164825000Y-64235000D03*
X164825000Y-67285000D03*
X168175000Y-64235000D03*
X168175000Y-67285000D03*
D13*
X160200000Y-63480000D03*
X160200000Y-68040000D03*
D11*
X156582500Y-42670000D03*
X158157500Y-42670000D03*
D14*
X158157500Y-109170000D03*
X156582500Y-109170000D03*
X155197500Y-109170000D03*
X153622500Y-109170000D03*
D11*
X156582500Y-73150000D03*
X158157500Y-73150000D03*
X156582500Y-103630000D03*
X158157500Y-103630000D03*
D14*
X158157500Y-88850000D03*
X156582500Y-88850000D03*
X155197500Y-58370000D03*
X153622500Y-58370000D03*
X158157500Y-58370000D03*
X156582500Y-58370000D03*
X155197500Y-99010000D03*
X153622500Y-99010000D03*
X155197500Y-88850000D03*
X153622500Y-88850000D03*
D11*
X156582500Y-83310000D03*
X158157500Y-83310000D03*
X156582500Y-62990000D03*
X158157500Y-62990000D03*
X156582500Y-52830000D03*
X158157500Y-52830000D03*
X156582500Y-93470000D03*
X158157500Y-93470000D03*
D14*
X155197500Y-68530000D03*
X153622500Y-68530000D03*
X158157500Y-68530000D03*
X156582500Y-68530000D03*
X158157500Y-99010000D03*
X156582500Y-99010000D03*
D22*
X156100000Y-46400000D03*
X157050000Y-46400000D03*
X158000000Y-46400000D03*
X158000000Y-44200000D03*
X156100000Y-44200000D03*
X156100000Y-56560000D03*
X157050000Y-56560000D03*
X158000000Y-56560000D03*
X158000000Y-54360000D03*
X156100000Y-54360000D03*
X156100000Y-87040000D03*
X157050000Y-87040000D03*
X158000000Y-87040000D03*
X158000000Y-84840000D03*
X156100000Y-84840000D03*
X156100000Y-66720000D03*
X157050000Y-66720000D03*
X158000000Y-66720000D03*
X158000000Y-64520000D03*
X156100000Y-64520000D03*
X156100000Y-97200000D03*
X157050000Y-97200000D03*
X158000000Y-97200000D03*
X158000000Y-95000000D03*
X156100000Y-95000000D03*
X156100000Y-76880000D03*
X157050000Y-76880000D03*
X158000000Y-76880000D03*
X158000000Y-74680000D03*
X156100000Y-74680000D03*
D12*
X164825000Y-43915000D03*
X164825000Y-46965000D03*
X168175000Y-43915000D03*
X168175000Y-46965000D03*
D13*
X160200000Y-43160000D03*
X160200000Y-47720000D03*
D22*
X156100000Y-107360000D03*
X157050000Y-107360000D03*
X158000000Y-107360000D03*
X158000000Y-105160000D03*
X156100000Y-105160000D03*
D24*
X154520000Y-74572500D03*
X154520000Y-76147500D03*
X154520000Y-44092500D03*
X154520000Y-45667500D03*
X153060000Y-44092500D03*
X153060000Y-45667500D03*
X153060000Y-74572500D03*
X153060000Y-76147500D03*
X153060000Y-94892500D03*
X153060000Y-96467500D03*
X153060000Y-105052500D03*
X153060000Y-106627500D03*
X154520000Y-105052500D03*
X154520000Y-106627500D03*
X154520000Y-54252500D03*
X154520000Y-55827500D03*
X153060000Y-54252500D03*
X153060000Y-55827500D03*
X154520000Y-94892500D03*
X154520000Y-96467500D03*
X153060000Y-84732500D03*
X153060000Y-86307500D03*
X154520000Y-64412500D03*
X154520000Y-65987500D03*
X154520000Y-84732500D03*
X154520000Y-86307500D03*
X153060000Y-64412500D03*
X153060000Y-65987500D03*
D14*
X155197500Y-49670000D03*
X153622500Y-49670000D03*
X155197500Y-80150000D03*
X153622500Y-80150000D03*
X155197500Y-110630000D03*
X153622500Y-110630000D03*
X155197500Y-59830000D03*
X153622500Y-59830000D03*
X155197500Y-90310000D03*
X153622500Y-90310000D03*
X155197500Y-100470000D03*
X153622500Y-100470000D03*
X155197500Y-69990000D03*
X153622500Y-69990000D03*
X158157500Y-80150000D03*
X156582500Y-80150000D03*
X158157500Y-59830000D03*
X156582500Y-59830000D03*
X158157500Y-110630000D03*
X156582500Y-110630000D03*
X158157500Y-49670000D03*
X156582500Y-49670000D03*
D25*
X114665000Y-112330000D03*
X116315000Y-112330000D03*
D16*
X145900000Y-33400000D03*
X145900000Y-41800000D03*
X123900000Y-33400000D03*
X123900000Y-41800000D03*
D18*
X125510000Y-58160000D03*
X125510000Y-55360000D03*
M02*
