M48
; DRILL file {KiCad (5.1.0)-1} date 29.03.2021 23:12:57
; FORMAT={-:-/ absolute / metric / decimal}
; #@! TF.CreationDate,2021-03-29T23:12:57+02:00
; #@! TF.GenerationSoftware,Kicad,Pcbnew,(5.1.0)-1
; #@! TF.FileFunction,Plated,1,2,PTH
FMAT,2
METRIC
T1C0.400
T2C1.000
T3C1.100
%
G90
G05
T1
X98.825Y-49.275
X98.825Y-60.275
X98.825Y-71.225
X98.825Y-82.275
X98.825Y-93.275
X98.825Y-104.255
X98.825Y-115.255
X98.85Y-38.3
X108.4Y-49.27
X108.4Y-82.29
X108.42Y-60.26
X108.42Y-71.26
X108.42Y-115.28
X108.44Y-93.26
X108.44Y-104.27
X108.85Y-38.55
X120.4Y-60.35
X120.8Y-48.6
X120.8Y-51.95
X121.0Y-70.6
X121.0Y-74.25
X121.0Y-92.6
X121.0Y-96.25
X121.0Y-114.6
X121.0Y-118.0
X121.2Y-42.4
X121.2Y-43.4
X121.2Y-54.4
X121.2Y-64.4
X121.2Y-65.4
X121.2Y-76.4
X121.2Y-86.4
X121.2Y-87.4
X121.2Y-98.4
X121.2Y-108.4
X121.2Y-109.4
X121.2Y-120.4
X121.68Y-57.43
X121.68Y-68.43
X121.68Y-79.43
X121.68Y-90.43
X121.68Y-101.43
X121.68Y-112.43
X121.68Y-123.43
X122.825Y-45.575
X128.475Y-68.775
X131.175Y-53.275
X133.66Y-55.385
X137.075Y-55.375
X138.3Y-74.7
X142.3Y-68.725
X145.0Y-121.8
X148.195Y-38.695
X148.195Y-49.695
X148.195Y-60.695
X148.195Y-71.695
X148.195Y-82.695
X148.195Y-93.695
X148.195Y-104.695
X148.8Y-41.6
X148.8Y-52.6
X148.8Y-63.6
X148.8Y-74.6
X148.8Y-85.6
X148.8Y-96.6
X148.8Y-107.6
X148.8Y-118.6
X149.0Y-43.75
X149.0Y-47.75
X149.0Y-54.0
X149.0Y-65.75
X149.0Y-69.75
X149.0Y-76.0
X149.0Y-87.75
X149.0Y-91.75
X149.0Y-98.0
X149.0Y-109.75
X149.0Y-113.75
X149.0Y-120.0
X161.5Y-46.75
X161.5Y-57.75
X161.5Y-68.75
X161.5Y-79.75
X161.5Y-90.75
X161.5Y-101.75
X161.5Y-112.75
X161.5Y-123.75
X171.15Y-123.75
X171.175Y-46.725
X171.175Y-57.725
X171.175Y-68.725
X171.175Y-79.725
X171.175Y-90.725
X171.175Y-101.725
X171.175Y-112.725
T2
X133.725Y-84.145
X133.725Y-86.685
X133.725Y-89.225
X133.725Y-91.765
X133.725Y-94.305
X133.725Y-96.845
X133.725Y-99.385
X133.725Y-101.925
X133.725Y-104.465
X133.725Y-107.005
X136.265Y-84.145
X136.265Y-86.685
X136.265Y-89.225
X136.265Y-91.765
X136.265Y-94.305
X136.265Y-96.845
X136.265Y-99.385
X136.265Y-101.925
X136.265Y-104.465
X136.265Y-107.005
T3
X151.2Y-40.75
X151.2Y-44.25
X156.2Y-40.75
X156.2Y-44.25
X113.8Y-73.75
X113.8Y-77.25
X118.8Y-73.75
X118.8Y-77.25
X151.2Y-51.75
X151.2Y-55.25
X156.2Y-51.75
X156.2Y-55.25
X137.7Y-121.5
X137.7Y-126.5
X141.2Y-121.5
X141.2Y-126.5
X151.2Y-117.75
X151.2Y-121.25
X156.2Y-117.75
X156.2Y-121.25
X113.8Y-40.75
X113.8Y-44.25
X118.8Y-40.75
X118.8Y-44.25
X113.8Y-106.75
X113.8Y-110.25
X118.8Y-106.75
X118.8Y-110.25
X151.2Y-62.75
X151.2Y-66.25
X156.2Y-62.75
X156.2Y-66.25
X151.2Y-106.75
X151.2Y-110.25
X156.2Y-106.75
X156.2Y-110.25
X151.2Y-73.75
X151.2Y-77.25
X156.2Y-73.75
X156.2Y-77.25
X113.8Y-62.75
X113.8Y-66.25
X118.8Y-62.75
X118.8Y-66.25
X128.8Y-35.5
X128.8Y-40.5
X132.3Y-35.5
X132.3Y-40.5
X113.8Y-51.75
X113.8Y-55.25
X118.8Y-51.75
X118.8Y-55.25
X151.2Y-95.75
X151.2Y-99.25
X156.2Y-95.75
X156.2Y-99.25
X113.8Y-117.75
X113.8Y-121.25
X118.8Y-117.75
X118.8Y-121.25
X151.2Y-84.75
X151.2Y-88.25
X156.2Y-84.75
X156.2Y-88.25
X113.8Y-95.75
X113.8Y-99.25
X118.8Y-95.75
X118.8Y-99.25
X137.7Y-35.5
X137.7Y-40.5
X141.2Y-35.5
X141.2Y-40.5
X128.8Y-121.5
X128.8Y-126.5
X132.3Y-121.5
X132.3Y-126.5
X113.8Y-84.75
X113.8Y-88.25
X118.8Y-84.75
X118.8Y-88.25
T0
M30
