G04 #@! TF.GenerationSoftware,KiCad,Pcbnew,(5.1.0)-1*
G04 #@! TF.CreationDate,2021-07-12T23:25:08+02:00*
G04 #@! TF.ProjectId,Magnetsteuerung_v2.1,4d61676e-6574-4737-9465-756572756e67,rev?*
G04 #@! TF.SameCoordinates,Original*
G04 #@! TF.FileFunction,Other,ECO2*
%FSLAX46Y46*%
G04 Gerber Fmt 4.6, Leading zero omitted, Abs format (unit mm)*
G04 Created by KiCad (PCBNEW (5.1.0)-1) date 2021-07-12 23:25:08*
%MOMM*%
%LPD*%
G04 APERTURE LIST*
%ADD10C,0.300000*%
%ADD11C,0.150000*%
G04 APERTURE END LIST*
D10*
X126302857Y-99968571D02*
X126231428Y-100182857D01*
X126231428Y-100540000D01*
X126302857Y-100682857D01*
X126374285Y-100754285D01*
X126517142Y-100825714D01*
X126660000Y-100825714D01*
X126802857Y-100754285D01*
X126874285Y-100682857D01*
X126945714Y-100540000D01*
X127017142Y-100254285D01*
X127088571Y-100111428D01*
X127160000Y-100040000D01*
X127302857Y-99968571D01*
X127445714Y-99968571D01*
X127588571Y-100040000D01*
X127660000Y-100111428D01*
X127731428Y-100254285D01*
X127731428Y-100611428D01*
X127660000Y-100825714D01*
X126231428Y-101468571D02*
X127731428Y-101468571D01*
X126231428Y-102325714D01*
X127731428Y-102325714D01*
X127231428Y-103682857D02*
X126231428Y-103682857D01*
X127802857Y-103325714D02*
X126731428Y-102968571D01*
X126731428Y-103897142D01*
X127088571Y-104682857D02*
X127160000Y-104540000D01*
X127231428Y-104468571D01*
X127374285Y-104397142D01*
X127445714Y-104397142D01*
X127588571Y-104468571D01*
X127660000Y-104540000D01*
X127731428Y-104682857D01*
X127731428Y-104968571D01*
X127660000Y-105111428D01*
X127588571Y-105182857D01*
X127445714Y-105254285D01*
X127374285Y-105254285D01*
X127231428Y-105182857D01*
X127160000Y-105111428D01*
X127088571Y-104968571D01*
X127088571Y-104682857D01*
X127017142Y-104540000D01*
X126945714Y-104468571D01*
X126802857Y-104397142D01*
X126517142Y-104397142D01*
X126374285Y-104468571D01*
X126302857Y-104540000D01*
X126231428Y-104682857D01*
X126231428Y-104968571D01*
X126302857Y-105111428D01*
X126374285Y-105182857D01*
X126517142Y-105254285D01*
X126802857Y-105254285D01*
X126945714Y-105182857D01*
X127017142Y-105111428D01*
X127088571Y-104968571D01*
X127731428Y-106611428D02*
X127731428Y-105897142D01*
X127017142Y-105825714D01*
X127088571Y-105897142D01*
X127160000Y-106040000D01*
X127160000Y-106397142D01*
X127088571Y-106540000D01*
X127017142Y-106611428D01*
X126874285Y-106682857D01*
X126517142Y-106682857D01*
X126374285Y-106611428D01*
X126302857Y-106540000D01*
X126231428Y-106397142D01*
X126231428Y-106040000D01*
X126302857Y-105897142D01*
X126374285Y-105825714D01*
X127731428Y-108040000D02*
X127731428Y-107325714D01*
X127017142Y-107254285D01*
X127088571Y-107325714D01*
X127160000Y-107468571D01*
X127160000Y-107825714D01*
X127088571Y-107968571D01*
X127017142Y-108040000D01*
X126874285Y-108111428D01*
X126517142Y-108111428D01*
X126374285Y-108040000D01*
X126302857Y-107968571D01*
X126231428Y-107825714D01*
X126231428Y-107468571D01*
X126302857Y-107325714D01*
X126374285Y-107254285D01*
X126302857Y-108682857D02*
X126231428Y-108897142D01*
X126231428Y-109254285D01*
X126302857Y-109397142D01*
X126374285Y-109468571D01*
X126517142Y-109540000D01*
X126660000Y-109540000D01*
X126802857Y-109468571D01*
X126874285Y-109397142D01*
X126945714Y-109254285D01*
X127017142Y-108968571D01*
X127088571Y-108825714D01*
X127160000Y-108754285D01*
X127302857Y-108682857D01*
X127445714Y-108682857D01*
X127588571Y-108754285D01*
X127660000Y-108825714D01*
X127731428Y-108968571D01*
X127731428Y-109325714D01*
X127660000Y-109540000D01*
X127588571Y-110111428D02*
X127660000Y-110182857D01*
X127731428Y-110325714D01*
X127731428Y-110682857D01*
X127660000Y-110825714D01*
X127588571Y-110897142D01*
X127445714Y-110968571D01*
X127302857Y-110968571D01*
X127088571Y-110897142D01*
X126231428Y-110040000D01*
X126231428Y-110968571D01*
X127231428Y-112254285D02*
X126231428Y-112254285D01*
X127802857Y-111897142D02*
X126731428Y-111540000D01*
X126731428Y-112468571D01*
X126660000Y-112968571D02*
X126660000Y-113682857D01*
X126231428Y-112825714D02*
X127731428Y-113325714D01*
X126231428Y-113825714D01*
X127088571Y-114540000D02*
X127160000Y-114397142D01*
X127231428Y-114325714D01*
X127374285Y-114254285D01*
X127445714Y-114254285D01*
X127588571Y-114325714D01*
X127660000Y-114397142D01*
X127731428Y-114540000D01*
X127731428Y-114825714D01*
X127660000Y-114968571D01*
X127588571Y-115040000D01*
X127445714Y-115111428D01*
X127374285Y-115111428D01*
X127231428Y-115040000D01*
X127160000Y-114968571D01*
X127088571Y-114825714D01*
X127088571Y-114540000D01*
X127017142Y-114397142D01*
X126945714Y-114325714D01*
X126802857Y-114254285D01*
X126517142Y-114254285D01*
X126374285Y-114325714D01*
X126302857Y-114397142D01*
X126231428Y-114540000D01*
X126231428Y-114825714D01*
X126302857Y-114968571D01*
X126374285Y-115040000D01*
X126517142Y-115111428D01*
X126802857Y-115111428D01*
X126945714Y-115040000D01*
X127017142Y-114968571D01*
X127088571Y-114825714D01*
X164527142Y-126040000D02*
X164384285Y-125968571D01*
X164170000Y-125968571D01*
X163955714Y-126040000D01*
X163812857Y-126182857D01*
X163741428Y-126325714D01*
X163670000Y-126611428D01*
X163670000Y-126825714D01*
X163741428Y-127111428D01*
X163812857Y-127254285D01*
X163955714Y-127397142D01*
X164170000Y-127468571D01*
X164312857Y-127468571D01*
X164527142Y-127397142D01*
X164598571Y-127325714D01*
X164598571Y-126825714D01*
X164312857Y-126825714D01*
X165241428Y-127468571D02*
X165241428Y-125968571D01*
X166098571Y-127468571D01*
X166098571Y-125968571D01*
X166812857Y-127468571D02*
X166812857Y-125968571D01*
X167170000Y-125968571D01*
X167384285Y-126040000D01*
X167527142Y-126182857D01*
X167598571Y-126325714D01*
X167670000Y-126611428D01*
X167670000Y-126825714D01*
X167598571Y-127111428D01*
X167527142Y-127254285D01*
X167384285Y-127397142D01*
X167170000Y-127468571D01*
X166812857Y-127468571D01*
X102357142Y-125920000D02*
X102214285Y-125848571D01*
X102000000Y-125848571D01*
X101785714Y-125920000D01*
X101642857Y-126062857D01*
X101571428Y-126205714D01*
X101500000Y-126491428D01*
X101500000Y-126705714D01*
X101571428Y-126991428D01*
X101642857Y-127134285D01*
X101785714Y-127277142D01*
X102000000Y-127348571D01*
X102142857Y-127348571D01*
X102357142Y-127277142D01*
X102428571Y-127205714D01*
X102428571Y-126705714D01*
X102142857Y-126705714D01*
X103071428Y-127348571D02*
X103071428Y-125848571D01*
X103928571Y-127348571D01*
X103928571Y-125848571D01*
X104642857Y-127348571D02*
X104642857Y-125848571D01*
X105000000Y-125848571D01*
X105214285Y-125920000D01*
X105357142Y-126062857D01*
X105428571Y-126205714D01*
X105500000Y-126491428D01*
X105500000Y-126705714D01*
X105428571Y-126991428D01*
X105357142Y-127134285D01*
X105214285Y-127277142D01*
X105000000Y-127348571D01*
X104642857Y-127348571D01*
X101907142Y-33728571D02*
X102407142Y-35228571D01*
X102907142Y-33728571D01*
X103407142Y-35228571D02*
X103407142Y-34228571D01*
X103407142Y-33728571D02*
X103335714Y-33800000D01*
X103407142Y-33871428D01*
X103478571Y-33800000D01*
X103407142Y-33728571D01*
X103407142Y-33871428D01*
X104121428Y-34228571D02*
X104121428Y-35228571D01*
X104121428Y-34371428D02*
X104192857Y-34300000D01*
X104335714Y-34228571D01*
X104550000Y-34228571D01*
X104692857Y-34300000D01*
X104764285Y-34442857D01*
X104764285Y-35228571D01*
X105478571Y-35085714D02*
X105550000Y-35157142D01*
X105478571Y-35228571D01*
X105407142Y-35157142D01*
X105478571Y-35085714D01*
X105478571Y-35228571D01*
X105478571Y-34300000D02*
X105550000Y-34371428D01*
X105478571Y-34442857D01*
X105407142Y-34371428D01*
X105478571Y-34300000D01*
X105478571Y-34442857D01*
X107978571Y-34228571D02*
X107978571Y-35228571D01*
X107621428Y-33657142D02*
X107264285Y-34728571D01*
X108192857Y-34728571D01*
X108978571Y-34371428D02*
X108835714Y-34300000D01*
X108764285Y-34228571D01*
X108692857Y-34085714D01*
X108692857Y-34014285D01*
X108764285Y-33871428D01*
X108835714Y-33800000D01*
X108978571Y-33728571D01*
X109264285Y-33728571D01*
X109407142Y-33800000D01*
X109478571Y-33871428D01*
X109550000Y-34014285D01*
X109550000Y-34085714D01*
X109478571Y-34228571D01*
X109407142Y-34300000D01*
X109264285Y-34371428D01*
X108978571Y-34371428D01*
X108835714Y-34442857D01*
X108764285Y-34514285D01*
X108692857Y-34657142D01*
X108692857Y-34942857D01*
X108764285Y-35085714D01*
X108835714Y-35157142D01*
X108978571Y-35228571D01*
X109264285Y-35228571D01*
X109407142Y-35157142D01*
X109478571Y-35085714D01*
X109550000Y-34942857D01*
X109550000Y-34657142D01*
X109478571Y-34514285D01*
X109407142Y-34442857D01*
X109264285Y-34371428D01*
X110192857Y-34657142D02*
X111335714Y-34657142D01*
X112764285Y-33728571D02*
X112050000Y-33728571D01*
X111978571Y-34442857D01*
X112050000Y-34371428D01*
X112192857Y-34300000D01*
X112550000Y-34300000D01*
X112692857Y-34371428D01*
X112764285Y-34442857D01*
X112835714Y-34585714D01*
X112835714Y-34942857D01*
X112764285Y-35085714D01*
X112692857Y-35157142D01*
X112550000Y-35228571D01*
X112192857Y-35228571D01*
X112050000Y-35157142D01*
X111978571Y-35085714D01*
X114192857Y-33728571D02*
X113478571Y-33728571D01*
X113407142Y-34442857D01*
X113478571Y-34371428D01*
X113621428Y-34300000D01*
X113978571Y-34300000D01*
X114121428Y-34371428D01*
X114192857Y-34442857D01*
X114264285Y-34585714D01*
X114264285Y-34942857D01*
X114192857Y-35085714D01*
X114121428Y-35157142D01*
X113978571Y-35228571D01*
X113621428Y-35228571D01*
X113478571Y-35157142D01*
X113407142Y-35085714D01*
X114692857Y-33728571D02*
X115192857Y-35228571D01*
X115692857Y-33728571D01*
X143601428Y-95687142D02*
X145101428Y-95687142D01*
X145101428Y-96258571D01*
X145030000Y-96401428D01*
X144958571Y-96472857D01*
X144815714Y-96544285D01*
X144601428Y-96544285D01*
X144458571Y-96472857D01*
X144387142Y-96401428D01*
X144315714Y-96258571D01*
X144315714Y-95687142D01*
X143601428Y-97830000D02*
X144387142Y-97830000D01*
X144530000Y-97758571D01*
X144601428Y-97615714D01*
X144601428Y-97330000D01*
X144530000Y-97187142D01*
X143672857Y-97830000D02*
X143601428Y-97687142D01*
X143601428Y-97330000D01*
X143672857Y-97187142D01*
X143815714Y-97115714D01*
X143958571Y-97115714D01*
X144101428Y-97187142D01*
X144172857Y-97330000D01*
X144172857Y-97687142D01*
X144244285Y-97830000D01*
X143601428Y-98544285D02*
X144601428Y-98544285D01*
X144458571Y-98544285D02*
X144530000Y-98615714D01*
X144601428Y-98758571D01*
X144601428Y-98972857D01*
X144530000Y-99115714D01*
X144387142Y-99187142D01*
X143601428Y-99187142D01*
X144387142Y-99187142D02*
X144530000Y-99258571D01*
X144601428Y-99401428D01*
X144601428Y-99615714D01*
X144530000Y-99758571D01*
X144387142Y-99830000D01*
X143601428Y-99830000D01*
X143601428Y-101187142D02*
X144387142Y-101187142D01*
X144530000Y-101115714D01*
X144601428Y-100972857D01*
X144601428Y-100687142D01*
X144530000Y-100544285D01*
X143672857Y-101187142D02*
X143601428Y-101044285D01*
X143601428Y-100687142D01*
X143672857Y-100544285D01*
X143815714Y-100472857D01*
X143958571Y-100472857D01*
X144101428Y-100544285D01*
X144172857Y-100687142D01*
X144172857Y-101044285D01*
X144244285Y-101187142D01*
X144601428Y-101687142D02*
X144601428Y-102258571D01*
X145101428Y-101901428D02*
X143815714Y-101901428D01*
X143672857Y-101972857D01*
X143601428Y-102115714D01*
X143601428Y-102258571D01*
X143672857Y-103330000D02*
X143601428Y-103187142D01*
X143601428Y-102901428D01*
X143672857Y-102758571D01*
X143815714Y-102687142D01*
X144387142Y-102687142D01*
X144530000Y-102758571D01*
X144601428Y-102901428D01*
X144601428Y-103187142D01*
X144530000Y-103330000D01*
X144387142Y-103401428D01*
X144244285Y-103401428D01*
X144101428Y-102687142D01*
X143672857Y-104687142D02*
X143601428Y-104544285D01*
X143601428Y-104258571D01*
X143672857Y-104115714D01*
X143744285Y-104044285D01*
X143887142Y-103972857D01*
X144315714Y-103972857D01*
X144458571Y-104044285D01*
X144530000Y-104115714D01*
X144601428Y-104258571D01*
X144601428Y-104544285D01*
X144530000Y-104687142D01*
X143601428Y-105330000D02*
X145101428Y-105330000D01*
X143601428Y-105972857D02*
X144387142Y-105972857D01*
X144530000Y-105901428D01*
X144601428Y-105758571D01*
X144601428Y-105544285D01*
X144530000Y-105401428D01*
X144458571Y-105330000D01*
X143672857Y-107758571D02*
X143601428Y-107972857D01*
X143601428Y-108330000D01*
X143672857Y-108472857D01*
X143744285Y-108544285D01*
X143887142Y-108615714D01*
X144030000Y-108615714D01*
X144172857Y-108544285D01*
X144244285Y-108472857D01*
X144315714Y-108330000D01*
X144387142Y-108044285D01*
X144458571Y-107901428D01*
X144530000Y-107830000D01*
X144672857Y-107758571D01*
X144815714Y-107758571D01*
X144958571Y-107830000D01*
X145030000Y-107901428D01*
X145101428Y-108044285D01*
X145101428Y-108401428D01*
X145030000Y-108615714D01*
X144601428Y-109115714D02*
X143601428Y-109472857D01*
X144601428Y-109830000D02*
X143601428Y-109472857D01*
X143244285Y-109330000D01*
X143172857Y-109258571D01*
X143101428Y-109115714D01*
X143672857Y-110330000D02*
X143601428Y-110472857D01*
X143601428Y-110758571D01*
X143672857Y-110901428D01*
X143815714Y-110972857D01*
X143887142Y-110972857D01*
X144030000Y-110901428D01*
X144101428Y-110758571D01*
X144101428Y-110544285D01*
X144172857Y-110401428D01*
X144315714Y-110330000D01*
X144387142Y-110330000D01*
X144530000Y-110401428D01*
X144601428Y-110544285D01*
X144601428Y-110758571D01*
X144530000Y-110901428D01*
X144601428Y-111401428D02*
X144601428Y-111972857D01*
X145101428Y-111615714D02*
X143815714Y-111615714D01*
X143672857Y-111687142D01*
X143601428Y-111830000D01*
X143601428Y-111972857D01*
X143672857Y-113044285D02*
X143601428Y-112901428D01*
X143601428Y-112615714D01*
X143672857Y-112472857D01*
X143815714Y-112401428D01*
X144387142Y-112401428D01*
X144530000Y-112472857D01*
X144601428Y-112615714D01*
X144601428Y-112901428D01*
X144530000Y-113044285D01*
X144387142Y-113115714D01*
X144244285Y-113115714D01*
X144101428Y-112401428D01*
X143601428Y-113758571D02*
X144601428Y-113758571D01*
X144458571Y-113758571D02*
X144530000Y-113830000D01*
X144601428Y-113972857D01*
X144601428Y-114187142D01*
X144530000Y-114330000D01*
X144387142Y-114401428D01*
X143601428Y-114401428D01*
X144387142Y-114401428D02*
X144530000Y-114472857D01*
X144601428Y-114615714D01*
X144601428Y-114830000D01*
X144530000Y-114972857D01*
X144387142Y-115044285D01*
X143601428Y-115044285D01*
X144030000Y-116830000D02*
X144030000Y-117544285D01*
X143601428Y-116687142D02*
X145101428Y-117187142D01*
X143601428Y-117687142D01*
X145030000Y-118972857D02*
X145101428Y-118830000D01*
X145101428Y-118615714D01*
X145030000Y-118401428D01*
X144887142Y-118258571D01*
X144744285Y-118187142D01*
X144458571Y-118115714D01*
X144244285Y-118115714D01*
X143958571Y-118187142D01*
X143815714Y-118258571D01*
X143672857Y-118401428D01*
X143601428Y-118615714D01*
X143601428Y-118758571D01*
X143672857Y-118972857D01*
X143744285Y-119044285D01*
X144244285Y-119044285D01*
X144244285Y-118758571D01*
D11*
X182000000Y-35510000D02*
G75*
G03X182000000Y-35510000I-5500000J0D01*
G01*
X99000000Y-126500000D02*
G75*
G03X99000000Y-126500000I-5500000J0D01*
G01*
X99000000Y-35500000D02*
G75*
G03X99000000Y-35500000I-5500000J0D01*
G01*
M02*
