G04 #@! TF.GenerationSoftware,KiCad,Pcbnew,(5.1.0)-1*
G04 #@! TF.CreationDate,2021-06-26T10:28:43+02:00*
G04 #@! TF.ProjectId,Magnetsteuerung_v2.2,4d61676e-6574-4737-9465-756572756e67,rev?*
G04 #@! TF.SameCoordinates,Original*
G04 #@! TF.FileFunction,Other,ECO2*
%FSLAX46Y46*%
G04 Gerber Fmt 4.6, Leading zero omitted, Abs format (unit mm)*
G04 Created by KiCad (PCBNEW (5.1.0)-1) date 2021-06-26 10:28:43*
%MOMM*%
%LPD*%
G04 APERTURE LIST*
%ADD10C,0.300000*%
%ADD11C,0.150000*%
G04 APERTURE END LIST*
D10*
X152462857Y-35907142D02*
X152605714Y-35978571D01*
X152891428Y-35978571D01*
X153034285Y-35907142D01*
X153105714Y-35764285D01*
X153105714Y-35692857D01*
X153034285Y-35550000D01*
X152891428Y-35478571D01*
X152677142Y-35478571D01*
X152534285Y-35407142D01*
X152462857Y-35264285D01*
X152462857Y-35192857D01*
X152534285Y-35050000D01*
X152677142Y-34978571D01*
X152891428Y-34978571D01*
X153034285Y-35050000D01*
X154534285Y-35978571D02*
X153677142Y-35978571D01*
X154105714Y-35978571D02*
X154105714Y-34478571D01*
X153962857Y-34692857D01*
X153820000Y-34835714D01*
X153677142Y-34907142D01*
X155177142Y-35835714D02*
X155248571Y-35907142D01*
X155177142Y-35978571D01*
X155105714Y-35907142D01*
X155177142Y-35835714D01*
X155177142Y-35978571D01*
X156177142Y-34478571D02*
X156320000Y-34478571D01*
X156462857Y-34550000D01*
X156534285Y-34621428D01*
X156605714Y-34764285D01*
X156677142Y-35050000D01*
X156677142Y-35407142D01*
X156605714Y-35692857D01*
X156534285Y-35835714D01*
X156462857Y-35907142D01*
X156320000Y-35978571D01*
X156177142Y-35978571D01*
X156034285Y-35907142D01*
X155962857Y-35835714D01*
X155891428Y-35692857D01*
X155820000Y-35407142D01*
X155820000Y-35050000D01*
X155891428Y-34764285D01*
X155962857Y-34621428D01*
X156034285Y-34550000D01*
X156177142Y-34478571D01*
X157248571Y-34621428D02*
X157320000Y-34550000D01*
X157462857Y-34478571D01*
X157820000Y-34478571D01*
X157962857Y-34550000D01*
X158034285Y-34621428D01*
X158105714Y-34764285D01*
X158105714Y-34907142D01*
X158034285Y-35121428D01*
X157177142Y-35978571D01*
X158105714Y-35978571D01*
X158748571Y-35835714D02*
X158820000Y-35907142D01*
X158748571Y-35978571D01*
X158677142Y-35907142D01*
X158748571Y-35835714D01*
X158748571Y-35978571D01*
X159320000Y-34478571D02*
X160248571Y-34478571D01*
X159748571Y-35050000D01*
X159962857Y-35050000D01*
X160105714Y-35121428D01*
X160177142Y-35192857D01*
X160248571Y-35335714D01*
X160248571Y-35692857D01*
X160177142Y-35835714D01*
X160105714Y-35907142D01*
X159962857Y-35978571D01*
X159534285Y-35978571D01*
X159391428Y-35907142D01*
X159320000Y-35835714D01*
X161105714Y-35121428D02*
X160962857Y-35050000D01*
X160891428Y-34978571D01*
X160820000Y-34835714D01*
X160820000Y-34764285D01*
X160891428Y-34621428D01*
X160962857Y-34550000D01*
X161105714Y-34478571D01*
X161391428Y-34478571D01*
X161534285Y-34550000D01*
X161605714Y-34621428D01*
X161677142Y-34764285D01*
X161677142Y-34835714D01*
X161605714Y-34978571D01*
X161534285Y-35050000D01*
X161391428Y-35121428D01*
X161105714Y-35121428D01*
X160962857Y-35192857D01*
X160891428Y-35264285D01*
X160820000Y-35407142D01*
X160820000Y-35692857D01*
X160891428Y-35835714D01*
X160962857Y-35907142D01*
X161105714Y-35978571D01*
X161391428Y-35978571D01*
X161534285Y-35907142D01*
X161605714Y-35835714D01*
X161677142Y-35692857D01*
X161677142Y-35407142D01*
X161605714Y-35264285D01*
X161534285Y-35192857D01*
X161391428Y-35121428D01*
X152752857Y-126918571D02*
X152752857Y-125418571D01*
X153324285Y-125418571D01*
X153467142Y-125490000D01*
X153538571Y-125561428D01*
X153610000Y-125704285D01*
X153610000Y-125918571D01*
X153538571Y-126061428D01*
X153467142Y-126132857D01*
X153324285Y-126204285D01*
X152752857Y-126204285D01*
X154895714Y-126918571D02*
X154895714Y-126132857D01*
X154824285Y-125990000D01*
X154681428Y-125918571D01*
X154395714Y-125918571D01*
X154252857Y-125990000D01*
X154895714Y-126847142D02*
X154752857Y-126918571D01*
X154395714Y-126918571D01*
X154252857Y-126847142D01*
X154181428Y-126704285D01*
X154181428Y-126561428D01*
X154252857Y-126418571D01*
X154395714Y-126347142D01*
X154752857Y-126347142D01*
X154895714Y-126275714D01*
X155610000Y-126918571D02*
X155610000Y-125918571D01*
X155610000Y-126061428D02*
X155681428Y-125990000D01*
X155824285Y-125918571D01*
X156038571Y-125918571D01*
X156181428Y-125990000D01*
X156252857Y-126132857D01*
X156252857Y-126918571D01*
X156252857Y-126132857D02*
X156324285Y-125990000D01*
X156467142Y-125918571D01*
X156681428Y-125918571D01*
X156824285Y-125990000D01*
X156895714Y-126132857D01*
X156895714Y-126918571D01*
X158252857Y-126918571D02*
X158252857Y-126132857D01*
X158181428Y-125990000D01*
X158038571Y-125918571D01*
X157752857Y-125918571D01*
X157610000Y-125990000D01*
X158252857Y-126847142D02*
X158110000Y-126918571D01*
X157752857Y-126918571D01*
X157610000Y-126847142D01*
X157538571Y-126704285D01*
X157538571Y-126561428D01*
X157610000Y-126418571D01*
X157752857Y-126347142D01*
X158110000Y-126347142D01*
X158252857Y-126275714D01*
X158752857Y-125918571D02*
X159324285Y-125918571D01*
X158967142Y-125418571D02*
X158967142Y-126704285D01*
X159038571Y-126847142D01*
X159181428Y-126918571D01*
X159324285Y-126918571D01*
X160395714Y-126847142D02*
X160252857Y-126918571D01*
X159967142Y-126918571D01*
X159824285Y-126847142D01*
X159752857Y-126704285D01*
X159752857Y-126132857D01*
X159824285Y-125990000D01*
X159967142Y-125918571D01*
X160252857Y-125918571D01*
X160395714Y-125990000D01*
X160467142Y-126132857D01*
X160467142Y-126275714D01*
X159752857Y-126418571D01*
X161752857Y-126847142D02*
X161610000Y-126918571D01*
X161324285Y-126918571D01*
X161181428Y-126847142D01*
X161110000Y-126775714D01*
X161038571Y-126632857D01*
X161038571Y-126204285D01*
X161110000Y-126061428D01*
X161181428Y-125990000D01*
X161324285Y-125918571D01*
X161610000Y-125918571D01*
X161752857Y-125990000D01*
X162395714Y-126918571D02*
X162395714Y-125418571D01*
X163038571Y-126918571D02*
X163038571Y-126132857D01*
X162967142Y-125990000D01*
X162824285Y-125918571D01*
X162610000Y-125918571D01*
X162467142Y-125990000D01*
X162395714Y-126061428D01*
X164824285Y-126490000D02*
X165538571Y-126490000D01*
X164681428Y-126918571D02*
X165181428Y-125418571D01*
X165681428Y-126918571D01*
X166967142Y-125490000D02*
X166824285Y-125418571D01*
X166610000Y-125418571D01*
X166395714Y-125490000D01*
X166252857Y-125632857D01*
X166181428Y-125775714D01*
X166110000Y-126061428D01*
X166110000Y-126275714D01*
X166181428Y-126561428D01*
X166252857Y-126704285D01*
X166395714Y-126847142D01*
X166610000Y-126918571D01*
X166752857Y-126918571D01*
X166967142Y-126847142D01*
X167038571Y-126775714D01*
X167038571Y-126275714D01*
X166752857Y-126275714D01*
D11*
X182000000Y-35510000D02*
G75*
G03X182000000Y-35510000I-5500000J0D01*
G01*
X99000000Y-126500000D02*
G75*
G03X99000000Y-126500000I-5500000J0D01*
G01*
X99000000Y-35500000D02*
G75*
G03X99000000Y-35500000I-5500000J0D01*
G01*
M02*
