G04 #@! TF.GenerationSoftware,KiCad,Pcbnew,(5.1.0)-1*
G04 #@! TF.CreationDate,2021-04-12T01:11:24+02:00*
G04 #@! TF.ProjectId,Magnetsteuerung,4d61676e-6574-4737-9465-756572756e67,rev?*
G04 #@! TF.SameCoordinates,Original*
G04 #@! TF.FileFunction,Paste,Bot*
G04 #@! TF.FilePolarity,Positive*
%FSLAX46Y46*%
G04 Gerber Fmt 4.6, Leading zero omitted, Abs format (unit mm)*
G04 Created by KiCad (PCBNEW (5.1.0)-1) date 2021-04-12 01:11:24*
%MOMM*%
%LPD*%
G04 APERTURE LIST*
%ADD10R,1.060000X0.650000*%
%ADD11C,0.100000*%
%ADD12C,2.100000*%
%ADD13C,1.250000*%
%ADD14R,5.250000X4.550000*%
%ADD15R,1.100000X4.600000*%
%ADD16C,2.500000*%
G04 APERTURE END LIST*
D10*
X145100000Y-96550000D03*
X145100000Y-98450000D03*
X147300000Y-98450000D03*
X147300000Y-97500000D03*
X147300000Y-96550000D03*
X145100000Y-63550000D03*
X145100000Y-65450000D03*
X147300000Y-65450000D03*
X147300000Y-64500000D03*
X147300000Y-63550000D03*
X145100000Y-118550000D03*
X145100000Y-120450000D03*
X147300000Y-120450000D03*
X147300000Y-119500000D03*
X147300000Y-118550000D03*
X145100000Y-85550000D03*
X145100000Y-87450000D03*
X147300000Y-87450000D03*
X147300000Y-86500000D03*
X147300000Y-85550000D03*
X145100000Y-52550000D03*
X145100000Y-54450000D03*
X147300000Y-54450000D03*
X147300000Y-53500000D03*
X147300000Y-52550000D03*
X145100000Y-107550000D03*
X145100000Y-109450000D03*
X147300000Y-109450000D03*
X147300000Y-108500000D03*
X147300000Y-107550000D03*
X145100000Y-74550000D03*
X145100000Y-76450000D03*
X147300000Y-76450000D03*
X147300000Y-75500000D03*
X147300000Y-74550000D03*
X145100000Y-41550000D03*
X145100000Y-43450000D03*
X147300000Y-43450000D03*
X147300000Y-42500000D03*
X147300000Y-41550000D03*
X124900000Y-65450000D03*
X124900000Y-63550000D03*
X122700000Y-63550000D03*
X122700000Y-64500000D03*
X122700000Y-65450000D03*
X124900000Y-98450000D03*
X124900000Y-96550000D03*
X122700000Y-96550000D03*
X122700000Y-97500000D03*
X122700000Y-98450000D03*
X124900000Y-43450000D03*
X124900000Y-41550000D03*
X122700000Y-41550000D03*
X122700000Y-42500000D03*
X122700000Y-43450000D03*
X124900000Y-109450000D03*
X124900000Y-107550000D03*
X122700000Y-107550000D03*
X122700000Y-108500000D03*
X122700000Y-109450000D03*
X124900000Y-76450000D03*
X124900000Y-74550000D03*
X122700000Y-74550000D03*
X122700000Y-75500000D03*
X122700000Y-76450000D03*
X124900000Y-54450000D03*
X124900000Y-52550000D03*
X122700000Y-52550000D03*
X122700000Y-53500000D03*
X122700000Y-54450000D03*
X124900000Y-87450000D03*
X124900000Y-85550000D03*
X122700000Y-85550000D03*
X122700000Y-86500000D03*
X122700000Y-87450000D03*
X124900000Y-120450000D03*
X124900000Y-118550000D03*
X122700000Y-118550000D03*
X122700000Y-119500000D03*
X122700000Y-120450000D03*
D11*
G36*
X165049504Y-94776204D02*
G01*
X165073773Y-94779804D01*
X165097571Y-94785765D01*
X165120671Y-94794030D01*
X165142849Y-94804520D01*
X165163893Y-94817133D01*
X165183598Y-94831747D01*
X165201777Y-94848223D01*
X165218253Y-94866402D01*
X165232867Y-94886107D01*
X165245480Y-94907151D01*
X165255970Y-94929329D01*
X165264235Y-94952429D01*
X165270196Y-94976227D01*
X165273796Y-95000496D01*
X165275000Y-95025000D01*
X165275000Y-99975000D01*
X165273796Y-99999504D01*
X165270196Y-100023773D01*
X165264235Y-100047571D01*
X165255970Y-100070671D01*
X165245480Y-100092849D01*
X165232867Y-100113893D01*
X165218253Y-100133598D01*
X165201777Y-100151777D01*
X165183598Y-100168253D01*
X165163893Y-100182867D01*
X165142849Y-100195480D01*
X165120671Y-100205970D01*
X165097571Y-100214235D01*
X165073773Y-100220196D01*
X165049504Y-100223796D01*
X165025000Y-100225000D01*
X163425000Y-100225000D01*
X163400496Y-100223796D01*
X163376227Y-100220196D01*
X163352429Y-100214235D01*
X163329329Y-100205970D01*
X163307151Y-100195480D01*
X163286107Y-100182867D01*
X163266402Y-100168253D01*
X163248223Y-100151777D01*
X163231747Y-100133598D01*
X163217133Y-100113893D01*
X163204520Y-100092849D01*
X163194030Y-100070671D01*
X163185765Y-100047571D01*
X163179804Y-100023773D01*
X163176204Y-99999504D01*
X163175000Y-99975000D01*
X163175000Y-95025000D01*
X163176204Y-95000496D01*
X163179804Y-94976227D01*
X163185765Y-94952429D01*
X163194030Y-94929329D01*
X163204520Y-94907151D01*
X163217133Y-94886107D01*
X163231747Y-94866402D01*
X163248223Y-94848223D01*
X163266402Y-94831747D01*
X163286107Y-94817133D01*
X163307151Y-94804520D01*
X163329329Y-94794030D01*
X163352429Y-94785765D01*
X163376227Y-94779804D01*
X163400496Y-94776204D01*
X163425000Y-94775000D01*
X165025000Y-94775000D01*
X165049504Y-94776204D01*
X165049504Y-94776204D01*
G37*
D12*
X164225000Y-97500000D03*
D11*
G36*
X171999504Y-94776204D02*
G01*
X172023773Y-94779804D01*
X172047571Y-94785765D01*
X172070671Y-94794030D01*
X172092849Y-94804520D01*
X172113893Y-94817133D01*
X172133598Y-94831747D01*
X172151777Y-94848223D01*
X172168253Y-94866402D01*
X172182867Y-94886107D01*
X172195480Y-94907151D01*
X172205970Y-94929329D01*
X172214235Y-94952429D01*
X172220196Y-94976227D01*
X172223796Y-95000496D01*
X172225000Y-95025000D01*
X172225000Y-99975000D01*
X172223796Y-99999504D01*
X172220196Y-100023773D01*
X172214235Y-100047571D01*
X172205970Y-100070671D01*
X172195480Y-100092849D01*
X172182867Y-100113893D01*
X172168253Y-100133598D01*
X172151777Y-100151777D01*
X172133598Y-100168253D01*
X172113893Y-100182867D01*
X172092849Y-100195480D01*
X172070671Y-100205970D01*
X172047571Y-100214235D01*
X172023773Y-100220196D01*
X171999504Y-100223796D01*
X171975000Y-100225000D01*
X170375000Y-100225000D01*
X170350496Y-100223796D01*
X170326227Y-100220196D01*
X170302429Y-100214235D01*
X170279329Y-100205970D01*
X170257151Y-100195480D01*
X170236107Y-100182867D01*
X170216402Y-100168253D01*
X170198223Y-100151777D01*
X170181747Y-100133598D01*
X170167133Y-100113893D01*
X170154520Y-100092849D01*
X170144030Y-100070671D01*
X170135765Y-100047571D01*
X170129804Y-100023773D01*
X170126204Y-99999504D01*
X170125000Y-99975000D01*
X170125000Y-95025000D01*
X170126204Y-95000496D01*
X170129804Y-94976227D01*
X170135765Y-94952429D01*
X170144030Y-94929329D01*
X170154520Y-94907151D01*
X170167133Y-94886107D01*
X170181747Y-94866402D01*
X170198223Y-94848223D01*
X170216402Y-94831747D01*
X170236107Y-94817133D01*
X170257151Y-94804520D01*
X170279329Y-94794030D01*
X170302429Y-94785765D01*
X170326227Y-94779804D01*
X170350496Y-94776204D01*
X170375000Y-94775000D01*
X171975000Y-94775000D01*
X171999504Y-94776204D01*
X171999504Y-94776204D01*
G37*
D12*
X171175000Y-97500000D03*
D11*
G36*
X165049504Y-61776204D02*
G01*
X165073773Y-61779804D01*
X165097571Y-61785765D01*
X165120671Y-61794030D01*
X165142849Y-61804520D01*
X165163893Y-61817133D01*
X165183598Y-61831747D01*
X165201777Y-61848223D01*
X165218253Y-61866402D01*
X165232867Y-61886107D01*
X165245480Y-61907151D01*
X165255970Y-61929329D01*
X165264235Y-61952429D01*
X165270196Y-61976227D01*
X165273796Y-62000496D01*
X165275000Y-62025000D01*
X165275000Y-66975000D01*
X165273796Y-66999504D01*
X165270196Y-67023773D01*
X165264235Y-67047571D01*
X165255970Y-67070671D01*
X165245480Y-67092849D01*
X165232867Y-67113893D01*
X165218253Y-67133598D01*
X165201777Y-67151777D01*
X165183598Y-67168253D01*
X165163893Y-67182867D01*
X165142849Y-67195480D01*
X165120671Y-67205970D01*
X165097571Y-67214235D01*
X165073773Y-67220196D01*
X165049504Y-67223796D01*
X165025000Y-67225000D01*
X163425000Y-67225000D01*
X163400496Y-67223796D01*
X163376227Y-67220196D01*
X163352429Y-67214235D01*
X163329329Y-67205970D01*
X163307151Y-67195480D01*
X163286107Y-67182867D01*
X163266402Y-67168253D01*
X163248223Y-67151777D01*
X163231747Y-67133598D01*
X163217133Y-67113893D01*
X163204520Y-67092849D01*
X163194030Y-67070671D01*
X163185765Y-67047571D01*
X163179804Y-67023773D01*
X163176204Y-66999504D01*
X163175000Y-66975000D01*
X163175000Y-62025000D01*
X163176204Y-62000496D01*
X163179804Y-61976227D01*
X163185765Y-61952429D01*
X163194030Y-61929329D01*
X163204520Y-61907151D01*
X163217133Y-61886107D01*
X163231747Y-61866402D01*
X163248223Y-61848223D01*
X163266402Y-61831747D01*
X163286107Y-61817133D01*
X163307151Y-61804520D01*
X163329329Y-61794030D01*
X163352429Y-61785765D01*
X163376227Y-61779804D01*
X163400496Y-61776204D01*
X163425000Y-61775000D01*
X165025000Y-61775000D01*
X165049504Y-61776204D01*
X165049504Y-61776204D01*
G37*
D12*
X164225000Y-64500000D03*
D11*
G36*
X171999504Y-61776204D02*
G01*
X172023773Y-61779804D01*
X172047571Y-61785765D01*
X172070671Y-61794030D01*
X172092849Y-61804520D01*
X172113893Y-61817133D01*
X172133598Y-61831747D01*
X172151777Y-61848223D01*
X172168253Y-61866402D01*
X172182867Y-61886107D01*
X172195480Y-61907151D01*
X172205970Y-61929329D01*
X172214235Y-61952429D01*
X172220196Y-61976227D01*
X172223796Y-62000496D01*
X172225000Y-62025000D01*
X172225000Y-66975000D01*
X172223796Y-66999504D01*
X172220196Y-67023773D01*
X172214235Y-67047571D01*
X172205970Y-67070671D01*
X172195480Y-67092849D01*
X172182867Y-67113893D01*
X172168253Y-67133598D01*
X172151777Y-67151777D01*
X172133598Y-67168253D01*
X172113893Y-67182867D01*
X172092849Y-67195480D01*
X172070671Y-67205970D01*
X172047571Y-67214235D01*
X172023773Y-67220196D01*
X171999504Y-67223796D01*
X171975000Y-67225000D01*
X170375000Y-67225000D01*
X170350496Y-67223796D01*
X170326227Y-67220196D01*
X170302429Y-67214235D01*
X170279329Y-67205970D01*
X170257151Y-67195480D01*
X170236107Y-67182867D01*
X170216402Y-67168253D01*
X170198223Y-67151777D01*
X170181747Y-67133598D01*
X170167133Y-67113893D01*
X170154520Y-67092849D01*
X170144030Y-67070671D01*
X170135765Y-67047571D01*
X170129804Y-67023773D01*
X170126204Y-66999504D01*
X170125000Y-66975000D01*
X170125000Y-62025000D01*
X170126204Y-62000496D01*
X170129804Y-61976227D01*
X170135765Y-61952429D01*
X170144030Y-61929329D01*
X170154520Y-61907151D01*
X170167133Y-61886107D01*
X170181747Y-61866402D01*
X170198223Y-61848223D01*
X170216402Y-61831747D01*
X170236107Y-61817133D01*
X170257151Y-61804520D01*
X170279329Y-61794030D01*
X170302429Y-61785765D01*
X170326227Y-61779804D01*
X170350496Y-61776204D01*
X170375000Y-61775000D01*
X171975000Y-61775000D01*
X171999504Y-61776204D01*
X171999504Y-61776204D01*
G37*
D12*
X171175000Y-64500000D03*
D11*
G36*
X165049504Y-116776204D02*
G01*
X165073773Y-116779804D01*
X165097571Y-116785765D01*
X165120671Y-116794030D01*
X165142849Y-116804520D01*
X165163893Y-116817133D01*
X165183598Y-116831747D01*
X165201777Y-116848223D01*
X165218253Y-116866402D01*
X165232867Y-116886107D01*
X165245480Y-116907151D01*
X165255970Y-116929329D01*
X165264235Y-116952429D01*
X165270196Y-116976227D01*
X165273796Y-117000496D01*
X165275000Y-117025000D01*
X165275000Y-121975000D01*
X165273796Y-121999504D01*
X165270196Y-122023773D01*
X165264235Y-122047571D01*
X165255970Y-122070671D01*
X165245480Y-122092849D01*
X165232867Y-122113893D01*
X165218253Y-122133598D01*
X165201777Y-122151777D01*
X165183598Y-122168253D01*
X165163893Y-122182867D01*
X165142849Y-122195480D01*
X165120671Y-122205970D01*
X165097571Y-122214235D01*
X165073773Y-122220196D01*
X165049504Y-122223796D01*
X165025000Y-122225000D01*
X163425000Y-122225000D01*
X163400496Y-122223796D01*
X163376227Y-122220196D01*
X163352429Y-122214235D01*
X163329329Y-122205970D01*
X163307151Y-122195480D01*
X163286107Y-122182867D01*
X163266402Y-122168253D01*
X163248223Y-122151777D01*
X163231747Y-122133598D01*
X163217133Y-122113893D01*
X163204520Y-122092849D01*
X163194030Y-122070671D01*
X163185765Y-122047571D01*
X163179804Y-122023773D01*
X163176204Y-121999504D01*
X163175000Y-121975000D01*
X163175000Y-117025000D01*
X163176204Y-117000496D01*
X163179804Y-116976227D01*
X163185765Y-116952429D01*
X163194030Y-116929329D01*
X163204520Y-116907151D01*
X163217133Y-116886107D01*
X163231747Y-116866402D01*
X163248223Y-116848223D01*
X163266402Y-116831747D01*
X163286107Y-116817133D01*
X163307151Y-116804520D01*
X163329329Y-116794030D01*
X163352429Y-116785765D01*
X163376227Y-116779804D01*
X163400496Y-116776204D01*
X163425000Y-116775000D01*
X165025000Y-116775000D01*
X165049504Y-116776204D01*
X165049504Y-116776204D01*
G37*
D12*
X164225000Y-119500000D03*
D11*
G36*
X171999504Y-116776204D02*
G01*
X172023773Y-116779804D01*
X172047571Y-116785765D01*
X172070671Y-116794030D01*
X172092849Y-116804520D01*
X172113893Y-116817133D01*
X172133598Y-116831747D01*
X172151777Y-116848223D01*
X172168253Y-116866402D01*
X172182867Y-116886107D01*
X172195480Y-116907151D01*
X172205970Y-116929329D01*
X172214235Y-116952429D01*
X172220196Y-116976227D01*
X172223796Y-117000496D01*
X172225000Y-117025000D01*
X172225000Y-121975000D01*
X172223796Y-121999504D01*
X172220196Y-122023773D01*
X172214235Y-122047571D01*
X172205970Y-122070671D01*
X172195480Y-122092849D01*
X172182867Y-122113893D01*
X172168253Y-122133598D01*
X172151777Y-122151777D01*
X172133598Y-122168253D01*
X172113893Y-122182867D01*
X172092849Y-122195480D01*
X172070671Y-122205970D01*
X172047571Y-122214235D01*
X172023773Y-122220196D01*
X171999504Y-122223796D01*
X171975000Y-122225000D01*
X170375000Y-122225000D01*
X170350496Y-122223796D01*
X170326227Y-122220196D01*
X170302429Y-122214235D01*
X170279329Y-122205970D01*
X170257151Y-122195480D01*
X170236107Y-122182867D01*
X170216402Y-122168253D01*
X170198223Y-122151777D01*
X170181747Y-122133598D01*
X170167133Y-122113893D01*
X170154520Y-122092849D01*
X170144030Y-122070671D01*
X170135765Y-122047571D01*
X170129804Y-122023773D01*
X170126204Y-121999504D01*
X170125000Y-121975000D01*
X170125000Y-117025000D01*
X170126204Y-117000496D01*
X170129804Y-116976227D01*
X170135765Y-116952429D01*
X170144030Y-116929329D01*
X170154520Y-116907151D01*
X170167133Y-116886107D01*
X170181747Y-116866402D01*
X170198223Y-116848223D01*
X170216402Y-116831747D01*
X170236107Y-116817133D01*
X170257151Y-116804520D01*
X170279329Y-116794030D01*
X170302429Y-116785765D01*
X170326227Y-116779804D01*
X170350496Y-116776204D01*
X170375000Y-116775000D01*
X171975000Y-116775000D01*
X171999504Y-116776204D01*
X171999504Y-116776204D01*
G37*
D12*
X171175000Y-119500000D03*
D11*
G36*
X165049504Y-83776204D02*
G01*
X165073773Y-83779804D01*
X165097571Y-83785765D01*
X165120671Y-83794030D01*
X165142849Y-83804520D01*
X165163893Y-83817133D01*
X165183598Y-83831747D01*
X165201777Y-83848223D01*
X165218253Y-83866402D01*
X165232867Y-83886107D01*
X165245480Y-83907151D01*
X165255970Y-83929329D01*
X165264235Y-83952429D01*
X165270196Y-83976227D01*
X165273796Y-84000496D01*
X165275000Y-84025000D01*
X165275000Y-88975000D01*
X165273796Y-88999504D01*
X165270196Y-89023773D01*
X165264235Y-89047571D01*
X165255970Y-89070671D01*
X165245480Y-89092849D01*
X165232867Y-89113893D01*
X165218253Y-89133598D01*
X165201777Y-89151777D01*
X165183598Y-89168253D01*
X165163893Y-89182867D01*
X165142849Y-89195480D01*
X165120671Y-89205970D01*
X165097571Y-89214235D01*
X165073773Y-89220196D01*
X165049504Y-89223796D01*
X165025000Y-89225000D01*
X163425000Y-89225000D01*
X163400496Y-89223796D01*
X163376227Y-89220196D01*
X163352429Y-89214235D01*
X163329329Y-89205970D01*
X163307151Y-89195480D01*
X163286107Y-89182867D01*
X163266402Y-89168253D01*
X163248223Y-89151777D01*
X163231747Y-89133598D01*
X163217133Y-89113893D01*
X163204520Y-89092849D01*
X163194030Y-89070671D01*
X163185765Y-89047571D01*
X163179804Y-89023773D01*
X163176204Y-88999504D01*
X163175000Y-88975000D01*
X163175000Y-84025000D01*
X163176204Y-84000496D01*
X163179804Y-83976227D01*
X163185765Y-83952429D01*
X163194030Y-83929329D01*
X163204520Y-83907151D01*
X163217133Y-83886107D01*
X163231747Y-83866402D01*
X163248223Y-83848223D01*
X163266402Y-83831747D01*
X163286107Y-83817133D01*
X163307151Y-83804520D01*
X163329329Y-83794030D01*
X163352429Y-83785765D01*
X163376227Y-83779804D01*
X163400496Y-83776204D01*
X163425000Y-83775000D01*
X165025000Y-83775000D01*
X165049504Y-83776204D01*
X165049504Y-83776204D01*
G37*
D12*
X164225000Y-86500000D03*
D11*
G36*
X171999504Y-83776204D02*
G01*
X172023773Y-83779804D01*
X172047571Y-83785765D01*
X172070671Y-83794030D01*
X172092849Y-83804520D01*
X172113893Y-83817133D01*
X172133598Y-83831747D01*
X172151777Y-83848223D01*
X172168253Y-83866402D01*
X172182867Y-83886107D01*
X172195480Y-83907151D01*
X172205970Y-83929329D01*
X172214235Y-83952429D01*
X172220196Y-83976227D01*
X172223796Y-84000496D01*
X172225000Y-84025000D01*
X172225000Y-88975000D01*
X172223796Y-88999504D01*
X172220196Y-89023773D01*
X172214235Y-89047571D01*
X172205970Y-89070671D01*
X172195480Y-89092849D01*
X172182867Y-89113893D01*
X172168253Y-89133598D01*
X172151777Y-89151777D01*
X172133598Y-89168253D01*
X172113893Y-89182867D01*
X172092849Y-89195480D01*
X172070671Y-89205970D01*
X172047571Y-89214235D01*
X172023773Y-89220196D01*
X171999504Y-89223796D01*
X171975000Y-89225000D01*
X170375000Y-89225000D01*
X170350496Y-89223796D01*
X170326227Y-89220196D01*
X170302429Y-89214235D01*
X170279329Y-89205970D01*
X170257151Y-89195480D01*
X170236107Y-89182867D01*
X170216402Y-89168253D01*
X170198223Y-89151777D01*
X170181747Y-89133598D01*
X170167133Y-89113893D01*
X170154520Y-89092849D01*
X170144030Y-89070671D01*
X170135765Y-89047571D01*
X170129804Y-89023773D01*
X170126204Y-88999504D01*
X170125000Y-88975000D01*
X170125000Y-84025000D01*
X170126204Y-84000496D01*
X170129804Y-83976227D01*
X170135765Y-83952429D01*
X170144030Y-83929329D01*
X170154520Y-83907151D01*
X170167133Y-83886107D01*
X170181747Y-83866402D01*
X170198223Y-83848223D01*
X170216402Y-83831747D01*
X170236107Y-83817133D01*
X170257151Y-83804520D01*
X170279329Y-83794030D01*
X170302429Y-83785765D01*
X170326227Y-83779804D01*
X170350496Y-83776204D01*
X170375000Y-83775000D01*
X171975000Y-83775000D01*
X171999504Y-83776204D01*
X171999504Y-83776204D01*
G37*
D12*
X171175000Y-86500000D03*
D11*
G36*
X165049504Y-50776204D02*
G01*
X165073773Y-50779804D01*
X165097571Y-50785765D01*
X165120671Y-50794030D01*
X165142849Y-50804520D01*
X165163893Y-50817133D01*
X165183598Y-50831747D01*
X165201777Y-50848223D01*
X165218253Y-50866402D01*
X165232867Y-50886107D01*
X165245480Y-50907151D01*
X165255970Y-50929329D01*
X165264235Y-50952429D01*
X165270196Y-50976227D01*
X165273796Y-51000496D01*
X165275000Y-51025000D01*
X165275000Y-55975000D01*
X165273796Y-55999504D01*
X165270196Y-56023773D01*
X165264235Y-56047571D01*
X165255970Y-56070671D01*
X165245480Y-56092849D01*
X165232867Y-56113893D01*
X165218253Y-56133598D01*
X165201777Y-56151777D01*
X165183598Y-56168253D01*
X165163893Y-56182867D01*
X165142849Y-56195480D01*
X165120671Y-56205970D01*
X165097571Y-56214235D01*
X165073773Y-56220196D01*
X165049504Y-56223796D01*
X165025000Y-56225000D01*
X163425000Y-56225000D01*
X163400496Y-56223796D01*
X163376227Y-56220196D01*
X163352429Y-56214235D01*
X163329329Y-56205970D01*
X163307151Y-56195480D01*
X163286107Y-56182867D01*
X163266402Y-56168253D01*
X163248223Y-56151777D01*
X163231747Y-56133598D01*
X163217133Y-56113893D01*
X163204520Y-56092849D01*
X163194030Y-56070671D01*
X163185765Y-56047571D01*
X163179804Y-56023773D01*
X163176204Y-55999504D01*
X163175000Y-55975000D01*
X163175000Y-51025000D01*
X163176204Y-51000496D01*
X163179804Y-50976227D01*
X163185765Y-50952429D01*
X163194030Y-50929329D01*
X163204520Y-50907151D01*
X163217133Y-50886107D01*
X163231747Y-50866402D01*
X163248223Y-50848223D01*
X163266402Y-50831747D01*
X163286107Y-50817133D01*
X163307151Y-50804520D01*
X163329329Y-50794030D01*
X163352429Y-50785765D01*
X163376227Y-50779804D01*
X163400496Y-50776204D01*
X163425000Y-50775000D01*
X165025000Y-50775000D01*
X165049504Y-50776204D01*
X165049504Y-50776204D01*
G37*
D12*
X164225000Y-53500000D03*
D11*
G36*
X171999504Y-50776204D02*
G01*
X172023773Y-50779804D01*
X172047571Y-50785765D01*
X172070671Y-50794030D01*
X172092849Y-50804520D01*
X172113893Y-50817133D01*
X172133598Y-50831747D01*
X172151777Y-50848223D01*
X172168253Y-50866402D01*
X172182867Y-50886107D01*
X172195480Y-50907151D01*
X172205970Y-50929329D01*
X172214235Y-50952429D01*
X172220196Y-50976227D01*
X172223796Y-51000496D01*
X172225000Y-51025000D01*
X172225000Y-55975000D01*
X172223796Y-55999504D01*
X172220196Y-56023773D01*
X172214235Y-56047571D01*
X172205970Y-56070671D01*
X172195480Y-56092849D01*
X172182867Y-56113893D01*
X172168253Y-56133598D01*
X172151777Y-56151777D01*
X172133598Y-56168253D01*
X172113893Y-56182867D01*
X172092849Y-56195480D01*
X172070671Y-56205970D01*
X172047571Y-56214235D01*
X172023773Y-56220196D01*
X171999504Y-56223796D01*
X171975000Y-56225000D01*
X170375000Y-56225000D01*
X170350496Y-56223796D01*
X170326227Y-56220196D01*
X170302429Y-56214235D01*
X170279329Y-56205970D01*
X170257151Y-56195480D01*
X170236107Y-56182867D01*
X170216402Y-56168253D01*
X170198223Y-56151777D01*
X170181747Y-56133598D01*
X170167133Y-56113893D01*
X170154520Y-56092849D01*
X170144030Y-56070671D01*
X170135765Y-56047571D01*
X170129804Y-56023773D01*
X170126204Y-55999504D01*
X170125000Y-55975000D01*
X170125000Y-51025000D01*
X170126204Y-51000496D01*
X170129804Y-50976227D01*
X170135765Y-50952429D01*
X170144030Y-50929329D01*
X170154520Y-50907151D01*
X170167133Y-50886107D01*
X170181747Y-50866402D01*
X170198223Y-50848223D01*
X170216402Y-50831747D01*
X170236107Y-50817133D01*
X170257151Y-50804520D01*
X170279329Y-50794030D01*
X170302429Y-50785765D01*
X170326227Y-50779804D01*
X170350496Y-50776204D01*
X170375000Y-50775000D01*
X171975000Y-50775000D01*
X171999504Y-50776204D01*
X171999504Y-50776204D01*
G37*
D12*
X171175000Y-53500000D03*
D11*
G36*
X165049504Y-105776204D02*
G01*
X165073773Y-105779804D01*
X165097571Y-105785765D01*
X165120671Y-105794030D01*
X165142849Y-105804520D01*
X165163893Y-105817133D01*
X165183598Y-105831747D01*
X165201777Y-105848223D01*
X165218253Y-105866402D01*
X165232867Y-105886107D01*
X165245480Y-105907151D01*
X165255970Y-105929329D01*
X165264235Y-105952429D01*
X165270196Y-105976227D01*
X165273796Y-106000496D01*
X165275000Y-106025000D01*
X165275000Y-110975000D01*
X165273796Y-110999504D01*
X165270196Y-111023773D01*
X165264235Y-111047571D01*
X165255970Y-111070671D01*
X165245480Y-111092849D01*
X165232867Y-111113893D01*
X165218253Y-111133598D01*
X165201777Y-111151777D01*
X165183598Y-111168253D01*
X165163893Y-111182867D01*
X165142849Y-111195480D01*
X165120671Y-111205970D01*
X165097571Y-111214235D01*
X165073773Y-111220196D01*
X165049504Y-111223796D01*
X165025000Y-111225000D01*
X163425000Y-111225000D01*
X163400496Y-111223796D01*
X163376227Y-111220196D01*
X163352429Y-111214235D01*
X163329329Y-111205970D01*
X163307151Y-111195480D01*
X163286107Y-111182867D01*
X163266402Y-111168253D01*
X163248223Y-111151777D01*
X163231747Y-111133598D01*
X163217133Y-111113893D01*
X163204520Y-111092849D01*
X163194030Y-111070671D01*
X163185765Y-111047571D01*
X163179804Y-111023773D01*
X163176204Y-110999504D01*
X163175000Y-110975000D01*
X163175000Y-106025000D01*
X163176204Y-106000496D01*
X163179804Y-105976227D01*
X163185765Y-105952429D01*
X163194030Y-105929329D01*
X163204520Y-105907151D01*
X163217133Y-105886107D01*
X163231747Y-105866402D01*
X163248223Y-105848223D01*
X163266402Y-105831747D01*
X163286107Y-105817133D01*
X163307151Y-105804520D01*
X163329329Y-105794030D01*
X163352429Y-105785765D01*
X163376227Y-105779804D01*
X163400496Y-105776204D01*
X163425000Y-105775000D01*
X165025000Y-105775000D01*
X165049504Y-105776204D01*
X165049504Y-105776204D01*
G37*
D12*
X164225000Y-108500000D03*
D11*
G36*
X171999504Y-105776204D02*
G01*
X172023773Y-105779804D01*
X172047571Y-105785765D01*
X172070671Y-105794030D01*
X172092849Y-105804520D01*
X172113893Y-105817133D01*
X172133598Y-105831747D01*
X172151777Y-105848223D01*
X172168253Y-105866402D01*
X172182867Y-105886107D01*
X172195480Y-105907151D01*
X172205970Y-105929329D01*
X172214235Y-105952429D01*
X172220196Y-105976227D01*
X172223796Y-106000496D01*
X172225000Y-106025000D01*
X172225000Y-110975000D01*
X172223796Y-110999504D01*
X172220196Y-111023773D01*
X172214235Y-111047571D01*
X172205970Y-111070671D01*
X172195480Y-111092849D01*
X172182867Y-111113893D01*
X172168253Y-111133598D01*
X172151777Y-111151777D01*
X172133598Y-111168253D01*
X172113893Y-111182867D01*
X172092849Y-111195480D01*
X172070671Y-111205970D01*
X172047571Y-111214235D01*
X172023773Y-111220196D01*
X171999504Y-111223796D01*
X171975000Y-111225000D01*
X170375000Y-111225000D01*
X170350496Y-111223796D01*
X170326227Y-111220196D01*
X170302429Y-111214235D01*
X170279329Y-111205970D01*
X170257151Y-111195480D01*
X170236107Y-111182867D01*
X170216402Y-111168253D01*
X170198223Y-111151777D01*
X170181747Y-111133598D01*
X170167133Y-111113893D01*
X170154520Y-111092849D01*
X170144030Y-111070671D01*
X170135765Y-111047571D01*
X170129804Y-111023773D01*
X170126204Y-110999504D01*
X170125000Y-110975000D01*
X170125000Y-106025000D01*
X170126204Y-106000496D01*
X170129804Y-105976227D01*
X170135765Y-105952429D01*
X170144030Y-105929329D01*
X170154520Y-105907151D01*
X170167133Y-105886107D01*
X170181747Y-105866402D01*
X170198223Y-105848223D01*
X170216402Y-105831747D01*
X170236107Y-105817133D01*
X170257151Y-105804520D01*
X170279329Y-105794030D01*
X170302429Y-105785765D01*
X170326227Y-105779804D01*
X170350496Y-105776204D01*
X170375000Y-105775000D01*
X171975000Y-105775000D01*
X171999504Y-105776204D01*
X171999504Y-105776204D01*
G37*
D12*
X171175000Y-108500000D03*
D11*
G36*
X165049504Y-72776204D02*
G01*
X165073773Y-72779804D01*
X165097571Y-72785765D01*
X165120671Y-72794030D01*
X165142849Y-72804520D01*
X165163893Y-72817133D01*
X165183598Y-72831747D01*
X165201777Y-72848223D01*
X165218253Y-72866402D01*
X165232867Y-72886107D01*
X165245480Y-72907151D01*
X165255970Y-72929329D01*
X165264235Y-72952429D01*
X165270196Y-72976227D01*
X165273796Y-73000496D01*
X165275000Y-73025000D01*
X165275000Y-77975000D01*
X165273796Y-77999504D01*
X165270196Y-78023773D01*
X165264235Y-78047571D01*
X165255970Y-78070671D01*
X165245480Y-78092849D01*
X165232867Y-78113893D01*
X165218253Y-78133598D01*
X165201777Y-78151777D01*
X165183598Y-78168253D01*
X165163893Y-78182867D01*
X165142849Y-78195480D01*
X165120671Y-78205970D01*
X165097571Y-78214235D01*
X165073773Y-78220196D01*
X165049504Y-78223796D01*
X165025000Y-78225000D01*
X163425000Y-78225000D01*
X163400496Y-78223796D01*
X163376227Y-78220196D01*
X163352429Y-78214235D01*
X163329329Y-78205970D01*
X163307151Y-78195480D01*
X163286107Y-78182867D01*
X163266402Y-78168253D01*
X163248223Y-78151777D01*
X163231747Y-78133598D01*
X163217133Y-78113893D01*
X163204520Y-78092849D01*
X163194030Y-78070671D01*
X163185765Y-78047571D01*
X163179804Y-78023773D01*
X163176204Y-77999504D01*
X163175000Y-77975000D01*
X163175000Y-73025000D01*
X163176204Y-73000496D01*
X163179804Y-72976227D01*
X163185765Y-72952429D01*
X163194030Y-72929329D01*
X163204520Y-72907151D01*
X163217133Y-72886107D01*
X163231747Y-72866402D01*
X163248223Y-72848223D01*
X163266402Y-72831747D01*
X163286107Y-72817133D01*
X163307151Y-72804520D01*
X163329329Y-72794030D01*
X163352429Y-72785765D01*
X163376227Y-72779804D01*
X163400496Y-72776204D01*
X163425000Y-72775000D01*
X165025000Y-72775000D01*
X165049504Y-72776204D01*
X165049504Y-72776204D01*
G37*
D12*
X164225000Y-75500000D03*
D11*
G36*
X171999504Y-72776204D02*
G01*
X172023773Y-72779804D01*
X172047571Y-72785765D01*
X172070671Y-72794030D01*
X172092849Y-72804520D01*
X172113893Y-72817133D01*
X172133598Y-72831747D01*
X172151777Y-72848223D01*
X172168253Y-72866402D01*
X172182867Y-72886107D01*
X172195480Y-72907151D01*
X172205970Y-72929329D01*
X172214235Y-72952429D01*
X172220196Y-72976227D01*
X172223796Y-73000496D01*
X172225000Y-73025000D01*
X172225000Y-77975000D01*
X172223796Y-77999504D01*
X172220196Y-78023773D01*
X172214235Y-78047571D01*
X172205970Y-78070671D01*
X172195480Y-78092849D01*
X172182867Y-78113893D01*
X172168253Y-78133598D01*
X172151777Y-78151777D01*
X172133598Y-78168253D01*
X172113893Y-78182867D01*
X172092849Y-78195480D01*
X172070671Y-78205970D01*
X172047571Y-78214235D01*
X172023773Y-78220196D01*
X171999504Y-78223796D01*
X171975000Y-78225000D01*
X170375000Y-78225000D01*
X170350496Y-78223796D01*
X170326227Y-78220196D01*
X170302429Y-78214235D01*
X170279329Y-78205970D01*
X170257151Y-78195480D01*
X170236107Y-78182867D01*
X170216402Y-78168253D01*
X170198223Y-78151777D01*
X170181747Y-78133598D01*
X170167133Y-78113893D01*
X170154520Y-78092849D01*
X170144030Y-78070671D01*
X170135765Y-78047571D01*
X170129804Y-78023773D01*
X170126204Y-77999504D01*
X170125000Y-77975000D01*
X170125000Y-73025000D01*
X170126204Y-73000496D01*
X170129804Y-72976227D01*
X170135765Y-72952429D01*
X170144030Y-72929329D01*
X170154520Y-72907151D01*
X170167133Y-72886107D01*
X170181747Y-72866402D01*
X170198223Y-72848223D01*
X170216402Y-72831747D01*
X170236107Y-72817133D01*
X170257151Y-72804520D01*
X170279329Y-72794030D01*
X170302429Y-72785765D01*
X170326227Y-72779804D01*
X170350496Y-72776204D01*
X170375000Y-72775000D01*
X171975000Y-72775000D01*
X171999504Y-72776204D01*
X171999504Y-72776204D01*
G37*
D12*
X171175000Y-75500000D03*
D11*
G36*
X165049504Y-39776204D02*
G01*
X165073773Y-39779804D01*
X165097571Y-39785765D01*
X165120671Y-39794030D01*
X165142849Y-39804520D01*
X165163893Y-39817133D01*
X165183598Y-39831747D01*
X165201777Y-39848223D01*
X165218253Y-39866402D01*
X165232867Y-39886107D01*
X165245480Y-39907151D01*
X165255970Y-39929329D01*
X165264235Y-39952429D01*
X165270196Y-39976227D01*
X165273796Y-40000496D01*
X165275000Y-40025000D01*
X165275000Y-44975000D01*
X165273796Y-44999504D01*
X165270196Y-45023773D01*
X165264235Y-45047571D01*
X165255970Y-45070671D01*
X165245480Y-45092849D01*
X165232867Y-45113893D01*
X165218253Y-45133598D01*
X165201777Y-45151777D01*
X165183598Y-45168253D01*
X165163893Y-45182867D01*
X165142849Y-45195480D01*
X165120671Y-45205970D01*
X165097571Y-45214235D01*
X165073773Y-45220196D01*
X165049504Y-45223796D01*
X165025000Y-45225000D01*
X163425000Y-45225000D01*
X163400496Y-45223796D01*
X163376227Y-45220196D01*
X163352429Y-45214235D01*
X163329329Y-45205970D01*
X163307151Y-45195480D01*
X163286107Y-45182867D01*
X163266402Y-45168253D01*
X163248223Y-45151777D01*
X163231747Y-45133598D01*
X163217133Y-45113893D01*
X163204520Y-45092849D01*
X163194030Y-45070671D01*
X163185765Y-45047571D01*
X163179804Y-45023773D01*
X163176204Y-44999504D01*
X163175000Y-44975000D01*
X163175000Y-40025000D01*
X163176204Y-40000496D01*
X163179804Y-39976227D01*
X163185765Y-39952429D01*
X163194030Y-39929329D01*
X163204520Y-39907151D01*
X163217133Y-39886107D01*
X163231747Y-39866402D01*
X163248223Y-39848223D01*
X163266402Y-39831747D01*
X163286107Y-39817133D01*
X163307151Y-39804520D01*
X163329329Y-39794030D01*
X163352429Y-39785765D01*
X163376227Y-39779804D01*
X163400496Y-39776204D01*
X163425000Y-39775000D01*
X165025000Y-39775000D01*
X165049504Y-39776204D01*
X165049504Y-39776204D01*
G37*
D12*
X164225000Y-42500000D03*
D11*
G36*
X171999504Y-39776204D02*
G01*
X172023773Y-39779804D01*
X172047571Y-39785765D01*
X172070671Y-39794030D01*
X172092849Y-39804520D01*
X172113893Y-39817133D01*
X172133598Y-39831747D01*
X172151777Y-39848223D01*
X172168253Y-39866402D01*
X172182867Y-39886107D01*
X172195480Y-39907151D01*
X172205970Y-39929329D01*
X172214235Y-39952429D01*
X172220196Y-39976227D01*
X172223796Y-40000496D01*
X172225000Y-40025000D01*
X172225000Y-44975000D01*
X172223796Y-44999504D01*
X172220196Y-45023773D01*
X172214235Y-45047571D01*
X172205970Y-45070671D01*
X172195480Y-45092849D01*
X172182867Y-45113893D01*
X172168253Y-45133598D01*
X172151777Y-45151777D01*
X172133598Y-45168253D01*
X172113893Y-45182867D01*
X172092849Y-45195480D01*
X172070671Y-45205970D01*
X172047571Y-45214235D01*
X172023773Y-45220196D01*
X171999504Y-45223796D01*
X171975000Y-45225000D01*
X170375000Y-45225000D01*
X170350496Y-45223796D01*
X170326227Y-45220196D01*
X170302429Y-45214235D01*
X170279329Y-45205970D01*
X170257151Y-45195480D01*
X170236107Y-45182867D01*
X170216402Y-45168253D01*
X170198223Y-45151777D01*
X170181747Y-45133598D01*
X170167133Y-45113893D01*
X170154520Y-45092849D01*
X170144030Y-45070671D01*
X170135765Y-45047571D01*
X170129804Y-45023773D01*
X170126204Y-44999504D01*
X170125000Y-44975000D01*
X170125000Y-40025000D01*
X170126204Y-40000496D01*
X170129804Y-39976227D01*
X170135765Y-39952429D01*
X170144030Y-39929329D01*
X170154520Y-39907151D01*
X170167133Y-39886107D01*
X170181747Y-39866402D01*
X170198223Y-39848223D01*
X170216402Y-39831747D01*
X170236107Y-39817133D01*
X170257151Y-39804520D01*
X170279329Y-39794030D01*
X170302429Y-39785765D01*
X170326227Y-39779804D01*
X170350496Y-39776204D01*
X170375000Y-39775000D01*
X171975000Y-39775000D01*
X171999504Y-39776204D01*
X171999504Y-39776204D01*
G37*
D12*
X171175000Y-42500000D03*
D11*
G36*
X147999504Y-113126204D02*
G01*
X148023773Y-113129804D01*
X148047571Y-113135765D01*
X148070671Y-113144030D01*
X148092849Y-113154520D01*
X148113893Y-113167133D01*
X148133598Y-113181747D01*
X148151777Y-113198223D01*
X148168253Y-113216402D01*
X148182867Y-113236107D01*
X148195480Y-113257151D01*
X148205970Y-113279329D01*
X148214235Y-113302429D01*
X148220196Y-113326227D01*
X148223796Y-113350496D01*
X148225000Y-113375000D01*
X148225000Y-114625000D01*
X148223796Y-114649504D01*
X148220196Y-114673773D01*
X148214235Y-114697571D01*
X148205970Y-114720671D01*
X148195480Y-114742849D01*
X148182867Y-114763893D01*
X148168253Y-114783598D01*
X148151777Y-114801777D01*
X148133598Y-114818253D01*
X148113893Y-114832867D01*
X148092849Y-114845480D01*
X148070671Y-114855970D01*
X148047571Y-114864235D01*
X148023773Y-114870196D01*
X147999504Y-114873796D01*
X147975000Y-114875000D01*
X147225000Y-114875000D01*
X147200496Y-114873796D01*
X147176227Y-114870196D01*
X147152429Y-114864235D01*
X147129329Y-114855970D01*
X147107151Y-114845480D01*
X147086107Y-114832867D01*
X147066402Y-114818253D01*
X147048223Y-114801777D01*
X147031747Y-114783598D01*
X147017133Y-114763893D01*
X147004520Y-114742849D01*
X146994030Y-114720671D01*
X146985765Y-114697571D01*
X146979804Y-114673773D01*
X146976204Y-114649504D01*
X146975000Y-114625000D01*
X146975000Y-113375000D01*
X146976204Y-113350496D01*
X146979804Y-113326227D01*
X146985765Y-113302429D01*
X146994030Y-113279329D01*
X147004520Y-113257151D01*
X147017133Y-113236107D01*
X147031747Y-113216402D01*
X147048223Y-113198223D01*
X147066402Y-113181747D01*
X147086107Y-113167133D01*
X147107151Y-113154520D01*
X147129329Y-113144030D01*
X147152429Y-113135765D01*
X147176227Y-113129804D01*
X147200496Y-113126204D01*
X147225000Y-113125000D01*
X147975000Y-113125000D01*
X147999504Y-113126204D01*
X147999504Y-113126204D01*
G37*
D13*
X147600000Y-114000000D03*
D11*
G36*
X145199504Y-113126204D02*
G01*
X145223773Y-113129804D01*
X145247571Y-113135765D01*
X145270671Y-113144030D01*
X145292849Y-113154520D01*
X145313893Y-113167133D01*
X145333598Y-113181747D01*
X145351777Y-113198223D01*
X145368253Y-113216402D01*
X145382867Y-113236107D01*
X145395480Y-113257151D01*
X145405970Y-113279329D01*
X145414235Y-113302429D01*
X145420196Y-113326227D01*
X145423796Y-113350496D01*
X145425000Y-113375000D01*
X145425000Y-114625000D01*
X145423796Y-114649504D01*
X145420196Y-114673773D01*
X145414235Y-114697571D01*
X145405970Y-114720671D01*
X145395480Y-114742849D01*
X145382867Y-114763893D01*
X145368253Y-114783598D01*
X145351777Y-114801777D01*
X145333598Y-114818253D01*
X145313893Y-114832867D01*
X145292849Y-114845480D01*
X145270671Y-114855970D01*
X145247571Y-114864235D01*
X145223773Y-114870196D01*
X145199504Y-114873796D01*
X145175000Y-114875000D01*
X144425000Y-114875000D01*
X144400496Y-114873796D01*
X144376227Y-114870196D01*
X144352429Y-114864235D01*
X144329329Y-114855970D01*
X144307151Y-114845480D01*
X144286107Y-114832867D01*
X144266402Y-114818253D01*
X144248223Y-114801777D01*
X144231747Y-114783598D01*
X144217133Y-114763893D01*
X144204520Y-114742849D01*
X144194030Y-114720671D01*
X144185765Y-114697571D01*
X144179804Y-114673773D01*
X144176204Y-114649504D01*
X144175000Y-114625000D01*
X144175000Y-113375000D01*
X144176204Y-113350496D01*
X144179804Y-113326227D01*
X144185765Y-113302429D01*
X144194030Y-113279329D01*
X144204520Y-113257151D01*
X144217133Y-113236107D01*
X144231747Y-113216402D01*
X144248223Y-113198223D01*
X144266402Y-113181747D01*
X144286107Y-113167133D01*
X144307151Y-113154520D01*
X144329329Y-113144030D01*
X144352429Y-113135765D01*
X144376227Y-113129804D01*
X144400496Y-113126204D01*
X144425000Y-113125000D01*
X145175000Y-113125000D01*
X145199504Y-113126204D01*
X145199504Y-113126204D01*
G37*
D13*
X144800000Y-114000000D03*
D11*
G36*
X147999504Y-91126204D02*
G01*
X148023773Y-91129804D01*
X148047571Y-91135765D01*
X148070671Y-91144030D01*
X148092849Y-91154520D01*
X148113893Y-91167133D01*
X148133598Y-91181747D01*
X148151777Y-91198223D01*
X148168253Y-91216402D01*
X148182867Y-91236107D01*
X148195480Y-91257151D01*
X148205970Y-91279329D01*
X148214235Y-91302429D01*
X148220196Y-91326227D01*
X148223796Y-91350496D01*
X148225000Y-91375000D01*
X148225000Y-92625000D01*
X148223796Y-92649504D01*
X148220196Y-92673773D01*
X148214235Y-92697571D01*
X148205970Y-92720671D01*
X148195480Y-92742849D01*
X148182867Y-92763893D01*
X148168253Y-92783598D01*
X148151777Y-92801777D01*
X148133598Y-92818253D01*
X148113893Y-92832867D01*
X148092849Y-92845480D01*
X148070671Y-92855970D01*
X148047571Y-92864235D01*
X148023773Y-92870196D01*
X147999504Y-92873796D01*
X147975000Y-92875000D01*
X147225000Y-92875000D01*
X147200496Y-92873796D01*
X147176227Y-92870196D01*
X147152429Y-92864235D01*
X147129329Y-92855970D01*
X147107151Y-92845480D01*
X147086107Y-92832867D01*
X147066402Y-92818253D01*
X147048223Y-92801777D01*
X147031747Y-92783598D01*
X147017133Y-92763893D01*
X147004520Y-92742849D01*
X146994030Y-92720671D01*
X146985765Y-92697571D01*
X146979804Y-92673773D01*
X146976204Y-92649504D01*
X146975000Y-92625000D01*
X146975000Y-91375000D01*
X146976204Y-91350496D01*
X146979804Y-91326227D01*
X146985765Y-91302429D01*
X146994030Y-91279329D01*
X147004520Y-91257151D01*
X147017133Y-91236107D01*
X147031747Y-91216402D01*
X147048223Y-91198223D01*
X147066402Y-91181747D01*
X147086107Y-91167133D01*
X147107151Y-91154520D01*
X147129329Y-91144030D01*
X147152429Y-91135765D01*
X147176227Y-91129804D01*
X147200496Y-91126204D01*
X147225000Y-91125000D01*
X147975000Y-91125000D01*
X147999504Y-91126204D01*
X147999504Y-91126204D01*
G37*
D13*
X147600000Y-92000000D03*
D11*
G36*
X145199504Y-91126204D02*
G01*
X145223773Y-91129804D01*
X145247571Y-91135765D01*
X145270671Y-91144030D01*
X145292849Y-91154520D01*
X145313893Y-91167133D01*
X145333598Y-91181747D01*
X145351777Y-91198223D01*
X145368253Y-91216402D01*
X145382867Y-91236107D01*
X145395480Y-91257151D01*
X145405970Y-91279329D01*
X145414235Y-91302429D01*
X145420196Y-91326227D01*
X145423796Y-91350496D01*
X145425000Y-91375000D01*
X145425000Y-92625000D01*
X145423796Y-92649504D01*
X145420196Y-92673773D01*
X145414235Y-92697571D01*
X145405970Y-92720671D01*
X145395480Y-92742849D01*
X145382867Y-92763893D01*
X145368253Y-92783598D01*
X145351777Y-92801777D01*
X145333598Y-92818253D01*
X145313893Y-92832867D01*
X145292849Y-92845480D01*
X145270671Y-92855970D01*
X145247571Y-92864235D01*
X145223773Y-92870196D01*
X145199504Y-92873796D01*
X145175000Y-92875000D01*
X144425000Y-92875000D01*
X144400496Y-92873796D01*
X144376227Y-92870196D01*
X144352429Y-92864235D01*
X144329329Y-92855970D01*
X144307151Y-92845480D01*
X144286107Y-92832867D01*
X144266402Y-92818253D01*
X144248223Y-92801777D01*
X144231747Y-92783598D01*
X144217133Y-92763893D01*
X144204520Y-92742849D01*
X144194030Y-92720671D01*
X144185765Y-92697571D01*
X144179804Y-92673773D01*
X144176204Y-92649504D01*
X144175000Y-92625000D01*
X144175000Y-91375000D01*
X144176204Y-91350496D01*
X144179804Y-91326227D01*
X144185765Y-91302429D01*
X144194030Y-91279329D01*
X144204520Y-91257151D01*
X144217133Y-91236107D01*
X144231747Y-91216402D01*
X144248223Y-91198223D01*
X144266402Y-91181747D01*
X144286107Y-91167133D01*
X144307151Y-91154520D01*
X144329329Y-91144030D01*
X144352429Y-91135765D01*
X144376227Y-91129804D01*
X144400496Y-91126204D01*
X144425000Y-91125000D01*
X145175000Y-91125000D01*
X145199504Y-91126204D01*
X145199504Y-91126204D01*
G37*
D13*
X144800000Y-92000000D03*
D11*
G36*
X147999504Y-69126204D02*
G01*
X148023773Y-69129804D01*
X148047571Y-69135765D01*
X148070671Y-69144030D01*
X148092849Y-69154520D01*
X148113893Y-69167133D01*
X148133598Y-69181747D01*
X148151777Y-69198223D01*
X148168253Y-69216402D01*
X148182867Y-69236107D01*
X148195480Y-69257151D01*
X148205970Y-69279329D01*
X148214235Y-69302429D01*
X148220196Y-69326227D01*
X148223796Y-69350496D01*
X148225000Y-69375000D01*
X148225000Y-70625000D01*
X148223796Y-70649504D01*
X148220196Y-70673773D01*
X148214235Y-70697571D01*
X148205970Y-70720671D01*
X148195480Y-70742849D01*
X148182867Y-70763893D01*
X148168253Y-70783598D01*
X148151777Y-70801777D01*
X148133598Y-70818253D01*
X148113893Y-70832867D01*
X148092849Y-70845480D01*
X148070671Y-70855970D01*
X148047571Y-70864235D01*
X148023773Y-70870196D01*
X147999504Y-70873796D01*
X147975000Y-70875000D01*
X147225000Y-70875000D01*
X147200496Y-70873796D01*
X147176227Y-70870196D01*
X147152429Y-70864235D01*
X147129329Y-70855970D01*
X147107151Y-70845480D01*
X147086107Y-70832867D01*
X147066402Y-70818253D01*
X147048223Y-70801777D01*
X147031747Y-70783598D01*
X147017133Y-70763893D01*
X147004520Y-70742849D01*
X146994030Y-70720671D01*
X146985765Y-70697571D01*
X146979804Y-70673773D01*
X146976204Y-70649504D01*
X146975000Y-70625000D01*
X146975000Y-69375000D01*
X146976204Y-69350496D01*
X146979804Y-69326227D01*
X146985765Y-69302429D01*
X146994030Y-69279329D01*
X147004520Y-69257151D01*
X147017133Y-69236107D01*
X147031747Y-69216402D01*
X147048223Y-69198223D01*
X147066402Y-69181747D01*
X147086107Y-69167133D01*
X147107151Y-69154520D01*
X147129329Y-69144030D01*
X147152429Y-69135765D01*
X147176227Y-69129804D01*
X147200496Y-69126204D01*
X147225000Y-69125000D01*
X147975000Y-69125000D01*
X147999504Y-69126204D01*
X147999504Y-69126204D01*
G37*
D13*
X147600000Y-70000000D03*
D11*
G36*
X145199504Y-69126204D02*
G01*
X145223773Y-69129804D01*
X145247571Y-69135765D01*
X145270671Y-69144030D01*
X145292849Y-69154520D01*
X145313893Y-69167133D01*
X145333598Y-69181747D01*
X145351777Y-69198223D01*
X145368253Y-69216402D01*
X145382867Y-69236107D01*
X145395480Y-69257151D01*
X145405970Y-69279329D01*
X145414235Y-69302429D01*
X145420196Y-69326227D01*
X145423796Y-69350496D01*
X145425000Y-69375000D01*
X145425000Y-70625000D01*
X145423796Y-70649504D01*
X145420196Y-70673773D01*
X145414235Y-70697571D01*
X145405970Y-70720671D01*
X145395480Y-70742849D01*
X145382867Y-70763893D01*
X145368253Y-70783598D01*
X145351777Y-70801777D01*
X145333598Y-70818253D01*
X145313893Y-70832867D01*
X145292849Y-70845480D01*
X145270671Y-70855970D01*
X145247571Y-70864235D01*
X145223773Y-70870196D01*
X145199504Y-70873796D01*
X145175000Y-70875000D01*
X144425000Y-70875000D01*
X144400496Y-70873796D01*
X144376227Y-70870196D01*
X144352429Y-70864235D01*
X144329329Y-70855970D01*
X144307151Y-70845480D01*
X144286107Y-70832867D01*
X144266402Y-70818253D01*
X144248223Y-70801777D01*
X144231747Y-70783598D01*
X144217133Y-70763893D01*
X144204520Y-70742849D01*
X144194030Y-70720671D01*
X144185765Y-70697571D01*
X144179804Y-70673773D01*
X144176204Y-70649504D01*
X144175000Y-70625000D01*
X144175000Y-69375000D01*
X144176204Y-69350496D01*
X144179804Y-69326227D01*
X144185765Y-69302429D01*
X144194030Y-69279329D01*
X144204520Y-69257151D01*
X144217133Y-69236107D01*
X144231747Y-69216402D01*
X144248223Y-69198223D01*
X144266402Y-69181747D01*
X144286107Y-69167133D01*
X144307151Y-69154520D01*
X144329329Y-69144030D01*
X144352429Y-69135765D01*
X144376227Y-69129804D01*
X144400496Y-69126204D01*
X144425000Y-69125000D01*
X145175000Y-69125000D01*
X145199504Y-69126204D01*
X145199504Y-69126204D01*
G37*
D13*
X144800000Y-70000000D03*
D11*
G36*
X147999504Y-47126204D02*
G01*
X148023773Y-47129804D01*
X148047571Y-47135765D01*
X148070671Y-47144030D01*
X148092849Y-47154520D01*
X148113893Y-47167133D01*
X148133598Y-47181747D01*
X148151777Y-47198223D01*
X148168253Y-47216402D01*
X148182867Y-47236107D01*
X148195480Y-47257151D01*
X148205970Y-47279329D01*
X148214235Y-47302429D01*
X148220196Y-47326227D01*
X148223796Y-47350496D01*
X148225000Y-47375000D01*
X148225000Y-48625000D01*
X148223796Y-48649504D01*
X148220196Y-48673773D01*
X148214235Y-48697571D01*
X148205970Y-48720671D01*
X148195480Y-48742849D01*
X148182867Y-48763893D01*
X148168253Y-48783598D01*
X148151777Y-48801777D01*
X148133598Y-48818253D01*
X148113893Y-48832867D01*
X148092849Y-48845480D01*
X148070671Y-48855970D01*
X148047571Y-48864235D01*
X148023773Y-48870196D01*
X147999504Y-48873796D01*
X147975000Y-48875000D01*
X147225000Y-48875000D01*
X147200496Y-48873796D01*
X147176227Y-48870196D01*
X147152429Y-48864235D01*
X147129329Y-48855970D01*
X147107151Y-48845480D01*
X147086107Y-48832867D01*
X147066402Y-48818253D01*
X147048223Y-48801777D01*
X147031747Y-48783598D01*
X147017133Y-48763893D01*
X147004520Y-48742849D01*
X146994030Y-48720671D01*
X146985765Y-48697571D01*
X146979804Y-48673773D01*
X146976204Y-48649504D01*
X146975000Y-48625000D01*
X146975000Y-47375000D01*
X146976204Y-47350496D01*
X146979804Y-47326227D01*
X146985765Y-47302429D01*
X146994030Y-47279329D01*
X147004520Y-47257151D01*
X147017133Y-47236107D01*
X147031747Y-47216402D01*
X147048223Y-47198223D01*
X147066402Y-47181747D01*
X147086107Y-47167133D01*
X147107151Y-47154520D01*
X147129329Y-47144030D01*
X147152429Y-47135765D01*
X147176227Y-47129804D01*
X147200496Y-47126204D01*
X147225000Y-47125000D01*
X147975000Y-47125000D01*
X147999504Y-47126204D01*
X147999504Y-47126204D01*
G37*
D13*
X147600000Y-48000000D03*
D11*
G36*
X145199504Y-47126204D02*
G01*
X145223773Y-47129804D01*
X145247571Y-47135765D01*
X145270671Y-47144030D01*
X145292849Y-47154520D01*
X145313893Y-47167133D01*
X145333598Y-47181747D01*
X145351777Y-47198223D01*
X145368253Y-47216402D01*
X145382867Y-47236107D01*
X145395480Y-47257151D01*
X145405970Y-47279329D01*
X145414235Y-47302429D01*
X145420196Y-47326227D01*
X145423796Y-47350496D01*
X145425000Y-47375000D01*
X145425000Y-48625000D01*
X145423796Y-48649504D01*
X145420196Y-48673773D01*
X145414235Y-48697571D01*
X145405970Y-48720671D01*
X145395480Y-48742849D01*
X145382867Y-48763893D01*
X145368253Y-48783598D01*
X145351777Y-48801777D01*
X145333598Y-48818253D01*
X145313893Y-48832867D01*
X145292849Y-48845480D01*
X145270671Y-48855970D01*
X145247571Y-48864235D01*
X145223773Y-48870196D01*
X145199504Y-48873796D01*
X145175000Y-48875000D01*
X144425000Y-48875000D01*
X144400496Y-48873796D01*
X144376227Y-48870196D01*
X144352429Y-48864235D01*
X144329329Y-48855970D01*
X144307151Y-48845480D01*
X144286107Y-48832867D01*
X144266402Y-48818253D01*
X144248223Y-48801777D01*
X144231747Y-48783598D01*
X144217133Y-48763893D01*
X144204520Y-48742849D01*
X144194030Y-48720671D01*
X144185765Y-48697571D01*
X144179804Y-48673773D01*
X144176204Y-48649504D01*
X144175000Y-48625000D01*
X144175000Y-47375000D01*
X144176204Y-47350496D01*
X144179804Y-47326227D01*
X144185765Y-47302429D01*
X144194030Y-47279329D01*
X144204520Y-47257151D01*
X144217133Y-47236107D01*
X144231747Y-47216402D01*
X144248223Y-47198223D01*
X144266402Y-47181747D01*
X144286107Y-47167133D01*
X144307151Y-47154520D01*
X144329329Y-47144030D01*
X144352429Y-47135765D01*
X144376227Y-47129804D01*
X144400496Y-47126204D01*
X144425000Y-47125000D01*
X145175000Y-47125000D01*
X145199504Y-47126204D01*
X145199504Y-47126204D01*
G37*
D13*
X144800000Y-48000000D03*
D11*
G36*
X99649504Y-61776204D02*
G01*
X99673773Y-61779804D01*
X99697571Y-61785765D01*
X99720671Y-61794030D01*
X99742849Y-61804520D01*
X99763893Y-61817133D01*
X99783598Y-61831747D01*
X99801777Y-61848223D01*
X99818253Y-61866402D01*
X99832867Y-61886107D01*
X99845480Y-61907151D01*
X99855970Y-61929329D01*
X99864235Y-61952429D01*
X99870196Y-61976227D01*
X99873796Y-62000496D01*
X99875000Y-62025000D01*
X99875000Y-66975000D01*
X99873796Y-66999504D01*
X99870196Y-67023773D01*
X99864235Y-67047571D01*
X99855970Y-67070671D01*
X99845480Y-67092849D01*
X99832867Y-67113893D01*
X99818253Y-67133598D01*
X99801777Y-67151777D01*
X99783598Y-67168253D01*
X99763893Y-67182867D01*
X99742849Y-67195480D01*
X99720671Y-67205970D01*
X99697571Y-67214235D01*
X99673773Y-67220196D01*
X99649504Y-67223796D01*
X99625000Y-67225000D01*
X98025000Y-67225000D01*
X98000496Y-67223796D01*
X97976227Y-67220196D01*
X97952429Y-67214235D01*
X97929329Y-67205970D01*
X97907151Y-67195480D01*
X97886107Y-67182867D01*
X97866402Y-67168253D01*
X97848223Y-67151777D01*
X97831747Y-67133598D01*
X97817133Y-67113893D01*
X97804520Y-67092849D01*
X97794030Y-67070671D01*
X97785765Y-67047571D01*
X97779804Y-67023773D01*
X97776204Y-66999504D01*
X97775000Y-66975000D01*
X97775000Y-62025000D01*
X97776204Y-62000496D01*
X97779804Y-61976227D01*
X97785765Y-61952429D01*
X97794030Y-61929329D01*
X97804520Y-61907151D01*
X97817133Y-61886107D01*
X97831747Y-61866402D01*
X97848223Y-61848223D01*
X97866402Y-61831747D01*
X97886107Y-61817133D01*
X97907151Y-61804520D01*
X97929329Y-61794030D01*
X97952429Y-61785765D01*
X97976227Y-61779804D01*
X98000496Y-61776204D01*
X98025000Y-61775000D01*
X99625000Y-61775000D01*
X99649504Y-61776204D01*
X99649504Y-61776204D01*
G37*
D12*
X98825000Y-64500000D03*
D11*
G36*
X106599504Y-61776204D02*
G01*
X106623773Y-61779804D01*
X106647571Y-61785765D01*
X106670671Y-61794030D01*
X106692849Y-61804520D01*
X106713893Y-61817133D01*
X106733598Y-61831747D01*
X106751777Y-61848223D01*
X106768253Y-61866402D01*
X106782867Y-61886107D01*
X106795480Y-61907151D01*
X106805970Y-61929329D01*
X106814235Y-61952429D01*
X106820196Y-61976227D01*
X106823796Y-62000496D01*
X106825000Y-62025000D01*
X106825000Y-66975000D01*
X106823796Y-66999504D01*
X106820196Y-67023773D01*
X106814235Y-67047571D01*
X106805970Y-67070671D01*
X106795480Y-67092849D01*
X106782867Y-67113893D01*
X106768253Y-67133598D01*
X106751777Y-67151777D01*
X106733598Y-67168253D01*
X106713893Y-67182867D01*
X106692849Y-67195480D01*
X106670671Y-67205970D01*
X106647571Y-67214235D01*
X106623773Y-67220196D01*
X106599504Y-67223796D01*
X106575000Y-67225000D01*
X104975000Y-67225000D01*
X104950496Y-67223796D01*
X104926227Y-67220196D01*
X104902429Y-67214235D01*
X104879329Y-67205970D01*
X104857151Y-67195480D01*
X104836107Y-67182867D01*
X104816402Y-67168253D01*
X104798223Y-67151777D01*
X104781747Y-67133598D01*
X104767133Y-67113893D01*
X104754520Y-67092849D01*
X104744030Y-67070671D01*
X104735765Y-67047571D01*
X104729804Y-67023773D01*
X104726204Y-66999504D01*
X104725000Y-66975000D01*
X104725000Y-62025000D01*
X104726204Y-62000496D01*
X104729804Y-61976227D01*
X104735765Y-61952429D01*
X104744030Y-61929329D01*
X104754520Y-61907151D01*
X104767133Y-61886107D01*
X104781747Y-61866402D01*
X104798223Y-61848223D01*
X104816402Y-61831747D01*
X104836107Y-61817133D01*
X104857151Y-61804520D01*
X104879329Y-61794030D01*
X104902429Y-61785765D01*
X104926227Y-61779804D01*
X104950496Y-61776204D01*
X104975000Y-61775000D01*
X106575000Y-61775000D01*
X106599504Y-61776204D01*
X106599504Y-61776204D01*
G37*
D12*
X105775000Y-64500000D03*
D11*
G36*
X99649504Y-94776204D02*
G01*
X99673773Y-94779804D01*
X99697571Y-94785765D01*
X99720671Y-94794030D01*
X99742849Y-94804520D01*
X99763893Y-94817133D01*
X99783598Y-94831747D01*
X99801777Y-94848223D01*
X99818253Y-94866402D01*
X99832867Y-94886107D01*
X99845480Y-94907151D01*
X99855970Y-94929329D01*
X99864235Y-94952429D01*
X99870196Y-94976227D01*
X99873796Y-95000496D01*
X99875000Y-95025000D01*
X99875000Y-99975000D01*
X99873796Y-99999504D01*
X99870196Y-100023773D01*
X99864235Y-100047571D01*
X99855970Y-100070671D01*
X99845480Y-100092849D01*
X99832867Y-100113893D01*
X99818253Y-100133598D01*
X99801777Y-100151777D01*
X99783598Y-100168253D01*
X99763893Y-100182867D01*
X99742849Y-100195480D01*
X99720671Y-100205970D01*
X99697571Y-100214235D01*
X99673773Y-100220196D01*
X99649504Y-100223796D01*
X99625000Y-100225000D01*
X98025000Y-100225000D01*
X98000496Y-100223796D01*
X97976227Y-100220196D01*
X97952429Y-100214235D01*
X97929329Y-100205970D01*
X97907151Y-100195480D01*
X97886107Y-100182867D01*
X97866402Y-100168253D01*
X97848223Y-100151777D01*
X97831747Y-100133598D01*
X97817133Y-100113893D01*
X97804520Y-100092849D01*
X97794030Y-100070671D01*
X97785765Y-100047571D01*
X97779804Y-100023773D01*
X97776204Y-99999504D01*
X97775000Y-99975000D01*
X97775000Y-95025000D01*
X97776204Y-95000496D01*
X97779804Y-94976227D01*
X97785765Y-94952429D01*
X97794030Y-94929329D01*
X97804520Y-94907151D01*
X97817133Y-94886107D01*
X97831747Y-94866402D01*
X97848223Y-94848223D01*
X97866402Y-94831747D01*
X97886107Y-94817133D01*
X97907151Y-94804520D01*
X97929329Y-94794030D01*
X97952429Y-94785765D01*
X97976227Y-94779804D01*
X98000496Y-94776204D01*
X98025000Y-94775000D01*
X99625000Y-94775000D01*
X99649504Y-94776204D01*
X99649504Y-94776204D01*
G37*
D12*
X98825000Y-97500000D03*
D11*
G36*
X106599504Y-94776204D02*
G01*
X106623773Y-94779804D01*
X106647571Y-94785765D01*
X106670671Y-94794030D01*
X106692849Y-94804520D01*
X106713893Y-94817133D01*
X106733598Y-94831747D01*
X106751777Y-94848223D01*
X106768253Y-94866402D01*
X106782867Y-94886107D01*
X106795480Y-94907151D01*
X106805970Y-94929329D01*
X106814235Y-94952429D01*
X106820196Y-94976227D01*
X106823796Y-95000496D01*
X106825000Y-95025000D01*
X106825000Y-99975000D01*
X106823796Y-99999504D01*
X106820196Y-100023773D01*
X106814235Y-100047571D01*
X106805970Y-100070671D01*
X106795480Y-100092849D01*
X106782867Y-100113893D01*
X106768253Y-100133598D01*
X106751777Y-100151777D01*
X106733598Y-100168253D01*
X106713893Y-100182867D01*
X106692849Y-100195480D01*
X106670671Y-100205970D01*
X106647571Y-100214235D01*
X106623773Y-100220196D01*
X106599504Y-100223796D01*
X106575000Y-100225000D01*
X104975000Y-100225000D01*
X104950496Y-100223796D01*
X104926227Y-100220196D01*
X104902429Y-100214235D01*
X104879329Y-100205970D01*
X104857151Y-100195480D01*
X104836107Y-100182867D01*
X104816402Y-100168253D01*
X104798223Y-100151777D01*
X104781747Y-100133598D01*
X104767133Y-100113893D01*
X104754520Y-100092849D01*
X104744030Y-100070671D01*
X104735765Y-100047571D01*
X104729804Y-100023773D01*
X104726204Y-99999504D01*
X104725000Y-99975000D01*
X104725000Y-95025000D01*
X104726204Y-95000496D01*
X104729804Y-94976227D01*
X104735765Y-94952429D01*
X104744030Y-94929329D01*
X104754520Y-94907151D01*
X104767133Y-94886107D01*
X104781747Y-94866402D01*
X104798223Y-94848223D01*
X104816402Y-94831747D01*
X104836107Y-94817133D01*
X104857151Y-94804520D01*
X104879329Y-94794030D01*
X104902429Y-94785765D01*
X104926227Y-94779804D01*
X104950496Y-94776204D01*
X104975000Y-94775000D01*
X106575000Y-94775000D01*
X106599504Y-94776204D01*
X106599504Y-94776204D01*
G37*
D12*
X105775000Y-97500000D03*
D11*
G36*
X99649504Y-39776204D02*
G01*
X99673773Y-39779804D01*
X99697571Y-39785765D01*
X99720671Y-39794030D01*
X99742849Y-39804520D01*
X99763893Y-39817133D01*
X99783598Y-39831747D01*
X99801777Y-39848223D01*
X99818253Y-39866402D01*
X99832867Y-39886107D01*
X99845480Y-39907151D01*
X99855970Y-39929329D01*
X99864235Y-39952429D01*
X99870196Y-39976227D01*
X99873796Y-40000496D01*
X99875000Y-40025000D01*
X99875000Y-44975000D01*
X99873796Y-44999504D01*
X99870196Y-45023773D01*
X99864235Y-45047571D01*
X99855970Y-45070671D01*
X99845480Y-45092849D01*
X99832867Y-45113893D01*
X99818253Y-45133598D01*
X99801777Y-45151777D01*
X99783598Y-45168253D01*
X99763893Y-45182867D01*
X99742849Y-45195480D01*
X99720671Y-45205970D01*
X99697571Y-45214235D01*
X99673773Y-45220196D01*
X99649504Y-45223796D01*
X99625000Y-45225000D01*
X98025000Y-45225000D01*
X98000496Y-45223796D01*
X97976227Y-45220196D01*
X97952429Y-45214235D01*
X97929329Y-45205970D01*
X97907151Y-45195480D01*
X97886107Y-45182867D01*
X97866402Y-45168253D01*
X97848223Y-45151777D01*
X97831747Y-45133598D01*
X97817133Y-45113893D01*
X97804520Y-45092849D01*
X97794030Y-45070671D01*
X97785765Y-45047571D01*
X97779804Y-45023773D01*
X97776204Y-44999504D01*
X97775000Y-44975000D01*
X97775000Y-40025000D01*
X97776204Y-40000496D01*
X97779804Y-39976227D01*
X97785765Y-39952429D01*
X97794030Y-39929329D01*
X97804520Y-39907151D01*
X97817133Y-39886107D01*
X97831747Y-39866402D01*
X97848223Y-39848223D01*
X97866402Y-39831747D01*
X97886107Y-39817133D01*
X97907151Y-39804520D01*
X97929329Y-39794030D01*
X97952429Y-39785765D01*
X97976227Y-39779804D01*
X98000496Y-39776204D01*
X98025000Y-39775000D01*
X99625000Y-39775000D01*
X99649504Y-39776204D01*
X99649504Y-39776204D01*
G37*
D12*
X98825000Y-42500000D03*
D11*
G36*
X106599504Y-39776204D02*
G01*
X106623773Y-39779804D01*
X106647571Y-39785765D01*
X106670671Y-39794030D01*
X106692849Y-39804520D01*
X106713893Y-39817133D01*
X106733598Y-39831747D01*
X106751777Y-39848223D01*
X106768253Y-39866402D01*
X106782867Y-39886107D01*
X106795480Y-39907151D01*
X106805970Y-39929329D01*
X106814235Y-39952429D01*
X106820196Y-39976227D01*
X106823796Y-40000496D01*
X106825000Y-40025000D01*
X106825000Y-44975000D01*
X106823796Y-44999504D01*
X106820196Y-45023773D01*
X106814235Y-45047571D01*
X106805970Y-45070671D01*
X106795480Y-45092849D01*
X106782867Y-45113893D01*
X106768253Y-45133598D01*
X106751777Y-45151777D01*
X106733598Y-45168253D01*
X106713893Y-45182867D01*
X106692849Y-45195480D01*
X106670671Y-45205970D01*
X106647571Y-45214235D01*
X106623773Y-45220196D01*
X106599504Y-45223796D01*
X106575000Y-45225000D01*
X104975000Y-45225000D01*
X104950496Y-45223796D01*
X104926227Y-45220196D01*
X104902429Y-45214235D01*
X104879329Y-45205970D01*
X104857151Y-45195480D01*
X104836107Y-45182867D01*
X104816402Y-45168253D01*
X104798223Y-45151777D01*
X104781747Y-45133598D01*
X104767133Y-45113893D01*
X104754520Y-45092849D01*
X104744030Y-45070671D01*
X104735765Y-45047571D01*
X104729804Y-45023773D01*
X104726204Y-44999504D01*
X104725000Y-44975000D01*
X104725000Y-40025000D01*
X104726204Y-40000496D01*
X104729804Y-39976227D01*
X104735765Y-39952429D01*
X104744030Y-39929329D01*
X104754520Y-39907151D01*
X104767133Y-39886107D01*
X104781747Y-39866402D01*
X104798223Y-39848223D01*
X104816402Y-39831747D01*
X104836107Y-39817133D01*
X104857151Y-39804520D01*
X104879329Y-39794030D01*
X104902429Y-39785765D01*
X104926227Y-39779804D01*
X104950496Y-39776204D01*
X104975000Y-39775000D01*
X106575000Y-39775000D01*
X106599504Y-39776204D01*
X106599504Y-39776204D01*
G37*
D12*
X105775000Y-42500000D03*
D11*
G36*
X99649504Y-72776204D02*
G01*
X99673773Y-72779804D01*
X99697571Y-72785765D01*
X99720671Y-72794030D01*
X99742849Y-72804520D01*
X99763893Y-72817133D01*
X99783598Y-72831747D01*
X99801777Y-72848223D01*
X99818253Y-72866402D01*
X99832867Y-72886107D01*
X99845480Y-72907151D01*
X99855970Y-72929329D01*
X99864235Y-72952429D01*
X99870196Y-72976227D01*
X99873796Y-73000496D01*
X99875000Y-73025000D01*
X99875000Y-77975000D01*
X99873796Y-77999504D01*
X99870196Y-78023773D01*
X99864235Y-78047571D01*
X99855970Y-78070671D01*
X99845480Y-78092849D01*
X99832867Y-78113893D01*
X99818253Y-78133598D01*
X99801777Y-78151777D01*
X99783598Y-78168253D01*
X99763893Y-78182867D01*
X99742849Y-78195480D01*
X99720671Y-78205970D01*
X99697571Y-78214235D01*
X99673773Y-78220196D01*
X99649504Y-78223796D01*
X99625000Y-78225000D01*
X98025000Y-78225000D01*
X98000496Y-78223796D01*
X97976227Y-78220196D01*
X97952429Y-78214235D01*
X97929329Y-78205970D01*
X97907151Y-78195480D01*
X97886107Y-78182867D01*
X97866402Y-78168253D01*
X97848223Y-78151777D01*
X97831747Y-78133598D01*
X97817133Y-78113893D01*
X97804520Y-78092849D01*
X97794030Y-78070671D01*
X97785765Y-78047571D01*
X97779804Y-78023773D01*
X97776204Y-77999504D01*
X97775000Y-77975000D01*
X97775000Y-73025000D01*
X97776204Y-73000496D01*
X97779804Y-72976227D01*
X97785765Y-72952429D01*
X97794030Y-72929329D01*
X97804520Y-72907151D01*
X97817133Y-72886107D01*
X97831747Y-72866402D01*
X97848223Y-72848223D01*
X97866402Y-72831747D01*
X97886107Y-72817133D01*
X97907151Y-72804520D01*
X97929329Y-72794030D01*
X97952429Y-72785765D01*
X97976227Y-72779804D01*
X98000496Y-72776204D01*
X98025000Y-72775000D01*
X99625000Y-72775000D01*
X99649504Y-72776204D01*
X99649504Y-72776204D01*
G37*
D12*
X98825000Y-75500000D03*
D11*
G36*
X106599504Y-72776204D02*
G01*
X106623773Y-72779804D01*
X106647571Y-72785765D01*
X106670671Y-72794030D01*
X106692849Y-72804520D01*
X106713893Y-72817133D01*
X106733598Y-72831747D01*
X106751777Y-72848223D01*
X106768253Y-72866402D01*
X106782867Y-72886107D01*
X106795480Y-72907151D01*
X106805970Y-72929329D01*
X106814235Y-72952429D01*
X106820196Y-72976227D01*
X106823796Y-73000496D01*
X106825000Y-73025000D01*
X106825000Y-77975000D01*
X106823796Y-77999504D01*
X106820196Y-78023773D01*
X106814235Y-78047571D01*
X106805970Y-78070671D01*
X106795480Y-78092849D01*
X106782867Y-78113893D01*
X106768253Y-78133598D01*
X106751777Y-78151777D01*
X106733598Y-78168253D01*
X106713893Y-78182867D01*
X106692849Y-78195480D01*
X106670671Y-78205970D01*
X106647571Y-78214235D01*
X106623773Y-78220196D01*
X106599504Y-78223796D01*
X106575000Y-78225000D01*
X104975000Y-78225000D01*
X104950496Y-78223796D01*
X104926227Y-78220196D01*
X104902429Y-78214235D01*
X104879329Y-78205970D01*
X104857151Y-78195480D01*
X104836107Y-78182867D01*
X104816402Y-78168253D01*
X104798223Y-78151777D01*
X104781747Y-78133598D01*
X104767133Y-78113893D01*
X104754520Y-78092849D01*
X104744030Y-78070671D01*
X104735765Y-78047571D01*
X104729804Y-78023773D01*
X104726204Y-77999504D01*
X104725000Y-77975000D01*
X104725000Y-73025000D01*
X104726204Y-73000496D01*
X104729804Y-72976227D01*
X104735765Y-72952429D01*
X104744030Y-72929329D01*
X104754520Y-72907151D01*
X104767133Y-72886107D01*
X104781747Y-72866402D01*
X104798223Y-72848223D01*
X104816402Y-72831747D01*
X104836107Y-72817133D01*
X104857151Y-72804520D01*
X104879329Y-72794030D01*
X104902429Y-72785765D01*
X104926227Y-72779804D01*
X104950496Y-72776204D01*
X104975000Y-72775000D01*
X106575000Y-72775000D01*
X106599504Y-72776204D01*
X106599504Y-72776204D01*
G37*
D12*
X105775000Y-75500000D03*
D11*
G36*
X99649504Y-105776204D02*
G01*
X99673773Y-105779804D01*
X99697571Y-105785765D01*
X99720671Y-105794030D01*
X99742849Y-105804520D01*
X99763893Y-105817133D01*
X99783598Y-105831747D01*
X99801777Y-105848223D01*
X99818253Y-105866402D01*
X99832867Y-105886107D01*
X99845480Y-105907151D01*
X99855970Y-105929329D01*
X99864235Y-105952429D01*
X99870196Y-105976227D01*
X99873796Y-106000496D01*
X99875000Y-106025000D01*
X99875000Y-110975000D01*
X99873796Y-110999504D01*
X99870196Y-111023773D01*
X99864235Y-111047571D01*
X99855970Y-111070671D01*
X99845480Y-111092849D01*
X99832867Y-111113893D01*
X99818253Y-111133598D01*
X99801777Y-111151777D01*
X99783598Y-111168253D01*
X99763893Y-111182867D01*
X99742849Y-111195480D01*
X99720671Y-111205970D01*
X99697571Y-111214235D01*
X99673773Y-111220196D01*
X99649504Y-111223796D01*
X99625000Y-111225000D01*
X98025000Y-111225000D01*
X98000496Y-111223796D01*
X97976227Y-111220196D01*
X97952429Y-111214235D01*
X97929329Y-111205970D01*
X97907151Y-111195480D01*
X97886107Y-111182867D01*
X97866402Y-111168253D01*
X97848223Y-111151777D01*
X97831747Y-111133598D01*
X97817133Y-111113893D01*
X97804520Y-111092849D01*
X97794030Y-111070671D01*
X97785765Y-111047571D01*
X97779804Y-111023773D01*
X97776204Y-110999504D01*
X97775000Y-110975000D01*
X97775000Y-106025000D01*
X97776204Y-106000496D01*
X97779804Y-105976227D01*
X97785765Y-105952429D01*
X97794030Y-105929329D01*
X97804520Y-105907151D01*
X97817133Y-105886107D01*
X97831747Y-105866402D01*
X97848223Y-105848223D01*
X97866402Y-105831747D01*
X97886107Y-105817133D01*
X97907151Y-105804520D01*
X97929329Y-105794030D01*
X97952429Y-105785765D01*
X97976227Y-105779804D01*
X98000496Y-105776204D01*
X98025000Y-105775000D01*
X99625000Y-105775000D01*
X99649504Y-105776204D01*
X99649504Y-105776204D01*
G37*
D12*
X98825000Y-108500000D03*
D11*
G36*
X106599504Y-105776204D02*
G01*
X106623773Y-105779804D01*
X106647571Y-105785765D01*
X106670671Y-105794030D01*
X106692849Y-105804520D01*
X106713893Y-105817133D01*
X106733598Y-105831747D01*
X106751777Y-105848223D01*
X106768253Y-105866402D01*
X106782867Y-105886107D01*
X106795480Y-105907151D01*
X106805970Y-105929329D01*
X106814235Y-105952429D01*
X106820196Y-105976227D01*
X106823796Y-106000496D01*
X106825000Y-106025000D01*
X106825000Y-110975000D01*
X106823796Y-110999504D01*
X106820196Y-111023773D01*
X106814235Y-111047571D01*
X106805970Y-111070671D01*
X106795480Y-111092849D01*
X106782867Y-111113893D01*
X106768253Y-111133598D01*
X106751777Y-111151777D01*
X106733598Y-111168253D01*
X106713893Y-111182867D01*
X106692849Y-111195480D01*
X106670671Y-111205970D01*
X106647571Y-111214235D01*
X106623773Y-111220196D01*
X106599504Y-111223796D01*
X106575000Y-111225000D01*
X104975000Y-111225000D01*
X104950496Y-111223796D01*
X104926227Y-111220196D01*
X104902429Y-111214235D01*
X104879329Y-111205970D01*
X104857151Y-111195480D01*
X104836107Y-111182867D01*
X104816402Y-111168253D01*
X104798223Y-111151777D01*
X104781747Y-111133598D01*
X104767133Y-111113893D01*
X104754520Y-111092849D01*
X104744030Y-111070671D01*
X104735765Y-111047571D01*
X104729804Y-111023773D01*
X104726204Y-110999504D01*
X104725000Y-110975000D01*
X104725000Y-106025000D01*
X104726204Y-106000496D01*
X104729804Y-105976227D01*
X104735765Y-105952429D01*
X104744030Y-105929329D01*
X104754520Y-105907151D01*
X104767133Y-105886107D01*
X104781747Y-105866402D01*
X104798223Y-105848223D01*
X104816402Y-105831747D01*
X104836107Y-105817133D01*
X104857151Y-105804520D01*
X104879329Y-105794030D01*
X104902429Y-105785765D01*
X104926227Y-105779804D01*
X104950496Y-105776204D01*
X104975000Y-105775000D01*
X106575000Y-105775000D01*
X106599504Y-105776204D01*
X106599504Y-105776204D01*
G37*
D12*
X105775000Y-108500000D03*
D11*
G36*
X99649504Y-50776204D02*
G01*
X99673773Y-50779804D01*
X99697571Y-50785765D01*
X99720671Y-50794030D01*
X99742849Y-50804520D01*
X99763893Y-50817133D01*
X99783598Y-50831747D01*
X99801777Y-50848223D01*
X99818253Y-50866402D01*
X99832867Y-50886107D01*
X99845480Y-50907151D01*
X99855970Y-50929329D01*
X99864235Y-50952429D01*
X99870196Y-50976227D01*
X99873796Y-51000496D01*
X99875000Y-51025000D01*
X99875000Y-55975000D01*
X99873796Y-55999504D01*
X99870196Y-56023773D01*
X99864235Y-56047571D01*
X99855970Y-56070671D01*
X99845480Y-56092849D01*
X99832867Y-56113893D01*
X99818253Y-56133598D01*
X99801777Y-56151777D01*
X99783598Y-56168253D01*
X99763893Y-56182867D01*
X99742849Y-56195480D01*
X99720671Y-56205970D01*
X99697571Y-56214235D01*
X99673773Y-56220196D01*
X99649504Y-56223796D01*
X99625000Y-56225000D01*
X98025000Y-56225000D01*
X98000496Y-56223796D01*
X97976227Y-56220196D01*
X97952429Y-56214235D01*
X97929329Y-56205970D01*
X97907151Y-56195480D01*
X97886107Y-56182867D01*
X97866402Y-56168253D01*
X97848223Y-56151777D01*
X97831747Y-56133598D01*
X97817133Y-56113893D01*
X97804520Y-56092849D01*
X97794030Y-56070671D01*
X97785765Y-56047571D01*
X97779804Y-56023773D01*
X97776204Y-55999504D01*
X97775000Y-55975000D01*
X97775000Y-51025000D01*
X97776204Y-51000496D01*
X97779804Y-50976227D01*
X97785765Y-50952429D01*
X97794030Y-50929329D01*
X97804520Y-50907151D01*
X97817133Y-50886107D01*
X97831747Y-50866402D01*
X97848223Y-50848223D01*
X97866402Y-50831747D01*
X97886107Y-50817133D01*
X97907151Y-50804520D01*
X97929329Y-50794030D01*
X97952429Y-50785765D01*
X97976227Y-50779804D01*
X98000496Y-50776204D01*
X98025000Y-50775000D01*
X99625000Y-50775000D01*
X99649504Y-50776204D01*
X99649504Y-50776204D01*
G37*
D12*
X98825000Y-53500000D03*
D11*
G36*
X106599504Y-50776204D02*
G01*
X106623773Y-50779804D01*
X106647571Y-50785765D01*
X106670671Y-50794030D01*
X106692849Y-50804520D01*
X106713893Y-50817133D01*
X106733598Y-50831747D01*
X106751777Y-50848223D01*
X106768253Y-50866402D01*
X106782867Y-50886107D01*
X106795480Y-50907151D01*
X106805970Y-50929329D01*
X106814235Y-50952429D01*
X106820196Y-50976227D01*
X106823796Y-51000496D01*
X106825000Y-51025000D01*
X106825000Y-55975000D01*
X106823796Y-55999504D01*
X106820196Y-56023773D01*
X106814235Y-56047571D01*
X106805970Y-56070671D01*
X106795480Y-56092849D01*
X106782867Y-56113893D01*
X106768253Y-56133598D01*
X106751777Y-56151777D01*
X106733598Y-56168253D01*
X106713893Y-56182867D01*
X106692849Y-56195480D01*
X106670671Y-56205970D01*
X106647571Y-56214235D01*
X106623773Y-56220196D01*
X106599504Y-56223796D01*
X106575000Y-56225000D01*
X104975000Y-56225000D01*
X104950496Y-56223796D01*
X104926227Y-56220196D01*
X104902429Y-56214235D01*
X104879329Y-56205970D01*
X104857151Y-56195480D01*
X104836107Y-56182867D01*
X104816402Y-56168253D01*
X104798223Y-56151777D01*
X104781747Y-56133598D01*
X104767133Y-56113893D01*
X104754520Y-56092849D01*
X104744030Y-56070671D01*
X104735765Y-56047571D01*
X104729804Y-56023773D01*
X104726204Y-55999504D01*
X104725000Y-55975000D01*
X104725000Y-51025000D01*
X104726204Y-51000496D01*
X104729804Y-50976227D01*
X104735765Y-50952429D01*
X104744030Y-50929329D01*
X104754520Y-50907151D01*
X104767133Y-50886107D01*
X104781747Y-50866402D01*
X104798223Y-50848223D01*
X104816402Y-50831747D01*
X104836107Y-50817133D01*
X104857151Y-50804520D01*
X104879329Y-50794030D01*
X104902429Y-50785765D01*
X104926227Y-50779804D01*
X104950496Y-50776204D01*
X104975000Y-50775000D01*
X106575000Y-50775000D01*
X106599504Y-50776204D01*
X106599504Y-50776204D01*
G37*
D12*
X105775000Y-53500000D03*
D11*
G36*
X99649504Y-83776204D02*
G01*
X99673773Y-83779804D01*
X99697571Y-83785765D01*
X99720671Y-83794030D01*
X99742849Y-83804520D01*
X99763893Y-83817133D01*
X99783598Y-83831747D01*
X99801777Y-83848223D01*
X99818253Y-83866402D01*
X99832867Y-83886107D01*
X99845480Y-83907151D01*
X99855970Y-83929329D01*
X99864235Y-83952429D01*
X99870196Y-83976227D01*
X99873796Y-84000496D01*
X99875000Y-84025000D01*
X99875000Y-88975000D01*
X99873796Y-88999504D01*
X99870196Y-89023773D01*
X99864235Y-89047571D01*
X99855970Y-89070671D01*
X99845480Y-89092849D01*
X99832867Y-89113893D01*
X99818253Y-89133598D01*
X99801777Y-89151777D01*
X99783598Y-89168253D01*
X99763893Y-89182867D01*
X99742849Y-89195480D01*
X99720671Y-89205970D01*
X99697571Y-89214235D01*
X99673773Y-89220196D01*
X99649504Y-89223796D01*
X99625000Y-89225000D01*
X98025000Y-89225000D01*
X98000496Y-89223796D01*
X97976227Y-89220196D01*
X97952429Y-89214235D01*
X97929329Y-89205970D01*
X97907151Y-89195480D01*
X97886107Y-89182867D01*
X97866402Y-89168253D01*
X97848223Y-89151777D01*
X97831747Y-89133598D01*
X97817133Y-89113893D01*
X97804520Y-89092849D01*
X97794030Y-89070671D01*
X97785765Y-89047571D01*
X97779804Y-89023773D01*
X97776204Y-88999504D01*
X97775000Y-88975000D01*
X97775000Y-84025000D01*
X97776204Y-84000496D01*
X97779804Y-83976227D01*
X97785765Y-83952429D01*
X97794030Y-83929329D01*
X97804520Y-83907151D01*
X97817133Y-83886107D01*
X97831747Y-83866402D01*
X97848223Y-83848223D01*
X97866402Y-83831747D01*
X97886107Y-83817133D01*
X97907151Y-83804520D01*
X97929329Y-83794030D01*
X97952429Y-83785765D01*
X97976227Y-83779804D01*
X98000496Y-83776204D01*
X98025000Y-83775000D01*
X99625000Y-83775000D01*
X99649504Y-83776204D01*
X99649504Y-83776204D01*
G37*
D12*
X98825000Y-86500000D03*
D11*
G36*
X106599504Y-83776204D02*
G01*
X106623773Y-83779804D01*
X106647571Y-83785765D01*
X106670671Y-83794030D01*
X106692849Y-83804520D01*
X106713893Y-83817133D01*
X106733598Y-83831747D01*
X106751777Y-83848223D01*
X106768253Y-83866402D01*
X106782867Y-83886107D01*
X106795480Y-83907151D01*
X106805970Y-83929329D01*
X106814235Y-83952429D01*
X106820196Y-83976227D01*
X106823796Y-84000496D01*
X106825000Y-84025000D01*
X106825000Y-88975000D01*
X106823796Y-88999504D01*
X106820196Y-89023773D01*
X106814235Y-89047571D01*
X106805970Y-89070671D01*
X106795480Y-89092849D01*
X106782867Y-89113893D01*
X106768253Y-89133598D01*
X106751777Y-89151777D01*
X106733598Y-89168253D01*
X106713893Y-89182867D01*
X106692849Y-89195480D01*
X106670671Y-89205970D01*
X106647571Y-89214235D01*
X106623773Y-89220196D01*
X106599504Y-89223796D01*
X106575000Y-89225000D01*
X104975000Y-89225000D01*
X104950496Y-89223796D01*
X104926227Y-89220196D01*
X104902429Y-89214235D01*
X104879329Y-89205970D01*
X104857151Y-89195480D01*
X104836107Y-89182867D01*
X104816402Y-89168253D01*
X104798223Y-89151777D01*
X104781747Y-89133598D01*
X104767133Y-89113893D01*
X104754520Y-89092849D01*
X104744030Y-89070671D01*
X104735765Y-89047571D01*
X104729804Y-89023773D01*
X104726204Y-88999504D01*
X104725000Y-88975000D01*
X104725000Y-84025000D01*
X104726204Y-84000496D01*
X104729804Y-83976227D01*
X104735765Y-83952429D01*
X104744030Y-83929329D01*
X104754520Y-83907151D01*
X104767133Y-83886107D01*
X104781747Y-83866402D01*
X104798223Y-83848223D01*
X104816402Y-83831747D01*
X104836107Y-83817133D01*
X104857151Y-83804520D01*
X104879329Y-83794030D01*
X104902429Y-83785765D01*
X104926227Y-83779804D01*
X104950496Y-83776204D01*
X104975000Y-83775000D01*
X106575000Y-83775000D01*
X106599504Y-83776204D01*
X106599504Y-83776204D01*
G37*
D12*
X105775000Y-86500000D03*
D11*
G36*
X99649504Y-116276204D02*
G01*
X99673773Y-116279804D01*
X99697571Y-116285765D01*
X99720671Y-116294030D01*
X99742849Y-116304520D01*
X99763893Y-116317133D01*
X99783598Y-116331747D01*
X99801777Y-116348223D01*
X99818253Y-116366402D01*
X99832867Y-116386107D01*
X99845480Y-116407151D01*
X99855970Y-116429329D01*
X99864235Y-116452429D01*
X99870196Y-116476227D01*
X99873796Y-116500496D01*
X99875000Y-116525000D01*
X99875000Y-121475000D01*
X99873796Y-121499504D01*
X99870196Y-121523773D01*
X99864235Y-121547571D01*
X99855970Y-121570671D01*
X99845480Y-121592849D01*
X99832867Y-121613893D01*
X99818253Y-121633598D01*
X99801777Y-121651777D01*
X99783598Y-121668253D01*
X99763893Y-121682867D01*
X99742849Y-121695480D01*
X99720671Y-121705970D01*
X99697571Y-121714235D01*
X99673773Y-121720196D01*
X99649504Y-121723796D01*
X99625000Y-121725000D01*
X98025000Y-121725000D01*
X98000496Y-121723796D01*
X97976227Y-121720196D01*
X97952429Y-121714235D01*
X97929329Y-121705970D01*
X97907151Y-121695480D01*
X97886107Y-121682867D01*
X97866402Y-121668253D01*
X97848223Y-121651777D01*
X97831747Y-121633598D01*
X97817133Y-121613893D01*
X97804520Y-121592849D01*
X97794030Y-121570671D01*
X97785765Y-121547571D01*
X97779804Y-121523773D01*
X97776204Y-121499504D01*
X97775000Y-121475000D01*
X97775000Y-116525000D01*
X97776204Y-116500496D01*
X97779804Y-116476227D01*
X97785765Y-116452429D01*
X97794030Y-116429329D01*
X97804520Y-116407151D01*
X97817133Y-116386107D01*
X97831747Y-116366402D01*
X97848223Y-116348223D01*
X97866402Y-116331747D01*
X97886107Y-116317133D01*
X97907151Y-116304520D01*
X97929329Y-116294030D01*
X97952429Y-116285765D01*
X97976227Y-116279804D01*
X98000496Y-116276204D01*
X98025000Y-116275000D01*
X99625000Y-116275000D01*
X99649504Y-116276204D01*
X99649504Y-116276204D01*
G37*
D12*
X98825000Y-119000000D03*
D11*
G36*
X106599504Y-116276204D02*
G01*
X106623773Y-116279804D01*
X106647571Y-116285765D01*
X106670671Y-116294030D01*
X106692849Y-116304520D01*
X106713893Y-116317133D01*
X106733598Y-116331747D01*
X106751777Y-116348223D01*
X106768253Y-116366402D01*
X106782867Y-116386107D01*
X106795480Y-116407151D01*
X106805970Y-116429329D01*
X106814235Y-116452429D01*
X106820196Y-116476227D01*
X106823796Y-116500496D01*
X106825000Y-116525000D01*
X106825000Y-121475000D01*
X106823796Y-121499504D01*
X106820196Y-121523773D01*
X106814235Y-121547571D01*
X106805970Y-121570671D01*
X106795480Y-121592849D01*
X106782867Y-121613893D01*
X106768253Y-121633598D01*
X106751777Y-121651777D01*
X106733598Y-121668253D01*
X106713893Y-121682867D01*
X106692849Y-121695480D01*
X106670671Y-121705970D01*
X106647571Y-121714235D01*
X106623773Y-121720196D01*
X106599504Y-121723796D01*
X106575000Y-121725000D01*
X104975000Y-121725000D01*
X104950496Y-121723796D01*
X104926227Y-121720196D01*
X104902429Y-121714235D01*
X104879329Y-121705970D01*
X104857151Y-121695480D01*
X104836107Y-121682867D01*
X104816402Y-121668253D01*
X104798223Y-121651777D01*
X104781747Y-121633598D01*
X104767133Y-121613893D01*
X104754520Y-121592849D01*
X104744030Y-121570671D01*
X104735765Y-121547571D01*
X104729804Y-121523773D01*
X104726204Y-121499504D01*
X104725000Y-121475000D01*
X104725000Y-116525000D01*
X104726204Y-116500496D01*
X104729804Y-116476227D01*
X104735765Y-116452429D01*
X104744030Y-116429329D01*
X104754520Y-116407151D01*
X104767133Y-116386107D01*
X104781747Y-116366402D01*
X104798223Y-116348223D01*
X104816402Y-116331747D01*
X104836107Y-116317133D01*
X104857151Y-116304520D01*
X104879329Y-116294030D01*
X104902429Y-116285765D01*
X104926227Y-116279804D01*
X104950496Y-116276204D01*
X104975000Y-116275000D01*
X106575000Y-116275000D01*
X106599504Y-116276204D01*
X106599504Y-116276204D01*
G37*
D12*
X105775000Y-119000000D03*
D14*
X138135000Y-65210000D03*
X132585000Y-70060000D03*
X132585000Y-65210000D03*
X138135000Y-70060000D03*
D15*
X138760000Y-58485000D03*
X137060000Y-58485000D03*
X135360000Y-58485000D03*
X133660000Y-58485000D03*
X131960000Y-58485000D03*
D11*
G36*
X125599504Y-91126204D02*
G01*
X125623773Y-91129804D01*
X125647571Y-91135765D01*
X125670671Y-91144030D01*
X125692849Y-91154520D01*
X125713893Y-91167133D01*
X125733598Y-91181747D01*
X125751777Y-91198223D01*
X125768253Y-91216402D01*
X125782867Y-91236107D01*
X125795480Y-91257151D01*
X125805970Y-91279329D01*
X125814235Y-91302429D01*
X125820196Y-91326227D01*
X125823796Y-91350496D01*
X125825000Y-91375000D01*
X125825000Y-92625000D01*
X125823796Y-92649504D01*
X125820196Y-92673773D01*
X125814235Y-92697571D01*
X125805970Y-92720671D01*
X125795480Y-92742849D01*
X125782867Y-92763893D01*
X125768253Y-92783598D01*
X125751777Y-92801777D01*
X125733598Y-92818253D01*
X125713893Y-92832867D01*
X125692849Y-92845480D01*
X125670671Y-92855970D01*
X125647571Y-92864235D01*
X125623773Y-92870196D01*
X125599504Y-92873796D01*
X125575000Y-92875000D01*
X124825000Y-92875000D01*
X124800496Y-92873796D01*
X124776227Y-92870196D01*
X124752429Y-92864235D01*
X124729329Y-92855970D01*
X124707151Y-92845480D01*
X124686107Y-92832867D01*
X124666402Y-92818253D01*
X124648223Y-92801777D01*
X124631747Y-92783598D01*
X124617133Y-92763893D01*
X124604520Y-92742849D01*
X124594030Y-92720671D01*
X124585765Y-92697571D01*
X124579804Y-92673773D01*
X124576204Y-92649504D01*
X124575000Y-92625000D01*
X124575000Y-91375000D01*
X124576204Y-91350496D01*
X124579804Y-91326227D01*
X124585765Y-91302429D01*
X124594030Y-91279329D01*
X124604520Y-91257151D01*
X124617133Y-91236107D01*
X124631747Y-91216402D01*
X124648223Y-91198223D01*
X124666402Y-91181747D01*
X124686107Y-91167133D01*
X124707151Y-91154520D01*
X124729329Y-91144030D01*
X124752429Y-91135765D01*
X124776227Y-91129804D01*
X124800496Y-91126204D01*
X124825000Y-91125000D01*
X125575000Y-91125000D01*
X125599504Y-91126204D01*
X125599504Y-91126204D01*
G37*
D13*
X125200000Y-92000000D03*
D11*
G36*
X122799504Y-91126204D02*
G01*
X122823773Y-91129804D01*
X122847571Y-91135765D01*
X122870671Y-91144030D01*
X122892849Y-91154520D01*
X122913893Y-91167133D01*
X122933598Y-91181747D01*
X122951777Y-91198223D01*
X122968253Y-91216402D01*
X122982867Y-91236107D01*
X122995480Y-91257151D01*
X123005970Y-91279329D01*
X123014235Y-91302429D01*
X123020196Y-91326227D01*
X123023796Y-91350496D01*
X123025000Y-91375000D01*
X123025000Y-92625000D01*
X123023796Y-92649504D01*
X123020196Y-92673773D01*
X123014235Y-92697571D01*
X123005970Y-92720671D01*
X122995480Y-92742849D01*
X122982867Y-92763893D01*
X122968253Y-92783598D01*
X122951777Y-92801777D01*
X122933598Y-92818253D01*
X122913893Y-92832867D01*
X122892849Y-92845480D01*
X122870671Y-92855970D01*
X122847571Y-92864235D01*
X122823773Y-92870196D01*
X122799504Y-92873796D01*
X122775000Y-92875000D01*
X122025000Y-92875000D01*
X122000496Y-92873796D01*
X121976227Y-92870196D01*
X121952429Y-92864235D01*
X121929329Y-92855970D01*
X121907151Y-92845480D01*
X121886107Y-92832867D01*
X121866402Y-92818253D01*
X121848223Y-92801777D01*
X121831747Y-92783598D01*
X121817133Y-92763893D01*
X121804520Y-92742849D01*
X121794030Y-92720671D01*
X121785765Y-92697571D01*
X121779804Y-92673773D01*
X121776204Y-92649504D01*
X121775000Y-92625000D01*
X121775000Y-91375000D01*
X121776204Y-91350496D01*
X121779804Y-91326227D01*
X121785765Y-91302429D01*
X121794030Y-91279329D01*
X121804520Y-91257151D01*
X121817133Y-91236107D01*
X121831747Y-91216402D01*
X121848223Y-91198223D01*
X121866402Y-91181747D01*
X121886107Y-91167133D01*
X121907151Y-91154520D01*
X121929329Y-91144030D01*
X121952429Y-91135765D01*
X121976227Y-91129804D01*
X122000496Y-91126204D01*
X122025000Y-91125000D01*
X122775000Y-91125000D01*
X122799504Y-91126204D01*
X122799504Y-91126204D01*
G37*
D13*
X122400000Y-92000000D03*
D11*
G36*
X125599504Y-69126204D02*
G01*
X125623773Y-69129804D01*
X125647571Y-69135765D01*
X125670671Y-69144030D01*
X125692849Y-69154520D01*
X125713893Y-69167133D01*
X125733598Y-69181747D01*
X125751777Y-69198223D01*
X125768253Y-69216402D01*
X125782867Y-69236107D01*
X125795480Y-69257151D01*
X125805970Y-69279329D01*
X125814235Y-69302429D01*
X125820196Y-69326227D01*
X125823796Y-69350496D01*
X125825000Y-69375000D01*
X125825000Y-70625000D01*
X125823796Y-70649504D01*
X125820196Y-70673773D01*
X125814235Y-70697571D01*
X125805970Y-70720671D01*
X125795480Y-70742849D01*
X125782867Y-70763893D01*
X125768253Y-70783598D01*
X125751777Y-70801777D01*
X125733598Y-70818253D01*
X125713893Y-70832867D01*
X125692849Y-70845480D01*
X125670671Y-70855970D01*
X125647571Y-70864235D01*
X125623773Y-70870196D01*
X125599504Y-70873796D01*
X125575000Y-70875000D01*
X124825000Y-70875000D01*
X124800496Y-70873796D01*
X124776227Y-70870196D01*
X124752429Y-70864235D01*
X124729329Y-70855970D01*
X124707151Y-70845480D01*
X124686107Y-70832867D01*
X124666402Y-70818253D01*
X124648223Y-70801777D01*
X124631747Y-70783598D01*
X124617133Y-70763893D01*
X124604520Y-70742849D01*
X124594030Y-70720671D01*
X124585765Y-70697571D01*
X124579804Y-70673773D01*
X124576204Y-70649504D01*
X124575000Y-70625000D01*
X124575000Y-69375000D01*
X124576204Y-69350496D01*
X124579804Y-69326227D01*
X124585765Y-69302429D01*
X124594030Y-69279329D01*
X124604520Y-69257151D01*
X124617133Y-69236107D01*
X124631747Y-69216402D01*
X124648223Y-69198223D01*
X124666402Y-69181747D01*
X124686107Y-69167133D01*
X124707151Y-69154520D01*
X124729329Y-69144030D01*
X124752429Y-69135765D01*
X124776227Y-69129804D01*
X124800496Y-69126204D01*
X124825000Y-69125000D01*
X125575000Y-69125000D01*
X125599504Y-69126204D01*
X125599504Y-69126204D01*
G37*
D13*
X125200000Y-70000000D03*
D11*
G36*
X122799504Y-69126204D02*
G01*
X122823773Y-69129804D01*
X122847571Y-69135765D01*
X122870671Y-69144030D01*
X122892849Y-69154520D01*
X122913893Y-69167133D01*
X122933598Y-69181747D01*
X122951777Y-69198223D01*
X122968253Y-69216402D01*
X122982867Y-69236107D01*
X122995480Y-69257151D01*
X123005970Y-69279329D01*
X123014235Y-69302429D01*
X123020196Y-69326227D01*
X123023796Y-69350496D01*
X123025000Y-69375000D01*
X123025000Y-70625000D01*
X123023796Y-70649504D01*
X123020196Y-70673773D01*
X123014235Y-70697571D01*
X123005970Y-70720671D01*
X122995480Y-70742849D01*
X122982867Y-70763893D01*
X122968253Y-70783598D01*
X122951777Y-70801777D01*
X122933598Y-70818253D01*
X122913893Y-70832867D01*
X122892849Y-70845480D01*
X122870671Y-70855970D01*
X122847571Y-70864235D01*
X122823773Y-70870196D01*
X122799504Y-70873796D01*
X122775000Y-70875000D01*
X122025000Y-70875000D01*
X122000496Y-70873796D01*
X121976227Y-70870196D01*
X121952429Y-70864235D01*
X121929329Y-70855970D01*
X121907151Y-70845480D01*
X121886107Y-70832867D01*
X121866402Y-70818253D01*
X121848223Y-70801777D01*
X121831747Y-70783598D01*
X121817133Y-70763893D01*
X121804520Y-70742849D01*
X121794030Y-70720671D01*
X121785765Y-70697571D01*
X121779804Y-70673773D01*
X121776204Y-70649504D01*
X121775000Y-70625000D01*
X121775000Y-69375000D01*
X121776204Y-69350496D01*
X121779804Y-69326227D01*
X121785765Y-69302429D01*
X121794030Y-69279329D01*
X121804520Y-69257151D01*
X121817133Y-69236107D01*
X121831747Y-69216402D01*
X121848223Y-69198223D01*
X121866402Y-69181747D01*
X121886107Y-69167133D01*
X121907151Y-69154520D01*
X121929329Y-69144030D01*
X121952429Y-69135765D01*
X121976227Y-69129804D01*
X122000496Y-69126204D01*
X122025000Y-69125000D01*
X122775000Y-69125000D01*
X122799504Y-69126204D01*
X122799504Y-69126204D01*
G37*
D13*
X122400000Y-70000000D03*
D11*
G36*
X125599504Y-113126204D02*
G01*
X125623773Y-113129804D01*
X125647571Y-113135765D01*
X125670671Y-113144030D01*
X125692849Y-113154520D01*
X125713893Y-113167133D01*
X125733598Y-113181747D01*
X125751777Y-113198223D01*
X125768253Y-113216402D01*
X125782867Y-113236107D01*
X125795480Y-113257151D01*
X125805970Y-113279329D01*
X125814235Y-113302429D01*
X125820196Y-113326227D01*
X125823796Y-113350496D01*
X125825000Y-113375000D01*
X125825000Y-114625000D01*
X125823796Y-114649504D01*
X125820196Y-114673773D01*
X125814235Y-114697571D01*
X125805970Y-114720671D01*
X125795480Y-114742849D01*
X125782867Y-114763893D01*
X125768253Y-114783598D01*
X125751777Y-114801777D01*
X125733598Y-114818253D01*
X125713893Y-114832867D01*
X125692849Y-114845480D01*
X125670671Y-114855970D01*
X125647571Y-114864235D01*
X125623773Y-114870196D01*
X125599504Y-114873796D01*
X125575000Y-114875000D01*
X124825000Y-114875000D01*
X124800496Y-114873796D01*
X124776227Y-114870196D01*
X124752429Y-114864235D01*
X124729329Y-114855970D01*
X124707151Y-114845480D01*
X124686107Y-114832867D01*
X124666402Y-114818253D01*
X124648223Y-114801777D01*
X124631747Y-114783598D01*
X124617133Y-114763893D01*
X124604520Y-114742849D01*
X124594030Y-114720671D01*
X124585765Y-114697571D01*
X124579804Y-114673773D01*
X124576204Y-114649504D01*
X124575000Y-114625000D01*
X124575000Y-113375000D01*
X124576204Y-113350496D01*
X124579804Y-113326227D01*
X124585765Y-113302429D01*
X124594030Y-113279329D01*
X124604520Y-113257151D01*
X124617133Y-113236107D01*
X124631747Y-113216402D01*
X124648223Y-113198223D01*
X124666402Y-113181747D01*
X124686107Y-113167133D01*
X124707151Y-113154520D01*
X124729329Y-113144030D01*
X124752429Y-113135765D01*
X124776227Y-113129804D01*
X124800496Y-113126204D01*
X124825000Y-113125000D01*
X125575000Y-113125000D01*
X125599504Y-113126204D01*
X125599504Y-113126204D01*
G37*
D13*
X125200000Y-114000000D03*
D11*
G36*
X122799504Y-113126204D02*
G01*
X122823773Y-113129804D01*
X122847571Y-113135765D01*
X122870671Y-113144030D01*
X122892849Y-113154520D01*
X122913893Y-113167133D01*
X122933598Y-113181747D01*
X122951777Y-113198223D01*
X122968253Y-113216402D01*
X122982867Y-113236107D01*
X122995480Y-113257151D01*
X123005970Y-113279329D01*
X123014235Y-113302429D01*
X123020196Y-113326227D01*
X123023796Y-113350496D01*
X123025000Y-113375000D01*
X123025000Y-114625000D01*
X123023796Y-114649504D01*
X123020196Y-114673773D01*
X123014235Y-114697571D01*
X123005970Y-114720671D01*
X122995480Y-114742849D01*
X122982867Y-114763893D01*
X122968253Y-114783598D01*
X122951777Y-114801777D01*
X122933598Y-114818253D01*
X122913893Y-114832867D01*
X122892849Y-114845480D01*
X122870671Y-114855970D01*
X122847571Y-114864235D01*
X122823773Y-114870196D01*
X122799504Y-114873796D01*
X122775000Y-114875000D01*
X122025000Y-114875000D01*
X122000496Y-114873796D01*
X121976227Y-114870196D01*
X121952429Y-114864235D01*
X121929329Y-114855970D01*
X121907151Y-114845480D01*
X121886107Y-114832867D01*
X121866402Y-114818253D01*
X121848223Y-114801777D01*
X121831747Y-114783598D01*
X121817133Y-114763893D01*
X121804520Y-114742849D01*
X121794030Y-114720671D01*
X121785765Y-114697571D01*
X121779804Y-114673773D01*
X121776204Y-114649504D01*
X121775000Y-114625000D01*
X121775000Y-113375000D01*
X121776204Y-113350496D01*
X121779804Y-113326227D01*
X121785765Y-113302429D01*
X121794030Y-113279329D01*
X121804520Y-113257151D01*
X121817133Y-113236107D01*
X121831747Y-113216402D01*
X121848223Y-113198223D01*
X121866402Y-113181747D01*
X121886107Y-113167133D01*
X121907151Y-113154520D01*
X121929329Y-113144030D01*
X121952429Y-113135765D01*
X121976227Y-113129804D01*
X122000496Y-113126204D01*
X122025000Y-113125000D01*
X122775000Y-113125000D01*
X122799504Y-113126204D01*
X122799504Y-113126204D01*
G37*
D13*
X122400000Y-114000000D03*
D11*
G36*
X125599504Y-47126204D02*
G01*
X125623773Y-47129804D01*
X125647571Y-47135765D01*
X125670671Y-47144030D01*
X125692849Y-47154520D01*
X125713893Y-47167133D01*
X125733598Y-47181747D01*
X125751777Y-47198223D01*
X125768253Y-47216402D01*
X125782867Y-47236107D01*
X125795480Y-47257151D01*
X125805970Y-47279329D01*
X125814235Y-47302429D01*
X125820196Y-47326227D01*
X125823796Y-47350496D01*
X125825000Y-47375000D01*
X125825000Y-48625000D01*
X125823796Y-48649504D01*
X125820196Y-48673773D01*
X125814235Y-48697571D01*
X125805970Y-48720671D01*
X125795480Y-48742849D01*
X125782867Y-48763893D01*
X125768253Y-48783598D01*
X125751777Y-48801777D01*
X125733598Y-48818253D01*
X125713893Y-48832867D01*
X125692849Y-48845480D01*
X125670671Y-48855970D01*
X125647571Y-48864235D01*
X125623773Y-48870196D01*
X125599504Y-48873796D01*
X125575000Y-48875000D01*
X124825000Y-48875000D01*
X124800496Y-48873796D01*
X124776227Y-48870196D01*
X124752429Y-48864235D01*
X124729329Y-48855970D01*
X124707151Y-48845480D01*
X124686107Y-48832867D01*
X124666402Y-48818253D01*
X124648223Y-48801777D01*
X124631747Y-48783598D01*
X124617133Y-48763893D01*
X124604520Y-48742849D01*
X124594030Y-48720671D01*
X124585765Y-48697571D01*
X124579804Y-48673773D01*
X124576204Y-48649504D01*
X124575000Y-48625000D01*
X124575000Y-47375000D01*
X124576204Y-47350496D01*
X124579804Y-47326227D01*
X124585765Y-47302429D01*
X124594030Y-47279329D01*
X124604520Y-47257151D01*
X124617133Y-47236107D01*
X124631747Y-47216402D01*
X124648223Y-47198223D01*
X124666402Y-47181747D01*
X124686107Y-47167133D01*
X124707151Y-47154520D01*
X124729329Y-47144030D01*
X124752429Y-47135765D01*
X124776227Y-47129804D01*
X124800496Y-47126204D01*
X124825000Y-47125000D01*
X125575000Y-47125000D01*
X125599504Y-47126204D01*
X125599504Y-47126204D01*
G37*
D13*
X125200000Y-48000000D03*
D11*
G36*
X122799504Y-47126204D02*
G01*
X122823773Y-47129804D01*
X122847571Y-47135765D01*
X122870671Y-47144030D01*
X122892849Y-47154520D01*
X122913893Y-47167133D01*
X122933598Y-47181747D01*
X122951777Y-47198223D01*
X122968253Y-47216402D01*
X122982867Y-47236107D01*
X122995480Y-47257151D01*
X123005970Y-47279329D01*
X123014235Y-47302429D01*
X123020196Y-47326227D01*
X123023796Y-47350496D01*
X123025000Y-47375000D01*
X123025000Y-48625000D01*
X123023796Y-48649504D01*
X123020196Y-48673773D01*
X123014235Y-48697571D01*
X123005970Y-48720671D01*
X122995480Y-48742849D01*
X122982867Y-48763893D01*
X122968253Y-48783598D01*
X122951777Y-48801777D01*
X122933598Y-48818253D01*
X122913893Y-48832867D01*
X122892849Y-48845480D01*
X122870671Y-48855970D01*
X122847571Y-48864235D01*
X122823773Y-48870196D01*
X122799504Y-48873796D01*
X122775000Y-48875000D01*
X122025000Y-48875000D01*
X122000496Y-48873796D01*
X121976227Y-48870196D01*
X121952429Y-48864235D01*
X121929329Y-48855970D01*
X121907151Y-48845480D01*
X121886107Y-48832867D01*
X121866402Y-48818253D01*
X121848223Y-48801777D01*
X121831747Y-48783598D01*
X121817133Y-48763893D01*
X121804520Y-48742849D01*
X121794030Y-48720671D01*
X121785765Y-48697571D01*
X121779804Y-48673773D01*
X121776204Y-48649504D01*
X121775000Y-48625000D01*
X121775000Y-47375000D01*
X121776204Y-47350496D01*
X121779804Y-47326227D01*
X121785765Y-47302429D01*
X121794030Y-47279329D01*
X121804520Y-47257151D01*
X121817133Y-47236107D01*
X121831747Y-47216402D01*
X121848223Y-47198223D01*
X121866402Y-47181747D01*
X121886107Y-47167133D01*
X121907151Y-47154520D01*
X121929329Y-47144030D01*
X121952429Y-47135765D01*
X121976227Y-47129804D01*
X122000496Y-47126204D01*
X122025000Y-47125000D01*
X122775000Y-47125000D01*
X122799504Y-47126204D01*
X122799504Y-47126204D01*
G37*
D13*
X122400000Y-48000000D03*
D11*
G36*
X133324504Y-76476204D02*
G01*
X133348773Y-76479804D01*
X133372571Y-76485765D01*
X133395671Y-76494030D01*
X133417849Y-76504520D01*
X133438893Y-76517133D01*
X133458598Y-76531747D01*
X133476777Y-76548223D01*
X133493253Y-76566402D01*
X133507867Y-76586107D01*
X133520480Y-76607151D01*
X133530970Y-76629329D01*
X133539235Y-76652429D01*
X133545196Y-76676227D01*
X133548796Y-76700496D01*
X133550000Y-76725000D01*
X133550000Y-78725000D01*
X133548796Y-78749504D01*
X133545196Y-78773773D01*
X133539235Y-78797571D01*
X133530970Y-78820671D01*
X133520480Y-78842849D01*
X133507867Y-78863893D01*
X133493253Y-78883598D01*
X133476777Y-78901777D01*
X133458598Y-78918253D01*
X133438893Y-78932867D01*
X133417849Y-78945480D01*
X133395671Y-78955970D01*
X133372571Y-78964235D01*
X133348773Y-78970196D01*
X133324504Y-78973796D01*
X133300000Y-78975000D01*
X130300000Y-78975000D01*
X130275496Y-78973796D01*
X130251227Y-78970196D01*
X130227429Y-78964235D01*
X130204329Y-78955970D01*
X130182151Y-78945480D01*
X130161107Y-78932867D01*
X130141402Y-78918253D01*
X130123223Y-78901777D01*
X130106747Y-78883598D01*
X130092133Y-78863893D01*
X130079520Y-78842849D01*
X130069030Y-78820671D01*
X130060765Y-78797571D01*
X130054804Y-78773773D01*
X130051204Y-78749504D01*
X130050000Y-78725000D01*
X130050000Y-76725000D01*
X130051204Y-76700496D01*
X130054804Y-76676227D01*
X130060765Y-76652429D01*
X130069030Y-76629329D01*
X130079520Y-76607151D01*
X130092133Y-76586107D01*
X130106747Y-76566402D01*
X130123223Y-76548223D01*
X130141402Y-76531747D01*
X130161107Y-76517133D01*
X130182151Y-76504520D01*
X130204329Y-76494030D01*
X130227429Y-76485765D01*
X130251227Y-76479804D01*
X130275496Y-76476204D01*
X130300000Y-76475000D01*
X133300000Y-76475000D01*
X133324504Y-76476204D01*
X133324504Y-76476204D01*
G37*
D16*
X131800000Y-77725000D03*
D11*
G36*
X139824504Y-76476204D02*
G01*
X139848773Y-76479804D01*
X139872571Y-76485765D01*
X139895671Y-76494030D01*
X139917849Y-76504520D01*
X139938893Y-76517133D01*
X139958598Y-76531747D01*
X139976777Y-76548223D01*
X139993253Y-76566402D01*
X140007867Y-76586107D01*
X140020480Y-76607151D01*
X140030970Y-76629329D01*
X140039235Y-76652429D01*
X140045196Y-76676227D01*
X140048796Y-76700496D01*
X140050000Y-76725000D01*
X140050000Y-78725000D01*
X140048796Y-78749504D01*
X140045196Y-78773773D01*
X140039235Y-78797571D01*
X140030970Y-78820671D01*
X140020480Y-78842849D01*
X140007867Y-78863893D01*
X139993253Y-78883598D01*
X139976777Y-78901777D01*
X139958598Y-78918253D01*
X139938893Y-78932867D01*
X139917849Y-78945480D01*
X139895671Y-78955970D01*
X139872571Y-78964235D01*
X139848773Y-78970196D01*
X139824504Y-78973796D01*
X139800000Y-78975000D01*
X136800000Y-78975000D01*
X136775496Y-78973796D01*
X136751227Y-78970196D01*
X136727429Y-78964235D01*
X136704329Y-78955970D01*
X136682151Y-78945480D01*
X136661107Y-78932867D01*
X136641402Y-78918253D01*
X136623223Y-78901777D01*
X136606747Y-78883598D01*
X136592133Y-78863893D01*
X136579520Y-78842849D01*
X136569030Y-78820671D01*
X136560765Y-78797571D01*
X136554804Y-78773773D01*
X136551204Y-78749504D01*
X136550000Y-78725000D01*
X136550000Y-76725000D01*
X136551204Y-76700496D01*
X136554804Y-76676227D01*
X136560765Y-76652429D01*
X136569030Y-76629329D01*
X136579520Y-76607151D01*
X136592133Y-76586107D01*
X136606747Y-76566402D01*
X136623223Y-76548223D01*
X136641402Y-76531747D01*
X136661107Y-76517133D01*
X136682151Y-76504520D01*
X136704329Y-76494030D01*
X136727429Y-76485765D01*
X136751227Y-76479804D01*
X136775496Y-76476204D01*
X136800000Y-76475000D01*
X139800000Y-76475000D01*
X139824504Y-76476204D01*
X139824504Y-76476204D01*
G37*
D16*
X138300000Y-77725000D03*
M02*
