G04 #@! TF.GenerationSoftware,KiCad,Pcbnew,(5.1.0)-1*
G04 #@! TF.CreationDate,2021-06-14T22:58:55+02:00*
G04 #@! TF.ProjectId,Magnetsteuerung_v2.1,4d61676e-6574-4737-9465-756572756e67,rev?*
G04 #@! TF.SameCoordinates,Original*
G04 #@! TF.FileFunction,Copper,L2,Bot*
G04 #@! TF.FilePolarity,Positive*
%FSLAX46Y46*%
G04 Gerber Fmt 4.6, Leading zero omitted, Abs format (unit mm)*
G04 Created by KiCad (PCBNEW (5.1.0)-1) date 2021-06-14 22:58:55*
%MOMM*%
%LPD*%
G04 APERTURE LIST*
%ADD10C,2.200000*%
%ADD11O,3.600000X2.080000*%
%ADD12C,0.100000*%
%ADD13C,2.080000*%
%ADD14O,1.700000X1.700000*%
%ADD15R,1.700000X1.700000*%
%ADD16C,0.800000*%
%ADD17C,0.254000*%
G04 APERTURE END LIST*
D10*
X111000000Y-128000000D03*
X116000000Y-128000000D03*
X116000000Y-124500000D03*
X111000000Y-124500000D03*
D11*
X178500000Y-42900000D03*
X178500000Y-47980000D03*
X178500000Y-53060000D03*
X178500000Y-58140000D03*
X178500000Y-63220000D03*
X178500000Y-68300000D03*
X178500000Y-73380000D03*
X178500000Y-78460000D03*
X178500000Y-83540000D03*
X178500000Y-88620000D03*
X178500000Y-93700000D03*
X178500000Y-98780000D03*
X178500000Y-103860000D03*
X178500000Y-108940000D03*
X178500000Y-114020000D03*
D12*
G36*
X180074505Y-118061204D02*
G01*
X180098773Y-118064804D01*
X180122572Y-118070765D01*
X180145671Y-118079030D01*
X180167850Y-118089520D01*
X180188893Y-118102132D01*
X180208599Y-118116747D01*
X180226777Y-118133223D01*
X180243253Y-118151401D01*
X180257868Y-118171107D01*
X180270480Y-118192150D01*
X180280970Y-118214329D01*
X180289235Y-118237428D01*
X180295196Y-118261227D01*
X180298796Y-118285495D01*
X180300000Y-118309999D01*
X180300000Y-119890001D01*
X180298796Y-119914505D01*
X180295196Y-119938773D01*
X180289235Y-119962572D01*
X180280970Y-119985671D01*
X180270480Y-120007850D01*
X180257868Y-120028893D01*
X180243253Y-120048599D01*
X180226777Y-120066777D01*
X180208599Y-120083253D01*
X180188893Y-120097868D01*
X180167850Y-120110480D01*
X180145671Y-120120970D01*
X180122572Y-120129235D01*
X180098773Y-120135196D01*
X180074505Y-120138796D01*
X180050001Y-120140000D01*
X176949999Y-120140000D01*
X176925495Y-120138796D01*
X176901227Y-120135196D01*
X176877428Y-120129235D01*
X176854329Y-120120970D01*
X176832150Y-120110480D01*
X176811107Y-120097868D01*
X176791401Y-120083253D01*
X176773223Y-120066777D01*
X176756747Y-120048599D01*
X176742132Y-120028893D01*
X176729520Y-120007850D01*
X176719030Y-119985671D01*
X176710765Y-119962572D01*
X176704804Y-119938773D01*
X176701204Y-119914505D01*
X176700000Y-119890001D01*
X176700000Y-118309999D01*
X176701204Y-118285495D01*
X176704804Y-118261227D01*
X176710765Y-118237428D01*
X176719030Y-118214329D01*
X176729520Y-118192150D01*
X176742132Y-118171107D01*
X176756747Y-118151401D01*
X176773223Y-118133223D01*
X176791401Y-118116747D01*
X176811107Y-118102132D01*
X176832150Y-118089520D01*
X176854329Y-118079030D01*
X176877428Y-118070765D01*
X176901227Y-118064804D01*
X176925495Y-118061204D01*
X176949999Y-118060000D01*
X180050001Y-118060000D01*
X180074505Y-118061204D01*
X180074505Y-118061204D01*
G37*
D13*
X178500000Y-119100000D03*
D11*
X91500000Y-119100000D03*
X91500000Y-114020000D03*
X91500000Y-108940000D03*
X91500000Y-103860000D03*
X91500000Y-98780000D03*
X91500000Y-93700000D03*
X91500000Y-88620000D03*
X91500000Y-83540000D03*
X91500000Y-78460000D03*
X91500000Y-73380000D03*
X91500000Y-68300000D03*
X91500000Y-63220000D03*
X91500000Y-58140000D03*
X91500000Y-53060000D03*
X91500000Y-47980000D03*
D12*
G36*
X93074505Y-41861204D02*
G01*
X93098773Y-41864804D01*
X93122572Y-41870765D01*
X93145671Y-41879030D01*
X93167850Y-41889520D01*
X93188893Y-41902132D01*
X93208599Y-41916747D01*
X93226777Y-41933223D01*
X93243253Y-41951401D01*
X93257868Y-41971107D01*
X93270480Y-41992150D01*
X93280970Y-42014329D01*
X93289235Y-42037428D01*
X93295196Y-42061227D01*
X93298796Y-42085495D01*
X93300000Y-42109999D01*
X93300000Y-43690001D01*
X93298796Y-43714505D01*
X93295196Y-43738773D01*
X93289235Y-43762572D01*
X93280970Y-43785671D01*
X93270480Y-43807850D01*
X93257868Y-43828893D01*
X93243253Y-43848599D01*
X93226777Y-43866777D01*
X93208599Y-43883253D01*
X93188893Y-43897868D01*
X93167850Y-43910480D01*
X93145671Y-43920970D01*
X93122572Y-43929235D01*
X93098773Y-43935196D01*
X93074505Y-43938796D01*
X93050001Y-43940000D01*
X89949999Y-43940000D01*
X89925495Y-43938796D01*
X89901227Y-43935196D01*
X89877428Y-43929235D01*
X89854329Y-43920970D01*
X89832150Y-43910480D01*
X89811107Y-43897868D01*
X89791401Y-43883253D01*
X89773223Y-43866777D01*
X89756747Y-43848599D01*
X89742132Y-43828893D01*
X89729520Y-43807850D01*
X89719030Y-43785671D01*
X89710765Y-43762572D01*
X89704804Y-43738773D01*
X89701204Y-43714505D01*
X89700000Y-43690001D01*
X89700000Y-42109999D01*
X89701204Y-42085495D01*
X89704804Y-42061227D01*
X89710765Y-42037428D01*
X89719030Y-42014329D01*
X89729520Y-41992150D01*
X89742132Y-41971107D01*
X89756747Y-41951401D01*
X89773223Y-41933223D01*
X89791401Y-41916747D01*
X89811107Y-41902132D01*
X89832150Y-41889520D01*
X89854329Y-41879030D01*
X89877428Y-41870765D01*
X89901227Y-41864804D01*
X89925495Y-41861204D01*
X89949999Y-41860000D01*
X93050001Y-41860000D01*
X93074505Y-41861204D01*
X93074505Y-41861204D01*
G37*
D13*
X91500000Y-42900000D03*
D14*
X133725000Y-99225000D03*
X133725000Y-106845000D03*
X133725000Y-111925000D03*
X136265000Y-114465000D03*
X133725000Y-117005000D03*
X133725000Y-96685000D03*
X136265000Y-99225000D03*
X133725000Y-101765000D03*
X136265000Y-101765000D03*
X133725000Y-104305000D03*
X136265000Y-104305000D03*
X136265000Y-96685000D03*
D15*
X133725000Y-94145000D03*
D14*
X136265000Y-106845000D03*
X136265000Y-111925000D03*
X133725000Y-114465000D03*
X136265000Y-117005000D03*
X136265000Y-94145000D03*
X133725000Y-109385000D03*
X136265000Y-109385000D03*
D10*
X159000000Y-34000000D03*
X154000000Y-34000000D03*
X154000000Y-37500000D03*
X159000000Y-37500000D03*
X111000000Y-37500000D03*
X116000000Y-37500000D03*
X116000000Y-34000000D03*
X111000000Y-34000000D03*
X159000000Y-124500000D03*
X154000000Y-124500000D03*
X154000000Y-128000000D03*
X159000000Y-128000000D03*
D16*
X153060000Y-113830000D03*
X154520000Y-113830000D03*
X153060000Y-103670000D03*
X154520000Y-103670000D03*
X153060000Y-93510000D03*
X154520000Y-93510000D03*
X153060000Y-83350000D03*
X154520000Y-83350000D03*
X153060000Y-73190000D03*
X154520000Y-73190000D03*
X153060000Y-63030000D03*
X154520000Y-63030000D03*
X153060000Y-52870000D03*
X154520000Y-52870000D03*
X154520000Y-42710000D03*
X115400000Y-109140000D03*
X116800000Y-109140000D03*
X115400000Y-98980000D03*
X116800000Y-98980000D03*
X115400000Y-88820000D03*
X116800000Y-88820000D03*
X115400000Y-78660000D03*
X116800000Y-78660000D03*
X115400000Y-68500000D03*
X116800000Y-68500000D03*
X115400000Y-58340000D03*
X116800000Y-58340000D03*
X115400000Y-48180000D03*
X116800000Y-48180000D03*
X116800000Y-119300000D03*
X115400000Y-119300000D03*
X153060000Y-42710000D03*
X142000000Y-77000000D03*
X143500000Y-77000000D03*
X142000000Y-78500000D03*
X143500000Y-78500000D03*
X142000000Y-80000000D03*
X143500000Y-80000000D03*
X142000000Y-81500000D03*
X143500000Y-81500000D03*
X140500000Y-81500000D03*
X139000000Y-81500000D03*
X137500000Y-81500000D03*
D17*
G36*
X107873000Y-130598000D02*
G01*
X91272108Y-130598000D01*
X90891477Y-130560679D01*
X90546608Y-130456558D01*
X90228532Y-130287434D01*
X89949362Y-130059748D01*
X89719736Y-129782178D01*
X89548396Y-129465291D01*
X89441868Y-129121156D01*
X89402000Y-128741835D01*
X89402000Y-126246188D01*
X90923000Y-126246188D01*
X90923000Y-126753812D01*
X91022033Y-127251683D01*
X91216292Y-127720667D01*
X91498313Y-128142742D01*
X91857258Y-128501687D01*
X92279333Y-128783708D01*
X92748317Y-128977967D01*
X93246188Y-129077000D01*
X93753812Y-129077000D01*
X94251683Y-128977967D01*
X94720667Y-128783708D01*
X95142742Y-128501687D01*
X95501687Y-128142742D01*
X95783708Y-127720667D01*
X95977967Y-127251683D01*
X96077000Y-126753812D01*
X96077000Y-126246188D01*
X95977967Y-125748317D01*
X95783708Y-125279333D01*
X95501687Y-124857258D01*
X95142742Y-124498313D01*
X94720667Y-124216292D01*
X94251683Y-124022033D01*
X93753812Y-123923000D01*
X93246188Y-123923000D01*
X92748317Y-124022033D01*
X92279333Y-124216292D01*
X91857258Y-124498313D01*
X91498313Y-124857258D01*
X91216292Y-125279333D01*
X91022033Y-125748317D01*
X90923000Y-126246188D01*
X89402000Y-126246188D01*
X89402000Y-119708806D01*
X89514332Y-119918965D01*
X89697655Y-120142345D01*
X89921035Y-120325668D01*
X90175887Y-120461889D01*
X90452418Y-120545774D01*
X90667932Y-120567000D01*
X92332068Y-120567000D01*
X92547582Y-120545774D01*
X92824113Y-120461889D01*
X93078965Y-120325668D01*
X93302345Y-120142345D01*
X93485668Y-119918965D01*
X93621889Y-119664113D01*
X93705774Y-119387582D01*
X93734098Y-119100000D01*
X93705774Y-118812418D01*
X93621889Y-118535887D01*
X93485668Y-118281035D01*
X93302345Y-118057655D01*
X93078965Y-117874332D01*
X92824113Y-117738111D01*
X92547582Y-117654226D01*
X92332068Y-117633000D01*
X90667932Y-117633000D01*
X90452418Y-117654226D01*
X90175887Y-117738111D01*
X89921035Y-117874332D01*
X89697655Y-118057655D01*
X89514332Y-118281035D01*
X89402000Y-118491194D01*
X89402000Y-115023627D01*
X89465794Y-115114602D01*
X89703824Y-115342155D01*
X89981673Y-115518898D01*
X90288664Y-115638039D01*
X90613000Y-115695000D01*
X91373000Y-115695000D01*
X91373000Y-114147000D01*
X91627000Y-114147000D01*
X91627000Y-115695000D01*
X92387000Y-115695000D01*
X92711336Y-115638039D01*
X93018327Y-115518898D01*
X93296176Y-115342155D01*
X93534206Y-115114602D01*
X93723269Y-114844984D01*
X93856099Y-114543663D01*
X93889748Y-114406710D01*
X93770922Y-114147000D01*
X91627000Y-114147000D01*
X91373000Y-114147000D01*
X91353000Y-114147000D01*
X91353000Y-113893000D01*
X91373000Y-113893000D01*
X91373000Y-113873000D01*
X91627000Y-113873000D01*
X91627000Y-113893000D01*
X93770922Y-113893000D01*
X93889748Y-113633290D01*
X93856099Y-113496337D01*
X93723269Y-113195016D01*
X93534206Y-112925398D01*
X93296176Y-112697845D01*
X93018327Y-112521102D01*
X92711336Y-112401961D01*
X92387000Y-112345000D01*
X90613000Y-112345000D01*
X90288664Y-112401961D01*
X89981673Y-112521102D01*
X89703824Y-112697845D01*
X89465794Y-112925398D01*
X89402000Y-113016373D01*
X89402000Y-109548806D01*
X89514332Y-109758965D01*
X89697655Y-109982345D01*
X89921035Y-110165668D01*
X90175887Y-110301889D01*
X90452418Y-110385774D01*
X90667932Y-110407000D01*
X92332068Y-110407000D01*
X92547582Y-110385774D01*
X92824113Y-110301889D01*
X93078965Y-110165668D01*
X93302345Y-109982345D01*
X93485668Y-109758965D01*
X93621889Y-109504113D01*
X93705774Y-109227582D01*
X93734098Y-108940000D01*
X93705774Y-108652418D01*
X93621889Y-108375887D01*
X93485668Y-108121035D01*
X93302345Y-107897655D01*
X93078965Y-107714332D01*
X92824113Y-107578111D01*
X92547582Y-107494226D01*
X92332068Y-107473000D01*
X90667932Y-107473000D01*
X90452418Y-107494226D01*
X90175887Y-107578111D01*
X89921035Y-107714332D01*
X89697655Y-107897655D01*
X89514332Y-108121035D01*
X89402000Y-108331194D01*
X89402000Y-104863627D01*
X89465794Y-104954602D01*
X89703824Y-105182155D01*
X89981673Y-105358898D01*
X90288664Y-105478039D01*
X90613000Y-105535000D01*
X91373000Y-105535000D01*
X91373000Y-103987000D01*
X91627000Y-103987000D01*
X91627000Y-105535000D01*
X92387000Y-105535000D01*
X92711336Y-105478039D01*
X93018327Y-105358898D01*
X93296176Y-105182155D01*
X93534206Y-104954602D01*
X93723269Y-104684984D01*
X93856099Y-104383663D01*
X93889748Y-104246710D01*
X93770922Y-103987000D01*
X91627000Y-103987000D01*
X91373000Y-103987000D01*
X91353000Y-103987000D01*
X91353000Y-103733000D01*
X91373000Y-103733000D01*
X91373000Y-103713000D01*
X91627000Y-103713000D01*
X91627000Y-103733000D01*
X93770922Y-103733000D01*
X93889748Y-103473290D01*
X93856099Y-103336337D01*
X93723269Y-103035016D01*
X93534206Y-102765398D01*
X93296176Y-102537845D01*
X93018327Y-102361102D01*
X92711336Y-102241961D01*
X92387000Y-102185000D01*
X90613000Y-102185000D01*
X90288664Y-102241961D01*
X89981673Y-102361102D01*
X89703824Y-102537845D01*
X89465794Y-102765398D01*
X89402000Y-102856373D01*
X89402000Y-99388806D01*
X89514332Y-99598965D01*
X89697655Y-99822345D01*
X89921035Y-100005668D01*
X90175887Y-100141889D01*
X90452418Y-100225774D01*
X90667932Y-100247000D01*
X92332068Y-100247000D01*
X92547582Y-100225774D01*
X92824113Y-100141889D01*
X93078965Y-100005668D01*
X93302345Y-99822345D01*
X93485668Y-99598965D01*
X93621889Y-99344113D01*
X93705774Y-99067582D01*
X93734098Y-98780000D01*
X93705774Y-98492418D01*
X93621889Y-98215887D01*
X93485668Y-97961035D01*
X93302345Y-97737655D01*
X93078965Y-97554332D01*
X92824113Y-97418111D01*
X92547582Y-97334226D01*
X92332068Y-97313000D01*
X90667932Y-97313000D01*
X90452418Y-97334226D01*
X90175887Y-97418111D01*
X89921035Y-97554332D01*
X89697655Y-97737655D01*
X89514332Y-97961035D01*
X89402000Y-98171194D01*
X89402000Y-94703627D01*
X89465794Y-94794602D01*
X89703824Y-95022155D01*
X89981673Y-95198898D01*
X90288664Y-95318039D01*
X90613000Y-95375000D01*
X91373000Y-95375000D01*
X91373000Y-93827000D01*
X91627000Y-93827000D01*
X91627000Y-95375000D01*
X92387000Y-95375000D01*
X92711336Y-95318039D01*
X93018327Y-95198898D01*
X93296176Y-95022155D01*
X93534206Y-94794602D01*
X93723269Y-94524984D01*
X93856099Y-94223663D01*
X93889748Y-94086710D01*
X93770922Y-93827000D01*
X91627000Y-93827000D01*
X91373000Y-93827000D01*
X91353000Y-93827000D01*
X91353000Y-93573000D01*
X91373000Y-93573000D01*
X91373000Y-93553000D01*
X91627000Y-93553000D01*
X91627000Y-93573000D01*
X93770922Y-93573000D01*
X93889748Y-93313290D01*
X93856099Y-93176337D01*
X93723269Y-92875016D01*
X93534206Y-92605398D01*
X93296176Y-92377845D01*
X93018327Y-92201102D01*
X92711336Y-92081961D01*
X92387000Y-92025000D01*
X90613000Y-92025000D01*
X90288664Y-92081961D01*
X89981673Y-92201102D01*
X89703824Y-92377845D01*
X89465794Y-92605398D01*
X89402000Y-92696373D01*
X89402000Y-89228806D01*
X89514332Y-89438965D01*
X89697655Y-89662345D01*
X89921035Y-89845668D01*
X90175887Y-89981889D01*
X90452418Y-90065774D01*
X90667932Y-90087000D01*
X92332068Y-90087000D01*
X92547582Y-90065774D01*
X92824113Y-89981889D01*
X93078965Y-89845668D01*
X93302345Y-89662345D01*
X93485668Y-89438965D01*
X93621889Y-89184113D01*
X93705774Y-88907582D01*
X93734098Y-88620000D01*
X93705774Y-88332418D01*
X93621889Y-88055887D01*
X93485668Y-87801035D01*
X93302345Y-87577655D01*
X93078965Y-87394332D01*
X92824113Y-87258111D01*
X92547582Y-87174226D01*
X92332068Y-87153000D01*
X90667932Y-87153000D01*
X90452418Y-87174226D01*
X90175887Y-87258111D01*
X89921035Y-87394332D01*
X89697655Y-87577655D01*
X89514332Y-87801035D01*
X89402000Y-88011194D01*
X89402000Y-84543627D01*
X89465794Y-84634602D01*
X89703824Y-84862155D01*
X89981673Y-85038898D01*
X90288664Y-85158039D01*
X90613000Y-85215000D01*
X91373000Y-85215000D01*
X91373000Y-83667000D01*
X91627000Y-83667000D01*
X91627000Y-85215000D01*
X92387000Y-85215000D01*
X92711336Y-85158039D01*
X93018327Y-85038898D01*
X93296176Y-84862155D01*
X93534206Y-84634602D01*
X93723269Y-84364984D01*
X93856099Y-84063663D01*
X93889748Y-83926710D01*
X93770922Y-83667000D01*
X91627000Y-83667000D01*
X91373000Y-83667000D01*
X91353000Y-83667000D01*
X91353000Y-83413000D01*
X91373000Y-83413000D01*
X91373000Y-83393000D01*
X91627000Y-83393000D01*
X91627000Y-83413000D01*
X93770922Y-83413000D01*
X93889748Y-83153290D01*
X93856099Y-83016337D01*
X93723269Y-82715016D01*
X93534206Y-82445398D01*
X93296176Y-82217845D01*
X93018327Y-82041102D01*
X92711336Y-81921961D01*
X92387000Y-81865000D01*
X90613000Y-81865000D01*
X90288664Y-81921961D01*
X89981673Y-82041102D01*
X89703824Y-82217845D01*
X89465794Y-82445398D01*
X89402000Y-82536373D01*
X89402000Y-79068806D01*
X89514332Y-79278965D01*
X89697655Y-79502345D01*
X89921035Y-79685668D01*
X90175887Y-79821889D01*
X90452418Y-79905774D01*
X90667932Y-79927000D01*
X92332068Y-79927000D01*
X92547582Y-79905774D01*
X92824113Y-79821889D01*
X93078965Y-79685668D01*
X93302345Y-79502345D01*
X93485668Y-79278965D01*
X93621889Y-79024113D01*
X93705774Y-78747582D01*
X93734098Y-78460000D01*
X93705774Y-78172418D01*
X93621889Y-77895887D01*
X93485668Y-77641035D01*
X93302345Y-77417655D01*
X93078965Y-77234332D01*
X92824113Y-77098111D01*
X92547582Y-77014226D01*
X92332068Y-76993000D01*
X90667932Y-76993000D01*
X90452418Y-77014226D01*
X90175887Y-77098111D01*
X89921035Y-77234332D01*
X89697655Y-77417655D01*
X89514332Y-77641035D01*
X89402000Y-77851194D01*
X89402000Y-74383627D01*
X89465794Y-74474602D01*
X89703824Y-74702155D01*
X89981673Y-74878898D01*
X90288664Y-74998039D01*
X90613000Y-75055000D01*
X91373000Y-75055000D01*
X91373000Y-73507000D01*
X91627000Y-73507000D01*
X91627000Y-75055000D01*
X92387000Y-75055000D01*
X92711336Y-74998039D01*
X93018327Y-74878898D01*
X93296176Y-74702155D01*
X93534206Y-74474602D01*
X93723269Y-74204984D01*
X93856099Y-73903663D01*
X93889748Y-73766710D01*
X93770922Y-73507000D01*
X91627000Y-73507000D01*
X91373000Y-73507000D01*
X91353000Y-73507000D01*
X91353000Y-73253000D01*
X91373000Y-73253000D01*
X91373000Y-73233000D01*
X91627000Y-73233000D01*
X91627000Y-73253000D01*
X93770922Y-73253000D01*
X93889748Y-72993290D01*
X93856099Y-72856337D01*
X93723269Y-72555016D01*
X93534206Y-72285398D01*
X93296176Y-72057845D01*
X93018327Y-71881102D01*
X92711336Y-71761961D01*
X92387000Y-71705000D01*
X90613000Y-71705000D01*
X90288664Y-71761961D01*
X89981673Y-71881102D01*
X89703824Y-72057845D01*
X89465794Y-72285398D01*
X89402000Y-72376373D01*
X89402000Y-68908806D01*
X89514332Y-69118965D01*
X89697655Y-69342345D01*
X89921035Y-69525668D01*
X90175887Y-69661889D01*
X90452418Y-69745774D01*
X90667932Y-69767000D01*
X92332068Y-69767000D01*
X92547582Y-69745774D01*
X92824113Y-69661889D01*
X93078965Y-69525668D01*
X93302345Y-69342345D01*
X93485668Y-69118965D01*
X93621889Y-68864113D01*
X93705774Y-68587582D01*
X93734098Y-68300000D01*
X93705774Y-68012418D01*
X93621889Y-67735887D01*
X93485668Y-67481035D01*
X93302345Y-67257655D01*
X93078965Y-67074332D01*
X92824113Y-66938111D01*
X92547582Y-66854226D01*
X92332068Y-66833000D01*
X90667932Y-66833000D01*
X90452418Y-66854226D01*
X90175887Y-66938111D01*
X89921035Y-67074332D01*
X89697655Y-67257655D01*
X89514332Y-67481035D01*
X89402000Y-67691194D01*
X89402000Y-64223627D01*
X89465794Y-64314602D01*
X89703824Y-64542155D01*
X89981673Y-64718898D01*
X90288664Y-64838039D01*
X90613000Y-64895000D01*
X91373000Y-64895000D01*
X91373000Y-63347000D01*
X91627000Y-63347000D01*
X91627000Y-64895000D01*
X92387000Y-64895000D01*
X92711336Y-64838039D01*
X93018327Y-64718898D01*
X93296176Y-64542155D01*
X93534206Y-64314602D01*
X93723269Y-64044984D01*
X93856099Y-63743663D01*
X93889748Y-63606710D01*
X93770922Y-63347000D01*
X91627000Y-63347000D01*
X91373000Y-63347000D01*
X91353000Y-63347000D01*
X91353000Y-63093000D01*
X91373000Y-63093000D01*
X91373000Y-63073000D01*
X91627000Y-63073000D01*
X91627000Y-63093000D01*
X93770922Y-63093000D01*
X93889748Y-62833290D01*
X93856099Y-62696337D01*
X93723269Y-62395016D01*
X93534206Y-62125398D01*
X93296176Y-61897845D01*
X93018327Y-61721102D01*
X92711336Y-61601961D01*
X92387000Y-61545000D01*
X90613000Y-61545000D01*
X90288664Y-61601961D01*
X89981673Y-61721102D01*
X89703824Y-61897845D01*
X89465794Y-62125398D01*
X89402000Y-62216373D01*
X89402000Y-58748806D01*
X89514332Y-58958965D01*
X89697655Y-59182345D01*
X89921035Y-59365668D01*
X90175887Y-59501889D01*
X90452418Y-59585774D01*
X90667932Y-59607000D01*
X92332068Y-59607000D01*
X92547582Y-59585774D01*
X92824113Y-59501889D01*
X93078965Y-59365668D01*
X93302345Y-59182345D01*
X93485668Y-58958965D01*
X93621889Y-58704113D01*
X93705774Y-58427582D01*
X93734098Y-58140000D01*
X93705774Y-57852418D01*
X93621889Y-57575887D01*
X93485668Y-57321035D01*
X93302345Y-57097655D01*
X93078965Y-56914332D01*
X92824113Y-56778111D01*
X92547582Y-56694226D01*
X92332068Y-56673000D01*
X90667932Y-56673000D01*
X90452418Y-56694226D01*
X90175887Y-56778111D01*
X89921035Y-56914332D01*
X89697655Y-57097655D01*
X89514332Y-57321035D01*
X89402000Y-57531194D01*
X89402000Y-54063627D01*
X89465794Y-54154602D01*
X89703824Y-54382155D01*
X89981673Y-54558898D01*
X90288664Y-54678039D01*
X90613000Y-54735000D01*
X91373000Y-54735000D01*
X91373000Y-53187000D01*
X91627000Y-53187000D01*
X91627000Y-54735000D01*
X92387000Y-54735000D01*
X92711336Y-54678039D01*
X93018327Y-54558898D01*
X93296176Y-54382155D01*
X93534206Y-54154602D01*
X93723269Y-53884984D01*
X93856099Y-53583663D01*
X93889748Y-53446710D01*
X93770922Y-53187000D01*
X91627000Y-53187000D01*
X91373000Y-53187000D01*
X91353000Y-53187000D01*
X91353000Y-52933000D01*
X91373000Y-52933000D01*
X91373000Y-52913000D01*
X91627000Y-52913000D01*
X91627000Y-52933000D01*
X93770922Y-52933000D01*
X93889748Y-52673290D01*
X93856099Y-52536337D01*
X93723269Y-52235016D01*
X93534206Y-51965398D01*
X93296176Y-51737845D01*
X93018327Y-51561102D01*
X92711336Y-51441961D01*
X92387000Y-51385000D01*
X90613000Y-51385000D01*
X90288664Y-51441961D01*
X89981673Y-51561102D01*
X89703824Y-51737845D01*
X89465794Y-51965398D01*
X89402000Y-52056373D01*
X89402000Y-48588806D01*
X89514332Y-48798965D01*
X89697655Y-49022345D01*
X89921035Y-49205668D01*
X90175887Y-49341889D01*
X90452418Y-49425774D01*
X90667932Y-49447000D01*
X92332068Y-49447000D01*
X92547582Y-49425774D01*
X92824113Y-49341889D01*
X93078965Y-49205668D01*
X93302345Y-49022345D01*
X93485668Y-48798965D01*
X93621889Y-48544113D01*
X93705774Y-48267582D01*
X93734098Y-47980000D01*
X93705774Y-47692418D01*
X93621889Y-47415887D01*
X93485668Y-47161035D01*
X93302345Y-46937655D01*
X93078965Y-46754332D01*
X92824113Y-46618111D01*
X92547582Y-46534226D01*
X92332068Y-46513000D01*
X90667932Y-46513000D01*
X90452418Y-46534226D01*
X90175887Y-46618111D01*
X89921035Y-46754332D01*
X89697655Y-46937655D01*
X89514332Y-47161035D01*
X89402000Y-47371194D01*
X89402000Y-44500734D01*
X89455820Y-44529502D01*
X89575518Y-44565812D01*
X89700000Y-44578072D01*
X91214250Y-44575000D01*
X91373000Y-44416250D01*
X91373000Y-43027000D01*
X91627000Y-43027000D01*
X91627000Y-44416250D01*
X91785750Y-44575000D01*
X93300000Y-44578072D01*
X93424482Y-44565812D01*
X93544180Y-44529502D01*
X93654494Y-44470537D01*
X93751185Y-44391185D01*
X93830537Y-44294494D01*
X93889502Y-44184180D01*
X93925812Y-44064482D01*
X93938072Y-43940000D01*
X93935000Y-43185750D01*
X93776250Y-43027000D01*
X91627000Y-43027000D01*
X91373000Y-43027000D01*
X91353000Y-43027000D01*
X91353000Y-42773000D01*
X91373000Y-42773000D01*
X91373000Y-41383750D01*
X91627000Y-41383750D01*
X91627000Y-42773000D01*
X93776250Y-42773000D01*
X93935000Y-42614250D01*
X93938072Y-41860000D01*
X93925812Y-41735518D01*
X93889502Y-41615820D01*
X93830537Y-41505506D01*
X93751185Y-41408815D01*
X93654494Y-41329463D01*
X93544180Y-41270498D01*
X93424482Y-41234188D01*
X93300000Y-41221928D01*
X91785750Y-41225000D01*
X91627000Y-41383750D01*
X91373000Y-41383750D01*
X91214250Y-41225000D01*
X89700000Y-41221928D01*
X89575518Y-41234188D01*
X89455820Y-41270498D01*
X89402000Y-41299266D01*
X89402000Y-40527000D01*
X96000000Y-40527000D01*
X96021142Y-40525228D01*
X96045167Y-40518697D01*
X96067456Y-40507605D01*
X96087152Y-40492377D01*
X96103499Y-40473600D01*
X98503499Y-37098600D01*
X98517333Y-37073601D01*
X98524560Y-37049776D01*
X98527000Y-37025000D01*
X98527000Y-31402000D01*
X107873000Y-31402000D01*
X107873000Y-130598000D01*
X107873000Y-130598000D01*
G37*
X107873000Y-130598000D02*
X91272108Y-130598000D01*
X90891477Y-130560679D01*
X90546608Y-130456558D01*
X90228532Y-130287434D01*
X89949362Y-130059748D01*
X89719736Y-129782178D01*
X89548396Y-129465291D01*
X89441868Y-129121156D01*
X89402000Y-128741835D01*
X89402000Y-126246188D01*
X90923000Y-126246188D01*
X90923000Y-126753812D01*
X91022033Y-127251683D01*
X91216292Y-127720667D01*
X91498313Y-128142742D01*
X91857258Y-128501687D01*
X92279333Y-128783708D01*
X92748317Y-128977967D01*
X93246188Y-129077000D01*
X93753812Y-129077000D01*
X94251683Y-128977967D01*
X94720667Y-128783708D01*
X95142742Y-128501687D01*
X95501687Y-128142742D01*
X95783708Y-127720667D01*
X95977967Y-127251683D01*
X96077000Y-126753812D01*
X96077000Y-126246188D01*
X95977967Y-125748317D01*
X95783708Y-125279333D01*
X95501687Y-124857258D01*
X95142742Y-124498313D01*
X94720667Y-124216292D01*
X94251683Y-124022033D01*
X93753812Y-123923000D01*
X93246188Y-123923000D01*
X92748317Y-124022033D01*
X92279333Y-124216292D01*
X91857258Y-124498313D01*
X91498313Y-124857258D01*
X91216292Y-125279333D01*
X91022033Y-125748317D01*
X90923000Y-126246188D01*
X89402000Y-126246188D01*
X89402000Y-119708806D01*
X89514332Y-119918965D01*
X89697655Y-120142345D01*
X89921035Y-120325668D01*
X90175887Y-120461889D01*
X90452418Y-120545774D01*
X90667932Y-120567000D01*
X92332068Y-120567000D01*
X92547582Y-120545774D01*
X92824113Y-120461889D01*
X93078965Y-120325668D01*
X93302345Y-120142345D01*
X93485668Y-119918965D01*
X93621889Y-119664113D01*
X93705774Y-119387582D01*
X93734098Y-119100000D01*
X93705774Y-118812418D01*
X93621889Y-118535887D01*
X93485668Y-118281035D01*
X93302345Y-118057655D01*
X93078965Y-117874332D01*
X92824113Y-117738111D01*
X92547582Y-117654226D01*
X92332068Y-117633000D01*
X90667932Y-117633000D01*
X90452418Y-117654226D01*
X90175887Y-117738111D01*
X89921035Y-117874332D01*
X89697655Y-118057655D01*
X89514332Y-118281035D01*
X89402000Y-118491194D01*
X89402000Y-115023627D01*
X89465794Y-115114602D01*
X89703824Y-115342155D01*
X89981673Y-115518898D01*
X90288664Y-115638039D01*
X90613000Y-115695000D01*
X91373000Y-115695000D01*
X91373000Y-114147000D01*
X91627000Y-114147000D01*
X91627000Y-115695000D01*
X92387000Y-115695000D01*
X92711336Y-115638039D01*
X93018327Y-115518898D01*
X93296176Y-115342155D01*
X93534206Y-115114602D01*
X93723269Y-114844984D01*
X93856099Y-114543663D01*
X93889748Y-114406710D01*
X93770922Y-114147000D01*
X91627000Y-114147000D01*
X91373000Y-114147000D01*
X91353000Y-114147000D01*
X91353000Y-113893000D01*
X91373000Y-113893000D01*
X91373000Y-113873000D01*
X91627000Y-113873000D01*
X91627000Y-113893000D01*
X93770922Y-113893000D01*
X93889748Y-113633290D01*
X93856099Y-113496337D01*
X93723269Y-113195016D01*
X93534206Y-112925398D01*
X93296176Y-112697845D01*
X93018327Y-112521102D01*
X92711336Y-112401961D01*
X92387000Y-112345000D01*
X90613000Y-112345000D01*
X90288664Y-112401961D01*
X89981673Y-112521102D01*
X89703824Y-112697845D01*
X89465794Y-112925398D01*
X89402000Y-113016373D01*
X89402000Y-109548806D01*
X89514332Y-109758965D01*
X89697655Y-109982345D01*
X89921035Y-110165668D01*
X90175887Y-110301889D01*
X90452418Y-110385774D01*
X90667932Y-110407000D01*
X92332068Y-110407000D01*
X92547582Y-110385774D01*
X92824113Y-110301889D01*
X93078965Y-110165668D01*
X93302345Y-109982345D01*
X93485668Y-109758965D01*
X93621889Y-109504113D01*
X93705774Y-109227582D01*
X93734098Y-108940000D01*
X93705774Y-108652418D01*
X93621889Y-108375887D01*
X93485668Y-108121035D01*
X93302345Y-107897655D01*
X93078965Y-107714332D01*
X92824113Y-107578111D01*
X92547582Y-107494226D01*
X92332068Y-107473000D01*
X90667932Y-107473000D01*
X90452418Y-107494226D01*
X90175887Y-107578111D01*
X89921035Y-107714332D01*
X89697655Y-107897655D01*
X89514332Y-108121035D01*
X89402000Y-108331194D01*
X89402000Y-104863627D01*
X89465794Y-104954602D01*
X89703824Y-105182155D01*
X89981673Y-105358898D01*
X90288664Y-105478039D01*
X90613000Y-105535000D01*
X91373000Y-105535000D01*
X91373000Y-103987000D01*
X91627000Y-103987000D01*
X91627000Y-105535000D01*
X92387000Y-105535000D01*
X92711336Y-105478039D01*
X93018327Y-105358898D01*
X93296176Y-105182155D01*
X93534206Y-104954602D01*
X93723269Y-104684984D01*
X93856099Y-104383663D01*
X93889748Y-104246710D01*
X93770922Y-103987000D01*
X91627000Y-103987000D01*
X91373000Y-103987000D01*
X91353000Y-103987000D01*
X91353000Y-103733000D01*
X91373000Y-103733000D01*
X91373000Y-103713000D01*
X91627000Y-103713000D01*
X91627000Y-103733000D01*
X93770922Y-103733000D01*
X93889748Y-103473290D01*
X93856099Y-103336337D01*
X93723269Y-103035016D01*
X93534206Y-102765398D01*
X93296176Y-102537845D01*
X93018327Y-102361102D01*
X92711336Y-102241961D01*
X92387000Y-102185000D01*
X90613000Y-102185000D01*
X90288664Y-102241961D01*
X89981673Y-102361102D01*
X89703824Y-102537845D01*
X89465794Y-102765398D01*
X89402000Y-102856373D01*
X89402000Y-99388806D01*
X89514332Y-99598965D01*
X89697655Y-99822345D01*
X89921035Y-100005668D01*
X90175887Y-100141889D01*
X90452418Y-100225774D01*
X90667932Y-100247000D01*
X92332068Y-100247000D01*
X92547582Y-100225774D01*
X92824113Y-100141889D01*
X93078965Y-100005668D01*
X93302345Y-99822345D01*
X93485668Y-99598965D01*
X93621889Y-99344113D01*
X93705774Y-99067582D01*
X93734098Y-98780000D01*
X93705774Y-98492418D01*
X93621889Y-98215887D01*
X93485668Y-97961035D01*
X93302345Y-97737655D01*
X93078965Y-97554332D01*
X92824113Y-97418111D01*
X92547582Y-97334226D01*
X92332068Y-97313000D01*
X90667932Y-97313000D01*
X90452418Y-97334226D01*
X90175887Y-97418111D01*
X89921035Y-97554332D01*
X89697655Y-97737655D01*
X89514332Y-97961035D01*
X89402000Y-98171194D01*
X89402000Y-94703627D01*
X89465794Y-94794602D01*
X89703824Y-95022155D01*
X89981673Y-95198898D01*
X90288664Y-95318039D01*
X90613000Y-95375000D01*
X91373000Y-95375000D01*
X91373000Y-93827000D01*
X91627000Y-93827000D01*
X91627000Y-95375000D01*
X92387000Y-95375000D01*
X92711336Y-95318039D01*
X93018327Y-95198898D01*
X93296176Y-95022155D01*
X93534206Y-94794602D01*
X93723269Y-94524984D01*
X93856099Y-94223663D01*
X93889748Y-94086710D01*
X93770922Y-93827000D01*
X91627000Y-93827000D01*
X91373000Y-93827000D01*
X91353000Y-93827000D01*
X91353000Y-93573000D01*
X91373000Y-93573000D01*
X91373000Y-93553000D01*
X91627000Y-93553000D01*
X91627000Y-93573000D01*
X93770922Y-93573000D01*
X93889748Y-93313290D01*
X93856099Y-93176337D01*
X93723269Y-92875016D01*
X93534206Y-92605398D01*
X93296176Y-92377845D01*
X93018327Y-92201102D01*
X92711336Y-92081961D01*
X92387000Y-92025000D01*
X90613000Y-92025000D01*
X90288664Y-92081961D01*
X89981673Y-92201102D01*
X89703824Y-92377845D01*
X89465794Y-92605398D01*
X89402000Y-92696373D01*
X89402000Y-89228806D01*
X89514332Y-89438965D01*
X89697655Y-89662345D01*
X89921035Y-89845668D01*
X90175887Y-89981889D01*
X90452418Y-90065774D01*
X90667932Y-90087000D01*
X92332068Y-90087000D01*
X92547582Y-90065774D01*
X92824113Y-89981889D01*
X93078965Y-89845668D01*
X93302345Y-89662345D01*
X93485668Y-89438965D01*
X93621889Y-89184113D01*
X93705774Y-88907582D01*
X93734098Y-88620000D01*
X93705774Y-88332418D01*
X93621889Y-88055887D01*
X93485668Y-87801035D01*
X93302345Y-87577655D01*
X93078965Y-87394332D01*
X92824113Y-87258111D01*
X92547582Y-87174226D01*
X92332068Y-87153000D01*
X90667932Y-87153000D01*
X90452418Y-87174226D01*
X90175887Y-87258111D01*
X89921035Y-87394332D01*
X89697655Y-87577655D01*
X89514332Y-87801035D01*
X89402000Y-88011194D01*
X89402000Y-84543627D01*
X89465794Y-84634602D01*
X89703824Y-84862155D01*
X89981673Y-85038898D01*
X90288664Y-85158039D01*
X90613000Y-85215000D01*
X91373000Y-85215000D01*
X91373000Y-83667000D01*
X91627000Y-83667000D01*
X91627000Y-85215000D01*
X92387000Y-85215000D01*
X92711336Y-85158039D01*
X93018327Y-85038898D01*
X93296176Y-84862155D01*
X93534206Y-84634602D01*
X93723269Y-84364984D01*
X93856099Y-84063663D01*
X93889748Y-83926710D01*
X93770922Y-83667000D01*
X91627000Y-83667000D01*
X91373000Y-83667000D01*
X91353000Y-83667000D01*
X91353000Y-83413000D01*
X91373000Y-83413000D01*
X91373000Y-83393000D01*
X91627000Y-83393000D01*
X91627000Y-83413000D01*
X93770922Y-83413000D01*
X93889748Y-83153290D01*
X93856099Y-83016337D01*
X93723269Y-82715016D01*
X93534206Y-82445398D01*
X93296176Y-82217845D01*
X93018327Y-82041102D01*
X92711336Y-81921961D01*
X92387000Y-81865000D01*
X90613000Y-81865000D01*
X90288664Y-81921961D01*
X89981673Y-82041102D01*
X89703824Y-82217845D01*
X89465794Y-82445398D01*
X89402000Y-82536373D01*
X89402000Y-79068806D01*
X89514332Y-79278965D01*
X89697655Y-79502345D01*
X89921035Y-79685668D01*
X90175887Y-79821889D01*
X90452418Y-79905774D01*
X90667932Y-79927000D01*
X92332068Y-79927000D01*
X92547582Y-79905774D01*
X92824113Y-79821889D01*
X93078965Y-79685668D01*
X93302345Y-79502345D01*
X93485668Y-79278965D01*
X93621889Y-79024113D01*
X93705774Y-78747582D01*
X93734098Y-78460000D01*
X93705774Y-78172418D01*
X93621889Y-77895887D01*
X93485668Y-77641035D01*
X93302345Y-77417655D01*
X93078965Y-77234332D01*
X92824113Y-77098111D01*
X92547582Y-77014226D01*
X92332068Y-76993000D01*
X90667932Y-76993000D01*
X90452418Y-77014226D01*
X90175887Y-77098111D01*
X89921035Y-77234332D01*
X89697655Y-77417655D01*
X89514332Y-77641035D01*
X89402000Y-77851194D01*
X89402000Y-74383627D01*
X89465794Y-74474602D01*
X89703824Y-74702155D01*
X89981673Y-74878898D01*
X90288664Y-74998039D01*
X90613000Y-75055000D01*
X91373000Y-75055000D01*
X91373000Y-73507000D01*
X91627000Y-73507000D01*
X91627000Y-75055000D01*
X92387000Y-75055000D01*
X92711336Y-74998039D01*
X93018327Y-74878898D01*
X93296176Y-74702155D01*
X93534206Y-74474602D01*
X93723269Y-74204984D01*
X93856099Y-73903663D01*
X93889748Y-73766710D01*
X93770922Y-73507000D01*
X91627000Y-73507000D01*
X91373000Y-73507000D01*
X91353000Y-73507000D01*
X91353000Y-73253000D01*
X91373000Y-73253000D01*
X91373000Y-73233000D01*
X91627000Y-73233000D01*
X91627000Y-73253000D01*
X93770922Y-73253000D01*
X93889748Y-72993290D01*
X93856099Y-72856337D01*
X93723269Y-72555016D01*
X93534206Y-72285398D01*
X93296176Y-72057845D01*
X93018327Y-71881102D01*
X92711336Y-71761961D01*
X92387000Y-71705000D01*
X90613000Y-71705000D01*
X90288664Y-71761961D01*
X89981673Y-71881102D01*
X89703824Y-72057845D01*
X89465794Y-72285398D01*
X89402000Y-72376373D01*
X89402000Y-68908806D01*
X89514332Y-69118965D01*
X89697655Y-69342345D01*
X89921035Y-69525668D01*
X90175887Y-69661889D01*
X90452418Y-69745774D01*
X90667932Y-69767000D01*
X92332068Y-69767000D01*
X92547582Y-69745774D01*
X92824113Y-69661889D01*
X93078965Y-69525668D01*
X93302345Y-69342345D01*
X93485668Y-69118965D01*
X93621889Y-68864113D01*
X93705774Y-68587582D01*
X93734098Y-68300000D01*
X93705774Y-68012418D01*
X93621889Y-67735887D01*
X93485668Y-67481035D01*
X93302345Y-67257655D01*
X93078965Y-67074332D01*
X92824113Y-66938111D01*
X92547582Y-66854226D01*
X92332068Y-66833000D01*
X90667932Y-66833000D01*
X90452418Y-66854226D01*
X90175887Y-66938111D01*
X89921035Y-67074332D01*
X89697655Y-67257655D01*
X89514332Y-67481035D01*
X89402000Y-67691194D01*
X89402000Y-64223627D01*
X89465794Y-64314602D01*
X89703824Y-64542155D01*
X89981673Y-64718898D01*
X90288664Y-64838039D01*
X90613000Y-64895000D01*
X91373000Y-64895000D01*
X91373000Y-63347000D01*
X91627000Y-63347000D01*
X91627000Y-64895000D01*
X92387000Y-64895000D01*
X92711336Y-64838039D01*
X93018327Y-64718898D01*
X93296176Y-64542155D01*
X93534206Y-64314602D01*
X93723269Y-64044984D01*
X93856099Y-63743663D01*
X93889748Y-63606710D01*
X93770922Y-63347000D01*
X91627000Y-63347000D01*
X91373000Y-63347000D01*
X91353000Y-63347000D01*
X91353000Y-63093000D01*
X91373000Y-63093000D01*
X91373000Y-63073000D01*
X91627000Y-63073000D01*
X91627000Y-63093000D01*
X93770922Y-63093000D01*
X93889748Y-62833290D01*
X93856099Y-62696337D01*
X93723269Y-62395016D01*
X93534206Y-62125398D01*
X93296176Y-61897845D01*
X93018327Y-61721102D01*
X92711336Y-61601961D01*
X92387000Y-61545000D01*
X90613000Y-61545000D01*
X90288664Y-61601961D01*
X89981673Y-61721102D01*
X89703824Y-61897845D01*
X89465794Y-62125398D01*
X89402000Y-62216373D01*
X89402000Y-58748806D01*
X89514332Y-58958965D01*
X89697655Y-59182345D01*
X89921035Y-59365668D01*
X90175887Y-59501889D01*
X90452418Y-59585774D01*
X90667932Y-59607000D01*
X92332068Y-59607000D01*
X92547582Y-59585774D01*
X92824113Y-59501889D01*
X93078965Y-59365668D01*
X93302345Y-59182345D01*
X93485668Y-58958965D01*
X93621889Y-58704113D01*
X93705774Y-58427582D01*
X93734098Y-58140000D01*
X93705774Y-57852418D01*
X93621889Y-57575887D01*
X93485668Y-57321035D01*
X93302345Y-57097655D01*
X93078965Y-56914332D01*
X92824113Y-56778111D01*
X92547582Y-56694226D01*
X92332068Y-56673000D01*
X90667932Y-56673000D01*
X90452418Y-56694226D01*
X90175887Y-56778111D01*
X89921035Y-56914332D01*
X89697655Y-57097655D01*
X89514332Y-57321035D01*
X89402000Y-57531194D01*
X89402000Y-54063627D01*
X89465794Y-54154602D01*
X89703824Y-54382155D01*
X89981673Y-54558898D01*
X90288664Y-54678039D01*
X90613000Y-54735000D01*
X91373000Y-54735000D01*
X91373000Y-53187000D01*
X91627000Y-53187000D01*
X91627000Y-54735000D01*
X92387000Y-54735000D01*
X92711336Y-54678039D01*
X93018327Y-54558898D01*
X93296176Y-54382155D01*
X93534206Y-54154602D01*
X93723269Y-53884984D01*
X93856099Y-53583663D01*
X93889748Y-53446710D01*
X93770922Y-53187000D01*
X91627000Y-53187000D01*
X91373000Y-53187000D01*
X91353000Y-53187000D01*
X91353000Y-52933000D01*
X91373000Y-52933000D01*
X91373000Y-52913000D01*
X91627000Y-52913000D01*
X91627000Y-52933000D01*
X93770922Y-52933000D01*
X93889748Y-52673290D01*
X93856099Y-52536337D01*
X93723269Y-52235016D01*
X93534206Y-51965398D01*
X93296176Y-51737845D01*
X93018327Y-51561102D01*
X92711336Y-51441961D01*
X92387000Y-51385000D01*
X90613000Y-51385000D01*
X90288664Y-51441961D01*
X89981673Y-51561102D01*
X89703824Y-51737845D01*
X89465794Y-51965398D01*
X89402000Y-52056373D01*
X89402000Y-48588806D01*
X89514332Y-48798965D01*
X89697655Y-49022345D01*
X89921035Y-49205668D01*
X90175887Y-49341889D01*
X90452418Y-49425774D01*
X90667932Y-49447000D01*
X92332068Y-49447000D01*
X92547582Y-49425774D01*
X92824113Y-49341889D01*
X93078965Y-49205668D01*
X93302345Y-49022345D01*
X93485668Y-48798965D01*
X93621889Y-48544113D01*
X93705774Y-48267582D01*
X93734098Y-47980000D01*
X93705774Y-47692418D01*
X93621889Y-47415887D01*
X93485668Y-47161035D01*
X93302345Y-46937655D01*
X93078965Y-46754332D01*
X92824113Y-46618111D01*
X92547582Y-46534226D01*
X92332068Y-46513000D01*
X90667932Y-46513000D01*
X90452418Y-46534226D01*
X90175887Y-46618111D01*
X89921035Y-46754332D01*
X89697655Y-46937655D01*
X89514332Y-47161035D01*
X89402000Y-47371194D01*
X89402000Y-44500734D01*
X89455820Y-44529502D01*
X89575518Y-44565812D01*
X89700000Y-44578072D01*
X91214250Y-44575000D01*
X91373000Y-44416250D01*
X91373000Y-43027000D01*
X91627000Y-43027000D01*
X91627000Y-44416250D01*
X91785750Y-44575000D01*
X93300000Y-44578072D01*
X93424482Y-44565812D01*
X93544180Y-44529502D01*
X93654494Y-44470537D01*
X93751185Y-44391185D01*
X93830537Y-44294494D01*
X93889502Y-44184180D01*
X93925812Y-44064482D01*
X93938072Y-43940000D01*
X93935000Y-43185750D01*
X93776250Y-43027000D01*
X91627000Y-43027000D01*
X91373000Y-43027000D01*
X91353000Y-43027000D01*
X91353000Y-42773000D01*
X91373000Y-42773000D01*
X91373000Y-41383750D01*
X91627000Y-41383750D01*
X91627000Y-42773000D01*
X93776250Y-42773000D01*
X93935000Y-42614250D01*
X93938072Y-41860000D01*
X93925812Y-41735518D01*
X93889502Y-41615820D01*
X93830537Y-41505506D01*
X93751185Y-41408815D01*
X93654494Y-41329463D01*
X93544180Y-41270498D01*
X93424482Y-41234188D01*
X93300000Y-41221928D01*
X91785750Y-41225000D01*
X91627000Y-41383750D01*
X91373000Y-41383750D01*
X91214250Y-41225000D01*
X89700000Y-41221928D01*
X89575518Y-41234188D01*
X89455820Y-41270498D01*
X89402000Y-41299266D01*
X89402000Y-40527000D01*
X96000000Y-40527000D01*
X96021142Y-40525228D01*
X96045167Y-40518697D01*
X96067456Y-40507605D01*
X96087152Y-40492377D01*
X96103499Y-40473600D01*
X98503499Y-37098600D01*
X98517333Y-37073601D01*
X98524560Y-37049776D01*
X98527000Y-37025000D01*
X98527000Y-31402000D01*
X107873000Y-31402000D01*
X107873000Y-130598000D01*
G36*
X161923000Y-130598000D02*
G01*
X108127000Y-130598000D01*
X108127000Y-127849604D01*
X109473000Y-127849604D01*
X109473000Y-128150396D01*
X109531681Y-128445410D01*
X109646790Y-128723306D01*
X109813901Y-128973406D01*
X110026594Y-129186099D01*
X110276694Y-129353210D01*
X110554590Y-129468319D01*
X110849604Y-129527000D01*
X111150396Y-129527000D01*
X111445410Y-129468319D01*
X111723306Y-129353210D01*
X111973406Y-129186099D01*
X112186099Y-128973406D01*
X112353210Y-128723306D01*
X112468319Y-128445410D01*
X112527000Y-128150396D01*
X112527000Y-127849604D01*
X114473000Y-127849604D01*
X114473000Y-128150396D01*
X114531681Y-128445410D01*
X114646790Y-128723306D01*
X114813901Y-128973406D01*
X115026594Y-129186099D01*
X115276694Y-129353210D01*
X115554590Y-129468319D01*
X115849604Y-129527000D01*
X116150396Y-129527000D01*
X116445410Y-129468319D01*
X116723306Y-129353210D01*
X116942556Y-129206712D01*
X152972893Y-129206712D01*
X153080726Y-129481338D01*
X153387384Y-129632216D01*
X153717585Y-129720369D01*
X154058639Y-129742409D01*
X154397439Y-129697489D01*
X154720966Y-129587336D01*
X154919274Y-129481338D01*
X155027107Y-129206712D01*
X157972893Y-129206712D01*
X158080726Y-129481338D01*
X158387384Y-129632216D01*
X158717585Y-129720369D01*
X159058639Y-129742409D01*
X159397439Y-129697489D01*
X159720966Y-129587336D01*
X159919274Y-129481338D01*
X160027107Y-129206712D01*
X159000000Y-128179605D01*
X157972893Y-129206712D01*
X155027107Y-129206712D01*
X154000000Y-128179605D01*
X152972893Y-129206712D01*
X116942556Y-129206712D01*
X116973406Y-129186099D01*
X117186099Y-128973406D01*
X117353210Y-128723306D01*
X117468319Y-128445410D01*
X117527000Y-128150396D01*
X117527000Y-128058639D01*
X152257591Y-128058639D01*
X152302511Y-128397439D01*
X152412664Y-128720966D01*
X152518662Y-128919274D01*
X152793288Y-129027107D01*
X153820395Y-128000000D01*
X154179605Y-128000000D01*
X155206712Y-129027107D01*
X155481338Y-128919274D01*
X155632216Y-128612616D01*
X155720369Y-128282415D01*
X155734830Y-128058639D01*
X157257591Y-128058639D01*
X157302511Y-128397439D01*
X157412664Y-128720966D01*
X157518662Y-128919274D01*
X157793288Y-129027107D01*
X158820395Y-128000000D01*
X159179605Y-128000000D01*
X160206712Y-129027107D01*
X160481338Y-128919274D01*
X160632216Y-128612616D01*
X160720369Y-128282415D01*
X160742409Y-127941361D01*
X160697489Y-127602561D01*
X160587336Y-127279034D01*
X160481338Y-127080726D01*
X160206712Y-126972893D01*
X159179605Y-128000000D01*
X158820395Y-128000000D01*
X157793288Y-126972893D01*
X157518662Y-127080726D01*
X157367784Y-127387384D01*
X157279631Y-127717585D01*
X157257591Y-128058639D01*
X155734830Y-128058639D01*
X155742409Y-127941361D01*
X155697489Y-127602561D01*
X155587336Y-127279034D01*
X155481338Y-127080726D01*
X155206712Y-126972893D01*
X154179605Y-128000000D01*
X153820395Y-128000000D01*
X152793288Y-126972893D01*
X152518662Y-127080726D01*
X152367784Y-127387384D01*
X152279631Y-127717585D01*
X152257591Y-128058639D01*
X117527000Y-128058639D01*
X117527000Y-127849604D01*
X117468319Y-127554590D01*
X117353210Y-127276694D01*
X117186099Y-127026594D01*
X116973406Y-126813901D01*
X116942557Y-126793288D01*
X152972893Y-126793288D01*
X154000000Y-127820395D01*
X155027107Y-126793288D01*
X157972893Y-126793288D01*
X159000000Y-127820395D01*
X160027107Y-126793288D01*
X159919274Y-126518662D01*
X159612616Y-126367784D01*
X159282415Y-126279631D01*
X158941361Y-126257591D01*
X158602561Y-126302511D01*
X158279034Y-126412664D01*
X158080726Y-126518662D01*
X157972893Y-126793288D01*
X155027107Y-126793288D01*
X154919274Y-126518662D01*
X154612616Y-126367784D01*
X154282415Y-126279631D01*
X153941361Y-126257591D01*
X153602561Y-126302511D01*
X153279034Y-126412664D01*
X153080726Y-126518662D01*
X152972893Y-126793288D01*
X116942557Y-126793288D01*
X116723306Y-126646790D01*
X116445410Y-126531681D01*
X116150396Y-126473000D01*
X115849604Y-126473000D01*
X115554590Y-126531681D01*
X115276694Y-126646790D01*
X115026594Y-126813901D01*
X114813901Y-127026594D01*
X114646790Y-127276694D01*
X114531681Y-127554590D01*
X114473000Y-127849604D01*
X112527000Y-127849604D01*
X112468319Y-127554590D01*
X112353210Y-127276694D01*
X112186099Y-127026594D01*
X111973406Y-126813901D01*
X111723306Y-126646790D01*
X111445410Y-126531681D01*
X111150396Y-126473000D01*
X110849604Y-126473000D01*
X110554590Y-126531681D01*
X110276694Y-126646790D01*
X110026594Y-126813901D01*
X109813901Y-127026594D01*
X109646790Y-127276694D01*
X109531681Y-127554590D01*
X109473000Y-127849604D01*
X108127000Y-127849604D01*
X108127000Y-125706712D01*
X109972893Y-125706712D01*
X110080726Y-125981338D01*
X110387384Y-126132216D01*
X110717585Y-126220369D01*
X111058639Y-126242409D01*
X111397439Y-126197489D01*
X111720966Y-126087336D01*
X111919274Y-125981338D01*
X112027107Y-125706712D01*
X114972893Y-125706712D01*
X115080726Y-125981338D01*
X115387384Y-126132216D01*
X115717585Y-126220369D01*
X116058639Y-126242409D01*
X116397439Y-126197489D01*
X116720966Y-126087336D01*
X116919274Y-125981338D01*
X117027107Y-125706712D01*
X116000000Y-124679605D01*
X114972893Y-125706712D01*
X112027107Y-125706712D01*
X111000000Y-124679605D01*
X109972893Y-125706712D01*
X108127000Y-125706712D01*
X108127000Y-124558639D01*
X109257591Y-124558639D01*
X109302511Y-124897439D01*
X109412664Y-125220966D01*
X109518662Y-125419274D01*
X109793288Y-125527107D01*
X110820395Y-124500000D01*
X111179605Y-124500000D01*
X112206712Y-125527107D01*
X112481338Y-125419274D01*
X112632216Y-125112616D01*
X112720369Y-124782415D01*
X112734830Y-124558639D01*
X114257591Y-124558639D01*
X114302511Y-124897439D01*
X114412664Y-125220966D01*
X114518662Y-125419274D01*
X114793288Y-125527107D01*
X115820395Y-124500000D01*
X116179605Y-124500000D01*
X117206712Y-125527107D01*
X117481338Y-125419274D01*
X117632216Y-125112616D01*
X117720369Y-124782415D01*
X117742409Y-124441361D01*
X117730244Y-124349604D01*
X152473000Y-124349604D01*
X152473000Y-124650396D01*
X152531681Y-124945410D01*
X152646790Y-125223306D01*
X152813901Y-125473406D01*
X153026594Y-125686099D01*
X153276694Y-125853210D01*
X153554590Y-125968319D01*
X153849604Y-126027000D01*
X154150396Y-126027000D01*
X154445410Y-125968319D01*
X154723306Y-125853210D01*
X154973406Y-125686099D01*
X155186099Y-125473406D01*
X155353210Y-125223306D01*
X155468319Y-124945410D01*
X155527000Y-124650396D01*
X155527000Y-124349604D01*
X157473000Y-124349604D01*
X157473000Y-124650396D01*
X157531681Y-124945410D01*
X157646790Y-125223306D01*
X157813901Y-125473406D01*
X158026594Y-125686099D01*
X158276694Y-125853210D01*
X158554590Y-125968319D01*
X158849604Y-126027000D01*
X159150396Y-126027000D01*
X159445410Y-125968319D01*
X159723306Y-125853210D01*
X159973406Y-125686099D01*
X160186099Y-125473406D01*
X160353210Y-125223306D01*
X160468319Y-124945410D01*
X160527000Y-124650396D01*
X160527000Y-124349604D01*
X160468319Y-124054590D01*
X160353210Y-123776694D01*
X160186099Y-123526594D01*
X159973406Y-123313901D01*
X159723306Y-123146790D01*
X159445410Y-123031681D01*
X159150396Y-122973000D01*
X158849604Y-122973000D01*
X158554590Y-123031681D01*
X158276694Y-123146790D01*
X158026594Y-123313901D01*
X157813901Y-123526594D01*
X157646790Y-123776694D01*
X157531681Y-124054590D01*
X157473000Y-124349604D01*
X155527000Y-124349604D01*
X155468319Y-124054590D01*
X155353210Y-123776694D01*
X155186099Y-123526594D01*
X154973406Y-123313901D01*
X154723306Y-123146790D01*
X154445410Y-123031681D01*
X154150396Y-122973000D01*
X153849604Y-122973000D01*
X153554590Y-123031681D01*
X153276694Y-123146790D01*
X153026594Y-123313901D01*
X152813901Y-123526594D01*
X152646790Y-123776694D01*
X152531681Y-124054590D01*
X152473000Y-124349604D01*
X117730244Y-124349604D01*
X117697489Y-124102561D01*
X117587336Y-123779034D01*
X117481338Y-123580726D01*
X117206712Y-123472893D01*
X116179605Y-124500000D01*
X115820395Y-124500000D01*
X114793288Y-123472893D01*
X114518662Y-123580726D01*
X114367784Y-123887384D01*
X114279631Y-124217585D01*
X114257591Y-124558639D01*
X112734830Y-124558639D01*
X112742409Y-124441361D01*
X112697489Y-124102561D01*
X112587336Y-123779034D01*
X112481338Y-123580726D01*
X112206712Y-123472893D01*
X111179605Y-124500000D01*
X110820395Y-124500000D01*
X109793288Y-123472893D01*
X109518662Y-123580726D01*
X109367784Y-123887384D01*
X109279631Y-124217585D01*
X109257591Y-124558639D01*
X108127000Y-124558639D01*
X108127000Y-123293288D01*
X109972893Y-123293288D01*
X111000000Y-124320395D01*
X112027107Y-123293288D01*
X114972893Y-123293288D01*
X116000000Y-124320395D01*
X117027107Y-123293288D01*
X116919274Y-123018662D01*
X116612616Y-122867784D01*
X116282415Y-122779631D01*
X115941361Y-122757591D01*
X115602561Y-122802511D01*
X115279034Y-122912664D01*
X115080726Y-123018662D01*
X114972893Y-123293288D01*
X112027107Y-123293288D01*
X111919274Y-123018662D01*
X111612616Y-122867784D01*
X111282415Y-122779631D01*
X110941361Y-122757591D01*
X110602561Y-122802511D01*
X110279034Y-122912664D01*
X110080726Y-123018662D01*
X109972893Y-123293288D01*
X108127000Y-123293288D01*
X108127000Y-121127000D01*
X161923000Y-121127000D01*
X161923000Y-130598000D01*
X161923000Y-130598000D01*
G37*
X161923000Y-130598000D02*
X108127000Y-130598000D01*
X108127000Y-127849604D01*
X109473000Y-127849604D01*
X109473000Y-128150396D01*
X109531681Y-128445410D01*
X109646790Y-128723306D01*
X109813901Y-128973406D01*
X110026594Y-129186099D01*
X110276694Y-129353210D01*
X110554590Y-129468319D01*
X110849604Y-129527000D01*
X111150396Y-129527000D01*
X111445410Y-129468319D01*
X111723306Y-129353210D01*
X111973406Y-129186099D01*
X112186099Y-128973406D01*
X112353210Y-128723306D01*
X112468319Y-128445410D01*
X112527000Y-128150396D01*
X112527000Y-127849604D01*
X114473000Y-127849604D01*
X114473000Y-128150396D01*
X114531681Y-128445410D01*
X114646790Y-128723306D01*
X114813901Y-128973406D01*
X115026594Y-129186099D01*
X115276694Y-129353210D01*
X115554590Y-129468319D01*
X115849604Y-129527000D01*
X116150396Y-129527000D01*
X116445410Y-129468319D01*
X116723306Y-129353210D01*
X116942556Y-129206712D01*
X152972893Y-129206712D01*
X153080726Y-129481338D01*
X153387384Y-129632216D01*
X153717585Y-129720369D01*
X154058639Y-129742409D01*
X154397439Y-129697489D01*
X154720966Y-129587336D01*
X154919274Y-129481338D01*
X155027107Y-129206712D01*
X157972893Y-129206712D01*
X158080726Y-129481338D01*
X158387384Y-129632216D01*
X158717585Y-129720369D01*
X159058639Y-129742409D01*
X159397439Y-129697489D01*
X159720966Y-129587336D01*
X159919274Y-129481338D01*
X160027107Y-129206712D01*
X159000000Y-128179605D01*
X157972893Y-129206712D01*
X155027107Y-129206712D01*
X154000000Y-128179605D01*
X152972893Y-129206712D01*
X116942556Y-129206712D01*
X116973406Y-129186099D01*
X117186099Y-128973406D01*
X117353210Y-128723306D01*
X117468319Y-128445410D01*
X117527000Y-128150396D01*
X117527000Y-128058639D01*
X152257591Y-128058639D01*
X152302511Y-128397439D01*
X152412664Y-128720966D01*
X152518662Y-128919274D01*
X152793288Y-129027107D01*
X153820395Y-128000000D01*
X154179605Y-128000000D01*
X155206712Y-129027107D01*
X155481338Y-128919274D01*
X155632216Y-128612616D01*
X155720369Y-128282415D01*
X155734830Y-128058639D01*
X157257591Y-128058639D01*
X157302511Y-128397439D01*
X157412664Y-128720966D01*
X157518662Y-128919274D01*
X157793288Y-129027107D01*
X158820395Y-128000000D01*
X159179605Y-128000000D01*
X160206712Y-129027107D01*
X160481338Y-128919274D01*
X160632216Y-128612616D01*
X160720369Y-128282415D01*
X160742409Y-127941361D01*
X160697489Y-127602561D01*
X160587336Y-127279034D01*
X160481338Y-127080726D01*
X160206712Y-126972893D01*
X159179605Y-128000000D01*
X158820395Y-128000000D01*
X157793288Y-126972893D01*
X157518662Y-127080726D01*
X157367784Y-127387384D01*
X157279631Y-127717585D01*
X157257591Y-128058639D01*
X155734830Y-128058639D01*
X155742409Y-127941361D01*
X155697489Y-127602561D01*
X155587336Y-127279034D01*
X155481338Y-127080726D01*
X155206712Y-126972893D01*
X154179605Y-128000000D01*
X153820395Y-128000000D01*
X152793288Y-126972893D01*
X152518662Y-127080726D01*
X152367784Y-127387384D01*
X152279631Y-127717585D01*
X152257591Y-128058639D01*
X117527000Y-128058639D01*
X117527000Y-127849604D01*
X117468319Y-127554590D01*
X117353210Y-127276694D01*
X117186099Y-127026594D01*
X116973406Y-126813901D01*
X116942557Y-126793288D01*
X152972893Y-126793288D01*
X154000000Y-127820395D01*
X155027107Y-126793288D01*
X157972893Y-126793288D01*
X159000000Y-127820395D01*
X160027107Y-126793288D01*
X159919274Y-126518662D01*
X159612616Y-126367784D01*
X159282415Y-126279631D01*
X158941361Y-126257591D01*
X158602561Y-126302511D01*
X158279034Y-126412664D01*
X158080726Y-126518662D01*
X157972893Y-126793288D01*
X155027107Y-126793288D01*
X154919274Y-126518662D01*
X154612616Y-126367784D01*
X154282415Y-126279631D01*
X153941361Y-126257591D01*
X153602561Y-126302511D01*
X153279034Y-126412664D01*
X153080726Y-126518662D01*
X152972893Y-126793288D01*
X116942557Y-126793288D01*
X116723306Y-126646790D01*
X116445410Y-126531681D01*
X116150396Y-126473000D01*
X115849604Y-126473000D01*
X115554590Y-126531681D01*
X115276694Y-126646790D01*
X115026594Y-126813901D01*
X114813901Y-127026594D01*
X114646790Y-127276694D01*
X114531681Y-127554590D01*
X114473000Y-127849604D01*
X112527000Y-127849604D01*
X112468319Y-127554590D01*
X112353210Y-127276694D01*
X112186099Y-127026594D01*
X111973406Y-126813901D01*
X111723306Y-126646790D01*
X111445410Y-126531681D01*
X111150396Y-126473000D01*
X110849604Y-126473000D01*
X110554590Y-126531681D01*
X110276694Y-126646790D01*
X110026594Y-126813901D01*
X109813901Y-127026594D01*
X109646790Y-127276694D01*
X109531681Y-127554590D01*
X109473000Y-127849604D01*
X108127000Y-127849604D01*
X108127000Y-125706712D01*
X109972893Y-125706712D01*
X110080726Y-125981338D01*
X110387384Y-126132216D01*
X110717585Y-126220369D01*
X111058639Y-126242409D01*
X111397439Y-126197489D01*
X111720966Y-126087336D01*
X111919274Y-125981338D01*
X112027107Y-125706712D01*
X114972893Y-125706712D01*
X115080726Y-125981338D01*
X115387384Y-126132216D01*
X115717585Y-126220369D01*
X116058639Y-126242409D01*
X116397439Y-126197489D01*
X116720966Y-126087336D01*
X116919274Y-125981338D01*
X117027107Y-125706712D01*
X116000000Y-124679605D01*
X114972893Y-125706712D01*
X112027107Y-125706712D01*
X111000000Y-124679605D01*
X109972893Y-125706712D01*
X108127000Y-125706712D01*
X108127000Y-124558639D01*
X109257591Y-124558639D01*
X109302511Y-124897439D01*
X109412664Y-125220966D01*
X109518662Y-125419274D01*
X109793288Y-125527107D01*
X110820395Y-124500000D01*
X111179605Y-124500000D01*
X112206712Y-125527107D01*
X112481338Y-125419274D01*
X112632216Y-125112616D01*
X112720369Y-124782415D01*
X112734830Y-124558639D01*
X114257591Y-124558639D01*
X114302511Y-124897439D01*
X114412664Y-125220966D01*
X114518662Y-125419274D01*
X114793288Y-125527107D01*
X115820395Y-124500000D01*
X116179605Y-124500000D01*
X117206712Y-125527107D01*
X117481338Y-125419274D01*
X117632216Y-125112616D01*
X117720369Y-124782415D01*
X117742409Y-124441361D01*
X117730244Y-124349604D01*
X152473000Y-124349604D01*
X152473000Y-124650396D01*
X152531681Y-124945410D01*
X152646790Y-125223306D01*
X152813901Y-125473406D01*
X153026594Y-125686099D01*
X153276694Y-125853210D01*
X153554590Y-125968319D01*
X153849604Y-126027000D01*
X154150396Y-126027000D01*
X154445410Y-125968319D01*
X154723306Y-125853210D01*
X154973406Y-125686099D01*
X155186099Y-125473406D01*
X155353210Y-125223306D01*
X155468319Y-124945410D01*
X155527000Y-124650396D01*
X155527000Y-124349604D01*
X157473000Y-124349604D01*
X157473000Y-124650396D01*
X157531681Y-124945410D01*
X157646790Y-125223306D01*
X157813901Y-125473406D01*
X158026594Y-125686099D01*
X158276694Y-125853210D01*
X158554590Y-125968319D01*
X158849604Y-126027000D01*
X159150396Y-126027000D01*
X159445410Y-125968319D01*
X159723306Y-125853210D01*
X159973406Y-125686099D01*
X160186099Y-125473406D01*
X160353210Y-125223306D01*
X160468319Y-124945410D01*
X160527000Y-124650396D01*
X160527000Y-124349604D01*
X160468319Y-124054590D01*
X160353210Y-123776694D01*
X160186099Y-123526594D01*
X159973406Y-123313901D01*
X159723306Y-123146790D01*
X159445410Y-123031681D01*
X159150396Y-122973000D01*
X158849604Y-122973000D01*
X158554590Y-123031681D01*
X158276694Y-123146790D01*
X158026594Y-123313901D01*
X157813901Y-123526594D01*
X157646790Y-123776694D01*
X157531681Y-124054590D01*
X157473000Y-124349604D01*
X155527000Y-124349604D01*
X155468319Y-124054590D01*
X155353210Y-123776694D01*
X155186099Y-123526594D01*
X154973406Y-123313901D01*
X154723306Y-123146790D01*
X154445410Y-123031681D01*
X154150396Y-122973000D01*
X153849604Y-122973000D01*
X153554590Y-123031681D01*
X153276694Y-123146790D01*
X153026594Y-123313901D01*
X152813901Y-123526594D01*
X152646790Y-123776694D01*
X152531681Y-124054590D01*
X152473000Y-124349604D01*
X117730244Y-124349604D01*
X117697489Y-124102561D01*
X117587336Y-123779034D01*
X117481338Y-123580726D01*
X117206712Y-123472893D01*
X116179605Y-124500000D01*
X115820395Y-124500000D01*
X114793288Y-123472893D01*
X114518662Y-123580726D01*
X114367784Y-123887384D01*
X114279631Y-124217585D01*
X114257591Y-124558639D01*
X112734830Y-124558639D01*
X112742409Y-124441361D01*
X112697489Y-124102561D01*
X112587336Y-123779034D01*
X112481338Y-123580726D01*
X112206712Y-123472893D01*
X111179605Y-124500000D01*
X110820395Y-124500000D01*
X109793288Y-123472893D01*
X109518662Y-123580726D01*
X109367784Y-123887384D01*
X109279631Y-124217585D01*
X109257591Y-124558639D01*
X108127000Y-124558639D01*
X108127000Y-123293288D01*
X109972893Y-123293288D01*
X111000000Y-124320395D01*
X112027107Y-123293288D01*
X114972893Y-123293288D01*
X116000000Y-124320395D01*
X117027107Y-123293288D01*
X116919274Y-123018662D01*
X116612616Y-122867784D01*
X116282415Y-122779631D01*
X115941361Y-122757591D01*
X115602561Y-122802511D01*
X115279034Y-122912664D01*
X115080726Y-123018662D01*
X114972893Y-123293288D01*
X112027107Y-123293288D01*
X111919274Y-123018662D01*
X111612616Y-122867784D01*
X111282415Y-122779631D01*
X110941361Y-122757591D01*
X110602561Y-122802511D01*
X110279034Y-122912664D01*
X110080726Y-123018662D01*
X109972893Y-123293288D01*
X108127000Y-123293288D01*
X108127000Y-121127000D01*
X161923000Y-121127000D01*
X161923000Y-130598000D01*
G36*
X161923000Y-40873000D02*
G01*
X108127000Y-40873000D01*
X108127000Y-38706712D01*
X109972893Y-38706712D01*
X110080726Y-38981338D01*
X110387384Y-39132216D01*
X110717585Y-39220369D01*
X111058639Y-39242409D01*
X111397439Y-39197489D01*
X111720966Y-39087336D01*
X111919274Y-38981338D01*
X112027107Y-38706712D01*
X114972893Y-38706712D01*
X115080726Y-38981338D01*
X115387384Y-39132216D01*
X115717585Y-39220369D01*
X116058639Y-39242409D01*
X116397439Y-39197489D01*
X116720966Y-39087336D01*
X116919274Y-38981338D01*
X117027107Y-38706712D01*
X116000000Y-37679605D01*
X114972893Y-38706712D01*
X112027107Y-38706712D01*
X111000000Y-37679605D01*
X109972893Y-38706712D01*
X108127000Y-38706712D01*
X108127000Y-37558639D01*
X109257591Y-37558639D01*
X109302511Y-37897439D01*
X109412664Y-38220966D01*
X109518662Y-38419274D01*
X109793288Y-38527107D01*
X110820395Y-37500000D01*
X111179605Y-37500000D01*
X112206712Y-38527107D01*
X112481338Y-38419274D01*
X112632216Y-38112616D01*
X112720369Y-37782415D01*
X112734830Y-37558639D01*
X114257591Y-37558639D01*
X114302511Y-37897439D01*
X114412664Y-38220966D01*
X114518662Y-38419274D01*
X114793288Y-38527107D01*
X115820395Y-37500000D01*
X116179605Y-37500000D01*
X117206712Y-38527107D01*
X117481338Y-38419274D01*
X117632216Y-38112616D01*
X117720369Y-37782415D01*
X117742409Y-37441361D01*
X117730244Y-37349604D01*
X152473000Y-37349604D01*
X152473000Y-37650396D01*
X152531681Y-37945410D01*
X152646790Y-38223306D01*
X152813901Y-38473406D01*
X153026594Y-38686099D01*
X153276694Y-38853210D01*
X153554590Y-38968319D01*
X153849604Y-39027000D01*
X154150396Y-39027000D01*
X154445410Y-38968319D01*
X154723306Y-38853210D01*
X154973406Y-38686099D01*
X155186099Y-38473406D01*
X155353210Y-38223306D01*
X155468319Y-37945410D01*
X155527000Y-37650396D01*
X155527000Y-37349604D01*
X157473000Y-37349604D01*
X157473000Y-37650396D01*
X157531681Y-37945410D01*
X157646790Y-38223306D01*
X157813901Y-38473406D01*
X158026594Y-38686099D01*
X158276694Y-38853210D01*
X158554590Y-38968319D01*
X158849604Y-39027000D01*
X159150396Y-39027000D01*
X159445410Y-38968319D01*
X159723306Y-38853210D01*
X159973406Y-38686099D01*
X160186099Y-38473406D01*
X160353210Y-38223306D01*
X160468319Y-37945410D01*
X160527000Y-37650396D01*
X160527000Y-37349604D01*
X160468319Y-37054590D01*
X160353210Y-36776694D01*
X160186099Y-36526594D01*
X159973406Y-36313901D01*
X159723306Y-36146790D01*
X159445410Y-36031681D01*
X159150396Y-35973000D01*
X158849604Y-35973000D01*
X158554590Y-36031681D01*
X158276694Y-36146790D01*
X158026594Y-36313901D01*
X157813901Y-36526594D01*
X157646790Y-36776694D01*
X157531681Y-37054590D01*
X157473000Y-37349604D01*
X155527000Y-37349604D01*
X155468319Y-37054590D01*
X155353210Y-36776694D01*
X155186099Y-36526594D01*
X154973406Y-36313901D01*
X154723306Y-36146790D01*
X154445410Y-36031681D01*
X154150396Y-35973000D01*
X153849604Y-35973000D01*
X153554590Y-36031681D01*
X153276694Y-36146790D01*
X153026594Y-36313901D01*
X152813901Y-36526594D01*
X152646790Y-36776694D01*
X152531681Y-37054590D01*
X152473000Y-37349604D01*
X117730244Y-37349604D01*
X117697489Y-37102561D01*
X117587336Y-36779034D01*
X117481338Y-36580726D01*
X117206712Y-36472893D01*
X116179605Y-37500000D01*
X115820395Y-37500000D01*
X114793288Y-36472893D01*
X114518662Y-36580726D01*
X114367784Y-36887384D01*
X114279631Y-37217585D01*
X114257591Y-37558639D01*
X112734830Y-37558639D01*
X112742409Y-37441361D01*
X112697489Y-37102561D01*
X112587336Y-36779034D01*
X112481338Y-36580726D01*
X112206712Y-36472893D01*
X111179605Y-37500000D01*
X110820395Y-37500000D01*
X109793288Y-36472893D01*
X109518662Y-36580726D01*
X109367784Y-36887384D01*
X109279631Y-37217585D01*
X109257591Y-37558639D01*
X108127000Y-37558639D01*
X108127000Y-36293288D01*
X109972893Y-36293288D01*
X111000000Y-37320395D01*
X112027107Y-36293288D01*
X114972893Y-36293288D01*
X116000000Y-37320395D01*
X117027107Y-36293288D01*
X116919274Y-36018662D01*
X116612616Y-35867784D01*
X116282415Y-35779631D01*
X115941361Y-35757591D01*
X115602561Y-35802511D01*
X115279034Y-35912664D01*
X115080726Y-36018662D01*
X114972893Y-36293288D01*
X112027107Y-36293288D01*
X111919274Y-36018662D01*
X111612616Y-35867784D01*
X111282415Y-35779631D01*
X110941361Y-35757591D01*
X110602561Y-35802511D01*
X110279034Y-35912664D01*
X110080726Y-36018662D01*
X109972893Y-36293288D01*
X108127000Y-36293288D01*
X108127000Y-33849604D01*
X109473000Y-33849604D01*
X109473000Y-34150396D01*
X109531681Y-34445410D01*
X109646790Y-34723306D01*
X109813901Y-34973406D01*
X110026594Y-35186099D01*
X110276694Y-35353210D01*
X110554590Y-35468319D01*
X110849604Y-35527000D01*
X111150396Y-35527000D01*
X111445410Y-35468319D01*
X111723306Y-35353210D01*
X111973406Y-35186099D01*
X112186099Y-34973406D01*
X112353210Y-34723306D01*
X112468319Y-34445410D01*
X112527000Y-34150396D01*
X112527000Y-33849604D01*
X114473000Y-33849604D01*
X114473000Y-34150396D01*
X114531681Y-34445410D01*
X114646790Y-34723306D01*
X114813901Y-34973406D01*
X115026594Y-35186099D01*
X115276694Y-35353210D01*
X115554590Y-35468319D01*
X115849604Y-35527000D01*
X116150396Y-35527000D01*
X116445410Y-35468319D01*
X116723306Y-35353210D01*
X116942556Y-35206712D01*
X152972893Y-35206712D01*
X153080726Y-35481338D01*
X153387384Y-35632216D01*
X153717585Y-35720369D01*
X154058639Y-35742409D01*
X154397439Y-35697489D01*
X154720966Y-35587336D01*
X154919274Y-35481338D01*
X155027107Y-35206712D01*
X157972893Y-35206712D01*
X158080726Y-35481338D01*
X158387384Y-35632216D01*
X158717585Y-35720369D01*
X159058639Y-35742409D01*
X159397439Y-35697489D01*
X159720966Y-35587336D01*
X159919274Y-35481338D01*
X160027107Y-35206712D01*
X159000000Y-34179605D01*
X157972893Y-35206712D01*
X155027107Y-35206712D01*
X154000000Y-34179605D01*
X152972893Y-35206712D01*
X116942556Y-35206712D01*
X116973406Y-35186099D01*
X117186099Y-34973406D01*
X117353210Y-34723306D01*
X117468319Y-34445410D01*
X117527000Y-34150396D01*
X117527000Y-34058639D01*
X152257591Y-34058639D01*
X152302511Y-34397439D01*
X152412664Y-34720966D01*
X152518662Y-34919274D01*
X152793288Y-35027107D01*
X153820395Y-34000000D01*
X154179605Y-34000000D01*
X155206712Y-35027107D01*
X155481338Y-34919274D01*
X155632216Y-34612616D01*
X155720369Y-34282415D01*
X155734830Y-34058639D01*
X157257591Y-34058639D01*
X157302511Y-34397439D01*
X157412664Y-34720966D01*
X157518662Y-34919274D01*
X157793288Y-35027107D01*
X158820395Y-34000000D01*
X159179605Y-34000000D01*
X160206712Y-35027107D01*
X160481338Y-34919274D01*
X160632216Y-34612616D01*
X160720369Y-34282415D01*
X160742409Y-33941361D01*
X160697489Y-33602561D01*
X160587336Y-33279034D01*
X160481338Y-33080726D01*
X160206712Y-32972893D01*
X159179605Y-34000000D01*
X158820395Y-34000000D01*
X157793288Y-32972893D01*
X157518662Y-33080726D01*
X157367784Y-33387384D01*
X157279631Y-33717585D01*
X157257591Y-34058639D01*
X155734830Y-34058639D01*
X155742409Y-33941361D01*
X155697489Y-33602561D01*
X155587336Y-33279034D01*
X155481338Y-33080726D01*
X155206712Y-32972893D01*
X154179605Y-34000000D01*
X153820395Y-34000000D01*
X152793288Y-32972893D01*
X152518662Y-33080726D01*
X152367784Y-33387384D01*
X152279631Y-33717585D01*
X152257591Y-34058639D01*
X117527000Y-34058639D01*
X117527000Y-33849604D01*
X117468319Y-33554590D01*
X117353210Y-33276694D01*
X117186099Y-33026594D01*
X116973406Y-32813901D01*
X116942557Y-32793288D01*
X152972893Y-32793288D01*
X154000000Y-33820395D01*
X155027107Y-32793288D01*
X157972893Y-32793288D01*
X159000000Y-33820395D01*
X160027107Y-32793288D01*
X159919274Y-32518662D01*
X159612616Y-32367784D01*
X159282415Y-32279631D01*
X158941361Y-32257591D01*
X158602561Y-32302511D01*
X158279034Y-32412664D01*
X158080726Y-32518662D01*
X157972893Y-32793288D01*
X155027107Y-32793288D01*
X154919274Y-32518662D01*
X154612616Y-32367784D01*
X154282415Y-32279631D01*
X153941361Y-32257591D01*
X153602561Y-32302511D01*
X153279034Y-32412664D01*
X153080726Y-32518662D01*
X152972893Y-32793288D01*
X116942557Y-32793288D01*
X116723306Y-32646790D01*
X116445410Y-32531681D01*
X116150396Y-32473000D01*
X115849604Y-32473000D01*
X115554590Y-32531681D01*
X115276694Y-32646790D01*
X115026594Y-32813901D01*
X114813901Y-33026594D01*
X114646790Y-33276694D01*
X114531681Y-33554590D01*
X114473000Y-33849604D01*
X112527000Y-33849604D01*
X112468319Y-33554590D01*
X112353210Y-33276694D01*
X112186099Y-33026594D01*
X111973406Y-32813901D01*
X111723306Y-32646790D01*
X111445410Y-32531681D01*
X111150396Y-32473000D01*
X110849604Y-32473000D01*
X110554590Y-32531681D01*
X110276694Y-32646790D01*
X110026594Y-32813901D01*
X109813901Y-33026594D01*
X109646790Y-33276694D01*
X109531681Y-33554590D01*
X109473000Y-33849604D01*
X108127000Y-33849604D01*
X108127000Y-31402000D01*
X161923000Y-31402000D01*
X161923000Y-40873000D01*
X161923000Y-40873000D01*
G37*
X161923000Y-40873000D02*
X108127000Y-40873000D01*
X108127000Y-38706712D01*
X109972893Y-38706712D01*
X110080726Y-38981338D01*
X110387384Y-39132216D01*
X110717585Y-39220369D01*
X111058639Y-39242409D01*
X111397439Y-39197489D01*
X111720966Y-39087336D01*
X111919274Y-38981338D01*
X112027107Y-38706712D01*
X114972893Y-38706712D01*
X115080726Y-38981338D01*
X115387384Y-39132216D01*
X115717585Y-39220369D01*
X116058639Y-39242409D01*
X116397439Y-39197489D01*
X116720966Y-39087336D01*
X116919274Y-38981338D01*
X117027107Y-38706712D01*
X116000000Y-37679605D01*
X114972893Y-38706712D01*
X112027107Y-38706712D01*
X111000000Y-37679605D01*
X109972893Y-38706712D01*
X108127000Y-38706712D01*
X108127000Y-37558639D01*
X109257591Y-37558639D01*
X109302511Y-37897439D01*
X109412664Y-38220966D01*
X109518662Y-38419274D01*
X109793288Y-38527107D01*
X110820395Y-37500000D01*
X111179605Y-37500000D01*
X112206712Y-38527107D01*
X112481338Y-38419274D01*
X112632216Y-38112616D01*
X112720369Y-37782415D01*
X112734830Y-37558639D01*
X114257591Y-37558639D01*
X114302511Y-37897439D01*
X114412664Y-38220966D01*
X114518662Y-38419274D01*
X114793288Y-38527107D01*
X115820395Y-37500000D01*
X116179605Y-37500000D01*
X117206712Y-38527107D01*
X117481338Y-38419274D01*
X117632216Y-38112616D01*
X117720369Y-37782415D01*
X117742409Y-37441361D01*
X117730244Y-37349604D01*
X152473000Y-37349604D01*
X152473000Y-37650396D01*
X152531681Y-37945410D01*
X152646790Y-38223306D01*
X152813901Y-38473406D01*
X153026594Y-38686099D01*
X153276694Y-38853210D01*
X153554590Y-38968319D01*
X153849604Y-39027000D01*
X154150396Y-39027000D01*
X154445410Y-38968319D01*
X154723306Y-38853210D01*
X154973406Y-38686099D01*
X155186099Y-38473406D01*
X155353210Y-38223306D01*
X155468319Y-37945410D01*
X155527000Y-37650396D01*
X155527000Y-37349604D01*
X157473000Y-37349604D01*
X157473000Y-37650396D01*
X157531681Y-37945410D01*
X157646790Y-38223306D01*
X157813901Y-38473406D01*
X158026594Y-38686099D01*
X158276694Y-38853210D01*
X158554590Y-38968319D01*
X158849604Y-39027000D01*
X159150396Y-39027000D01*
X159445410Y-38968319D01*
X159723306Y-38853210D01*
X159973406Y-38686099D01*
X160186099Y-38473406D01*
X160353210Y-38223306D01*
X160468319Y-37945410D01*
X160527000Y-37650396D01*
X160527000Y-37349604D01*
X160468319Y-37054590D01*
X160353210Y-36776694D01*
X160186099Y-36526594D01*
X159973406Y-36313901D01*
X159723306Y-36146790D01*
X159445410Y-36031681D01*
X159150396Y-35973000D01*
X158849604Y-35973000D01*
X158554590Y-36031681D01*
X158276694Y-36146790D01*
X158026594Y-36313901D01*
X157813901Y-36526594D01*
X157646790Y-36776694D01*
X157531681Y-37054590D01*
X157473000Y-37349604D01*
X155527000Y-37349604D01*
X155468319Y-37054590D01*
X155353210Y-36776694D01*
X155186099Y-36526594D01*
X154973406Y-36313901D01*
X154723306Y-36146790D01*
X154445410Y-36031681D01*
X154150396Y-35973000D01*
X153849604Y-35973000D01*
X153554590Y-36031681D01*
X153276694Y-36146790D01*
X153026594Y-36313901D01*
X152813901Y-36526594D01*
X152646790Y-36776694D01*
X152531681Y-37054590D01*
X152473000Y-37349604D01*
X117730244Y-37349604D01*
X117697489Y-37102561D01*
X117587336Y-36779034D01*
X117481338Y-36580726D01*
X117206712Y-36472893D01*
X116179605Y-37500000D01*
X115820395Y-37500000D01*
X114793288Y-36472893D01*
X114518662Y-36580726D01*
X114367784Y-36887384D01*
X114279631Y-37217585D01*
X114257591Y-37558639D01*
X112734830Y-37558639D01*
X112742409Y-37441361D01*
X112697489Y-37102561D01*
X112587336Y-36779034D01*
X112481338Y-36580726D01*
X112206712Y-36472893D01*
X111179605Y-37500000D01*
X110820395Y-37500000D01*
X109793288Y-36472893D01*
X109518662Y-36580726D01*
X109367784Y-36887384D01*
X109279631Y-37217585D01*
X109257591Y-37558639D01*
X108127000Y-37558639D01*
X108127000Y-36293288D01*
X109972893Y-36293288D01*
X111000000Y-37320395D01*
X112027107Y-36293288D01*
X114972893Y-36293288D01*
X116000000Y-37320395D01*
X117027107Y-36293288D01*
X116919274Y-36018662D01*
X116612616Y-35867784D01*
X116282415Y-35779631D01*
X115941361Y-35757591D01*
X115602561Y-35802511D01*
X115279034Y-35912664D01*
X115080726Y-36018662D01*
X114972893Y-36293288D01*
X112027107Y-36293288D01*
X111919274Y-36018662D01*
X111612616Y-35867784D01*
X111282415Y-35779631D01*
X110941361Y-35757591D01*
X110602561Y-35802511D01*
X110279034Y-35912664D01*
X110080726Y-36018662D01*
X109972893Y-36293288D01*
X108127000Y-36293288D01*
X108127000Y-33849604D01*
X109473000Y-33849604D01*
X109473000Y-34150396D01*
X109531681Y-34445410D01*
X109646790Y-34723306D01*
X109813901Y-34973406D01*
X110026594Y-35186099D01*
X110276694Y-35353210D01*
X110554590Y-35468319D01*
X110849604Y-35527000D01*
X111150396Y-35527000D01*
X111445410Y-35468319D01*
X111723306Y-35353210D01*
X111973406Y-35186099D01*
X112186099Y-34973406D01*
X112353210Y-34723306D01*
X112468319Y-34445410D01*
X112527000Y-34150396D01*
X112527000Y-33849604D01*
X114473000Y-33849604D01*
X114473000Y-34150396D01*
X114531681Y-34445410D01*
X114646790Y-34723306D01*
X114813901Y-34973406D01*
X115026594Y-35186099D01*
X115276694Y-35353210D01*
X115554590Y-35468319D01*
X115849604Y-35527000D01*
X116150396Y-35527000D01*
X116445410Y-35468319D01*
X116723306Y-35353210D01*
X116942556Y-35206712D01*
X152972893Y-35206712D01*
X153080726Y-35481338D01*
X153387384Y-35632216D01*
X153717585Y-35720369D01*
X154058639Y-35742409D01*
X154397439Y-35697489D01*
X154720966Y-35587336D01*
X154919274Y-35481338D01*
X155027107Y-35206712D01*
X157972893Y-35206712D01*
X158080726Y-35481338D01*
X158387384Y-35632216D01*
X158717585Y-35720369D01*
X159058639Y-35742409D01*
X159397439Y-35697489D01*
X159720966Y-35587336D01*
X159919274Y-35481338D01*
X160027107Y-35206712D01*
X159000000Y-34179605D01*
X157972893Y-35206712D01*
X155027107Y-35206712D01*
X154000000Y-34179605D01*
X152972893Y-35206712D01*
X116942556Y-35206712D01*
X116973406Y-35186099D01*
X117186099Y-34973406D01*
X117353210Y-34723306D01*
X117468319Y-34445410D01*
X117527000Y-34150396D01*
X117527000Y-34058639D01*
X152257591Y-34058639D01*
X152302511Y-34397439D01*
X152412664Y-34720966D01*
X152518662Y-34919274D01*
X152793288Y-35027107D01*
X153820395Y-34000000D01*
X154179605Y-34000000D01*
X155206712Y-35027107D01*
X155481338Y-34919274D01*
X155632216Y-34612616D01*
X155720369Y-34282415D01*
X155734830Y-34058639D01*
X157257591Y-34058639D01*
X157302511Y-34397439D01*
X157412664Y-34720966D01*
X157518662Y-34919274D01*
X157793288Y-35027107D01*
X158820395Y-34000000D01*
X159179605Y-34000000D01*
X160206712Y-35027107D01*
X160481338Y-34919274D01*
X160632216Y-34612616D01*
X160720369Y-34282415D01*
X160742409Y-33941361D01*
X160697489Y-33602561D01*
X160587336Y-33279034D01*
X160481338Y-33080726D01*
X160206712Y-32972893D01*
X159179605Y-34000000D01*
X158820395Y-34000000D01*
X157793288Y-32972893D01*
X157518662Y-33080726D01*
X157367784Y-33387384D01*
X157279631Y-33717585D01*
X157257591Y-34058639D01*
X155734830Y-34058639D01*
X155742409Y-33941361D01*
X155697489Y-33602561D01*
X155587336Y-33279034D01*
X155481338Y-33080726D01*
X155206712Y-32972893D01*
X154179605Y-34000000D01*
X153820395Y-34000000D01*
X152793288Y-32972893D01*
X152518662Y-33080726D01*
X152367784Y-33387384D01*
X152279631Y-33717585D01*
X152257591Y-34058639D01*
X117527000Y-34058639D01*
X117527000Y-33849604D01*
X117468319Y-33554590D01*
X117353210Y-33276694D01*
X117186099Y-33026594D01*
X116973406Y-32813901D01*
X116942557Y-32793288D01*
X152972893Y-32793288D01*
X154000000Y-33820395D01*
X155027107Y-32793288D01*
X157972893Y-32793288D01*
X159000000Y-33820395D01*
X160027107Y-32793288D01*
X159919274Y-32518662D01*
X159612616Y-32367784D01*
X159282415Y-32279631D01*
X158941361Y-32257591D01*
X158602561Y-32302511D01*
X158279034Y-32412664D01*
X158080726Y-32518662D01*
X157972893Y-32793288D01*
X155027107Y-32793288D01*
X154919274Y-32518662D01*
X154612616Y-32367784D01*
X154282415Y-32279631D01*
X153941361Y-32257591D01*
X153602561Y-32302511D01*
X153279034Y-32412664D01*
X153080726Y-32518662D01*
X152972893Y-32793288D01*
X116942557Y-32793288D01*
X116723306Y-32646790D01*
X116445410Y-32531681D01*
X116150396Y-32473000D01*
X115849604Y-32473000D01*
X115554590Y-32531681D01*
X115276694Y-32646790D01*
X115026594Y-32813901D01*
X114813901Y-33026594D01*
X114646790Y-33276694D01*
X114531681Y-33554590D01*
X114473000Y-33849604D01*
X112527000Y-33849604D01*
X112468319Y-33554590D01*
X112353210Y-33276694D01*
X112186099Y-33026594D01*
X111973406Y-32813901D01*
X111723306Y-32646790D01*
X111445410Y-32531681D01*
X111150396Y-32473000D01*
X110849604Y-32473000D01*
X110554590Y-32531681D01*
X110276694Y-32646790D01*
X110026594Y-32813901D01*
X109813901Y-33026594D01*
X109646790Y-33276694D01*
X109531681Y-33554590D01*
X109473000Y-33849604D01*
X108127000Y-33849604D01*
X108127000Y-31402000D01*
X161923000Y-31402000D01*
X161923000Y-40873000D01*
G36*
X155873000Y-119873000D02*
G01*
X114127000Y-119873000D01*
X114127000Y-96685000D01*
X132441822Y-96685000D01*
X132466478Y-96935336D01*
X132539498Y-97176051D01*
X132658076Y-97397896D01*
X132817656Y-97592344D01*
X133012104Y-97751924D01*
X133233949Y-97870502D01*
X133474664Y-97943522D01*
X133591202Y-97955000D01*
X133474664Y-97966478D01*
X133233949Y-98039498D01*
X133012104Y-98158076D01*
X132817656Y-98317656D01*
X132658076Y-98512104D01*
X132539498Y-98733949D01*
X132466478Y-98974664D01*
X132441822Y-99225000D01*
X132466478Y-99475336D01*
X132539498Y-99716051D01*
X132658076Y-99937896D01*
X132817656Y-100132344D01*
X133012104Y-100291924D01*
X133233949Y-100410502D01*
X133474664Y-100483522D01*
X133591202Y-100495000D01*
X133474664Y-100506478D01*
X133233949Y-100579498D01*
X133012104Y-100698076D01*
X132817656Y-100857656D01*
X132658076Y-101052104D01*
X132539498Y-101273949D01*
X132466478Y-101514664D01*
X132441822Y-101765000D01*
X132466478Y-102015336D01*
X132539498Y-102256051D01*
X132658076Y-102477896D01*
X132817656Y-102672344D01*
X133012104Y-102831924D01*
X133233949Y-102950502D01*
X133474664Y-103023522D01*
X133591202Y-103035000D01*
X133474664Y-103046478D01*
X133233949Y-103119498D01*
X133012104Y-103238076D01*
X132817656Y-103397656D01*
X132658076Y-103592104D01*
X132539498Y-103813949D01*
X132466478Y-104054664D01*
X132441822Y-104305000D01*
X132466478Y-104555336D01*
X132539498Y-104796051D01*
X132658076Y-105017896D01*
X132817656Y-105212344D01*
X133012104Y-105371924D01*
X133233949Y-105490502D01*
X133474664Y-105563522D01*
X133591202Y-105575000D01*
X133474664Y-105586478D01*
X133233949Y-105659498D01*
X133012104Y-105778076D01*
X132817656Y-105937656D01*
X132658076Y-106132104D01*
X132539498Y-106353949D01*
X132466478Y-106594664D01*
X132441822Y-106845000D01*
X132466478Y-107095336D01*
X132539498Y-107336051D01*
X132658076Y-107557896D01*
X132817656Y-107752344D01*
X133012104Y-107911924D01*
X133233949Y-108030502D01*
X133474664Y-108103522D01*
X133591202Y-108115000D01*
X133474664Y-108126478D01*
X133233949Y-108199498D01*
X133012104Y-108318076D01*
X132817656Y-108477656D01*
X132658076Y-108672104D01*
X132539498Y-108893949D01*
X132466478Y-109134664D01*
X132441822Y-109385000D01*
X132466478Y-109635336D01*
X132539498Y-109876051D01*
X132658076Y-110097896D01*
X132817656Y-110292344D01*
X133012104Y-110451924D01*
X133233949Y-110570502D01*
X133474664Y-110643522D01*
X133591202Y-110655000D01*
X133474664Y-110666478D01*
X133233949Y-110739498D01*
X133012104Y-110858076D01*
X132817656Y-111017656D01*
X132658076Y-111212104D01*
X132539498Y-111433949D01*
X132466478Y-111674664D01*
X132441822Y-111925000D01*
X132466478Y-112175336D01*
X132539498Y-112416051D01*
X132658076Y-112637896D01*
X132817656Y-112832344D01*
X133012104Y-112991924D01*
X133233949Y-113110502D01*
X133474664Y-113183522D01*
X133591202Y-113195000D01*
X133474664Y-113206478D01*
X133233949Y-113279498D01*
X133012104Y-113398076D01*
X132817656Y-113557656D01*
X132658076Y-113752104D01*
X132539498Y-113973949D01*
X132466478Y-114214664D01*
X132441822Y-114465000D01*
X132466478Y-114715336D01*
X132539498Y-114956051D01*
X132658076Y-115177896D01*
X132817656Y-115372344D01*
X133012104Y-115531924D01*
X133233949Y-115650502D01*
X133474664Y-115723522D01*
X133591202Y-115735000D01*
X133474664Y-115746478D01*
X133233949Y-115819498D01*
X133012104Y-115938076D01*
X132817656Y-116097656D01*
X132658076Y-116292104D01*
X132539498Y-116513949D01*
X132466478Y-116754664D01*
X132441822Y-117005000D01*
X132466478Y-117255336D01*
X132539498Y-117496051D01*
X132658076Y-117717896D01*
X132817656Y-117912344D01*
X133012104Y-118071924D01*
X133233949Y-118190502D01*
X133474664Y-118263522D01*
X133662274Y-118282000D01*
X133787726Y-118282000D01*
X133975336Y-118263522D01*
X134216051Y-118190502D01*
X134437896Y-118071924D01*
X134632344Y-117912344D01*
X134791924Y-117717896D01*
X134910502Y-117496051D01*
X134983522Y-117255336D01*
X134995000Y-117138798D01*
X135006478Y-117255336D01*
X135079498Y-117496051D01*
X135198076Y-117717896D01*
X135357656Y-117912344D01*
X135552104Y-118071924D01*
X135773949Y-118190502D01*
X136014664Y-118263522D01*
X136202274Y-118282000D01*
X136327726Y-118282000D01*
X136515336Y-118263522D01*
X136756051Y-118190502D01*
X136977896Y-118071924D01*
X137172344Y-117912344D01*
X137331924Y-117717896D01*
X137450502Y-117496051D01*
X137523522Y-117255336D01*
X137548178Y-117005000D01*
X137523522Y-116754664D01*
X137450502Y-116513949D01*
X137331924Y-116292104D01*
X137172344Y-116097656D01*
X136977896Y-115938076D01*
X136756051Y-115819498D01*
X136515336Y-115746478D01*
X136398798Y-115735000D01*
X136515336Y-115723522D01*
X136756051Y-115650502D01*
X136977896Y-115531924D01*
X137172344Y-115372344D01*
X137331924Y-115177896D01*
X137450502Y-114956051D01*
X137523522Y-114715336D01*
X137548178Y-114465000D01*
X137523522Y-114214664D01*
X137450502Y-113973949D01*
X137331924Y-113752104D01*
X137172344Y-113557656D01*
X136977896Y-113398076D01*
X136756051Y-113279498D01*
X136515336Y-113206478D01*
X136398798Y-113195000D01*
X136515336Y-113183522D01*
X136756051Y-113110502D01*
X136977896Y-112991924D01*
X137172344Y-112832344D01*
X137331924Y-112637896D01*
X137450502Y-112416051D01*
X137523522Y-112175336D01*
X137548178Y-111925000D01*
X137523522Y-111674664D01*
X137450502Y-111433949D01*
X137331924Y-111212104D01*
X137172344Y-111017656D01*
X136977896Y-110858076D01*
X136756051Y-110739498D01*
X136515336Y-110666478D01*
X136398798Y-110655000D01*
X136515336Y-110643522D01*
X136756051Y-110570502D01*
X136977896Y-110451924D01*
X137172344Y-110292344D01*
X137331924Y-110097896D01*
X137450502Y-109876051D01*
X137523522Y-109635336D01*
X137548178Y-109385000D01*
X137523522Y-109134664D01*
X137450502Y-108893949D01*
X137331924Y-108672104D01*
X137172344Y-108477656D01*
X136977896Y-108318076D01*
X136756051Y-108199498D01*
X136515336Y-108126478D01*
X136398798Y-108115000D01*
X136515336Y-108103522D01*
X136756051Y-108030502D01*
X136977896Y-107911924D01*
X137172344Y-107752344D01*
X137331924Y-107557896D01*
X137450502Y-107336051D01*
X137523522Y-107095336D01*
X137548178Y-106845000D01*
X137523522Y-106594664D01*
X137450502Y-106353949D01*
X137331924Y-106132104D01*
X137172344Y-105937656D01*
X136977896Y-105778076D01*
X136756051Y-105659498D01*
X136515336Y-105586478D01*
X136398798Y-105575000D01*
X136515336Y-105563522D01*
X136756051Y-105490502D01*
X136977896Y-105371924D01*
X137172344Y-105212344D01*
X137331924Y-105017896D01*
X137450502Y-104796051D01*
X137523522Y-104555336D01*
X137548178Y-104305000D01*
X137523522Y-104054664D01*
X137450502Y-103813949D01*
X137331924Y-103592104D01*
X137172344Y-103397656D01*
X136977896Y-103238076D01*
X136756051Y-103119498D01*
X136515336Y-103046478D01*
X136398798Y-103035000D01*
X136515336Y-103023522D01*
X136756051Y-102950502D01*
X136977896Y-102831924D01*
X137172344Y-102672344D01*
X137331924Y-102477896D01*
X137450502Y-102256051D01*
X137523522Y-102015336D01*
X137548178Y-101765000D01*
X137523522Y-101514664D01*
X137450502Y-101273949D01*
X137331924Y-101052104D01*
X137172344Y-100857656D01*
X136977896Y-100698076D01*
X136756051Y-100579498D01*
X136515336Y-100506478D01*
X136398798Y-100495000D01*
X136515336Y-100483522D01*
X136756051Y-100410502D01*
X136977896Y-100291924D01*
X137172344Y-100132344D01*
X137331924Y-99937896D01*
X137450502Y-99716051D01*
X137523522Y-99475336D01*
X137548178Y-99225000D01*
X137523522Y-98974664D01*
X137450502Y-98733949D01*
X137331924Y-98512104D01*
X137172344Y-98317656D01*
X136977896Y-98158076D01*
X136756051Y-98039498D01*
X136515336Y-97966478D01*
X136398798Y-97955000D01*
X136515336Y-97943522D01*
X136756051Y-97870502D01*
X136977896Y-97751924D01*
X137172344Y-97592344D01*
X137331924Y-97397896D01*
X137450502Y-97176051D01*
X137523522Y-96935336D01*
X137548178Y-96685000D01*
X137523522Y-96434664D01*
X137450502Y-96193949D01*
X137331924Y-95972104D01*
X137172344Y-95777656D01*
X136977896Y-95618076D01*
X136756051Y-95499498D01*
X136515336Y-95426478D01*
X136398798Y-95415000D01*
X136515336Y-95403522D01*
X136756051Y-95330502D01*
X136977896Y-95211924D01*
X137172344Y-95052344D01*
X137331924Y-94857896D01*
X137450502Y-94636051D01*
X137523522Y-94395336D01*
X137548178Y-94145000D01*
X137523522Y-93894664D01*
X137450502Y-93653949D01*
X137331924Y-93432104D01*
X137172344Y-93237656D01*
X136977896Y-93078076D01*
X136756051Y-92959498D01*
X136515336Y-92886478D01*
X136327726Y-92868000D01*
X136202274Y-92868000D01*
X136014664Y-92886478D01*
X135773949Y-92959498D01*
X135552104Y-93078076D01*
X135357656Y-93237656D01*
X135198076Y-93432104D01*
X135079498Y-93653949D01*
X135006478Y-93894664D01*
X135004066Y-93919153D01*
X135004066Y-93295000D01*
X134995822Y-93211293D01*
X134971405Y-93130804D01*
X134931755Y-93056624D01*
X134878395Y-92991605D01*
X134813376Y-92938245D01*
X134739196Y-92898595D01*
X134658707Y-92874178D01*
X134575000Y-92865934D01*
X132875000Y-92865934D01*
X132791293Y-92874178D01*
X132710804Y-92898595D01*
X132636624Y-92938245D01*
X132571605Y-92991605D01*
X132518245Y-93056624D01*
X132478595Y-93130804D01*
X132454178Y-93211293D01*
X132445934Y-93295000D01*
X132445934Y-94995000D01*
X132454178Y-95078707D01*
X132478595Y-95159196D01*
X132518245Y-95233376D01*
X132571605Y-95298395D01*
X132636624Y-95351755D01*
X132710804Y-95391405D01*
X132791293Y-95415822D01*
X132875000Y-95424066D01*
X133499153Y-95424066D01*
X133474664Y-95426478D01*
X133233949Y-95499498D01*
X133012104Y-95618076D01*
X132817656Y-95777656D01*
X132658076Y-95972104D01*
X132539498Y-96193949D01*
X132466478Y-96434664D01*
X132441822Y-96685000D01*
X114127000Y-96685000D01*
X114127000Y-42127000D01*
X155873000Y-42127000D01*
X155873000Y-119873000D01*
X155873000Y-119873000D01*
G37*
X155873000Y-119873000D02*
X114127000Y-119873000D01*
X114127000Y-96685000D01*
X132441822Y-96685000D01*
X132466478Y-96935336D01*
X132539498Y-97176051D01*
X132658076Y-97397896D01*
X132817656Y-97592344D01*
X133012104Y-97751924D01*
X133233949Y-97870502D01*
X133474664Y-97943522D01*
X133591202Y-97955000D01*
X133474664Y-97966478D01*
X133233949Y-98039498D01*
X133012104Y-98158076D01*
X132817656Y-98317656D01*
X132658076Y-98512104D01*
X132539498Y-98733949D01*
X132466478Y-98974664D01*
X132441822Y-99225000D01*
X132466478Y-99475336D01*
X132539498Y-99716051D01*
X132658076Y-99937896D01*
X132817656Y-100132344D01*
X133012104Y-100291924D01*
X133233949Y-100410502D01*
X133474664Y-100483522D01*
X133591202Y-100495000D01*
X133474664Y-100506478D01*
X133233949Y-100579498D01*
X133012104Y-100698076D01*
X132817656Y-100857656D01*
X132658076Y-101052104D01*
X132539498Y-101273949D01*
X132466478Y-101514664D01*
X132441822Y-101765000D01*
X132466478Y-102015336D01*
X132539498Y-102256051D01*
X132658076Y-102477896D01*
X132817656Y-102672344D01*
X133012104Y-102831924D01*
X133233949Y-102950502D01*
X133474664Y-103023522D01*
X133591202Y-103035000D01*
X133474664Y-103046478D01*
X133233949Y-103119498D01*
X133012104Y-103238076D01*
X132817656Y-103397656D01*
X132658076Y-103592104D01*
X132539498Y-103813949D01*
X132466478Y-104054664D01*
X132441822Y-104305000D01*
X132466478Y-104555336D01*
X132539498Y-104796051D01*
X132658076Y-105017896D01*
X132817656Y-105212344D01*
X133012104Y-105371924D01*
X133233949Y-105490502D01*
X133474664Y-105563522D01*
X133591202Y-105575000D01*
X133474664Y-105586478D01*
X133233949Y-105659498D01*
X133012104Y-105778076D01*
X132817656Y-105937656D01*
X132658076Y-106132104D01*
X132539498Y-106353949D01*
X132466478Y-106594664D01*
X132441822Y-106845000D01*
X132466478Y-107095336D01*
X132539498Y-107336051D01*
X132658076Y-107557896D01*
X132817656Y-107752344D01*
X133012104Y-107911924D01*
X133233949Y-108030502D01*
X133474664Y-108103522D01*
X133591202Y-108115000D01*
X133474664Y-108126478D01*
X133233949Y-108199498D01*
X133012104Y-108318076D01*
X132817656Y-108477656D01*
X132658076Y-108672104D01*
X132539498Y-108893949D01*
X132466478Y-109134664D01*
X132441822Y-109385000D01*
X132466478Y-109635336D01*
X132539498Y-109876051D01*
X132658076Y-110097896D01*
X132817656Y-110292344D01*
X133012104Y-110451924D01*
X133233949Y-110570502D01*
X133474664Y-110643522D01*
X133591202Y-110655000D01*
X133474664Y-110666478D01*
X133233949Y-110739498D01*
X133012104Y-110858076D01*
X132817656Y-111017656D01*
X132658076Y-111212104D01*
X132539498Y-111433949D01*
X132466478Y-111674664D01*
X132441822Y-111925000D01*
X132466478Y-112175336D01*
X132539498Y-112416051D01*
X132658076Y-112637896D01*
X132817656Y-112832344D01*
X133012104Y-112991924D01*
X133233949Y-113110502D01*
X133474664Y-113183522D01*
X133591202Y-113195000D01*
X133474664Y-113206478D01*
X133233949Y-113279498D01*
X133012104Y-113398076D01*
X132817656Y-113557656D01*
X132658076Y-113752104D01*
X132539498Y-113973949D01*
X132466478Y-114214664D01*
X132441822Y-114465000D01*
X132466478Y-114715336D01*
X132539498Y-114956051D01*
X132658076Y-115177896D01*
X132817656Y-115372344D01*
X133012104Y-115531924D01*
X133233949Y-115650502D01*
X133474664Y-115723522D01*
X133591202Y-115735000D01*
X133474664Y-115746478D01*
X133233949Y-115819498D01*
X133012104Y-115938076D01*
X132817656Y-116097656D01*
X132658076Y-116292104D01*
X132539498Y-116513949D01*
X132466478Y-116754664D01*
X132441822Y-117005000D01*
X132466478Y-117255336D01*
X132539498Y-117496051D01*
X132658076Y-117717896D01*
X132817656Y-117912344D01*
X133012104Y-118071924D01*
X133233949Y-118190502D01*
X133474664Y-118263522D01*
X133662274Y-118282000D01*
X133787726Y-118282000D01*
X133975336Y-118263522D01*
X134216051Y-118190502D01*
X134437896Y-118071924D01*
X134632344Y-117912344D01*
X134791924Y-117717896D01*
X134910502Y-117496051D01*
X134983522Y-117255336D01*
X134995000Y-117138798D01*
X135006478Y-117255336D01*
X135079498Y-117496051D01*
X135198076Y-117717896D01*
X135357656Y-117912344D01*
X135552104Y-118071924D01*
X135773949Y-118190502D01*
X136014664Y-118263522D01*
X136202274Y-118282000D01*
X136327726Y-118282000D01*
X136515336Y-118263522D01*
X136756051Y-118190502D01*
X136977896Y-118071924D01*
X137172344Y-117912344D01*
X137331924Y-117717896D01*
X137450502Y-117496051D01*
X137523522Y-117255336D01*
X137548178Y-117005000D01*
X137523522Y-116754664D01*
X137450502Y-116513949D01*
X137331924Y-116292104D01*
X137172344Y-116097656D01*
X136977896Y-115938076D01*
X136756051Y-115819498D01*
X136515336Y-115746478D01*
X136398798Y-115735000D01*
X136515336Y-115723522D01*
X136756051Y-115650502D01*
X136977896Y-115531924D01*
X137172344Y-115372344D01*
X137331924Y-115177896D01*
X137450502Y-114956051D01*
X137523522Y-114715336D01*
X137548178Y-114465000D01*
X137523522Y-114214664D01*
X137450502Y-113973949D01*
X137331924Y-113752104D01*
X137172344Y-113557656D01*
X136977896Y-113398076D01*
X136756051Y-113279498D01*
X136515336Y-113206478D01*
X136398798Y-113195000D01*
X136515336Y-113183522D01*
X136756051Y-113110502D01*
X136977896Y-112991924D01*
X137172344Y-112832344D01*
X137331924Y-112637896D01*
X137450502Y-112416051D01*
X137523522Y-112175336D01*
X137548178Y-111925000D01*
X137523522Y-111674664D01*
X137450502Y-111433949D01*
X137331924Y-111212104D01*
X137172344Y-111017656D01*
X136977896Y-110858076D01*
X136756051Y-110739498D01*
X136515336Y-110666478D01*
X136398798Y-110655000D01*
X136515336Y-110643522D01*
X136756051Y-110570502D01*
X136977896Y-110451924D01*
X137172344Y-110292344D01*
X137331924Y-110097896D01*
X137450502Y-109876051D01*
X137523522Y-109635336D01*
X137548178Y-109385000D01*
X137523522Y-109134664D01*
X137450502Y-108893949D01*
X137331924Y-108672104D01*
X137172344Y-108477656D01*
X136977896Y-108318076D01*
X136756051Y-108199498D01*
X136515336Y-108126478D01*
X136398798Y-108115000D01*
X136515336Y-108103522D01*
X136756051Y-108030502D01*
X136977896Y-107911924D01*
X137172344Y-107752344D01*
X137331924Y-107557896D01*
X137450502Y-107336051D01*
X137523522Y-107095336D01*
X137548178Y-106845000D01*
X137523522Y-106594664D01*
X137450502Y-106353949D01*
X137331924Y-106132104D01*
X137172344Y-105937656D01*
X136977896Y-105778076D01*
X136756051Y-105659498D01*
X136515336Y-105586478D01*
X136398798Y-105575000D01*
X136515336Y-105563522D01*
X136756051Y-105490502D01*
X136977896Y-105371924D01*
X137172344Y-105212344D01*
X137331924Y-105017896D01*
X137450502Y-104796051D01*
X137523522Y-104555336D01*
X137548178Y-104305000D01*
X137523522Y-104054664D01*
X137450502Y-103813949D01*
X137331924Y-103592104D01*
X137172344Y-103397656D01*
X136977896Y-103238076D01*
X136756051Y-103119498D01*
X136515336Y-103046478D01*
X136398798Y-103035000D01*
X136515336Y-103023522D01*
X136756051Y-102950502D01*
X136977896Y-102831924D01*
X137172344Y-102672344D01*
X137331924Y-102477896D01*
X137450502Y-102256051D01*
X137523522Y-102015336D01*
X137548178Y-101765000D01*
X137523522Y-101514664D01*
X137450502Y-101273949D01*
X137331924Y-101052104D01*
X137172344Y-100857656D01*
X136977896Y-100698076D01*
X136756051Y-100579498D01*
X136515336Y-100506478D01*
X136398798Y-100495000D01*
X136515336Y-100483522D01*
X136756051Y-100410502D01*
X136977896Y-100291924D01*
X137172344Y-100132344D01*
X137331924Y-99937896D01*
X137450502Y-99716051D01*
X137523522Y-99475336D01*
X137548178Y-99225000D01*
X137523522Y-98974664D01*
X137450502Y-98733949D01*
X137331924Y-98512104D01*
X137172344Y-98317656D01*
X136977896Y-98158076D01*
X136756051Y-98039498D01*
X136515336Y-97966478D01*
X136398798Y-97955000D01*
X136515336Y-97943522D01*
X136756051Y-97870502D01*
X136977896Y-97751924D01*
X137172344Y-97592344D01*
X137331924Y-97397896D01*
X137450502Y-97176051D01*
X137523522Y-96935336D01*
X137548178Y-96685000D01*
X137523522Y-96434664D01*
X137450502Y-96193949D01*
X137331924Y-95972104D01*
X137172344Y-95777656D01*
X136977896Y-95618076D01*
X136756051Y-95499498D01*
X136515336Y-95426478D01*
X136398798Y-95415000D01*
X136515336Y-95403522D01*
X136756051Y-95330502D01*
X136977896Y-95211924D01*
X137172344Y-95052344D01*
X137331924Y-94857896D01*
X137450502Y-94636051D01*
X137523522Y-94395336D01*
X137548178Y-94145000D01*
X137523522Y-93894664D01*
X137450502Y-93653949D01*
X137331924Y-93432104D01*
X137172344Y-93237656D01*
X136977896Y-93078076D01*
X136756051Y-92959498D01*
X136515336Y-92886478D01*
X136327726Y-92868000D01*
X136202274Y-92868000D01*
X136014664Y-92886478D01*
X135773949Y-92959498D01*
X135552104Y-93078076D01*
X135357656Y-93237656D01*
X135198076Y-93432104D01*
X135079498Y-93653949D01*
X135006478Y-93894664D01*
X135004066Y-93919153D01*
X135004066Y-93295000D01*
X134995822Y-93211293D01*
X134971405Y-93130804D01*
X134931755Y-93056624D01*
X134878395Y-92991605D01*
X134813376Y-92938245D01*
X134739196Y-92898595D01*
X134658707Y-92874178D01*
X134575000Y-92865934D01*
X132875000Y-92865934D01*
X132791293Y-92874178D01*
X132710804Y-92898595D01*
X132636624Y-92938245D01*
X132571605Y-92991605D01*
X132518245Y-93056624D01*
X132478595Y-93130804D01*
X132454178Y-93211293D01*
X132445934Y-93295000D01*
X132445934Y-94995000D01*
X132454178Y-95078707D01*
X132478595Y-95159196D01*
X132518245Y-95233376D01*
X132571605Y-95298395D01*
X132636624Y-95351755D01*
X132710804Y-95391405D01*
X132791293Y-95415822D01*
X132875000Y-95424066D01*
X133499153Y-95424066D01*
X133474664Y-95426478D01*
X133233949Y-95499498D01*
X133012104Y-95618076D01*
X132817656Y-95777656D01*
X132658076Y-95972104D01*
X132539498Y-96193949D01*
X132466478Y-96434664D01*
X132441822Y-96685000D01*
X114127000Y-96685000D01*
X114127000Y-42127000D01*
X155873000Y-42127000D01*
X155873000Y-119873000D01*
G36*
X171473000Y-38000000D02*
G01*
X171474772Y-38021142D01*
X171481303Y-38045167D01*
X171492395Y-38067456D01*
X171507623Y-38087152D01*
X171526400Y-38103499D01*
X174901400Y-40503499D01*
X174926399Y-40517333D01*
X174950224Y-40524560D01*
X174975000Y-40527000D01*
X180598001Y-40527000D01*
X180598001Y-41896374D01*
X180534206Y-41805398D01*
X180296176Y-41577845D01*
X180018327Y-41401102D01*
X179711336Y-41281961D01*
X179387000Y-41225000D01*
X178627000Y-41225000D01*
X178627000Y-42773000D01*
X178647000Y-42773000D01*
X178647000Y-43027000D01*
X178627000Y-43027000D01*
X178627000Y-44575000D01*
X179387000Y-44575000D01*
X179711336Y-44518039D01*
X180018327Y-44398898D01*
X180296176Y-44222155D01*
X180534206Y-43994602D01*
X180598001Y-43903626D01*
X180598001Y-47371195D01*
X180485668Y-47161035D01*
X180302345Y-46937655D01*
X180078965Y-46754332D01*
X179824113Y-46618111D01*
X179547582Y-46534226D01*
X179332068Y-46513000D01*
X177667932Y-46513000D01*
X177452418Y-46534226D01*
X177175887Y-46618111D01*
X176921035Y-46754332D01*
X176697655Y-46937655D01*
X176514332Y-47161035D01*
X176378111Y-47415887D01*
X176294226Y-47692418D01*
X176265902Y-47980000D01*
X176294226Y-48267582D01*
X176378111Y-48544113D01*
X176514332Y-48798965D01*
X176697655Y-49022345D01*
X176921035Y-49205668D01*
X177175887Y-49341889D01*
X177452418Y-49425774D01*
X177667932Y-49447000D01*
X179332068Y-49447000D01*
X179547582Y-49425774D01*
X179824113Y-49341889D01*
X180078965Y-49205668D01*
X180302345Y-49022345D01*
X180485668Y-48798965D01*
X180598001Y-48588805D01*
X180598001Y-52056374D01*
X180534206Y-51965398D01*
X180296176Y-51737845D01*
X180018327Y-51561102D01*
X179711336Y-51441961D01*
X179387000Y-51385000D01*
X178627000Y-51385000D01*
X178627000Y-52933000D01*
X178647000Y-52933000D01*
X178647000Y-53187000D01*
X178627000Y-53187000D01*
X178627000Y-54735000D01*
X179387000Y-54735000D01*
X179711336Y-54678039D01*
X180018327Y-54558898D01*
X180296176Y-54382155D01*
X180534206Y-54154602D01*
X180598001Y-54063626D01*
X180598001Y-57531195D01*
X180485668Y-57321035D01*
X180302345Y-57097655D01*
X180078965Y-56914332D01*
X179824113Y-56778111D01*
X179547582Y-56694226D01*
X179332068Y-56673000D01*
X177667932Y-56673000D01*
X177452418Y-56694226D01*
X177175887Y-56778111D01*
X176921035Y-56914332D01*
X176697655Y-57097655D01*
X176514332Y-57321035D01*
X176378111Y-57575887D01*
X176294226Y-57852418D01*
X176265902Y-58140000D01*
X176294226Y-58427582D01*
X176378111Y-58704113D01*
X176514332Y-58958965D01*
X176697655Y-59182345D01*
X176921035Y-59365668D01*
X177175887Y-59501889D01*
X177452418Y-59585774D01*
X177667932Y-59607000D01*
X179332068Y-59607000D01*
X179547582Y-59585774D01*
X179824113Y-59501889D01*
X180078965Y-59365668D01*
X180302345Y-59182345D01*
X180485668Y-58958965D01*
X180598001Y-58748805D01*
X180598001Y-62216374D01*
X180534206Y-62125398D01*
X180296176Y-61897845D01*
X180018327Y-61721102D01*
X179711336Y-61601961D01*
X179387000Y-61545000D01*
X178627000Y-61545000D01*
X178627000Y-63093000D01*
X178647000Y-63093000D01*
X178647000Y-63347000D01*
X178627000Y-63347000D01*
X178627000Y-64895000D01*
X179387000Y-64895000D01*
X179711336Y-64838039D01*
X180018327Y-64718898D01*
X180296176Y-64542155D01*
X180534206Y-64314602D01*
X180598001Y-64223626D01*
X180598001Y-67691195D01*
X180485668Y-67481035D01*
X180302345Y-67257655D01*
X180078965Y-67074332D01*
X179824113Y-66938111D01*
X179547582Y-66854226D01*
X179332068Y-66833000D01*
X177667932Y-66833000D01*
X177452418Y-66854226D01*
X177175887Y-66938111D01*
X176921035Y-67074332D01*
X176697655Y-67257655D01*
X176514332Y-67481035D01*
X176378111Y-67735887D01*
X176294226Y-68012418D01*
X176265902Y-68300000D01*
X176294226Y-68587582D01*
X176378111Y-68864113D01*
X176514332Y-69118965D01*
X176697655Y-69342345D01*
X176921035Y-69525668D01*
X177175887Y-69661889D01*
X177452418Y-69745774D01*
X177667932Y-69767000D01*
X179332068Y-69767000D01*
X179547582Y-69745774D01*
X179824113Y-69661889D01*
X180078965Y-69525668D01*
X180302345Y-69342345D01*
X180485668Y-69118965D01*
X180598001Y-68908805D01*
X180598001Y-72376374D01*
X180534206Y-72285398D01*
X180296176Y-72057845D01*
X180018327Y-71881102D01*
X179711336Y-71761961D01*
X179387000Y-71705000D01*
X178627000Y-71705000D01*
X178627000Y-73253000D01*
X178647000Y-73253000D01*
X178647000Y-73507000D01*
X178627000Y-73507000D01*
X178627000Y-75055000D01*
X179387000Y-75055000D01*
X179711336Y-74998039D01*
X180018327Y-74878898D01*
X180296176Y-74702155D01*
X180534206Y-74474602D01*
X180598001Y-74383626D01*
X180598001Y-77851195D01*
X180485668Y-77641035D01*
X180302345Y-77417655D01*
X180078965Y-77234332D01*
X179824113Y-77098111D01*
X179547582Y-77014226D01*
X179332068Y-76993000D01*
X177667932Y-76993000D01*
X177452418Y-77014226D01*
X177175887Y-77098111D01*
X176921035Y-77234332D01*
X176697655Y-77417655D01*
X176514332Y-77641035D01*
X176378111Y-77895887D01*
X176294226Y-78172418D01*
X176265902Y-78460000D01*
X176294226Y-78747582D01*
X176378111Y-79024113D01*
X176514332Y-79278965D01*
X176697655Y-79502345D01*
X176921035Y-79685668D01*
X177175887Y-79821889D01*
X177452418Y-79905774D01*
X177667932Y-79927000D01*
X179332068Y-79927000D01*
X179547582Y-79905774D01*
X179824113Y-79821889D01*
X180078965Y-79685668D01*
X180302345Y-79502345D01*
X180485668Y-79278965D01*
X180598001Y-79068805D01*
X180598000Y-82536374D01*
X180534206Y-82445398D01*
X180296176Y-82217845D01*
X180018327Y-82041102D01*
X179711336Y-81921961D01*
X179387000Y-81865000D01*
X178627000Y-81865000D01*
X178627000Y-83413000D01*
X178647000Y-83413000D01*
X178647000Y-83667000D01*
X178627000Y-83667000D01*
X178627000Y-85215000D01*
X179387000Y-85215000D01*
X179711336Y-85158039D01*
X180018327Y-85038898D01*
X180296176Y-84862155D01*
X180534206Y-84634602D01*
X180598000Y-84543626D01*
X180598000Y-88011195D01*
X180485668Y-87801035D01*
X180302345Y-87577655D01*
X180078965Y-87394332D01*
X179824113Y-87258111D01*
X179547582Y-87174226D01*
X179332068Y-87153000D01*
X177667932Y-87153000D01*
X177452418Y-87174226D01*
X177175887Y-87258111D01*
X176921035Y-87394332D01*
X176697655Y-87577655D01*
X176514332Y-87801035D01*
X176378111Y-88055887D01*
X176294226Y-88332418D01*
X176265902Y-88620000D01*
X176294226Y-88907582D01*
X176378111Y-89184113D01*
X176514332Y-89438965D01*
X176697655Y-89662345D01*
X176921035Y-89845668D01*
X177175887Y-89981889D01*
X177452418Y-90065774D01*
X177667932Y-90087000D01*
X179332068Y-90087000D01*
X179547582Y-90065774D01*
X179824113Y-89981889D01*
X180078965Y-89845668D01*
X180302345Y-89662345D01*
X180485668Y-89438965D01*
X180598000Y-89228805D01*
X180598000Y-92696374D01*
X180534206Y-92605398D01*
X180296176Y-92377845D01*
X180018327Y-92201102D01*
X179711336Y-92081961D01*
X179387000Y-92025000D01*
X178627000Y-92025000D01*
X178627000Y-93573000D01*
X178647000Y-93573000D01*
X178647000Y-93827000D01*
X178627000Y-93827000D01*
X178627000Y-95375000D01*
X179387000Y-95375000D01*
X179711336Y-95318039D01*
X180018327Y-95198898D01*
X180296176Y-95022155D01*
X180534206Y-94794602D01*
X180598000Y-94703626D01*
X180598000Y-98171194D01*
X180485668Y-97961035D01*
X180302345Y-97737655D01*
X180078965Y-97554332D01*
X179824113Y-97418111D01*
X179547582Y-97334226D01*
X179332068Y-97313000D01*
X177667932Y-97313000D01*
X177452418Y-97334226D01*
X177175887Y-97418111D01*
X176921035Y-97554332D01*
X176697655Y-97737655D01*
X176514332Y-97961035D01*
X176378111Y-98215887D01*
X176294226Y-98492418D01*
X176265902Y-98780000D01*
X176294226Y-99067582D01*
X176378111Y-99344113D01*
X176514332Y-99598965D01*
X176697655Y-99822345D01*
X176921035Y-100005668D01*
X177175887Y-100141889D01*
X177452418Y-100225774D01*
X177667932Y-100247000D01*
X179332068Y-100247000D01*
X179547582Y-100225774D01*
X179824113Y-100141889D01*
X180078965Y-100005668D01*
X180302345Y-99822345D01*
X180485668Y-99598965D01*
X180598000Y-99388806D01*
X180598000Y-102856373D01*
X180534206Y-102765398D01*
X180296176Y-102537845D01*
X180018327Y-102361102D01*
X179711336Y-102241961D01*
X179387000Y-102185000D01*
X178627000Y-102185000D01*
X178627000Y-103733000D01*
X178647000Y-103733000D01*
X178647000Y-103987000D01*
X178627000Y-103987000D01*
X178627000Y-105535000D01*
X179387000Y-105535000D01*
X179711336Y-105478039D01*
X180018327Y-105358898D01*
X180296176Y-105182155D01*
X180534206Y-104954602D01*
X180598000Y-104863627D01*
X180598000Y-108331194D01*
X180485668Y-108121035D01*
X180302345Y-107897655D01*
X180078965Y-107714332D01*
X179824113Y-107578111D01*
X179547582Y-107494226D01*
X179332068Y-107473000D01*
X177667932Y-107473000D01*
X177452418Y-107494226D01*
X177175887Y-107578111D01*
X176921035Y-107714332D01*
X176697655Y-107897655D01*
X176514332Y-108121035D01*
X176378111Y-108375887D01*
X176294226Y-108652418D01*
X176265902Y-108940000D01*
X176294226Y-109227582D01*
X176378111Y-109504113D01*
X176514332Y-109758965D01*
X176697655Y-109982345D01*
X176921035Y-110165668D01*
X177175887Y-110301889D01*
X177452418Y-110385774D01*
X177667932Y-110407000D01*
X179332068Y-110407000D01*
X179547582Y-110385774D01*
X179824113Y-110301889D01*
X180078965Y-110165668D01*
X180302345Y-109982345D01*
X180485668Y-109758965D01*
X180598000Y-109548806D01*
X180598000Y-113016373D01*
X180534206Y-112925398D01*
X180296176Y-112697845D01*
X180018327Y-112521102D01*
X179711336Y-112401961D01*
X179387000Y-112345000D01*
X178627000Y-112345000D01*
X178627000Y-113893000D01*
X178647000Y-113893000D01*
X178647000Y-114147000D01*
X178627000Y-114147000D01*
X178627000Y-115695000D01*
X179387000Y-115695000D01*
X179711336Y-115638039D01*
X180018327Y-115518898D01*
X180296176Y-115342155D01*
X180534206Y-115114602D01*
X180598000Y-115023627D01*
X180598000Y-117912476D01*
X180530172Y-117829828D01*
X180427269Y-117745377D01*
X180309868Y-117682625D01*
X180182480Y-117643982D01*
X180050001Y-117630934D01*
X176949999Y-117630934D01*
X176817520Y-117643982D01*
X176690132Y-117682625D01*
X176572731Y-117745377D01*
X176469828Y-117829828D01*
X176385377Y-117932731D01*
X176322625Y-118050132D01*
X176283982Y-118177520D01*
X176270934Y-118309999D01*
X176270934Y-119890001D01*
X176283982Y-120022480D01*
X176322625Y-120149868D01*
X176385377Y-120267269D01*
X176469828Y-120370172D01*
X176572731Y-120454623D01*
X176690132Y-120517375D01*
X176817520Y-120556018D01*
X176949999Y-120569066D01*
X180050001Y-120569066D01*
X180182480Y-120556018D01*
X180309868Y-120517375D01*
X180427269Y-120454623D01*
X180530172Y-120370172D01*
X180598000Y-120287524D01*
X180598000Y-128727892D01*
X180560679Y-129108523D01*
X180456558Y-129453392D01*
X180287434Y-129771468D01*
X180059748Y-130050638D01*
X179782178Y-130280264D01*
X179465291Y-130451604D01*
X179121156Y-130558132D01*
X178741835Y-130598000D01*
X162177000Y-130598000D01*
X162177000Y-126246188D01*
X173923000Y-126246188D01*
X173923000Y-126753812D01*
X174022033Y-127251683D01*
X174216292Y-127720667D01*
X174498313Y-128142742D01*
X174857258Y-128501687D01*
X175279333Y-128783708D01*
X175748317Y-128977967D01*
X176246188Y-129077000D01*
X176753812Y-129077000D01*
X177251683Y-128977967D01*
X177720667Y-128783708D01*
X178142742Y-128501687D01*
X178501687Y-128142742D01*
X178783708Y-127720667D01*
X178977967Y-127251683D01*
X179077000Y-126753812D01*
X179077000Y-126246188D01*
X178977967Y-125748317D01*
X178783708Y-125279333D01*
X178501687Y-124857258D01*
X178142742Y-124498313D01*
X177720667Y-124216292D01*
X177251683Y-124022033D01*
X176753812Y-123923000D01*
X176246188Y-123923000D01*
X175748317Y-124022033D01*
X175279333Y-124216292D01*
X174857258Y-124498313D01*
X174498313Y-124857258D01*
X174216292Y-125279333D01*
X174022033Y-125748317D01*
X173923000Y-126246188D01*
X162177000Y-126246188D01*
X162177000Y-114406710D01*
X176110252Y-114406710D01*
X176143901Y-114543663D01*
X176276731Y-114844984D01*
X176465794Y-115114602D01*
X176703824Y-115342155D01*
X176981673Y-115518898D01*
X177288664Y-115638039D01*
X177613000Y-115695000D01*
X178373000Y-115695000D01*
X178373000Y-114147000D01*
X176229078Y-114147000D01*
X176110252Y-114406710D01*
X162177000Y-114406710D01*
X162177000Y-113633290D01*
X176110252Y-113633290D01*
X176229078Y-113893000D01*
X178373000Y-113893000D01*
X178373000Y-112345000D01*
X177613000Y-112345000D01*
X177288664Y-112401961D01*
X176981673Y-112521102D01*
X176703824Y-112697845D01*
X176465794Y-112925398D01*
X176276731Y-113195016D01*
X176143901Y-113496337D01*
X176110252Y-113633290D01*
X162177000Y-113633290D01*
X162177000Y-104246710D01*
X176110252Y-104246710D01*
X176143901Y-104383663D01*
X176276731Y-104684984D01*
X176465794Y-104954602D01*
X176703824Y-105182155D01*
X176981673Y-105358898D01*
X177288664Y-105478039D01*
X177613000Y-105535000D01*
X178373000Y-105535000D01*
X178373000Y-103987000D01*
X176229078Y-103987000D01*
X176110252Y-104246710D01*
X162177000Y-104246710D01*
X162177000Y-103473290D01*
X176110252Y-103473290D01*
X176229078Y-103733000D01*
X178373000Y-103733000D01*
X178373000Y-102185000D01*
X177613000Y-102185000D01*
X177288664Y-102241961D01*
X176981673Y-102361102D01*
X176703824Y-102537845D01*
X176465794Y-102765398D01*
X176276731Y-103035016D01*
X176143901Y-103336337D01*
X176110252Y-103473290D01*
X162177000Y-103473290D01*
X162177000Y-94086710D01*
X176110252Y-94086710D01*
X176143901Y-94223663D01*
X176276731Y-94524984D01*
X176465794Y-94794602D01*
X176703824Y-95022155D01*
X176981673Y-95198898D01*
X177288664Y-95318039D01*
X177613000Y-95375000D01*
X178373000Y-95375000D01*
X178373000Y-93827000D01*
X176229078Y-93827000D01*
X176110252Y-94086710D01*
X162177000Y-94086710D01*
X162177000Y-93313290D01*
X176110252Y-93313290D01*
X176229078Y-93573000D01*
X178373000Y-93573000D01*
X178373000Y-92025000D01*
X177613000Y-92025000D01*
X177288664Y-92081961D01*
X176981673Y-92201102D01*
X176703824Y-92377845D01*
X176465794Y-92605398D01*
X176276731Y-92875016D01*
X176143901Y-93176337D01*
X176110252Y-93313290D01*
X162177000Y-93313290D01*
X162177000Y-83926710D01*
X176110252Y-83926710D01*
X176143901Y-84063663D01*
X176276731Y-84364984D01*
X176465794Y-84634602D01*
X176703824Y-84862155D01*
X176981673Y-85038898D01*
X177288664Y-85158039D01*
X177613000Y-85215000D01*
X178373000Y-85215000D01*
X178373000Y-83667000D01*
X176229078Y-83667000D01*
X176110252Y-83926710D01*
X162177000Y-83926710D01*
X162177000Y-83153290D01*
X176110252Y-83153290D01*
X176229078Y-83413000D01*
X178373000Y-83413000D01*
X178373000Y-81865000D01*
X177613000Y-81865000D01*
X177288664Y-81921961D01*
X176981673Y-82041102D01*
X176703824Y-82217845D01*
X176465794Y-82445398D01*
X176276731Y-82715016D01*
X176143901Y-83016337D01*
X176110252Y-83153290D01*
X162177000Y-83153290D01*
X162177000Y-73766710D01*
X176110252Y-73766710D01*
X176143901Y-73903663D01*
X176276731Y-74204984D01*
X176465794Y-74474602D01*
X176703824Y-74702155D01*
X176981673Y-74878898D01*
X177288664Y-74998039D01*
X177613000Y-75055000D01*
X178373000Y-75055000D01*
X178373000Y-73507000D01*
X176229078Y-73507000D01*
X176110252Y-73766710D01*
X162177000Y-73766710D01*
X162177000Y-72993290D01*
X176110252Y-72993290D01*
X176229078Y-73253000D01*
X178373000Y-73253000D01*
X178373000Y-71705000D01*
X177613000Y-71705000D01*
X177288664Y-71761961D01*
X176981673Y-71881102D01*
X176703824Y-72057845D01*
X176465794Y-72285398D01*
X176276731Y-72555016D01*
X176143901Y-72856337D01*
X176110252Y-72993290D01*
X162177000Y-72993290D01*
X162177000Y-63606710D01*
X176110252Y-63606710D01*
X176143901Y-63743663D01*
X176276731Y-64044984D01*
X176465794Y-64314602D01*
X176703824Y-64542155D01*
X176981673Y-64718898D01*
X177288664Y-64838039D01*
X177613000Y-64895000D01*
X178373000Y-64895000D01*
X178373000Y-63347000D01*
X176229078Y-63347000D01*
X176110252Y-63606710D01*
X162177000Y-63606710D01*
X162177000Y-62833290D01*
X176110252Y-62833290D01*
X176229078Y-63093000D01*
X178373000Y-63093000D01*
X178373000Y-61545000D01*
X177613000Y-61545000D01*
X177288664Y-61601961D01*
X176981673Y-61721102D01*
X176703824Y-61897845D01*
X176465794Y-62125398D01*
X176276731Y-62395016D01*
X176143901Y-62696337D01*
X176110252Y-62833290D01*
X162177000Y-62833290D01*
X162177000Y-53446710D01*
X176110252Y-53446710D01*
X176143901Y-53583663D01*
X176276731Y-53884984D01*
X176465794Y-54154602D01*
X176703824Y-54382155D01*
X176981673Y-54558898D01*
X177288664Y-54678039D01*
X177613000Y-54735000D01*
X178373000Y-54735000D01*
X178373000Y-53187000D01*
X176229078Y-53187000D01*
X176110252Y-53446710D01*
X162177000Y-53446710D01*
X162177000Y-52673290D01*
X176110252Y-52673290D01*
X176229078Y-52933000D01*
X178373000Y-52933000D01*
X178373000Y-51385000D01*
X177613000Y-51385000D01*
X177288664Y-51441961D01*
X176981673Y-51561102D01*
X176703824Y-51737845D01*
X176465794Y-51965398D01*
X176276731Y-52235016D01*
X176143901Y-52536337D01*
X176110252Y-52673290D01*
X162177000Y-52673290D01*
X162177000Y-43286710D01*
X176110252Y-43286710D01*
X176143901Y-43423663D01*
X176276731Y-43724984D01*
X176465794Y-43994602D01*
X176703824Y-44222155D01*
X176981673Y-44398898D01*
X177288664Y-44518039D01*
X177613000Y-44575000D01*
X178373000Y-44575000D01*
X178373000Y-43027000D01*
X176229078Y-43027000D01*
X176110252Y-43286710D01*
X162177000Y-43286710D01*
X162177000Y-42513290D01*
X176110252Y-42513290D01*
X176229078Y-42773000D01*
X178373000Y-42773000D01*
X178373000Y-41225000D01*
X177613000Y-41225000D01*
X177288664Y-41281961D01*
X176981673Y-41401102D01*
X176703824Y-41577845D01*
X176465794Y-41805398D01*
X176276731Y-42075016D01*
X176143901Y-42376337D01*
X176110252Y-42513290D01*
X162177000Y-42513290D01*
X162177000Y-31402000D01*
X171473000Y-31402000D01*
X171473000Y-38000000D01*
X171473000Y-38000000D01*
G37*
X171473000Y-38000000D02*
X171474772Y-38021142D01*
X171481303Y-38045167D01*
X171492395Y-38067456D01*
X171507623Y-38087152D01*
X171526400Y-38103499D01*
X174901400Y-40503499D01*
X174926399Y-40517333D01*
X174950224Y-40524560D01*
X174975000Y-40527000D01*
X180598001Y-40527000D01*
X180598001Y-41896374D01*
X180534206Y-41805398D01*
X180296176Y-41577845D01*
X180018327Y-41401102D01*
X179711336Y-41281961D01*
X179387000Y-41225000D01*
X178627000Y-41225000D01*
X178627000Y-42773000D01*
X178647000Y-42773000D01*
X178647000Y-43027000D01*
X178627000Y-43027000D01*
X178627000Y-44575000D01*
X179387000Y-44575000D01*
X179711336Y-44518039D01*
X180018327Y-44398898D01*
X180296176Y-44222155D01*
X180534206Y-43994602D01*
X180598001Y-43903626D01*
X180598001Y-47371195D01*
X180485668Y-47161035D01*
X180302345Y-46937655D01*
X180078965Y-46754332D01*
X179824113Y-46618111D01*
X179547582Y-46534226D01*
X179332068Y-46513000D01*
X177667932Y-46513000D01*
X177452418Y-46534226D01*
X177175887Y-46618111D01*
X176921035Y-46754332D01*
X176697655Y-46937655D01*
X176514332Y-47161035D01*
X176378111Y-47415887D01*
X176294226Y-47692418D01*
X176265902Y-47980000D01*
X176294226Y-48267582D01*
X176378111Y-48544113D01*
X176514332Y-48798965D01*
X176697655Y-49022345D01*
X176921035Y-49205668D01*
X177175887Y-49341889D01*
X177452418Y-49425774D01*
X177667932Y-49447000D01*
X179332068Y-49447000D01*
X179547582Y-49425774D01*
X179824113Y-49341889D01*
X180078965Y-49205668D01*
X180302345Y-49022345D01*
X180485668Y-48798965D01*
X180598001Y-48588805D01*
X180598001Y-52056374D01*
X180534206Y-51965398D01*
X180296176Y-51737845D01*
X180018327Y-51561102D01*
X179711336Y-51441961D01*
X179387000Y-51385000D01*
X178627000Y-51385000D01*
X178627000Y-52933000D01*
X178647000Y-52933000D01*
X178647000Y-53187000D01*
X178627000Y-53187000D01*
X178627000Y-54735000D01*
X179387000Y-54735000D01*
X179711336Y-54678039D01*
X180018327Y-54558898D01*
X180296176Y-54382155D01*
X180534206Y-54154602D01*
X180598001Y-54063626D01*
X180598001Y-57531195D01*
X180485668Y-57321035D01*
X180302345Y-57097655D01*
X180078965Y-56914332D01*
X179824113Y-56778111D01*
X179547582Y-56694226D01*
X179332068Y-56673000D01*
X177667932Y-56673000D01*
X177452418Y-56694226D01*
X177175887Y-56778111D01*
X176921035Y-56914332D01*
X176697655Y-57097655D01*
X176514332Y-57321035D01*
X176378111Y-57575887D01*
X176294226Y-57852418D01*
X176265902Y-58140000D01*
X176294226Y-58427582D01*
X176378111Y-58704113D01*
X176514332Y-58958965D01*
X176697655Y-59182345D01*
X176921035Y-59365668D01*
X177175887Y-59501889D01*
X177452418Y-59585774D01*
X177667932Y-59607000D01*
X179332068Y-59607000D01*
X179547582Y-59585774D01*
X179824113Y-59501889D01*
X180078965Y-59365668D01*
X180302345Y-59182345D01*
X180485668Y-58958965D01*
X180598001Y-58748805D01*
X180598001Y-62216374D01*
X180534206Y-62125398D01*
X180296176Y-61897845D01*
X180018327Y-61721102D01*
X179711336Y-61601961D01*
X179387000Y-61545000D01*
X178627000Y-61545000D01*
X178627000Y-63093000D01*
X178647000Y-63093000D01*
X178647000Y-63347000D01*
X178627000Y-63347000D01*
X178627000Y-64895000D01*
X179387000Y-64895000D01*
X179711336Y-64838039D01*
X180018327Y-64718898D01*
X180296176Y-64542155D01*
X180534206Y-64314602D01*
X180598001Y-64223626D01*
X180598001Y-67691195D01*
X180485668Y-67481035D01*
X180302345Y-67257655D01*
X180078965Y-67074332D01*
X179824113Y-66938111D01*
X179547582Y-66854226D01*
X179332068Y-66833000D01*
X177667932Y-66833000D01*
X177452418Y-66854226D01*
X177175887Y-66938111D01*
X176921035Y-67074332D01*
X176697655Y-67257655D01*
X176514332Y-67481035D01*
X176378111Y-67735887D01*
X176294226Y-68012418D01*
X176265902Y-68300000D01*
X176294226Y-68587582D01*
X176378111Y-68864113D01*
X176514332Y-69118965D01*
X176697655Y-69342345D01*
X176921035Y-69525668D01*
X177175887Y-69661889D01*
X177452418Y-69745774D01*
X177667932Y-69767000D01*
X179332068Y-69767000D01*
X179547582Y-69745774D01*
X179824113Y-69661889D01*
X180078965Y-69525668D01*
X180302345Y-69342345D01*
X180485668Y-69118965D01*
X180598001Y-68908805D01*
X180598001Y-72376374D01*
X180534206Y-72285398D01*
X180296176Y-72057845D01*
X180018327Y-71881102D01*
X179711336Y-71761961D01*
X179387000Y-71705000D01*
X178627000Y-71705000D01*
X178627000Y-73253000D01*
X178647000Y-73253000D01*
X178647000Y-73507000D01*
X178627000Y-73507000D01*
X178627000Y-75055000D01*
X179387000Y-75055000D01*
X179711336Y-74998039D01*
X180018327Y-74878898D01*
X180296176Y-74702155D01*
X180534206Y-74474602D01*
X180598001Y-74383626D01*
X180598001Y-77851195D01*
X180485668Y-77641035D01*
X180302345Y-77417655D01*
X180078965Y-77234332D01*
X179824113Y-77098111D01*
X179547582Y-77014226D01*
X179332068Y-76993000D01*
X177667932Y-76993000D01*
X177452418Y-77014226D01*
X177175887Y-77098111D01*
X176921035Y-77234332D01*
X176697655Y-77417655D01*
X176514332Y-77641035D01*
X176378111Y-77895887D01*
X176294226Y-78172418D01*
X176265902Y-78460000D01*
X176294226Y-78747582D01*
X176378111Y-79024113D01*
X176514332Y-79278965D01*
X176697655Y-79502345D01*
X176921035Y-79685668D01*
X177175887Y-79821889D01*
X177452418Y-79905774D01*
X177667932Y-79927000D01*
X179332068Y-79927000D01*
X179547582Y-79905774D01*
X179824113Y-79821889D01*
X180078965Y-79685668D01*
X180302345Y-79502345D01*
X180485668Y-79278965D01*
X180598001Y-79068805D01*
X180598000Y-82536374D01*
X180534206Y-82445398D01*
X180296176Y-82217845D01*
X180018327Y-82041102D01*
X179711336Y-81921961D01*
X179387000Y-81865000D01*
X178627000Y-81865000D01*
X178627000Y-83413000D01*
X178647000Y-83413000D01*
X178647000Y-83667000D01*
X178627000Y-83667000D01*
X178627000Y-85215000D01*
X179387000Y-85215000D01*
X179711336Y-85158039D01*
X180018327Y-85038898D01*
X180296176Y-84862155D01*
X180534206Y-84634602D01*
X180598000Y-84543626D01*
X180598000Y-88011195D01*
X180485668Y-87801035D01*
X180302345Y-87577655D01*
X180078965Y-87394332D01*
X179824113Y-87258111D01*
X179547582Y-87174226D01*
X179332068Y-87153000D01*
X177667932Y-87153000D01*
X177452418Y-87174226D01*
X177175887Y-87258111D01*
X176921035Y-87394332D01*
X176697655Y-87577655D01*
X176514332Y-87801035D01*
X176378111Y-88055887D01*
X176294226Y-88332418D01*
X176265902Y-88620000D01*
X176294226Y-88907582D01*
X176378111Y-89184113D01*
X176514332Y-89438965D01*
X176697655Y-89662345D01*
X176921035Y-89845668D01*
X177175887Y-89981889D01*
X177452418Y-90065774D01*
X177667932Y-90087000D01*
X179332068Y-90087000D01*
X179547582Y-90065774D01*
X179824113Y-89981889D01*
X180078965Y-89845668D01*
X180302345Y-89662345D01*
X180485668Y-89438965D01*
X180598000Y-89228805D01*
X180598000Y-92696374D01*
X180534206Y-92605398D01*
X180296176Y-92377845D01*
X180018327Y-92201102D01*
X179711336Y-92081961D01*
X179387000Y-92025000D01*
X178627000Y-92025000D01*
X178627000Y-93573000D01*
X178647000Y-93573000D01*
X178647000Y-93827000D01*
X178627000Y-93827000D01*
X178627000Y-95375000D01*
X179387000Y-95375000D01*
X179711336Y-95318039D01*
X180018327Y-95198898D01*
X180296176Y-95022155D01*
X180534206Y-94794602D01*
X180598000Y-94703626D01*
X180598000Y-98171194D01*
X180485668Y-97961035D01*
X180302345Y-97737655D01*
X180078965Y-97554332D01*
X179824113Y-97418111D01*
X179547582Y-97334226D01*
X179332068Y-97313000D01*
X177667932Y-97313000D01*
X177452418Y-97334226D01*
X177175887Y-97418111D01*
X176921035Y-97554332D01*
X176697655Y-97737655D01*
X176514332Y-97961035D01*
X176378111Y-98215887D01*
X176294226Y-98492418D01*
X176265902Y-98780000D01*
X176294226Y-99067582D01*
X176378111Y-99344113D01*
X176514332Y-99598965D01*
X176697655Y-99822345D01*
X176921035Y-100005668D01*
X177175887Y-100141889D01*
X177452418Y-100225774D01*
X177667932Y-100247000D01*
X179332068Y-100247000D01*
X179547582Y-100225774D01*
X179824113Y-100141889D01*
X180078965Y-100005668D01*
X180302345Y-99822345D01*
X180485668Y-99598965D01*
X180598000Y-99388806D01*
X180598000Y-102856373D01*
X180534206Y-102765398D01*
X180296176Y-102537845D01*
X180018327Y-102361102D01*
X179711336Y-102241961D01*
X179387000Y-102185000D01*
X178627000Y-102185000D01*
X178627000Y-103733000D01*
X178647000Y-103733000D01*
X178647000Y-103987000D01*
X178627000Y-103987000D01*
X178627000Y-105535000D01*
X179387000Y-105535000D01*
X179711336Y-105478039D01*
X180018327Y-105358898D01*
X180296176Y-105182155D01*
X180534206Y-104954602D01*
X180598000Y-104863627D01*
X180598000Y-108331194D01*
X180485668Y-108121035D01*
X180302345Y-107897655D01*
X180078965Y-107714332D01*
X179824113Y-107578111D01*
X179547582Y-107494226D01*
X179332068Y-107473000D01*
X177667932Y-107473000D01*
X177452418Y-107494226D01*
X177175887Y-107578111D01*
X176921035Y-107714332D01*
X176697655Y-107897655D01*
X176514332Y-108121035D01*
X176378111Y-108375887D01*
X176294226Y-108652418D01*
X176265902Y-108940000D01*
X176294226Y-109227582D01*
X176378111Y-109504113D01*
X176514332Y-109758965D01*
X176697655Y-109982345D01*
X176921035Y-110165668D01*
X177175887Y-110301889D01*
X177452418Y-110385774D01*
X177667932Y-110407000D01*
X179332068Y-110407000D01*
X179547582Y-110385774D01*
X179824113Y-110301889D01*
X180078965Y-110165668D01*
X180302345Y-109982345D01*
X180485668Y-109758965D01*
X180598000Y-109548806D01*
X180598000Y-113016373D01*
X180534206Y-112925398D01*
X180296176Y-112697845D01*
X180018327Y-112521102D01*
X179711336Y-112401961D01*
X179387000Y-112345000D01*
X178627000Y-112345000D01*
X178627000Y-113893000D01*
X178647000Y-113893000D01*
X178647000Y-114147000D01*
X178627000Y-114147000D01*
X178627000Y-115695000D01*
X179387000Y-115695000D01*
X179711336Y-115638039D01*
X180018327Y-115518898D01*
X180296176Y-115342155D01*
X180534206Y-115114602D01*
X180598000Y-115023627D01*
X180598000Y-117912476D01*
X180530172Y-117829828D01*
X180427269Y-117745377D01*
X180309868Y-117682625D01*
X180182480Y-117643982D01*
X180050001Y-117630934D01*
X176949999Y-117630934D01*
X176817520Y-117643982D01*
X176690132Y-117682625D01*
X176572731Y-117745377D01*
X176469828Y-117829828D01*
X176385377Y-117932731D01*
X176322625Y-118050132D01*
X176283982Y-118177520D01*
X176270934Y-118309999D01*
X176270934Y-119890001D01*
X176283982Y-120022480D01*
X176322625Y-120149868D01*
X176385377Y-120267269D01*
X176469828Y-120370172D01*
X176572731Y-120454623D01*
X176690132Y-120517375D01*
X176817520Y-120556018D01*
X176949999Y-120569066D01*
X180050001Y-120569066D01*
X180182480Y-120556018D01*
X180309868Y-120517375D01*
X180427269Y-120454623D01*
X180530172Y-120370172D01*
X180598000Y-120287524D01*
X180598000Y-128727892D01*
X180560679Y-129108523D01*
X180456558Y-129453392D01*
X180287434Y-129771468D01*
X180059748Y-130050638D01*
X179782178Y-130280264D01*
X179465291Y-130451604D01*
X179121156Y-130558132D01*
X178741835Y-130598000D01*
X162177000Y-130598000D01*
X162177000Y-126246188D01*
X173923000Y-126246188D01*
X173923000Y-126753812D01*
X174022033Y-127251683D01*
X174216292Y-127720667D01*
X174498313Y-128142742D01*
X174857258Y-128501687D01*
X175279333Y-128783708D01*
X175748317Y-128977967D01*
X176246188Y-129077000D01*
X176753812Y-129077000D01*
X177251683Y-128977967D01*
X177720667Y-128783708D01*
X178142742Y-128501687D01*
X178501687Y-128142742D01*
X178783708Y-127720667D01*
X178977967Y-127251683D01*
X179077000Y-126753812D01*
X179077000Y-126246188D01*
X178977967Y-125748317D01*
X178783708Y-125279333D01*
X178501687Y-124857258D01*
X178142742Y-124498313D01*
X177720667Y-124216292D01*
X177251683Y-124022033D01*
X176753812Y-123923000D01*
X176246188Y-123923000D01*
X175748317Y-124022033D01*
X175279333Y-124216292D01*
X174857258Y-124498313D01*
X174498313Y-124857258D01*
X174216292Y-125279333D01*
X174022033Y-125748317D01*
X173923000Y-126246188D01*
X162177000Y-126246188D01*
X162177000Y-114406710D01*
X176110252Y-114406710D01*
X176143901Y-114543663D01*
X176276731Y-114844984D01*
X176465794Y-115114602D01*
X176703824Y-115342155D01*
X176981673Y-115518898D01*
X177288664Y-115638039D01*
X177613000Y-115695000D01*
X178373000Y-115695000D01*
X178373000Y-114147000D01*
X176229078Y-114147000D01*
X176110252Y-114406710D01*
X162177000Y-114406710D01*
X162177000Y-113633290D01*
X176110252Y-113633290D01*
X176229078Y-113893000D01*
X178373000Y-113893000D01*
X178373000Y-112345000D01*
X177613000Y-112345000D01*
X177288664Y-112401961D01*
X176981673Y-112521102D01*
X176703824Y-112697845D01*
X176465794Y-112925398D01*
X176276731Y-113195016D01*
X176143901Y-113496337D01*
X176110252Y-113633290D01*
X162177000Y-113633290D01*
X162177000Y-104246710D01*
X176110252Y-104246710D01*
X176143901Y-104383663D01*
X176276731Y-104684984D01*
X176465794Y-104954602D01*
X176703824Y-105182155D01*
X176981673Y-105358898D01*
X177288664Y-105478039D01*
X177613000Y-105535000D01*
X178373000Y-105535000D01*
X178373000Y-103987000D01*
X176229078Y-103987000D01*
X176110252Y-104246710D01*
X162177000Y-104246710D01*
X162177000Y-103473290D01*
X176110252Y-103473290D01*
X176229078Y-103733000D01*
X178373000Y-103733000D01*
X178373000Y-102185000D01*
X177613000Y-102185000D01*
X177288664Y-102241961D01*
X176981673Y-102361102D01*
X176703824Y-102537845D01*
X176465794Y-102765398D01*
X176276731Y-103035016D01*
X176143901Y-103336337D01*
X176110252Y-103473290D01*
X162177000Y-103473290D01*
X162177000Y-94086710D01*
X176110252Y-94086710D01*
X176143901Y-94223663D01*
X176276731Y-94524984D01*
X176465794Y-94794602D01*
X176703824Y-95022155D01*
X176981673Y-95198898D01*
X177288664Y-95318039D01*
X177613000Y-95375000D01*
X178373000Y-95375000D01*
X178373000Y-93827000D01*
X176229078Y-93827000D01*
X176110252Y-94086710D01*
X162177000Y-94086710D01*
X162177000Y-93313290D01*
X176110252Y-93313290D01*
X176229078Y-93573000D01*
X178373000Y-93573000D01*
X178373000Y-92025000D01*
X177613000Y-92025000D01*
X177288664Y-92081961D01*
X176981673Y-92201102D01*
X176703824Y-92377845D01*
X176465794Y-92605398D01*
X176276731Y-92875016D01*
X176143901Y-93176337D01*
X176110252Y-93313290D01*
X162177000Y-93313290D01*
X162177000Y-83926710D01*
X176110252Y-83926710D01*
X176143901Y-84063663D01*
X176276731Y-84364984D01*
X176465794Y-84634602D01*
X176703824Y-84862155D01*
X176981673Y-85038898D01*
X177288664Y-85158039D01*
X177613000Y-85215000D01*
X178373000Y-85215000D01*
X178373000Y-83667000D01*
X176229078Y-83667000D01*
X176110252Y-83926710D01*
X162177000Y-83926710D01*
X162177000Y-83153290D01*
X176110252Y-83153290D01*
X176229078Y-83413000D01*
X178373000Y-83413000D01*
X178373000Y-81865000D01*
X177613000Y-81865000D01*
X177288664Y-81921961D01*
X176981673Y-82041102D01*
X176703824Y-82217845D01*
X176465794Y-82445398D01*
X176276731Y-82715016D01*
X176143901Y-83016337D01*
X176110252Y-83153290D01*
X162177000Y-83153290D01*
X162177000Y-73766710D01*
X176110252Y-73766710D01*
X176143901Y-73903663D01*
X176276731Y-74204984D01*
X176465794Y-74474602D01*
X176703824Y-74702155D01*
X176981673Y-74878898D01*
X177288664Y-74998039D01*
X177613000Y-75055000D01*
X178373000Y-75055000D01*
X178373000Y-73507000D01*
X176229078Y-73507000D01*
X176110252Y-73766710D01*
X162177000Y-73766710D01*
X162177000Y-72993290D01*
X176110252Y-72993290D01*
X176229078Y-73253000D01*
X178373000Y-73253000D01*
X178373000Y-71705000D01*
X177613000Y-71705000D01*
X177288664Y-71761961D01*
X176981673Y-71881102D01*
X176703824Y-72057845D01*
X176465794Y-72285398D01*
X176276731Y-72555016D01*
X176143901Y-72856337D01*
X176110252Y-72993290D01*
X162177000Y-72993290D01*
X162177000Y-63606710D01*
X176110252Y-63606710D01*
X176143901Y-63743663D01*
X176276731Y-64044984D01*
X176465794Y-64314602D01*
X176703824Y-64542155D01*
X176981673Y-64718898D01*
X177288664Y-64838039D01*
X177613000Y-64895000D01*
X178373000Y-64895000D01*
X178373000Y-63347000D01*
X176229078Y-63347000D01*
X176110252Y-63606710D01*
X162177000Y-63606710D01*
X162177000Y-62833290D01*
X176110252Y-62833290D01*
X176229078Y-63093000D01*
X178373000Y-63093000D01*
X178373000Y-61545000D01*
X177613000Y-61545000D01*
X177288664Y-61601961D01*
X176981673Y-61721102D01*
X176703824Y-61897845D01*
X176465794Y-62125398D01*
X176276731Y-62395016D01*
X176143901Y-62696337D01*
X176110252Y-62833290D01*
X162177000Y-62833290D01*
X162177000Y-53446710D01*
X176110252Y-53446710D01*
X176143901Y-53583663D01*
X176276731Y-53884984D01*
X176465794Y-54154602D01*
X176703824Y-54382155D01*
X176981673Y-54558898D01*
X177288664Y-54678039D01*
X177613000Y-54735000D01*
X178373000Y-54735000D01*
X178373000Y-53187000D01*
X176229078Y-53187000D01*
X176110252Y-53446710D01*
X162177000Y-53446710D01*
X162177000Y-52673290D01*
X176110252Y-52673290D01*
X176229078Y-52933000D01*
X178373000Y-52933000D01*
X178373000Y-51385000D01*
X177613000Y-51385000D01*
X177288664Y-51441961D01*
X176981673Y-51561102D01*
X176703824Y-51737845D01*
X176465794Y-51965398D01*
X176276731Y-52235016D01*
X176143901Y-52536337D01*
X176110252Y-52673290D01*
X162177000Y-52673290D01*
X162177000Y-43286710D01*
X176110252Y-43286710D01*
X176143901Y-43423663D01*
X176276731Y-43724984D01*
X176465794Y-43994602D01*
X176703824Y-44222155D01*
X176981673Y-44398898D01*
X177288664Y-44518039D01*
X177613000Y-44575000D01*
X178373000Y-44575000D01*
X178373000Y-43027000D01*
X176229078Y-43027000D01*
X176110252Y-43286710D01*
X162177000Y-43286710D01*
X162177000Y-42513290D01*
X176110252Y-42513290D01*
X176229078Y-42773000D01*
X178373000Y-42773000D01*
X178373000Y-41225000D01*
X177613000Y-41225000D01*
X177288664Y-41281961D01*
X176981673Y-41401102D01*
X176703824Y-41577845D01*
X176465794Y-41805398D01*
X176276731Y-42075016D01*
X176143901Y-42376337D01*
X176110252Y-42513290D01*
X162177000Y-42513290D01*
X162177000Y-31402000D01*
X171473000Y-31402000D01*
X171473000Y-38000000D01*
M02*
