M48
; DRILL file {KiCad (5.1.0)-1} date 26.06.2021 10:28:11
; FORMAT={-:-/ absolute / metric / decimal}
; #@! TF.CreationDate,2021-06-26T10:28:11+02:00
; #@! TF.GenerationSoftware,Kicad,Pcbnew,(5.1.0)-1
; #@! TF.FileFunction,Plated,1,2,PTH
FMAT,2
METRIC
T1C0.400
T2C0.600
T3C1.000
T4C1.400
T5C4.300
%
G90
G05
T1
X115.4Y-48.18
X115.4Y-58.34
X115.4Y-68.5
X115.4Y-78.66
X115.4Y-88.82
X115.4Y-98.98
X115.4Y-109.14
X115.4Y-119.3
X116.8Y-48.18
X116.8Y-58.34
X116.8Y-68.5
X116.8Y-78.66
X116.8Y-88.82
X116.8Y-98.98
X116.8Y-109.14
X116.8Y-119.3
X127.4Y-87.8
X127.4Y-89.4
X127.4Y-91.0
X127.4Y-92.4
X130.2Y-87.8
X130.2Y-89.4
X130.2Y-91.0
X130.2Y-92.4
X133.0Y-87.8
X133.0Y-89.4
X133.0Y-91.0
X136.0Y-87.8
X136.0Y-89.4
X136.0Y-91.0
X137.5Y-81.5
X137.5Y-83.0
X138.8Y-87.8
X138.8Y-89.4
X138.8Y-91.0
X139.0Y-81.5
X139.0Y-83.0
X140.5Y-81.5
X140.5Y-83.0
X141.6Y-87.8
X141.6Y-89.4
X141.6Y-91.0
X141.6Y-92.4
X142.0Y-77.0
X142.0Y-78.5
X142.0Y-80.0
X142.0Y-81.5
X142.0Y-83.0
X143.5Y-77.0
X143.5Y-78.5
X143.5Y-80.0
X143.5Y-81.5
X143.5Y-83.0
X144.4Y-87.8
X144.4Y-89.4
X144.4Y-91.0
X144.4Y-92.4
X145.0Y-77.0
X145.0Y-78.5
X145.0Y-80.0
X145.0Y-81.5
X145.0Y-83.0
X153.06Y-42.71
X153.06Y-52.87
X153.06Y-63.03
X153.06Y-73.19
X153.06Y-83.35
X153.06Y-93.51
X153.06Y-103.67
X153.06Y-113.83
X154.52Y-42.71
X154.52Y-52.87
X154.52Y-63.03
X154.52Y-73.19
X154.52Y-83.35
X154.52Y-93.51
X154.52Y-103.67
X154.52Y-113.83
T2
X90.275Y-126.5
X91.22Y-124.22
X91.22Y-128.78
X93.5Y-123.275
X93.5Y-129.725
X95.78Y-124.22
X95.78Y-128.78
X96.725Y-126.5
X173.275Y-126.5
X174.22Y-124.22
X174.22Y-128.78
X176.5Y-123.275
X176.5Y-129.725
X178.78Y-124.22
X178.78Y-128.78
X179.725Y-126.5
X90.275Y-35.5
X91.22Y-33.22
X91.22Y-37.78
X93.5Y-32.275
X93.5Y-38.725
X95.78Y-33.22
X95.78Y-37.78
X96.725Y-35.5
X173.275Y-35.5
X174.22Y-33.22
X174.22Y-37.78
X176.5Y-32.275
X176.5Y-38.725
X178.78Y-33.22
X178.78Y-37.78
X179.725Y-35.5
T3
X133.725Y-94.145
X133.725Y-96.685
X133.725Y-99.225
X133.725Y-101.765
X133.725Y-104.305
X133.725Y-106.845
X133.725Y-109.385
X133.725Y-111.925
X133.725Y-114.465
X133.725Y-117.005
X136.265Y-94.145
X136.265Y-96.685
X136.265Y-99.225
X136.265Y-101.765
X136.265Y-104.305
X136.265Y-106.845
X136.265Y-109.385
X136.265Y-111.925
X136.265Y-114.465
X136.265Y-117.005
T4
X91.9Y-42.9
X91.9Y-47.98
X91.9Y-53.06
X91.9Y-58.14
X91.9Y-63.22
X91.9Y-68.3
X91.9Y-73.38
X91.9Y-78.46
X91.9Y-83.54
X91.9Y-88.62
X91.9Y-93.7
X91.9Y-98.78
X91.9Y-103.86
X91.9Y-108.94
X91.9Y-114.02
X91.9Y-119.1
X178.1Y-42.9
X178.1Y-47.98
X178.1Y-53.06
X178.1Y-58.14
X178.1Y-63.22
X178.1Y-68.3
X178.1Y-73.38
X178.1Y-78.46
X178.1Y-83.54
X178.1Y-88.62
X178.1Y-93.7
X178.1Y-98.78
X178.1Y-103.86
X178.1Y-108.94
X178.1Y-114.02
X178.1Y-119.1
T5
X93.5Y-35.5
X93.5Y-126.5
X176.5Y-126.5
X176.5Y-35.5
T0
M30
