M48
; DRILL file {KiCad (5.1.0)-1} date 24.05.2021 17:25:04
; FORMAT={-:-/ absolute / metric / decimal}
; #@! TF.CreationDate,2021-05-24T17:25:04+02:00
; #@! TF.GenerationSoftware,Kicad,Pcbnew,(5.1.0)-1
; #@! TF.FileFunction,Plated,1,2,PTH
FMAT,2
METRIC
T1C0.400
T2C1.000
T3C1.100
%
G90
G05
T1
X105.1Y-37.1
X105.1Y-48.1
X105.1Y-59.1
X105.1Y-70.1
X105.1Y-81.1
X105.1Y-92.1
X105.1Y-103.1
X105.1Y-114.1
X110.94Y-49.27
X110.94Y-82.29
X110.96Y-60.26
X110.96Y-71.26
X110.96Y-115.28
X110.98Y-93.26
X110.98Y-104.27
X111.7Y-38.2
X121.3Y-41.5
X121.3Y-43.45
X121.3Y-52.5
X121.3Y-54.45
X121.3Y-63.55
X121.3Y-65.45
X121.3Y-74.5
X121.3Y-76.4
X121.3Y-85.5
X121.3Y-87.4
X121.3Y-96.55
X121.3Y-98.45
X121.3Y-107.55
X121.3Y-109.4
X121.3Y-118.55
X121.3Y-120.45
X122.6Y-62.2
X122.6Y-106.2
X122.7Y-40.3
X122.7Y-51.3
X122.7Y-73.45
X122.7Y-84.55
X122.7Y-95.5
X122.7Y-117.1
X124.9Y-40.6
X124.9Y-51.7
X124.9Y-62.6
X124.9Y-73.6
X124.9Y-84.6
X124.9Y-95.6
X124.9Y-106.6
X124.9Y-117.6
X128.475Y-68.775
X132.7Y-52.3
X133.66Y-55.385
X136.0Y-53.2
X136.0Y-54.2
X136.0Y-55.2
X136.8Y-73.4
X136.8Y-74.4
X136.8Y-75.4
X137.06Y-53.14
X137.06Y-54.14
X137.06Y-55.14
X138.0Y-53.2
X138.0Y-54.2
X138.0Y-55.2
X138.3Y-73.5
X138.3Y-74.5
X138.3Y-75.5
X139.8Y-73.4
X139.8Y-74.4
X139.8Y-75.4
X142.25Y-68.725
X145.1Y-44.4
X145.1Y-55.4
X145.1Y-66.4
X145.1Y-77.4
X145.1Y-88.4
X145.1Y-99.4
X145.1Y-110.4
X145.1Y-121.4
X147.3Y-44.5
X147.3Y-55.9
X147.3Y-66.9
X147.3Y-77.7
X147.3Y-88.7
X147.3Y-99.7
X147.3Y-121.6
X147.303Y-110.597
X148.7Y-41.5
X148.7Y-43.45
X148.7Y-52.5
X148.7Y-54.45
X148.7Y-63.5
X148.7Y-65.4
X148.7Y-74.55
X148.7Y-76.4
X148.7Y-85.55
X148.7Y-87.45
X148.7Y-96.5
X148.7Y-98.45
X148.7Y-107.5
X148.7Y-109.45
X148.7Y-118.55
X148.7Y-120.45
X158.96Y-46.75
X158.96Y-57.75
X158.96Y-68.75
X158.96Y-79.75
X158.96Y-90.75
X158.96Y-101.75
X158.96Y-112.75
X158.96Y-123.75
X164.8Y-103.0
X164.9Y-47.9
X164.9Y-58.9
X164.9Y-69.9
X164.9Y-80.9
X164.9Y-91.9
X164.9Y-113.7
X164.9Y-124.9
T2
X133.725Y-84.145
X133.725Y-86.685
X133.725Y-89.225
X133.725Y-91.765
X133.725Y-94.305
X133.725Y-96.845
X133.725Y-99.385
X133.725Y-101.925
X133.725Y-104.465
X133.725Y-107.005
X136.265Y-84.145
X136.265Y-86.685
X136.265Y-89.225
X136.265Y-91.765
X136.265Y-94.305
X136.265Y-96.845
X136.265Y-99.385
X136.265Y-101.925
X136.265Y-104.465
X136.265Y-107.005
T3
X151.2Y-73.75
X151.2Y-77.25
X156.2Y-73.75
X156.2Y-77.25
X113.8Y-40.75
X113.8Y-44.25
X118.8Y-40.75
X118.8Y-44.25
X113.8Y-73.75
X113.8Y-77.25
X118.8Y-73.75
X118.8Y-77.25
X137.7Y-121.5
X137.7Y-126.5
X141.2Y-121.5
X141.2Y-126.5
X113.8Y-95.75
X113.8Y-99.25
X118.8Y-95.75
X118.8Y-99.25
X151.2Y-117.75
X151.2Y-121.25
X156.2Y-117.75
X156.2Y-121.25
X113.8Y-62.75
X113.8Y-66.25
X118.8Y-62.75
X118.8Y-66.25
X113.8Y-117.75
X113.8Y-121.25
X118.8Y-117.75
X118.8Y-121.25
X151.2Y-84.75
X151.2Y-88.25
X156.2Y-84.75
X156.2Y-88.25
X151.2Y-51.75
X151.2Y-55.25
X156.2Y-51.75
X156.2Y-55.25
X151.2Y-106.75
X151.2Y-110.25
X156.2Y-106.75
X156.2Y-110.25
X113.8Y-106.75
X113.8Y-110.25
X118.8Y-106.75
X118.8Y-110.25
X128.8Y-35.5
X128.8Y-40.5
X132.3Y-35.5
X132.3Y-40.5
X128.8Y-121.5
X128.8Y-126.5
X132.3Y-121.5
X132.3Y-126.5
X113.8Y-84.75
X113.8Y-88.25
X118.8Y-84.75
X118.8Y-88.25
X151.2Y-40.75
X151.2Y-44.25
X156.2Y-40.75
X156.2Y-44.25
X113.8Y-51.75
X113.8Y-55.25
X118.8Y-51.75
X118.8Y-55.25
X151.2Y-95.75
X151.2Y-99.25
X156.2Y-95.75
X156.2Y-99.25
X151.2Y-62.75
X151.2Y-66.25
X156.2Y-62.75
X156.2Y-66.25
X137.7Y-35.5
X137.7Y-40.5
X141.2Y-35.5
X141.2Y-40.5
T0
M30
