G04 #@! TF.GenerationSoftware,KiCad,Pcbnew,(5.1.0)-1*
G04 #@! TF.CreationDate,2021-07-12T23:23:52+02:00*
G04 #@! TF.ProjectId,Magnetsteuerung_v2.1,4d61676e-6574-4737-9465-756572756e67,rev?*
G04 #@! TF.SameCoordinates,Original*
G04 #@! TF.FileFunction,Soldermask,Bot*
G04 #@! TF.FilePolarity,Negative*
%FSLAX46Y46*%
G04 Gerber Fmt 4.6, Leading zero omitted, Abs format (unit mm)*
G04 Created by KiCad (PCBNEW (5.1.0)-1) date 2021-07-12 23:23:52*
%MOMM*%
%LPD*%
G04 APERTURE LIST*
%ADD10C,0.100000*%
G04 APERTURE END LIST*
D10*
G36*
X177048156Y-122172794D02*
G01*
X177769140Y-122316206D01*
X178560972Y-122644193D01*
X179273601Y-123120357D01*
X179879643Y-123726399D01*
X180355807Y-124439028D01*
X180683794Y-125230860D01*
X180851000Y-126071464D01*
X180851000Y-126928536D01*
X180683794Y-127769140D01*
X180355807Y-128560972D01*
X179879643Y-129273601D01*
X179273601Y-129879643D01*
X178560972Y-130355807D01*
X177769140Y-130683794D01*
X177048156Y-130827206D01*
X176928537Y-130851000D01*
X176071463Y-130851000D01*
X175951844Y-130827206D01*
X175230860Y-130683794D01*
X174439028Y-130355807D01*
X173726399Y-129879643D01*
X173120357Y-129273601D01*
X172644193Y-128560972D01*
X172316206Y-127769140D01*
X172149000Y-126928536D01*
X172149000Y-126071464D01*
X172316206Y-125230860D01*
X172644193Y-124439028D01*
X173120357Y-123726399D01*
X173726399Y-123120357D01*
X174439028Y-122644193D01*
X175230860Y-122316206D01*
X175951844Y-122172794D01*
X176071463Y-122149000D01*
X176928537Y-122149000D01*
X177048156Y-122172794D01*
X177048156Y-122172794D01*
G37*
G36*
X94048156Y-122172794D02*
G01*
X94769140Y-122316206D01*
X95560972Y-122644193D01*
X96273601Y-123120357D01*
X96879643Y-123726399D01*
X97355807Y-124439028D01*
X97683794Y-125230860D01*
X97851000Y-126071464D01*
X97851000Y-126928536D01*
X97683794Y-127769140D01*
X97355807Y-128560972D01*
X96879643Y-129273601D01*
X96273601Y-129879643D01*
X95560972Y-130355807D01*
X94769140Y-130683794D01*
X94048156Y-130827206D01*
X93928537Y-130851000D01*
X93071463Y-130851000D01*
X92951844Y-130827206D01*
X92230860Y-130683794D01*
X91439028Y-130355807D01*
X90726399Y-129879643D01*
X90120357Y-129273601D01*
X89644193Y-128560972D01*
X89316206Y-127769140D01*
X89149000Y-126928536D01*
X89149000Y-126071464D01*
X89316206Y-125230860D01*
X89644193Y-124439028D01*
X90120357Y-123726399D01*
X90726399Y-123120357D01*
X91439028Y-122644193D01*
X92230860Y-122316206D01*
X92951844Y-122172794D01*
X93071463Y-122149000D01*
X93928537Y-122149000D01*
X94048156Y-122172794D01*
X94048156Y-122172794D01*
G37*
G36*
X179816217Y-118012808D02*
G01*
X179847489Y-118022294D01*
X179876308Y-118037698D01*
X179901570Y-118058430D01*
X179922302Y-118083692D01*
X179937706Y-118112511D01*
X179947192Y-118143783D01*
X179951000Y-118182448D01*
X179951000Y-120017552D01*
X179947192Y-120056217D01*
X179937706Y-120087489D01*
X179922302Y-120116308D01*
X179901570Y-120141570D01*
X179876308Y-120162302D01*
X179847489Y-120177706D01*
X179816217Y-120187192D01*
X179777552Y-120191000D01*
X176422448Y-120191000D01*
X176383783Y-120187192D01*
X176352511Y-120177706D01*
X176323692Y-120162302D01*
X176298430Y-120141570D01*
X176277698Y-120116308D01*
X176262294Y-120087489D01*
X176252808Y-120056217D01*
X176249000Y-120017552D01*
X176249000Y-118182448D01*
X176252808Y-118143783D01*
X176262294Y-118112511D01*
X176277698Y-118083692D01*
X176298430Y-118058430D01*
X176323692Y-118037698D01*
X176352511Y-118022294D01*
X176383783Y-118012808D01*
X176422448Y-118009000D01*
X179777552Y-118009000D01*
X179816217Y-118012808D01*
X179816217Y-118012808D01*
G37*
G36*
X92873871Y-118024786D02*
G01*
X92984780Y-118058430D01*
X93075054Y-118085814D01*
X93079530Y-118087172D01*
X93269055Y-118188475D01*
X93269058Y-118188477D01*
X93269059Y-118188478D01*
X93435186Y-118324814D01*
X93571522Y-118490941D01*
X93571525Y-118490945D01*
X93672828Y-118680470D01*
X93735214Y-118886129D01*
X93756278Y-119100000D01*
X93735214Y-119313871D01*
X93672828Y-119519530D01*
X93571525Y-119709055D01*
X93571523Y-119709058D01*
X93571522Y-119709059D01*
X93435186Y-119875186D01*
X93307583Y-119979906D01*
X93269055Y-120011525D01*
X93079530Y-120112828D01*
X93079527Y-120112829D01*
X93068058Y-120116308D01*
X92873871Y-120175214D01*
X92713591Y-120191000D01*
X91086409Y-120191000D01*
X90926129Y-120175214D01*
X90731942Y-120116308D01*
X90720473Y-120112829D01*
X90720470Y-120112828D01*
X90530945Y-120011525D01*
X90492417Y-119979906D01*
X90364814Y-119875186D01*
X90228478Y-119709059D01*
X90228477Y-119709058D01*
X90228475Y-119709055D01*
X90127172Y-119519530D01*
X90064786Y-119313871D01*
X90043722Y-119100000D01*
X90064786Y-118886129D01*
X90127172Y-118680470D01*
X90228475Y-118490945D01*
X90228478Y-118490941D01*
X90364814Y-118324814D01*
X90530941Y-118188478D01*
X90530942Y-118188477D01*
X90530945Y-118188475D01*
X90720470Y-118087172D01*
X90724947Y-118085814D01*
X90815220Y-118058430D01*
X90926129Y-118024786D01*
X91086409Y-118009000D01*
X92713591Y-118009000D01*
X92873871Y-118024786D01*
X92873871Y-118024786D01*
G37*
G36*
X136375443Y-116110519D02*
G01*
X136441627Y-116117037D01*
X136611466Y-116168557D01*
X136767991Y-116252222D01*
X136803729Y-116281552D01*
X136905186Y-116364814D01*
X136988448Y-116466271D01*
X137017778Y-116502009D01*
X137101443Y-116658534D01*
X137152963Y-116828373D01*
X137170359Y-117005000D01*
X137152963Y-117181627D01*
X137101443Y-117351466D01*
X137017778Y-117507991D01*
X136988448Y-117543729D01*
X136905186Y-117645186D01*
X136803729Y-117728448D01*
X136767991Y-117757778D01*
X136611466Y-117841443D01*
X136441627Y-117892963D01*
X136375443Y-117899481D01*
X136309260Y-117906000D01*
X136220740Y-117906000D01*
X136154557Y-117899481D01*
X136088373Y-117892963D01*
X135918534Y-117841443D01*
X135762009Y-117757778D01*
X135726271Y-117728448D01*
X135624814Y-117645186D01*
X135541552Y-117543729D01*
X135512222Y-117507991D01*
X135428557Y-117351466D01*
X135377037Y-117181627D01*
X135359641Y-117005000D01*
X135377037Y-116828373D01*
X135428557Y-116658534D01*
X135512222Y-116502009D01*
X135541552Y-116466271D01*
X135624814Y-116364814D01*
X135726271Y-116281552D01*
X135762009Y-116252222D01*
X135918534Y-116168557D01*
X136088373Y-116117037D01*
X136154557Y-116110519D01*
X136220740Y-116104000D01*
X136309260Y-116104000D01*
X136375443Y-116110519D01*
X136375443Y-116110519D01*
G37*
G36*
X133835443Y-116110519D02*
G01*
X133901627Y-116117037D01*
X134071466Y-116168557D01*
X134227991Y-116252222D01*
X134263729Y-116281552D01*
X134365186Y-116364814D01*
X134448448Y-116466271D01*
X134477778Y-116502009D01*
X134561443Y-116658534D01*
X134612963Y-116828373D01*
X134630359Y-117005000D01*
X134612963Y-117181627D01*
X134561443Y-117351466D01*
X134477778Y-117507991D01*
X134448448Y-117543729D01*
X134365186Y-117645186D01*
X134263729Y-117728448D01*
X134227991Y-117757778D01*
X134071466Y-117841443D01*
X133901627Y-117892963D01*
X133835443Y-117899481D01*
X133769260Y-117906000D01*
X133680740Y-117906000D01*
X133614557Y-117899481D01*
X133548373Y-117892963D01*
X133378534Y-117841443D01*
X133222009Y-117757778D01*
X133186271Y-117728448D01*
X133084814Y-117645186D01*
X133001552Y-117543729D01*
X132972222Y-117507991D01*
X132888557Y-117351466D01*
X132837037Y-117181627D01*
X132819641Y-117005000D01*
X132837037Y-116828373D01*
X132888557Y-116658534D01*
X132972222Y-116502009D01*
X133001552Y-116466271D01*
X133084814Y-116364814D01*
X133186271Y-116281552D01*
X133222009Y-116252222D01*
X133378534Y-116168557D01*
X133548373Y-116117037D01*
X133614557Y-116110519D01*
X133680740Y-116104000D01*
X133769260Y-116104000D01*
X133835443Y-116110519D01*
X133835443Y-116110519D01*
G37*
G36*
X133835443Y-113570519D02*
G01*
X133901627Y-113577037D01*
X134071466Y-113628557D01*
X134227991Y-113712222D01*
X134263729Y-113741552D01*
X134365186Y-113824814D01*
X134448448Y-113926271D01*
X134477778Y-113962009D01*
X134561443Y-114118534D01*
X134612963Y-114288373D01*
X134630359Y-114465000D01*
X134612963Y-114641627D01*
X134561443Y-114811466D01*
X134477778Y-114967991D01*
X134448448Y-115003729D01*
X134365186Y-115105186D01*
X134263729Y-115188448D01*
X134227991Y-115217778D01*
X134071466Y-115301443D01*
X133901627Y-115352963D01*
X133835443Y-115359481D01*
X133769260Y-115366000D01*
X133680740Y-115366000D01*
X133614557Y-115359481D01*
X133548373Y-115352963D01*
X133378534Y-115301443D01*
X133222009Y-115217778D01*
X133186271Y-115188448D01*
X133084814Y-115105186D01*
X133001552Y-115003729D01*
X132972222Y-114967991D01*
X132888557Y-114811466D01*
X132837037Y-114641627D01*
X132819641Y-114465000D01*
X132837037Y-114288373D01*
X132888557Y-114118534D01*
X132972222Y-113962009D01*
X133001552Y-113926271D01*
X133084814Y-113824814D01*
X133186271Y-113741552D01*
X133222009Y-113712222D01*
X133378534Y-113628557D01*
X133548373Y-113577037D01*
X133614557Y-113570519D01*
X133680740Y-113564000D01*
X133769260Y-113564000D01*
X133835443Y-113570519D01*
X133835443Y-113570519D01*
G37*
G36*
X136375443Y-113570519D02*
G01*
X136441627Y-113577037D01*
X136611466Y-113628557D01*
X136767991Y-113712222D01*
X136803729Y-113741552D01*
X136905186Y-113824814D01*
X136988448Y-113926271D01*
X137017778Y-113962009D01*
X137101443Y-114118534D01*
X137152963Y-114288373D01*
X137170359Y-114465000D01*
X137152963Y-114641627D01*
X137101443Y-114811466D01*
X137017778Y-114967991D01*
X136988448Y-115003729D01*
X136905186Y-115105186D01*
X136803729Y-115188448D01*
X136767991Y-115217778D01*
X136611466Y-115301443D01*
X136441627Y-115352963D01*
X136375443Y-115359481D01*
X136309260Y-115366000D01*
X136220740Y-115366000D01*
X136154557Y-115359481D01*
X136088373Y-115352963D01*
X135918534Y-115301443D01*
X135762009Y-115217778D01*
X135726271Y-115188448D01*
X135624814Y-115105186D01*
X135541552Y-115003729D01*
X135512222Y-114967991D01*
X135428557Y-114811466D01*
X135377037Y-114641627D01*
X135359641Y-114465000D01*
X135377037Y-114288373D01*
X135428557Y-114118534D01*
X135512222Y-113962009D01*
X135541552Y-113926271D01*
X135624814Y-113824814D01*
X135726271Y-113741552D01*
X135762009Y-113712222D01*
X135918534Y-113628557D01*
X136088373Y-113577037D01*
X136154557Y-113570519D01*
X136220740Y-113564000D01*
X136309260Y-113564000D01*
X136375443Y-113570519D01*
X136375443Y-113570519D01*
G37*
G36*
X179073871Y-112944786D02*
G01*
X179279530Y-113007172D01*
X179469055Y-113108475D01*
X179469058Y-113108477D01*
X179469059Y-113108478D01*
X179635186Y-113244814D01*
X179771522Y-113410941D01*
X179771525Y-113410945D01*
X179872828Y-113600470D01*
X179935214Y-113806129D01*
X179956278Y-114020000D01*
X179935214Y-114233871D01*
X179872828Y-114439530D01*
X179771525Y-114629055D01*
X179771523Y-114629058D01*
X179771522Y-114629059D01*
X179635186Y-114795186D01*
X179469059Y-114931522D01*
X179469055Y-114931525D01*
X179279530Y-115032828D01*
X179073871Y-115095214D01*
X178913591Y-115111000D01*
X177286409Y-115111000D01*
X177126129Y-115095214D01*
X176920470Y-115032828D01*
X176730945Y-114931525D01*
X176730941Y-114931522D01*
X176564814Y-114795186D01*
X176428478Y-114629059D01*
X176428477Y-114629058D01*
X176428475Y-114629055D01*
X176327172Y-114439530D01*
X176264786Y-114233871D01*
X176243722Y-114020000D01*
X176264786Y-113806129D01*
X176327172Y-113600470D01*
X176428475Y-113410945D01*
X176428478Y-113410941D01*
X176564814Y-113244814D01*
X176730941Y-113108478D01*
X176730942Y-113108477D01*
X176730945Y-113108475D01*
X176920470Y-113007172D01*
X177126129Y-112944786D01*
X177286409Y-112929000D01*
X178913591Y-112929000D01*
X179073871Y-112944786D01*
X179073871Y-112944786D01*
G37*
G36*
X92873871Y-112944786D02*
G01*
X93079530Y-113007172D01*
X93269055Y-113108475D01*
X93269058Y-113108477D01*
X93269059Y-113108478D01*
X93435186Y-113244814D01*
X93571522Y-113410941D01*
X93571525Y-113410945D01*
X93672828Y-113600470D01*
X93735214Y-113806129D01*
X93756278Y-114020000D01*
X93735214Y-114233871D01*
X93672828Y-114439530D01*
X93571525Y-114629055D01*
X93571523Y-114629058D01*
X93571522Y-114629059D01*
X93435186Y-114795186D01*
X93269059Y-114931522D01*
X93269055Y-114931525D01*
X93079530Y-115032828D01*
X92873871Y-115095214D01*
X92713591Y-115111000D01*
X91086409Y-115111000D01*
X90926129Y-115095214D01*
X90720470Y-115032828D01*
X90530945Y-114931525D01*
X90530941Y-114931522D01*
X90364814Y-114795186D01*
X90228478Y-114629059D01*
X90228477Y-114629058D01*
X90228475Y-114629055D01*
X90127172Y-114439530D01*
X90064786Y-114233871D01*
X90043722Y-114020000D01*
X90064786Y-113806129D01*
X90127172Y-113600470D01*
X90228475Y-113410945D01*
X90228478Y-113410941D01*
X90364814Y-113244814D01*
X90530941Y-113108478D01*
X90530942Y-113108477D01*
X90530945Y-113108475D01*
X90720470Y-113007172D01*
X90926129Y-112944786D01*
X91086409Y-112929000D01*
X92713591Y-112929000D01*
X92873871Y-112944786D01*
X92873871Y-112944786D01*
G37*
G36*
X133835442Y-111030518D02*
G01*
X133901627Y-111037037D01*
X134071466Y-111088557D01*
X134227991Y-111172222D01*
X134263729Y-111201552D01*
X134365186Y-111284814D01*
X134448448Y-111386271D01*
X134477778Y-111422009D01*
X134561443Y-111578534D01*
X134612963Y-111748373D01*
X134630359Y-111925000D01*
X134612963Y-112101627D01*
X134561443Y-112271466D01*
X134477778Y-112427991D01*
X134448448Y-112463729D01*
X134365186Y-112565186D01*
X134263729Y-112648448D01*
X134227991Y-112677778D01*
X134071466Y-112761443D01*
X133901627Y-112812963D01*
X133835443Y-112819481D01*
X133769260Y-112826000D01*
X133680740Y-112826000D01*
X133614557Y-112819481D01*
X133548373Y-112812963D01*
X133378534Y-112761443D01*
X133222009Y-112677778D01*
X133186271Y-112648448D01*
X133084814Y-112565186D01*
X133001552Y-112463729D01*
X132972222Y-112427991D01*
X132888557Y-112271466D01*
X132837037Y-112101627D01*
X132819641Y-111925000D01*
X132837037Y-111748373D01*
X132888557Y-111578534D01*
X132972222Y-111422009D01*
X133001552Y-111386271D01*
X133084814Y-111284814D01*
X133186271Y-111201552D01*
X133222009Y-111172222D01*
X133378534Y-111088557D01*
X133548373Y-111037037D01*
X133614558Y-111030518D01*
X133680740Y-111024000D01*
X133769260Y-111024000D01*
X133835442Y-111030518D01*
X133835442Y-111030518D01*
G37*
G36*
X136375442Y-111030518D02*
G01*
X136441627Y-111037037D01*
X136611466Y-111088557D01*
X136767991Y-111172222D01*
X136803729Y-111201552D01*
X136905186Y-111284814D01*
X136988448Y-111386271D01*
X137017778Y-111422009D01*
X137101443Y-111578534D01*
X137152963Y-111748373D01*
X137170359Y-111925000D01*
X137152963Y-112101627D01*
X137101443Y-112271466D01*
X137017778Y-112427991D01*
X136988448Y-112463729D01*
X136905186Y-112565186D01*
X136803729Y-112648448D01*
X136767991Y-112677778D01*
X136611466Y-112761443D01*
X136441627Y-112812963D01*
X136375443Y-112819481D01*
X136309260Y-112826000D01*
X136220740Y-112826000D01*
X136154557Y-112819481D01*
X136088373Y-112812963D01*
X135918534Y-112761443D01*
X135762009Y-112677778D01*
X135726271Y-112648448D01*
X135624814Y-112565186D01*
X135541552Y-112463729D01*
X135512222Y-112427991D01*
X135428557Y-112271466D01*
X135377037Y-112101627D01*
X135359641Y-111925000D01*
X135377037Y-111748373D01*
X135428557Y-111578534D01*
X135512222Y-111422009D01*
X135541552Y-111386271D01*
X135624814Y-111284814D01*
X135726271Y-111201552D01*
X135762009Y-111172222D01*
X135918534Y-111088557D01*
X136088373Y-111037037D01*
X136154558Y-111030518D01*
X136220740Y-111024000D01*
X136309260Y-111024000D01*
X136375442Y-111030518D01*
X136375442Y-111030518D01*
G37*
G36*
X133835442Y-108490518D02*
G01*
X133901627Y-108497037D01*
X134071466Y-108548557D01*
X134227991Y-108632222D01*
X134263729Y-108661552D01*
X134365186Y-108744814D01*
X134448448Y-108846271D01*
X134477778Y-108882009D01*
X134561443Y-109038534D01*
X134612963Y-109208373D01*
X134630359Y-109385000D01*
X134612963Y-109561627D01*
X134561443Y-109731466D01*
X134477778Y-109887991D01*
X134448448Y-109923729D01*
X134365186Y-110025186D01*
X134263729Y-110108448D01*
X134227991Y-110137778D01*
X134071466Y-110221443D01*
X133901627Y-110272963D01*
X133835442Y-110279482D01*
X133769260Y-110286000D01*
X133680740Y-110286000D01*
X133614558Y-110279482D01*
X133548373Y-110272963D01*
X133378534Y-110221443D01*
X133222009Y-110137778D01*
X133186271Y-110108448D01*
X133084814Y-110025186D01*
X133001552Y-109923729D01*
X132972222Y-109887991D01*
X132888557Y-109731466D01*
X132837037Y-109561627D01*
X132819641Y-109385000D01*
X132837037Y-109208373D01*
X132888557Y-109038534D01*
X132972222Y-108882009D01*
X133001552Y-108846271D01*
X133084814Y-108744814D01*
X133186271Y-108661552D01*
X133222009Y-108632222D01*
X133378534Y-108548557D01*
X133548373Y-108497037D01*
X133614558Y-108490518D01*
X133680740Y-108484000D01*
X133769260Y-108484000D01*
X133835442Y-108490518D01*
X133835442Y-108490518D01*
G37*
G36*
X136375442Y-108490518D02*
G01*
X136441627Y-108497037D01*
X136611466Y-108548557D01*
X136767991Y-108632222D01*
X136803729Y-108661552D01*
X136905186Y-108744814D01*
X136988448Y-108846271D01*
X137017778Y-108882009D01*
X137101443Y-109038534D01*
X137152963Y-109208373D01*
X137170359Y-109385000D01*
X137152963Y-109561627D01*
X137101443Y-109731466D01*
X137017778Y-109887991D01*
X136988448Y-109923729D01*
X136905186Y-110025186D01*
X136803729Y-110108448D01*
X136767991Y-110137778D01*
X136611466Y-110221443D01*
X136441627Y-110272963D01*
X136375442Y-110279482D01*
X136309260Y-110286000D01*
X136220740Y-110286000D01*
X136154558Y-110279482D01*
X136088373Y-110272963D01*
X135918534Y-110221443D01*
X135762009Y-110137778D01*
X135726271Y-110108448D01*
X135624814Y-110025186D01*
X135541552Y-109923729D01*
X135512222Y-109887991D01*
X135428557Y-109731466D01*
X135377037Y-109561627D01*
X135359641Y-109385000D01*
X135377037Y-109208373D01*
X135428557Y-109038534D01*
X135512222Y-108882009D01*
X135541552Y-108846271D01*
X135624814Y-108744814D01*
X135726271Y-108661552D01*
X135762009Y-108632222D01*
X135918534Y-108548557D01*
X136088373Y-108497037D01*
X136154558Y-108490518D01*
X136220740Y-108484000D01*
X136309260Y-108484000D01*
X136375442Y-108490518D01*
X136375442Y-108490518D01*
G37*
G36*
X92873871Y-107864786D02*
G01*
X93079530Y-107927172D01*
X93269055Y-108028475D01*
X93269058Y-108028477D01*
X93269059Y-108028478D01*
X93435186Y-108164814D01*
X93571522Y-108330941D01*
X93571525Y-108330945D01*
X93672828Y-108520470D01*
X93735214Y-108726129D01*
X93756278Y-108940000D01*
X93735214Y-109153871D01*
X93672828Y-109359530D01*
X93571525Y-109549055D01*
X93571523Y-109549058D01*
X93571522Y-109549059D01*
X93435186Y-109715186D01*
X93269059Y-109851522D01*
X93269055Y-109851525D01*
X93079530Y-109952828D01*
X92873871Y-110015214D01*
X92713591Y-110031000D01*
X91086409Y-110031000D01*
X90926129Y-110015214D01*
X90720470Y-109952828D01*
X90530945Y-109851525D01*
X90530941Y-109851522D01*
X90364814Y-109715186D01*
X90228478Y-109549059D01*
X90228477Y-109549058D01*
X90228475Y-109549055D01*
X90127172Y-109359530D01*
X90064786Y-109153871D01*
X90043722Y-108940000D01*
X90064786Y-108726129D01*
X90127172Y-108520470D01*
X90228475Y-108330945D01*
X90228478Y-108330941D01*
X90364814Y-108164814D01*
X90530941Y-108028478D01*
X90530942Y-108028477D01*
X90530945Y-108028475D01*
X90720470Y-107927172D01*
X90926129Y-107864786D01*
X91086409Y-107849000D01*
X92713591Y-107849000D01*
X92873871Y-107864786D01*
X92873871Y-107864786D01*
G37*
G36*
X179073871Y-107864786D02*
G01*
X179279530Y-107927172D01*
X179469055Y-108028475D01*
X179469058Y-108028477D01*
X179469059Y-108028478D01*
X179635186Y-108164814D01*
X179771522Y-108330941D01*
X179771525Y-108330945D01*
X179872828Y-108520470D01*
X179935214Y-108726129D01*
X179956278Y-108940000D01*
X179935214Y-109153871D01*
X179872828Y-109359530D01*
X179771525Y-109549055D01*
X179771523Y-109549058D01*
X179771522Y-109549059D01*
X179635186Y-109715186D01*
X179469059Y-109851522D01*
X179469055Y-109851525D01*
X179279530Y-109952828D01*
X179073871Y-110015214D01*
X178913591Y-110031000D01*
X177286409Y-110031000D01*
X177126129Y-110015214D01*
X176920470Y-109952828D01*
X176730945Y-109851525D01*
X176730941Y-109851522D01*
X176564814Y-109715186D01*
X176428478Y-109549059D01*
X176428477Y-109549058D01*
X176428475Y-109549055D01*
X176327172Y-109359530D01*
X176264786Y-109153871D01*
X176243722Y-108940000D01*
X176264786Y-108726129D01*
X176327172Y-108520470D01*
X176428475Y-108330945D01*
X176428478Y-108330941D01*
X176564814Y-108164814D01*
X176730941Y-108028478D01*
X176730942Y-108028477D01*
X176730945Y-108028475D01*
X176920470Y-107927172D01*
X177126129Y-107864786D01*
X177286409Y-107849000D01*
X178913591Y-107849000D01*
X179073871Y-107864786D01*
X179073871Y-107864786D01*
G37*
G36*
X136375443Y-105950519D02*
G01*
X136441627Y-105957037D01*
X136611466Y-106008557D01*
X136767991Y-106092222D01*
X136803729Y-106121552D01*
X136905186Y-106204814D01*
X136988448Y-106306271D01*
X137017778Y-106342009D01*
X137101443Y-106498534D01*
X137152963Y-106668373D01*
X137170359Y-106845000D01*
X137152963Y-107021627D01*
X137101443Y-107191466D01*
X137017778Y-107347991D01*
X136988448Y-107383729D01*
X136905186Y-107485186D01*
X136803729Y-107568448D01*
X136767991Y-107597778D01*
X136611466Y-107681443D01*
X136441627Y-107732963D01*
X136375443Y-107739481D01*
X136309260Y-107746000D01*
X136220740Y-107746000D01*
X136154557Y-107739481D01*
X136088373Y-107732963D01*
X135918534Y-107681443D01*
X135762009Y-107597778D01*
X135726271Y-107568448D01*
X135624814Y-107485186D01*
X135541552Y-107383729D01*
X135512222Y-107347991D01*
X135428557Y-107191466D01*
X135377037Y-107021627D01*
X135359641Y-106845000D01*
X135377037Y-106668373D01*
X135428557Y-106498534D01*
X135512222Y-106342009D01*
X135541552Y-106306271D01*
X135624814Y-106204814D01*
X135726271Y-106121552D01*
X135762009Y-106092222D01*
X135918534Y-106008557D01*
X136088373Y-105957037D01*
X136154557Y-105950519D01*
X136220740Y-105944000D01*
X136309260Y-105944000D01*
X136375443Y-105950519D01*
X136375443Y-105950519D01*
G37*
G36*
X133835443Y-105950519D02*
G01*
X133901627Y-105957037D01*
X134071466Y-106008557D01*
X134227991Y-106092222D01*
X134263729Y-106121552D01*
X134365186Y-106204814D01*
X134448448Y-106306271D01*
X134477778Y-106342009D01*
X134561443Y-106498534D01*
X134612963Y-106668373D01*
X134630359Y-106845000D01*
X134612963Y-107021627D01*
X134561443Y-107191466D01*
X134477778Y-107347991D01*
X134448448Y-107383729D01*
X134365186Y-107485186D01*
X134263729Y-107568448D01*
X134227991Y-107597778D01*
X134071466Y-107681443D01*
X133901627Y-107732963D01*
X133835443Y-107739481D01*
X133769260Y-107746000D01*
X133680740Y-107746000D01*
X133614557Y-107739481D01*
X133548373Y-107732963D01*
X133378534Y-107681443D01*
X133222009Y-107597778D01*
X133186271Y-107568448D01*
X133084814Y-107485186D01*
X133001552Y-107383729D01*
X132972222Y-107347991D01*
X132888557Y-107191466D01*
X132837037Y-107021627D01*
X132819641Y-106845000D01*
X132837037Y-106668373D01*
X132888557Y-106498534D01*
X132972222Y-106342009D01*
X133001552Y-106306271D01*
X133084814Y-106204814D01*
X133186271Y-106121552D01*
X133222009Y-106092222D01*
X133378534Y-106008557D01*
X133548373Y-105957037D01*
X133614557Y-105950519D01*
X133680740Y-105944000D01*
X133769260Y-105944000D01*
X133835443Y-105950519D01*
X133835443Y-105950519D01*
G37*
G36*
X136375443Y-103410519D02*
G01*
X136441627Y-103417037D01*
X136611466Y-103468557D01*
X136767991Y-103552222D01*
X136803729Y-103581552D01*
X136905186Y-103664814D01*
X136988448Y-103766271D01*
X137017778Y-103802009D01*
X137101443Y-103958534D01*
X137152963Y-104128373D01*
X137170359Y-104305000D01*
X137152963Y-104481627D01*
X137101443Y-104651466D01*
X137017778Y-104807991D01*
X136988448Y-104843729D01*
X136905186Y-104945186D01*
X136803729Y-105028448D01*
X136767991Y-105057778D01*
X136611466Y-105141443D01*
X136441627Y-105192963D01*
X136375443Y-105199481D01*
X136309260Y-105206000D01*
X136220740Y-105206000D01*
X136154557Y-105199481D01*
X136088373Y-105192963D01*
X135918534Y-105141443D01*
X135762009Y-105057778D01*
X135726271Y-105028448D01*
X135624814Y-104945186D01*
X135541552Y-104843729D01*
X135512222Y-104807991D01*
X135428557Y-104651466D01*
X135377037Y-104481627D01*
X135359641Y-104305000D01*
X135377037Y-104128373D01*
X135428557Y-103958534D01*
X135512222Y-103802009D01*
X135541552Y-103766271D01*
X135624814Y-103664814D01*
X135726271Y-103581552D01*
X135762009Y-103552222D01*
X135918534Y-103468557D01*
X136088373Y-103417037D01*
X136154558Y-103410518D01*
X136220740Y-103404000D01*
X136309260Y-103404000D01*
X136375443Y-103410519D01*
X136375443Y-103410519D01*
G37*
G36*
X133835443Y-103410519D02*
G01*
X133901627Y-103417037D01*
X134071466Y-103468557D01*
X134227991Y-103552222D01*
X134263729Y-103581552D01*
X134365186Y-103664814D01*
X134448448Y-103766271D01*
X134477778Y-103802009D01*
X134561443Y-103958534D01*
X134612963Y-104128373D01*
X134630359Y-104305000D01*
X134612963Y-104481627D01*
X134561443Y-104651466D01*
X134477778Y-104807991D01*
X134448448Y-104843729D01*
X134365186Y-104945186D01*
X134263729Y-105028448D01*
X134227991Y-105057778D01*
X134071466Y-105141443D01*
X133901627Y-105192963D01*
X133835443Y-105199481D01*
X133769260Y-105206000D01*
X133680740Y-105206000D01*
X133614557Y-105199481D01*
X133548373Y-105192963D01*
X133378534Y-105141443D01*
X133222009Y-105057778D01*
X133186271Y-105028448D01*
X133084814Y-104945186D01*
X133001552Y-104843729D01*
X132972222Y-104807991D01*
X132888557Y-104651466D01*
X132837037Y-104481627D01*
X132819641Y-104305000D01*
X132837037Y-104128373D01*
X132888557Y-103958534D01*
X132972222Y-103802009D01*
X133001552Y-103766271D01*
X133084814Y-103664814D01*
X133186271Y-103581552D01*
X133222009Y-103552222D01*
X133378534Y-103468557D01*
X133548373Y-103417037D01*
X133614558Y-103410518D01*
X133680740Y-103404000D01*
X133769260Y-103404000D01*
X133835443Y-103410519D01*
X133835443Y-103410519D01*
G37*
G36*
X92873871Y-102784786D02*
G01*
X93079530Y-102847172D01*
X93269055Y-102948475D01*
X93269058Y-102948477D01*
X93269059Y-102948478D01*
X93435186Y-103084814D01*
X93571522Y-103250941D01*
X93571525Y-103250945D01*
X93672828Y-103440470D01*
X93735214Y-103646129D01*
X93756278Y-103860000D01*
X93735214Y-104073871D01*
X93672828Y-104279530D01*
X93571525Y-104469055D01*
X93571523Y-104469058D01*
X93571522Y-104469059D01*
X93435186Y-104635186D01*
X93269059Y-104771522D01*
X93269055Y-104771525D01*
X93079530Y-104872828D01*
X92873871Y-104935214D01*
X92713591Y-104951000D01*
X91086409Y-104951000D01*
X90926129Y-104935214D01*
X90720470Y-104872828D01*
X90530945Y-104771525D01*
X90530941Y-104771522D01*
X90364814Y-104635186D01*
X90228478Y-104469059D01*
X90228477Y-104469058D01*
X90228475Y-104469055D01*
X90127172Y-104279530D01*
X90064786Y-104073871D01*
X90043722Y-103860000D01*
X90064786Y-103646129D01*
X90127172Y-103440470D01*
X90228475Y-103250945D01*
X90228478Y-103250941D01*
X90364814Y-103084814D01*
X90530941Y-102948478D01*
X90530942Y-102948477D01*
X90530945Y-102948475D01*
X90720470Y-102847172D01*
X90926129Y-102784786D01*
X91086409Y-102769000D01*
X92713591Y-102769000D01*
X92873871Y-102784786D01*
X92873871Y-102784786D01*
G37*
G36*
X179073871Y-102784786D02*
G01*
X179279530Y-102847172D01*
X179469055Y-102948475D01*
X179469058Y-102948477D01*
X179469059Y-102948478D01*
X179635186Y-103084814D01*
X179771522Y-103250941D01*
X179771525Y-103250945D01*
X179872828Y-103440470D01*
X179935214Y-103646129D01*
X179956278Y-103860000D01*
X179935214Y-104073871D01*
X179872828Y-104279530D01*
X179771525Y-104469055D01*
X179771523Y-104469058D01*
X179771522Y-104469059D01*
X179635186Y-104635186D01*
X179469059Y-104771522D01*
X179469055Y-104771525D01*
X179279530Y-104872828D01*
X179073871Y-104935214D01*
X178913591Y-104951000D01*
X177286409Y-104951000D01*
X177126129Y-104935214D01*
X176920470Y-104872828D01*
X176730945Y-104771525D01*
X176730941Y-104771522D01*
X176564814Y-104635186D01*
X176428478Y-104469059D01*
X176428477Y-104469058D01*
X176428475Y-104469055D01*
X176327172Y-104279530D01*
X176264786Y-104073871D01*
X176243722Y-103860000D01*
X176264786Y-103646129D01*
X176327172Y-103440470D01*
X176428475Y-103250945D01*
X176428478Y-103250941D01*
X176564814Y-103084814D01*
X176730941Y-102948478D01*
X176730942Y-102948477D01*
X176730945Y-102948475D01*
X176920470Y-102847172D01*
X177126129Y-102784786D01*
X177286409Y-102769000D01*
X178913591Y-102769000D01*
X179073871Y-102784786D01*
X179073871Y-102784786D01*
G37*
G36*
X133835442Y-100870518D02*
G01*
X133901627Y-100877037D01*
X134071466Y-100928557D01*
X134227991Y-101012222D01*
X134263729Y-101041552D01*
X134365186Y-101124814D01*
X134448448Y-101226271D01*
X134477778Y-101262009D01*
X134561443Y-101418534D01*
X134612963Y-101588373D01*
X134630359Y-101765000D01*
X134612963Y-101941627D01*
X134561443Y-102111466D01*
X134477778Y-102267991D01*
X134448448Y-102303729D01*
X134365186Y-102405186D01*
X134263729Y-102488448D01*
X134227991Y-102517778D01*
X134071466Y-102601443D01*
X133901627Y-102652963D01*
X133835443Y-102659481D01*
X133769260Y-102666000D01*
X133680740Y-102666000D01*
X133614557Y-102659481D01*
X133548373Y-102652963D01*
X133378534Y-102601443D01*
X133222009Y-102517778D01*
X133186271Y-102488448D01*
X133084814Y-102405186D01*
X133001552Y-102303729D01*
X132972222Y-102267991D01*
X132888557Y-102111466D01*
X132837037Y-101941627D01*
X132819641Y-101765000D01*
X132837037Y-101588373D01*
X132888557Y-101418534D01*
X132972222Y-101262009D01*
X133001552Y-101226271D01*
X133084814Y-101124814D01*
X133186271Y-101041552D01*
X133222009Y-101012222D01*
X133378534Y-100928557D01*
X133548373Y-100877037D01*
X133614558Y-100870518D01*
X133680740Y-100864000D01*
X133769260Y-100864000D01*
X133835442Y-100870518D01*
X133835442Y-100870518D01*
G37*
G36*
X136375442Y-100870518D02*
G01*
X136441627Y-100877037D01*
X136611466Y-100928557D01*
X136767991Y-101012222D01*
X136803729Y-101041552D01*
X136905186Y-101124814D01*
X136988448Y-101226271D01*
X137017778Y-101262009D01*
X137101443Y-101418534D01*
X137152963Y-101588373D01*
X137170359Y-101765000D01*
X137152963Y-101941627D01*
X137101443Y-102111466D01*
X137017778Y-102267991D01*
X136988448Y-102303729D01*
X136905186Y-102405186D01*
X136803729Y-102488448D01*
X136767991Y-102517778D01*
X136611466Y-102601443D01*
X136441627Y-102652963D01*
X136375443Y-102659481D01*
X136309260Y-102666000D01*
X136220740Y-102666000D01*
X136154557Y-102659481D01*
X136088373Y-102652963D01*
X135918534Y-102601443D01*
X135762009Y-102517778D01*
X135726271Y-102488448D01*
X135624814Y-102405186D01*
X135541552Y-102303729D01*
X135512222Y-102267991D01*
X135428557Y-102111466D01*
X135377037Y-101941627D01*
X135359641Y-101765000D01*
X135377037Y-101588373D01*
X135428557Y-101418534D01*
X135512222Y-101262009D01*
X135541552Y-101226271D01*
X135624814Y-101124814D01*
X135726271Y-101041552D01*
X135762009Y-101012222D01*
X135918534Y-100928557D01*
X136088373Y-100877037D01*
X136154558Y-100870518D01*
X136220740Y-100864000D01*
X136309260Y-100864000D01*
X136375442Y-100870518D01*
X136375442Y-100870518D01*
G37*
G36*
X136375443Y-98330519D02*
G01*
X136441627Y-98337037D01*
X136611466Y-98388557D01*
X136767991Y-98472222D01*
X136803729Y-98501552D01*
X136905186Y-98584814D01*
X136988448Y-98686271D01*
X137017778Y-98722009D01*
X137101443Y-98878534D01*
X137152963Y-99048373D01*
X137170359Y-99225000D01*
X137152963Y-99401627D01*
X137101443Y-99571466D01*
X137017778Y-99727991D01*
X136988448Y-99763729D01*
X136905186Y-99865186D01*
X136803729Y-99948448D01*
X136767991Y-99977778D01*
X136611466Y-100061443D01*
X136441627Y-100112963D01*
X136375442Y-100119482D01*
X136309260Y-100126000D01*
X136220740Y-100126000D01*
X136154558Y-100119482D01*
X136088373Y-100112963D01*
X135918534Y-100061443D01*
X135762009Y-99977778D01*
X135726271Y-99948448D01*
X135624814Y-99865186D01*
X135541552Y-99763729D01*
X135512222Y-99727991D01*
X135428557Y-99571466D01*
X135377037Y-99401627D01*
X135359641Y-99225000D01*
X135377037Y-99048373D01*
X135428557Y-98878534D01*
X135512222Y-98722009D01*
X135541552Y-98686271D01*
X135624814Y-98584814D01*
X135726271Y-98501552D01*
X135762009Y-98472222D01*
X135918534Y-98388557D01*
X136088373Y-98337037D01*
X136154557Y-98330519D01*
X136220740Y-98324000D01*
X136309260Y-98324000D01*
X136375443Y-98330519D01*
X136375443Y-98330519D01*
G37*
G36*
X133835443Y-98330519D02*
G01*
X133901627Y-98337037D01*
X134071466Y-98388557D01*
X134227991Y-98472222D01*
X134263729Y-98501552D01*
X134365186Y-98584814D01*
X134448448Y-98686271D01*
X134477778Y-98722009D01*
X134561443Y-98878534D01*
X134612963Y-99048373D01*
X134630359Y-99225000D01*
X134612963Y-99401627D01*
X134561443Y-99571466D01*
X134477778Y-99727991D01*
X134448448Y-99763729D01*
X134365186Y-99865186D01*
X134263729Y-99948448D01*
X134227991Y-99977778D01*
X134071466Y-100061443D01*
X133901627Y-100112963D01*
X133835442Y-100119482D01*
X133769260Y-100126000D01*
X133680740Y-100126000D01*
X133614558Y-100119482D01*
X133548373Y-100112963D01*
X133378534Y-100061443D01*
X133222009Y-99977778D01*
X133186271Y-99948448D01*
X133084814Y-99865186D01*
X133001552Y-99763729D01*
X132972222Y-99727991D01*
X132888557Y-99571466D01*
X132837037Y-99401627D01*
X132819641Y-99225000D01*
X132837037Y-99048373D01*
X132888557Y-98878534D01*
X132972222Y-98722009D01*
X133001552Y-98686271D01*
X133084814Y-98584814D01*
X133186271Y-98501552D01*
X133222009Y-98472222D01*
X133378534Y-98388557D01*
X133548373Y-98337037D01*
X133614557Y-98330519D01*
X133680740Y-98324000D01*
X133769260Y-98324000D01*
X133835443Y-98330519D01*
X133835443Y-98330519D01*
G37*
G36*
X92873871Y-97704786D02*
G01*
X93079530Y-97767172D01*
X93269055Y-97868475D01*
X93269058Y-97868477D01*
X93269059Y-97868478D01*
X93435186Y-98004814D01*
X93571522Y-98170941D01*
X93571525Y-98170945D01*
X93672828Y-98360470D01*
X93735214Y-98566129D01*
X93756278Y-98780000D01*
X93735214Y-98993871D01*
X93672828Y-99199530D01*
X93571525Y-99389055D01*
X93571523Y-99389058D01*
X93571522Y-99389059D01*
X93435186Y-99555186D01*
X93269059Y-99691522D01*
X93269055Y-99691525D01*
X93079530Y-99792828D01*
X92873871Y-99855214D01*
X92713591Y-99871000D01*
X91086409Y-99871000D01*
X90926129Y-99855214D01*
X90720470Y-99792828D01*
X90530945Y-99691525D01*
X90530941Y-99691522D01*
X90364814Y-99555186D01*
X90228478Y-99389059D01*
X90228477Y-99389058D01*
X90228475Y-99389055D01*
X90127172Y-99199530D01*
X90064786Y-98993871D01*
X90043722Y-98780000D01*
X90064786Y-98566129D01*
X90127172Y-98360470D01*
X90228475Y-98170945D01*
X90228478Y-98170941D01*
X90364814Y-98004814D01*
X90530941Y-97868478D01*
X90530942Y-97868477D01*
X90530945Y-97868475D01*
X90720470Y-97767172D01*
X90926129Y-97704786D01*
X91086409Y-97689000D01*
X92713591Y-97689000D01*
X92873871Y-97704786D01*
X92873871Y-97704786D01*
G37*
G36*
X179073871Y-97704786D02*
G01*
X179279530Y-97767172D01*
X179469055Y-97868475D01*
X179469058Y-97868477D01*
X179469059Y-97868478D01*
X179635186Y-98004814D01*
X179771522Y-98170941D01*
X179771525Y-98170945D01*
X179872828Y-98360470D01*
X179935214Y-98566129D01*
X179956278Y-98780000D01*
X179935214Y-98993871D01*
X179872828Y-99199530D01*
X179771525Y-99389055D01*
X179771523Y-99389058D01*
X179771522Y-99389059D01*
X179635186Y-99555186D01*
X179469059Y-99691522D01*
X179469055Y-99691525D01*
X179279530Y-99792828D01*
X179073871Y-99855214D01*
X178913591Y-99871000D01*
X177286409Y-99871000D01*
X177126129Y-99855214D01*
X176920470Y-99792828D01*
X176730945Y-99691525D01*
X176730941Y-99691522D01*
X176564814Y-99555186D01*
X176428478Y-99389059D01*
X176428477Y-99389058D01*
X176428475Y-99389055D01*
X176327172Y-99199530D01*
X176264786Y-98993871D01*
X176243722Y-98780000D01*
X176264786Y-98566129D01*
X176327172Y-98360470D01*
X176428475Y-98170945D01*
X176428478Y-98170941D01*
X176564814Y-98004814D01*
X176730941Y-97868478D01*
X176730942Y-97868477D01*
X176730945Y-97868475D01*
X176920470Y-97767172D01*
X177126129Y-97704786D01*
X177286409Y-97689000D01*
X178913591Y-97689000D01*
X179073871Y-97704786D01*
X179073871Y-97704786D01*
G37*
G36*
X133835443Y-95790519D02*
G01*
X133901627Y-95797037D01*
X134071466Y-95848557D01*
X134227991Y-95932222D01*
X134263729Y-95961552D01*
X134365186Y-96044814D01*
X134448448Y-96146271D01*
X134477778Y-96182009D01*
X134561443Y-96338534D01*
X134612963Y-96508373D01*
X134630359Y-96685000D01*
X134612963Y-96861627D01*
X134561443Y-97031466D01*
X134477778Y-97187991D01*
X134448448Y-97223729D01*
X134365186Y-97325186D01*
X134263729Y-97408448D01*
X134227991Y-97437778D01*
X134071466Y-97521443D01*
X133901627Y-97572963D01*
X133835442Y-97579482D01*
X133769260Y-97586000D01*
X133680740Y-97586000D01*
X133614558Y-97579482D01*
X133548373Y-97572963D01*
X133378534Y-97521443D01*
X133222009Y-97437778D01*
X133186271Y-97408448D01*
X133084814Y-97325186D01*
X133001552Y-97223729D01*
X132972222Y-97187991D01*
X132888557Y-97031466D01*
X132837037Y-96861627D01*
X132819641Y-96685000D01*
X132837037Y-96508373D01*
X132888557Y-96338534D01*
X132972222Y-96182009D01*
X133001552Y-96146271D01*
X133084814Y-96044814D01*
X133186271Y-95961552D01*
X133222009Y-95932222D01*
X133378534Y-95848557D01*
X133548373Y-95797037D01*
X133614557Y-95790519D01*
X133680740Y-95784000D01*
X133769260Y-95784000D01*
X133835443Y-95790519D01*
X133835443Y-95790519D01*
G37*
G36*
X136375443Y-95790519D02*
G01*
X136441627Y-95797037D01*
X136611466Y-95848557D01*
X136767991Y-95932222D01*
X136803729Y-95961552D01*
X136905186Y-96044814D01*
X136988448Y-96146271D01*
X137017778Y-96182009D01*
X137101443Y-96338534D01*
X137152963Y-96508373D01*
X137170359Y-96685000D01*
X137152963Y-96861627D01*
X137101443Y-97031466D01*
X137017778Y-97187991D01*
X136988448Y-97223729D01*
X136905186Y-97325186D01*
X136803729Y-97408448D01*
X136767991Y-97437778D01*
X136611466Y-97521443D01*
X136441627Y-97572963D01*
X136375442Y-97579482D01*
X136309260Y-97586000D01*
X136220740Y-97586000D01*
X136154558Y-97579482D01*
X136088373Y-97572963D01*
X135918534Y-97521443D01*
X135762009Y-97437778D01*
X135726271Y-97408448D01*
X135624814Y-97325186D01*
X135541552Y-97223729D01*
X135512222Y-97187991D01*
X135428557Y-97031466D01*
X135377037Y-96861627D01*
X135359641Y-96685000D01*
X135377037Y-96508373D01*
X135428557Y-96338534D01*
X135512222Y-96182009D01*
X135541552Y-96146271D01*
X135624814Y-96044814D01*
X135726271Y-95961552D01*
X135762009Y-95932222D01*
X135918534Y-95848557D01*
X136088373Y-95797037D01*
X136154557Y-95790519D01*
X136220740Y-95784000D01*
X136309260Y-95784000D01*
X136375443Y-95790519D01*
X136375443Y-95790519D01*
G37*
G36*
X134626000Y-95046000D02*
G01*
X132824000Y-95046000D01*
X132824000Y-93244000D01*
X134626000Y-93244000D01*
X134626000Y-95046000D01*
X134626000Y-95046000D01*
G37*
G36*
X136375442Y-93250518D02*
G01*
X136441627Y-93257037D01*
X136611466Y-93308557D01*
X136767991Y-93392222D01*
X136803729Y-93421552D01*
X136905186Y-93504814D01*
X136988448Y-93606271D01*
X137017778Y-93642009D01*
X137101443Y-93798534D01*
X137152963Y-93968373D01*
X137170359Y-94145000D01*
X137152963Y-94321627D01*
X137101443Y-94491466D01*
X137017778Y-94647991D01*
X136988448Y-94683729D01*
X136905186Y-94785186D01*
X136803729Y-94868448D01*
X136767991Y-94897778D01*
X136611466Y-94981443D01*
X136441627Y-95032963D01*
X136375442Y-95039482D01*
X136309260Y-95046000D01*
X136220740Y-95046000D01*
X136154558Y-95039482D01*
X136088373Y-95032963D01*
X135918534Y-94981443D01*
X135762009Y-94897778D01*
X135726271Y-94868448D01*
X135624814Y-94785186D01*
X135541552Y-94683729D01*
X135512222Y-94647991D01*
X135428557Y-94491466D01*
X135377037Y-94321627D01*
X135359641Y-94145000D01*
X135377037Y-93968373D01*
X135428557Y-93798534D01*
X135512222Y-93642009D01*
X135541552Y-93606271D01*
X135624814Y-93504814D01*
X135726271Y-93421552D01*
X135762009Y-93392222D01*
X135918534Y-93308557D01*
X136088373Y-93257037D01*
X136154558Y-93250518D01*
X136220740Y-93244000D01*
X136309260Y-93244000D01*
X136375442Y-93250518D01*
X136375442Y-93250518D01*
G37*
G36*
X179073871Y-92624786D02*
G01*
X179279530Y-92687172D01*
X179469055Y-92788475D01*
X179469058Y-92788477D01*
X179469059Y-92788478D01*
X179635186Y-92924814D01*
X179771522Y-93090941D01*
X179771525Y-93090945D01*
X179872828Y-93280470D01*
X179935214Y-93486129D01*
X179956278Y-93700000D01*
X179935214Y-93913871D01*
X179872828Y-94119530D01*
X179771525Y-94309055D01*
X179771523Y-94309058D01*
X179771522Y-94309059D01*
X179635186Y-94475186D01*
X179469059Y-94611522D01*
X179469055Y-94611525D01*
X179279530Y-94712828D01*
X179073871Y-94775214D01*
X178913591Y-94791000D01*
X177286409Y-94791000D01*
X177126129Y-94775214D01*
X176920470Y-94712828D01*
X176730945Y-94611525D01*
X176730941Y-94611522D01*
X176564814Y-94475186D01*
X176428478Y-94309059D01*
X176428477Y-94309058D01*
X176428475Y-94309055D01*
X176327172Y-94119530D01*
X176264786Y-93913871D01*
X176243722Y-93700000D01*
X176264786Y-93486129D01*
X176327172Y-93280470D01*
X176428475Y-93090945D01*
X176428478Y-93090941D01*
X176564814Y-92924814D01*
X176730941Y-92788478D01*
X176730942Y-92788477D01*
X176730945Y-92788475D01*
X176920470Y-92687172D01*
X177126129Y-92624786D01*
X177286409Y-92609000D01*
X178913591Y-92609000D01*
X179073871Y-92624786D01*
X179073871Y-92624786D01*
G37*
G36*
X92873871Y-92624786D02*
G01*
X93079530Y-92687172D01*
X93269055Y-92788475D01*
X93269058Y-92788477D01*
X93269059Y-92788478D01*
X93435186Y-92924814D01*
X93571522Y-93090941D01*
X93571525Y-93090945D01*
X93672828Y-93280470D01*
X93735214Y-93486129D01*
X93756278Y-93700000D01*
X93735214Y-93913871D01*
X93672828Y-94119530D01*
X93571525Y-94309055D01*
X93571523Y-94309058D01*
X93571522Y-94309059D01*
X93435186Y-94475186D01*
X93269059Y-94611522D01*
X93269055Y-94611525D01*
X93079530Y-94712828D01*
X92873871Y-94775214D01*
X92713591Y-94791000D01*
X91086409Y-94791000D01*
X90926129Y-94775214D01*
X90720470Y-94712828D01*
X90530945Y-94611525D01*
X90530941Y-94611522D01*
X90364814Y-94475186D01*
X90228478Y-94309059D01*
X90228477Y-94309058D01*
X90228475Y-94309055D01*
X90127172Y-94119530D01*
X90064786Y-93913871D01*
X90043722Y-93700000D01*
X90064786Y-93486129D01*
X90127172Y-93280470D01*
X90228475Y-93090945D01*
X90228478Y-93090941D01*
X90364814Y-92924814D01*
X90530941Y-92788478D01*
X90530942Y-92788477D01*
X90530945Y-92788475D01*
X90720470Y-92687172D01*
X90926129Y-92624786D01*
X91086409Y-92609000D01*
X92713591Y-92609000D01*
X92873871Y-92624786D01*
X92873871Y-92624786D01*
G37*
G36*
X179073871Y-87544786D02*
G01*
X179279530Y-87607172D01*
X179469055Y-87708475D01*
X179469058Y-87708477D01*
X179469059Y-87708478D01*
X179635186Y-87844814D01*
X179771522Y-88010941D01*
X179771525Y-88010945D01*
X179872828Y-88200470D01*
X179935214Y-88406129D01*
X179956278Y-88620000D01*
X179935214Y-88833871D01*
X179872828Y-89039530D01*
X179771525Y-89229055D01*
X179771523Y-89229058D01*
X179771522Y-89229059D01*
X179635186Y-89395186D01*
X179469059Y-89531522D01*
X179469055Y-89531525D01*
X179279530Y-89632828D01*
X179073871Y-89695214D01*
X178913591Y-89711000D01*
X177286409Y-89711000D01*
X177126129Y-89695214D01*
X176920470Y-89632828D01*
X176730945Y-89531525D01*
X176730941Y-89531522D01*
X176564814Y-89395186D01*
X176428478Y-89229059D01*
X176428477Y-89229058D01*
X176428475Y-89229055D01*
X176327172Y-89039530D01*
X176264786Y-88833871D01*
X176243722Y-88620000D01*
X176264786Y-88406129D01*
X176327172Y-88200470D01*
X176428475Y-88010945D01*
X176428478Y-88010941D01*
X176564814Y-87844814D01*
X176730941Y-87708478D01*
X176730942Y-87708477D01*
X176730945Y-87708475D01*
X176920470Y-87607172D01*
X177126129Y-87544786D01*
X177286409Y-87529000D01*
X178913591Y-87529000D01*
X179073871Y-87544786D01*
X179073871Y-87544786D01*
G37*
G36*
X92873871Y-87544786D02*
G01*
X93079530Y-87607172D01*
X93269055Y-87708475D01*
X93269058Y-87708477D01*
X93269059Y-87708478D01*
X93435186Y-87844814D01*
X93571522Y-88010941D01*
X93571525Y-88010945D01*
X93672828Y-88200470D01*
X93735214Y-88406129D01*
X93756278Y-88620000D01*
X93735214Y-88833871D01*
X93672828Y-89039530D01*
X93571525Y-89229055D01*
X93571523Y-89229058D01*
X93571522Y-89229059D01*
X93435186Y-89395186D01*
X93269059Y-89531522D01*
X93269055Y-89531525D01*
X93079530Y-89632828D01*
X92873871Y-89695214D01*
X92713591Y-89711000D01*
X91086409Y-89711000D01*
X90926129Y-89695214D01*
X90720470Y-89632828D01*
X90530945Y-89531525D01*
X90530941Y-89531522D01*
X90364814Y-89395186D01*
X90228478Y-89229059D01*
X90228477Y-89229058D01*
X90228475Y-89229055D01*
X90127172Y-89039530D01*
X90064786Y-88833871D01*
X90043722Y-88620000D01*
X90064786Y-88406129D01*
X90127172Y-88200470D01*
X90228475Y-88010945D01*
X90228478Y-88010941D01*
X90364814Y-87844814D01*
X90530941Y-87708478D01*
X90530942Y-87708477D01*
X90530945Y-87708475D01*
X90720470Y-87607172D01*
X90926129Y-87544786D01*
X91086409Y-87529000D01*
X92713591Y-87529000D01*
X92873871Y-87544786D01*
X92873871Y-87544786D01*
G37*
G36*
X92873871Y-82464786D02*
G01*
X93079530Y-82527172D01*
X93269055Y-82628475D01*
X93269058Y-82628477D01*
X93269059Y-82628478D01*
X93435186Y-82764814D01*
X93571522Y-82930941D01*
X93571525Y-82930945D01*
X93672828Y-83120470D01*
X93735214Y-83326129D01*
X93756278Y-83540000D01*
X93735214Y-83753871D01*
X93672828Y-83959530D01*
X93571525Y-84149055D01*
X93571523Y-84149058D01*
X93571522Y-84149059D01*
X93435186Y-84315186D01*
X93269059Y-84451522D01*
X93269055Y-84451525D01*
X93079530Y-84552828D01*
X92873871Y-84615214D01*
X92713591Y-84631000D01*
X91086409Y-84631000D01*
X90926129Y-84615214D01*
X90720470Y-84552828D01*
X90530945Y-84451525D01*
X90530941Y-84451522D01*
X90364814Y-84315186D01*
X90228478Y-84149059D01*
X90228477Y-84149058D01*
X90228475Y-84149055D01*
X90127172Y-83959530D01*
X90064786Y-83753871D01*
X90043722Y-83540000D01*
X90064786Y-83326129D01*
X90127172Y-83120470D01*
X90228475Y-82930945D01*
X90228478Y-82930941D01*
X90364814Y-82764814D01*
X90530941Y-82628478D01*
X90530942Y-82628477D01*
X90530945Y-82628475D01*
X90720470Y-82527172D01*
X90926129Y-82464786D01*
X91086409Y-82449000D01*
X92713591Y-82449000D01*
X92873871Y-82464786D01*
X92873871Y-82464786D01*
G37*
G36*
X179073871Y-82464786D02*
G01*
X179279530Y-82527172D01*
X179469055Y-82628475D01*
X179469058Y-82628477D01*
X179469059Y-82628478D01*
X179635186Y-82764814D01*
X179771522Y-82930941D01*
X179771525Y-82930945D01*
X179872828Y-83120470D01*
X179935214Y-83326129D01*
X179956278Y-83540000D01*
X179935214Y-83753871D01*
X179872828Y-83959530D01*
X179771525Y-84149055D01*
X179771523Y-84149058D01*
X179771522Y-84149059D01*
X179635186Y-84315186D01*
X179469059Y-84451522D01*
X179469055Y-84451525D01*
X179279530Y-84552828D01*
X179073871Y-84615214D01*
X178913591Y-84631000D01*
X177286409Y-84631000D01*
X177126129Y-84615214D01*
X176920470Y-84552828D01*
X176730945Y-84451525D01*
X176730941Y-84451522D01*
X176564814Y-84315186D01*
X176428478Y-84149059D01*
X176428477Y-84149058D01*
X176428475Y-84149055D01*
X176327172Y-83959530D01*
X176264786Y-83753871D01*
X176243722Y-83540000D01*
X176264786Y-83326129D01*
X176327172Y-83120470D01*
X176428475Y-82930945D01*
X176428478Y-82930941D01*
X176564814Y-82764814D01*
X176730941Y-82628478D01*
X176730942Y-82628477D01*
X176730945Y-82628475D01*
X176920470Y-82527172D01*
X177126129Y-82464786D01*
X177286409Y-82449000D01*
X178913591Y-82449000D01*
X179073871Y-82464786D01*
X179073871Y-82464786D01*
G37*
G36*
X179073871Y-77384786D02*
G01*
X179279530Y-77447172D01*
X179469055Y-77548475D01*
X179469058Y-77548477D01*
X179469059Y-77548478D01*
X179635186Y-77684814D01*
X179771522Y-77850941D01*
X179771525Y-77850945D01*
X179872828Y-78040470D01*
X179935214Y-78246129D01*
X179956278Y-78460000D01*
X179935214Y-78673871D01*
X179872828Y-78879530D01*
X179771525Y-79069055D01*
X179771523Y-79069058D01*
X179771522Y-79069059D01*
X179635186Y-79235186D01*
X179469059Y-79371522D01*
X179469055Y-79371525D01*
X179279530Y-79472828D01*
X179073871Y-79535214D01*
X178913591Y-79551000D01*
X177286409Y-79551000D01*
X177126129Y-79535214D01*
X176920470Y-79472828D01*
X176730945Y-79371525D01*
X176730941Y-79371522D01*
X176564814Y-79235186D01*
X176428478Y-79069059D01*
X176428477Y-79069058D01*
X176428475Y-79069055D01*
X176327172Y-78879530D01*
X176264786Y-78673871D01*
X176243722Y-78460000D01*
X176264786Y-78246129D01*
X176327172Y-78040470D01*
X176428475Y-77850945D01*
X176428478Y-77850941D01*
X176564814Y-77684814D01*
X176730941Y-77548478D01*
X176730942Y-77548477D01*
X176730945Y-77548475D01*
X176920470Y-77447172D01*
X177126129Y-77384786D01*
X177286409Y-77369000D01*
X178913591Y-77369000D01*
X179073871Y-77384786D01*
X179073871Y-77384786D01*
G37*
G36*
X92873871Y-77384786D02*
G01*
X93079530Y-77447172D01*
X93269055Y-77548475D01*
X93269058Y-77548477D01*
X93269059Y-77548478D01*
X93435186Y-77684814D01*
X93571522Y-77850941D01*
X93571525Y-77850945D01*
X93672828Y-78040470D01*
X93735214Y-78246129D01*
X93756278Y-78460000D01*
X93735214Y-78673871D01*
X93672828Y-78879530D01*
X93571525Y-79069055D01*
X93571523Y-79069058D01*
X93571522Y-79069059D01*
X93435186Y-79235186D01*
X93269059Y-79371522D01*
X93269055Y-79371525D01*
X93079530Y-79472828D01*
X92873871Y-79535214D01*
X92713591Y-79551000D01*
X91086409Y-79551000D01*
X90926129Y-79535214D01*
X90720470Y-79472828D01*
X90530945Y-79371525D01*
X90530941Y-79371522D01*
X90364814Y-79235186D01*
X90228478Y-79069059D01*
X90228477Y-79069058D01*
X90228475Y-79069055D01*
X90127172Y-78879530D01*
X90064786Y-78673871D01*
X90043722Y-78460000D01*
X90064786Y-78246129D01*
X90127172Y-78040470D01*
X90228475Y-77850945D01*
X90228478Y-77850941D01*
X90364814Y-77684814D01*
X90530941Y-77548478D01*
X90530942Y-77548477D01*
X90530945Y-77548475D01*
X90720470Y-77447172D01*
X90926129Y-77384786D01*
X91086409Y-77369000D01*
X92713591Y-77369000D01*
X92873871Y-77384786D01*
X92873871Y-77384786D01*
G37*
G36*
X92873871Y-72304786D02*
G01*
X93079530Y-72367172D01*
X93269055Y-72468475D01*
X93269058Y-72468477D01*
X93269059Y-72468478D01*
X93435186Y-72604814D01*
X93571522Y-72770941D01*
X93571525Y-72770945D01*
X93672828Y-72960470D01*
X93735214Y-73166129D01*
X93756278Y-73380000D01*
X93735214Y-73593871D01*
X93672828Y-73799530D01*
X93571525Y-73989055D01*
X93571523Y-73989058D01*
X93571522Y-73989059D01*
X93435186Y-74155186D01*
X93269059Y-74291522D01*
X93269055Y-74291525D01*
X93079530Y-74392828D01*
X92873871Y-74455214D01*
X92713591Y-74471000D01*
X91086409Y-74471000D01*
X90926129Y-74455214D01*
X90720470Y-74392828D01*
X90530945Y-74291525D01*
X90530941Y-74291522D01*
X90364814Y-74155186D01*
X90228478Y-73989059D01*
X90228477Y-73989058D01*
X90228475Y-73989055D01*
X90127172Y-73799530D01*
X90064786Y-73593871D01*
X90043722Y-73380000D01*
X90064786Y-73166129D01*
X90127172Y-72960470D01*
X90228475Y-72770945D01*
X90228478Y-72770941D01*
X90364814Y-72604814D01*
X90530941Y-72468478D01*
X90530942Y-72468477D01*
X90530945Y-72468475D01*
X90720470Y-72367172D01*
X90926129Y-72304786D01*
X91086409Y-72289000D01*
X92713591Y-72289000D01*
X92873871Y-72304786D01*
X92873871Y-72304786D01*
G37*
G36*
X179073871Y-72304786D02*
G01*
X179279530Y-72367172D01*
X179469055Y-72468475D01*
X179469058Y-72468477D01*
X179469059Y-72468478D01*
X179635186Y-72604814D01*
X179771522Y-72770941D01*
X179771525Y-72770945D01*
X179872828Y-72960470D01*
X179935214Y-73166129D01*
X179956278Y-73380000D01*
X179935214Y-73593871D01*
X179872828Y-73799530D01*
X179771525Y-73989055D01*
X179771523Y-73989058D01*
X179771522Y-73989059D01*
X179635186Y-74155186D01*
X179469059Y-74291522D01*
X179469055Y-74291525D01*
X179279530Y-74392828D01*
X179073871Y-74455214D01*
X178913591Y-74471000D01*
X177286409Y-74471000D01*
X177126129Y-74455214D01*
X176920470Y-74392828D01*
X176730945Y-74291525D01*
X176730941Y-74291522D01*
X176564814Y-74155186D01*
X176428478Y-73989059D01*
X176428477Y-73989058D01*
X176428475Y-73989055D01*
X176327172Y-73799530D01*
X176264786Y-73593871D01*
X176243722Y-73380000D01*
X176264786Y-73166129D01*
X176327172Y-72960470D01*
X176428475Y-72770945D01*
X176428478Y-72770941D01*
X176564814Y-72604814D01*
X176730941Y-72468478D01*
X176730942Y-72468477D01*
X176730945Y-72468475D01*
X176920470Y-72367172D01*
X177126129Y-72304786D01*
X177286409Y-72289000D01*
X178913591Y-72289000D01*
X179073871Y-72304786D01*
X179073871Y-72304786D01*
G37*
G36*
X92873871Y-67224786D02*
G01*
X93079530Y-67287172D01*
X93269055Y-67388475D01*
X93269058Y-67388477D01*
X93269059Y-67388478D01*
X93435186Y-67524814D01*
X93571522Y-67690941D01*
X93571525Y-67690945D01*
X93672828Y-67880470D01*
X93735214Y-68086129D01*
X93756278Y-68300000D01*
X93735214Y-68513871D01*
X93672828Y-68719530D01*
X93571525Y-68909055D01*
X93571523Y-68909058D01*
X93571522Y-68909059D01*
X93435186Y-69075186D01*
X93269059Y-69211522D01*
X93269055Y-69211525D01*
X93079530Y-69312828D01*
X92873871Y-69375214D01*
X92713591Y-69391000D01*
X91086409Y-69391000D01*
X90926129Y-69375214D01*
X90720470Y-69312828D01*
X90530945Y-69211525D01*
X90530941Y-69211522D01*
X90364814Y-69075186D01*
X90228478Y-68909059D01*
X90228477Y-68909058D01*
X90228475Y-68909055D01*
X90127172Y-68719530D01*
X90064786Y-68513871D01*
X90043722Y-68300000D01*
X90064786Y-68086129D01*
X90127172Y-67880470D01*
X90228475Y-67690945D01*
X90228478Y-67690941D01*
X90364814Y-67524814D01*
X90530941Y-67388478D01*
X90530942Y-67388477D01*
X90530945Y-67388475D01*
X90720470Y-67287172D01*
X90926129Y-67224786D01*
X91086409Y-67209000D01*
X92713591Y-67209000D01*
X92873871Y-67224786D01*
X92873871Y-67224786D01*
G37*
G36*
X179073871Y-67224786D02*
G01*
X179279530Y-67287172D01*
X179469055Y-67388475D01*
X179469058Y-67388477D01*
X179469059Y-67388478D01*
X179635186Y-67524814D01*
X179771522Y-67690941D01*
X179771525Y-67690945D01*
X179872828Y-67880470D01*
X179935214Y-68086129D01*
X179956278Y-68300000D01*
X179935214Y-68513871D01*
X179872828Y-68719530D01*
X179771525Y-68909055D01*
X179771523Y-68909058D01*
X179771522Y-68909059D01*
X179635186Y-69075186D01*
X179469059Y-69211522D01*
X179469055Y-69211525D01*
X179279530Y-69312828D01*
X179073871Y-69375214D01*
X178913591Y-69391000D01*
X177286409Y-69391000D01*
X177126129Y-69375214D01*
X176920470Y-69312828D01*
X176730945Y-69211525D01*
X176730941Y-69211522D01*
X176564814Y-69075186D01*
X176428478Y-68909059D01*
X176428477Y-68909058D01*
X176428475Y-68909055D01*
X176327172Y-68719530D01*
X176264786Y-68513871D01*
X176243722Y-68300000D01*
X176264786Y-68086129D01*
X176327172Y-67880470D01*
X176428475Y-67690945D01*
X176428478Y-67690941D01*
X176564814Y-67524814D01*
X176730941Y-67388478D01*
X176730942Y-67388477D01*
X176730945Y-67388475D01*
X176920470Y-67287172D01*
X177126129Y-67224786D01*
X177286409Y-67209000D01*
X178913591Y-67209000D01*
X179073871Y-67224786D01*
X179073871Y-67224786D01*
G37*
G36*
X179073871Y-62144786D02*
G01*
X179279530Y-62207172D01*
X179469055Y-62308475D01*
X179469058Y-62308477D01*
X179469059Y-62308478D01*
X179635186Y-62444814D01*
X179771522Y-62610941D01*
X179771525Y-62610945D01*
X179872828Y-62800470D01*
X179935214Y-63006129D01*
X179956278Y-63220000D01*
X179935214Y-63433871D01*
X179872828Y-63639530D01*
X179771525Y-63829055D01*
X179771523Y-63829058D01*
X179771522Y-63829059D01*
X179635186Y-63995186D01*
X179469059Y-64131522D01*
X179469055Y-64131525D01*
X179279530Y-64232828D01*
X179073871Y-64295214D01*
X178913591Y-64311000D01*
X177286409Y-64311000D01*
X177126129Y-64295214D01*
X176920470Y-64232828D01*
X176730945Y-64131525D01*
X176730941Y-64131522D01*
X176564814Y-63995186D01*
X176428478Y-63829059D01*
X176428477Y-63829058D01*
X176428475Y-63829055D01*
X176327172Y-63639530D01*
X176264786Y-63433871D01*
X176243722Y-63220000D01*
X176264786Y-63006129D01*
X176327172Y-62800470D01*
X176428475Y-62610945D01*
X176428478Y-62610941D01*
X176564814Y-62444814D01*
X176730941Y-62308478D01*
X176730942Y-62308477D01*
X176730945Y-62308475D01*
X176920470Y-62207172D01*
X177126129Y-62144786D01*
X177286409Y-62129000D01*
X178913591Y-62129000D01*
X179073871Y-62144786D01*
X179073871Y-62144786D01*
G37*
G36*
X92873871Y-62144786D02*
G01*
X93079530Y-62207172D01*
X93269055Y-62308475D01*
X93269058Y-62308477D01*
X93269059Y-62308478D01*
X93435186Y-62444814D01*
X93571522Y-62610941D01*
X93571525Y-62610945D01*
X93672828Y-62800470D01*
X93735214Y-63006129D01*
X93756278Y-63220000D01*
X93735214Y-63433871D01*
X93672828Y-63639530D01*
X93571525Y-63829055D01*
X93571523Y-63829058D01*
X93571522Y-63829059D01*
X93435186Y-63995186D01*
X93269059Y-64131522D01*
X93269055Y-64131525D01*
X93079530Y-64232828D01*
X92873871Y-64295214D01*
X92713591Y-64311000D01*
X91086409Y-64311000D01*
X90926129Y-64295214D01*
X90720470Y-64232828D01*
X90530945Y-64131525D01*
X90530941Y-64131522D01*
X90364814Y-63995186D01*
X90228478Y-63829059D01*
X90228477Y-63829058D01*
X90228475Y-63829055D01*
X90127172Y-63639530D01*
X90064786Y-63433871D01*
X90043722Y-63220000D01*
X90064786Y-63006129D01*
X90127172Y-62800470D01*
X90228475Y-62610945D01*
X90228478Y-62610941D01*
X90364814Y-62444814D01*
X90530941Y-62308478D01*
X90530942Y-62308477D01*
X90530945Y-62308475D01*
X90720470Y-62207172D01*
X90926129Y-62144786D01*
X91086409Y-62129000D01*
X92713591Y-62129000D01*
X92873871Y-62144786D01*
X92873871Y-62144786D01*
G37*
G36*
X179073871Y-57064786D02*
G01*
X179279530Y-57127172D01*
X179469055Y-57228475D01*
X179469058Y-57228477D01*
X179469059Y-57228478D01*
X179635186Y-57364814D01*
X179771522Y-57530941D01*
X179771525Y-57530945D01*
X179872828Y-57720470D01*
X179935214Y-57926129D01*
X179956278Y-58140000D01*
X179935214Y-58353871D01*
X179872828Y-58559530D01*
X179771525Y-58749055D01*
X179771523Y-58749058D01*
X179771522Y-58749059D01*
X179635186Y-58915186D01*
X179469059Y-59051522D01*
X179469055Y-59051525D01*
X179279530Y-59152828D01*
X179073871Y-59215214D01*
X178913591Y-59231000D01*
X177286409Y-59231000D01*
X177126129Y-59215214D01*
X176920470Y-59152828D01*
X176730945Y-59051525D01*
X176730941Y-59051522D01*
X176564814Y-58915186D01*
X176428478Y-58749059D01*
X176428477Y-58749058D01*
X176428475Y-58749055D01*
X176327172Y-58559530D01*
X176264786Y-58353871D01*
X176243722Y-58140000D01*
X176264786Y-57926129D01*
X176327172Y-57720470D01*
X176428475Y-57530945D01*
X176428478Y-57530941D01*
X176564814Y-57364814D01*
X176730941Y-57228478D01*
X176730942Y-57228477D01*
X176730945Y-57228475D01*
X176920470Y-57127172D01*
X177126129Y-57064786D01*
X177286409Y-57049000D01*
X178913591Y-57049000D01*
X179073871Y-57064786D01*
X179073871Y-57064786D01*
G37*
G36*
X92873871Y-57064786D02*
G01*
X93079530Y-57127172D01*
X93269055Y-57228475D01*
X93269058Y-57228477D01*
X93269059Y-57228478D01*
X93435186Y-57364814D01*
X93571522Y-57530941D01*
X93571525Y-57530945D01*
X93672828Y-57720470D01*
X93735214Y-57926129D01*
X93756278Y-58140000D01*
X93735214Y-58353871D01*
X93672828Y-58559530D01*
X93571525Y-58749055D01*
X93571523Y-58749058D01*
X93571522Y-58749059D01*
X93435186Y-58915186D01*
X93269059Y-59051522D01*
X93269055Y-59051525D01*
X93079530Y-59152828D01*
X92873871Y-59215214D01*
X92713591Y-59231000D01*
X91086409Y-59231000D01*
X90926129Y-59215214D01*
X90720470Y-59152828D01*
X90530945Y-59051525D01*
X90530941Y-59051522D01*
X90364814Y-58915186D01*
X90228478Y-58749059D01*
X90228477Y-58749058D01*
X90228475Y-58749055D01*
X90127172Y-58559530D01*
X90064786Y-58353871D01*
X90043722Y-58140000D01*
X90064786Y-57926129D01*
X90127172Y-57720470D01*
X90228475Y-57530945D01*
X90228478Y-57530941D01*
X90364814Y-57364814D01*
X90530941Y-57228478D01*
X90530942Y-57228477D01*
X90530945Y-57228475D01*
X90720470Y-57127172D01*
X90926129Y-57064786D01*
X91086409Y-57049000D01*
X92713591Y-57049000D01*
X92873871Y-57064786D01*
X92873871Y-57064786D01*
G37*
G36*
X179073871Y-51984786D02*
G01*
X179279530Y-52047172D01*
X179469055Y-52148475D01*
X179469058Y-52148477D01*
X179469059Y-52148478D01*
X179635186Y-52284814D01*
X179771522Y-52450941D01*
X179771525Y-52450945D01*
X179872828Y-52640470D01*
X179935214Y-52846129D01*
X179956278Y-53060000D01*
X179935214Y-53273871D01*
X179872828Y-53479530D01*
X179771525Y-53669055D01*
X179771523Y-53669058D01*
X179771522Y-53669059D01*
X179635186Y-53835186D01*
X179469059Y-53971522D01*
X179469055Y-53971525D01*
X179279530Y-54072828D01*
X179073871Y-54135214D01*
X178913591Y-54151000D01*
X177286409Y-54151000D01*
X177126129Y-54135214D01*
X176920470Y-54072828D01*
X176730945Y-53971525D01*
X176730941Y-53971522D01*
X176564814Y-53835186D01*
X176428478Y-53669059D01*
X176428477Y-53669058D01*
X176428475Y-53669055D01*
X176327172Y-53479530D01*
X176264786Y-53273871D01*
X176243722Y-53060000D01*
X176264786Y-52846129D01*
X176327172Y-52640470D01*
X176428475Y-52450945D01*
X176428478Y-52450941D01*
X176564814Y-52284814D01*
X176730941Y-52148478D01*
X176730942Y-52148477D01*
X176730945Y-52148475D01*
X176920470Y-52047172D01*
X177126129Y-51984786D01*
X177286409Y-51969000D01*
X178913591Y-51969000D01*
X179073871Y-51984786D01*
X179073871Y-51984786D01*
G37*
G36*
X92873871Y-51984786D02*
G01*
X93079530Y-52047172D01*
X93269055Y-52148475D01*
X93269058Y-52148477D01*
X93269059Y-52148478D01*
X93435186Y-52284814D01*
X93571522Y-52450941D01*
X93571525Y-52450945D01*
X93672828Y-52640470D01*
X93735214Y-52846129D01*
X93756278Y-53060000D01*
X93735214Y-53273871D01*
X93672828Y-53479530D01*
X93571525Y-53669055D01*
X93571523Y-53669058D01*
X93571522Y-53669059D01*
X93435186Y-53835186D01*
X93269059Y-53971522D01*
X93269055Y-53971525D01*
X93079530Y-54072828D01*
X92873871Y-54135214D01*
X92713591Y-54151000D01*
X91086409Y-54151000D01*
X90926129Y-54135214D01*
X90720470Y-54072828D01*
X90530945Y-53971525D01*
X90530941Y-53971522D01*
X90364814Y-53835186D01*
X90228478Y-53669059D01*
X90228477Y-53669058D01*
X90228475Y-53669055D01*
X90127172Y-53479530D01*
X90064786Y-53273871D01*
X90043722Y-53060000D01*
X90064786Y-52846129D01*
X90127172Y-52640470D01*
X90228475Y-52450945D01*
X90228478Y-52450941D01*
X90364814Y-52284814D01*
X90530941Y-52148478D01*
X90530942Y-52148477D01*
X90530945Y-52148475D01*
X90720470Y-52047172D01*
X90926129Y-51984786D01*
X91086409Y-51969000D01*
X92713591Y-51969000D01*
X92873871Y-51984786D01*
X92873871Y-51984786D01*
G37*
G36*
X179073871Y-46904786D02*
G01*
X179279530Y-46967172D01*
X179469055Y-47068475D01*
X179469058Y-47068477D01*
X179469059Y-47068478D01*
X179635186Y-47204814D01*
X179771522Y-47370941D01*
X179771525Y-47370945D01*
X179872828Y-47560470D01*
X179935214Y-47766129D01*
X179956278Y-47980000D01*
X179935214Y-48193871D01*
X179872828Y-48399530D01*
X179771525Y-48589055D01*
X179771523Y-48589058D01*
X179771522Y-48589059D01*
X179635186Y-48755186D01*
X179469059Y-48891522D01*
X179469055Y-48891525D01*
X179279530Y-48992828D01*
X179073871Y-49055214D01*
X178913591Y-49071000D01*
X177286409Y-49071000D01*
X177126129Y-49055214D01*
X176920470Y-48992828D01*
X176730945Y-48891525D01*
X176730941Y-48891522D01*
X176564814Y-48755186D01*
X176428478Y-48589059D01*
X176428477Y-48589058D01*
X176428475Y-48589055D01*
X176327172Y-48399530D01*
X176264786Y-48193871D01*
X176243722Y-47980000D01*
X176264786Y-47766129D01*
X176327172Y-47560470D01*
X176428475Y-47370945D01*
X176428478Y-47370941D01*
X176564814Y-47204814D01*
X176730941Y-47068478D01*
X176730942Y-47068477D01*
X176730945Y-47068475D01*
X176920470Y-46967172D01*
X177126129Y-46904786D01*
X177286409Y-46889000D01*
X178913591Y-46889000D01*
X179073871Y-46904786D01*
X179073871Y-46904786D01*
G37*
G36*
X92873871Y-46904786D02*
G01*
X93079530Y-46967172D01*
X93269055Y-47068475D01*
X93269058Y-47068477D01*
X93269059Y-47068478D01*
X93435186Y-47204814D01*
X93571522Y-47370941D01*
X93571525Y-47370945D01*
X93672828Y-47560470D01*
X93735214Y-47766129D01*
X93756278Y-47980000D01*
X93735214Y-48193871D01*
X93672828Y-48399530D01*
X93571525Y-48589055D01*
X93571523Y-48589058D01*
X93571522Y-48589059D01*
X93435186Y-48755186D01*
X93269059Y-48891522D01*
X93269055Y-48891525D01*
X93079530Y-48992828D01*
X92873871Y-49055214D01*
X92713591Y-49071000D01*
X91086409Y-49071000D01*
X90926129Y-49055214D01*
X90720470Y-48992828D01*
X90530945Y-48891525D01*
X90530941Y-48891522D01*
X90364814Y-48755186D01*
X90228478Y-48589059D01*
X90228477Y-48589058D01*
X90228475Y-48589055D01*
X90127172Y-48399530D01*
X90064786Y-48193871D01*
X90043722Y-47980000D01*
X90064786Y-47766129D01*
X90127172Y-47560470D01*
X90228475Y-47370945D01*
X90228478Y-47370941D01*
X90364814Y-47204814D01*
X90530941Y-47068478D01*
X90530942Y-47068477D01*
X90530945Y-47068475D01*
X90720470Y-46967172D01*
X90926129Y-46904786D01*
X91086409Y-46889000D01*
X92713591Y-46889000D01*
X92873871Y-46904786D01*
X92873871Y-46904786D01*
G37*
G36*
X179073871Y-41824786D02*
G01*
X179184780Y-41858430D01*
X179275054Y-41885814D01*
X179279530Y-41887172D01*
X179469055Y-41988475D01*
X179469058Y-41988477D01*
X179469059Y-41988478D01*
X179635186Y-42124814D01*
X179771522Y-42290941D01*
X179771525Y-42290945D01*
X179872828Y-42480470D01*
X179935214Y-42686129D01*
X179956278Y-42900000D01*
X179935214Y-43113871D01*
X179872828Y-43319530D01*
X179771525Y-43509055D01*
X179771523Y-43509058D01*
X179771522Y-43509059D01*
X179635186Y-43675186D01*
X179507583Y-43779906D01*
X179469055Y-43811525D01*
X179279530Y-43912828D01*
X179279527Y-43912829D01*
X179268058Y-43916308D01*
X179073871Y-43975214D01*
X178913591Y-43991000D01*
X177286409Y-43991000D01*
X177126129Y-43975214D01*
X176931942Y-43916308D01*
X176920473Y-43912829D01*
X176920470Y-43912828D01*
X176730945Y-43811525D01*
X176692417Y-43779906D01*
X176564814Y-43675186D01*
X176428478Y-43509059D01*
X176428477Y-43509058D01*
X176428475Y-43509055D01*
X176327172Y-43319530D01*
X176264786Y-43113871D01*
X176243722Y-42900000D01*
X176264786Y-42686129D01*
X176327172Y-42480470D01*
X176428475Y-42290945D01*
X176428478Y-42290941D01*
X176564814Y-42124814D01*
X176730941Y-41988478D01*
X176730942Y-41988477D01*
X176730945Y-41988475D01*
X176920470Y-41887172D01*
X176924947Y-41885814D01*
X177015220Y-41858430D01*
X177126129Y-41824786D01*
X177286409Y-41809000D01*
X178913591Y-41809000D01*
X179073871Y-41824786D01*
X179073871Y-41824786D01*
G37*
G36*
X93616217Y-41812808D02*
G01*
X93647489Y-41822294D01*
X93676308Y-41837698D01*
X93701570Y-41858430D01*
X93722302Y-41883692D01*
X93737706Y-41912511D01*
X93747192Y-41943783D01*
X93751000Y-41982448D01*
X93751000Y-43817552D01*
X93747192Y-43856217D01*
X93737706Y-43887489D01*
X93722302Y-43916308D01*
X93701570Y-43941570D01*
X93676308Y-43962302D01*
X93647489Y-43977706D01*
X93616217Y-43987192D01*
X93577552Y-43991000D01*
X90222448Y-43991000D01*
X90183783Y-43987192D01*
X90152511Y-43977706D01*
X90123692Y-43962302D01*
X90098430Y-43941570D01*
X90077698Y-43916308D01*
X90062294Y-43887489D01*
X90052808Y-43856217D01*
X90049000Y-43817552D01*
X90049000Y-41982448D01*
X90052808Y-41943783D01*
X90062294Y-41912511D01*
X90077698Y-41883692D01*
X90098430Y-41858430D01*
X90123692Y-41837698D01*
X90152511Y-41822294D01*
X90183783Y-41812808D01*
X90222448Y-41809000D01*
X93577552Y-41809000D01*
X93616217Y-41812808D01*
X93616217Y-41812808D01*
G37*
G36*
X94048156Y-31172794D02*
G01*
X94769140Y-31316206D01*
X95560972Y-31644193D01*
X96273601Y-32120357D01*
X96879643Y-32726399D01*
X97355807Y-33439028D01*
X97683794Y-34230860D01*
X97851000Y-35071464D01*
X97851000Y-35928536D01*
X97683794Y-36769140D01*
X97355807Y-37560972D01*
X96879643Y-38273601D01*
X96273601Y-38879643D01*
X95560972Y-39355807D01*
X94769140Y-39683794D01*
X94048156Y-39827206D01*
X93928537Y-39851000D01*
X93071463Y-39851000D01*
X92951844Y-39827206D01*
X92230860Y-39683794D01*
X91439028Y-39355807D01*
X90726399Y-38879643D01*
X90120357Y-38273601D01*
X89644193Y-37560972D01*
X89316206Y-36769140D01*
X89149000Y-35928536D01*
X89149000Y-35071464D01*
X89316206Y-34230860D01*
X89644193Y-33439028D01*
X90120357Y-32726399D01*
X90726399Y-32120357D01*
X91439028Y-31644193D01*
X92230860Y-31316206D01*
X92951844Y-31172794D01*
X93071463Y-31149000D01*
X93928537Y-31149000D01*
X94048156Y-31172794D01*
X94048156Y-31172794D01*
G37*
G36*
X177048156Y-31172794D02*
G01*
X177769140Y-31316206D01*
X178560972Y-31644193D01*
X179273601Y-32120357D01*
X179879643Y-32726399D01*
X180355807Y-33439028D01*
X180683794Y-34230860D01*
X180851000Y-35071464D01*
X180851000Y-35928536D01*
X180683794Y-36769140D01*
X180355807Y-37560972D01*
X179879643Y-38273601D01*
X179273601Y-38879643D01*
X178560972Y-39355807D01*
X177769140Y-39683794D01*
X177048156Y-39827206D01*
X176928537Y-39851000D01*
X176071463Y-39851000D01*
X175951844Y-39827206D01*
X175230860Y-39683794D01*
X174439028Y-39355807D01*
X173726399Y-38879643D01*
X173120357Y-38273601D01*
X172644193Y-37560972D01*
X172316206Y-36769140D01*
X172149000Y-35928536D01*
X172149000Y-35071464D01*
X172316206Y-34230860D01*
X172644193Y-33439028D01*
X173120357Y-32726399D01*
X173726399Y-32120357D01*
X174439028Y-31644193D01*
X175230860Y-31316206D01*
X175951844Y-31172794D01*
X176071463Y-31149000D01*
X176928537Y-31149000D01*
X177048156Y-31172794D01*
X177048156Y-31172794D01*
G37*
M02*
